<?xml version="1.0" encoding="UTF-8" ?>
<!DOCTYPE svg PUBLIC "-//W3C//DTD SVG 1.1//EN" "http://www.w3.org/Graphics/SVG/1.1/DTD/svg11.dtd">
<svg width="100" height="100" xmlns="http://www.w3.org/2000/svg" version="1.1">
  <rect x="0" y="0" width="100" height="100" fill="rgb(240, 248, 255)" fill-opacity="0.23"/>
  <circle cx="8" cy="68" r="9" stroke="rgb(240, 248, 255)" fill="rgb(240, 248, 255)" fill-opacity="0.11"/>
  <circle cx="4" cy="18" r="11" stroke="rgb(240, 248, 255)" fill="rgb(240, 248, 255)" fill-opacity="0.43"/>
  <circle cx="73" cy="40" r="2" stroke="rgb(240, 248, 255)" fill="rgb(240, 248, 255)" fill-opacity="0.65"/>
  <circle cx="76" cy="88" r="6" stroke="rgb(240, 248, 255)" fill="rgb(240, 248, 255)" fill-opacity="0.57"/>
  <circle cx="98" cy="45" r="3" stroke="rgb(240, 248, 255)" fill="rgb(240, 248, 255)" fill-opacity="0.64"/>
  <circle cx="72" cy="83" r="3" stroke="rgb(240, 248, 255)" fill="rgb(240, 248, 255)" fill-opacity="0.95"/>
  <circle cx="74" cy="97" r="16" stroke="rgb(240, 248, 255)" fill="rgb(240, 248, 255)" fill-opacity="0.0"/>
  <rect x="58" y="75" width="8" height="26" stroke="rgb(240, 248, 255)" fill="rgb(240, 248, 255)" fill-opacity="0.44"/>
  <rect x="34" y="76" width="36" height="22" stroke="rgb(240, 248, 255)" fill="rgb(240, 248, 255)" fill-opacity="0.67"/>
  <circle cx="78" cy="36" r="14" stroke="rgb(240, 248, 255)" fill="rgb(240, 248, 255)" fill-opacity="0.11"/>
  <rect x="55" y="5" width="23" height="22" stroke="rgb(240, 248, 255)" fill="rgb(240, 248, 255)" fill-opacity="0.28"/>
  <circle cx="65" cy="45" r="17" stroke="rgb(240, 248, 255)" fill="rgb(240, 248, 255)" fill-opacity="0.73"/>
  <circle cx="68" cy="6" r="5" stroke="rgb(240, 248, 255)" fill="rgb(240, 248, 255)" fill-opacity="0.8100000000000001"/>
  <circle cx="65" cy="90" r="6" stroke="rgb(240, 248, 255)" fill="rgb(240, 248, 255)" fill-opacity="0.27"/>
  <rect x="19" y="59" width="16" height="30" stroke="rgb(240, 248, 255)" fill="rgb(240, 248, 255)" fill-opacity="0.37"/>
  <circle cx="55" cy="57" r="4" stroke="rgb(240, 248, 255)" fill="rgb(240, 248, 255)" fill-opacity="0.58"/>
  <rect x="99" y="53" width="6" height="20" stroke="rgb(240, 248, 255)" fill="rgb(240, 248, 255)" fill-opacity="0.37"/>
  <rect x="49" y="58" width="31" height="29" stroke="rgb(240, 248, 255)" fill="rgb(240, 248, 255)" fill-opacity="0.95"/>
  <rect x="18" y="19" width="0" height="5" stroke="rgb(240, 248, 255)" fill="rgb(240, 248, 255)" fill-opacity="0.45"/>
  <circle cx="50" cy="69" r="14" stroke="rgb(240, 248, 255)" fill="rgb(240, 248, 255)" fill-opacity="0.24"/>
  <circle cx="9" cy="73" r="4" stroke="rgb(240, 248, 255)" fill="rgb(240, 248, 255)" fill-opacity="0.45"/>
</svg>
