<?xml version="1.0" encoding="UTF-8" ?>
<!DOCTYPE svg PUBLIC "-//W3C//DTD SVG 1.1//EN" "http://www.w3.org/Graphics/SVG/1.1/DTD/svg11.dtd">
<svg width="100" height="100" xmlns="http://www.w3.org/2000/svg" version="1.1">
  <rect x="0" y="0" width="100" height="100" fill="rgb(250, 235, 215)" fill-opacity="0.57"/>
  <rect x="43" y="15" width="7" height="9" stroke="rgb(250, 235, 215)" fill="rgb(250, 235, 215)" fill-opacity="0.19"/>
  <rect x="39" y="95" width="11" height="0" stroke="rgb(250, 235, 215)" fill="rgb(250, 235, 215)" fill-opacity="0.43"/>
  <circle cx="12" cy="23" r="6" stroke="rgb(250, 235, 215)" fill="rgb(250, 235, 215)" fill-opacity="0.32"/>
  <rect x="89" y="85" width="36" height="34" stroke="rgb(250, 235, 215)" fill="rgb(250, 235, 215)" fill-opacity="0.33"/>
  <circle cx="28" cy="92" r="14" stroke="rgb(250, 235, 215)" fill="rgb(250, 235, 215)" fill-opacity="0.49"/>
  <rect x="14" y="28" width="9" height="26" stroke="rgb(250, 235, 215)" fill="rgb(250, 235, 215)" fill-opacity="0.95"/>
  <circle cx="33" cy="11" r="12" stroke="rgb(250, 235, 215)" fill="rgb(250, 235, 215)" fill-opacity="0.27"/>
  <rect x="86" y="6" width="0" height="0" stroke="rgb(250, 235, 215)" fill="rgb(250, 235, 215)" fill-opacity="0.13"/>
  <circle cx="96" cy="87" r="1" stroke="rgb(250, 235, 215)" fill="rgb(250, 235, 215)" fill-opacity="0.99"/>
  <circle cx="73" cy="19" r="16" stroke="rgb(250, 235, 215)" fill="rgb(250, 235, 215)" fill-opacity="0.08"/>
  <rect x="90" y="51" width="33" height="13" stroke="rgb(250, 235, 215)" fill="rgb(250, 235, 215)" fill-opacity="0.53"/>
  <circle cx="68" cy="21" r="7" stroke="rgb(250, 235, 215)" fill="rgb(250, 235, 215)" fill-opacity="0.63"/>
  <circle cx="70" cy="48" r="6" stroke="rgb(250, 235, 215)" fill="rgb(250, 235, 215)" fill-opacity="0.17"/>
  <circle cx="97" cy="24" r="9" stroke="rgb(250, 235, 215)" fill="rgb(250, 235, 215)" fill-opacity="0.38"/>
  <rect x="14" y="93" width="29" height="37" stroke="rgb(250, 235, 215)" fill="rgb(250, 235, 215)" fill-opacity="0.72"/>
  <rect x="85" y="98" width="15" height="17" stroke="rgb(250, 235, 215)" fill="rgb(250, 235, 215)" fill-opacity="0.15"/>
  <circle cx="23" cy="31" r="8" stroke="rgb(250, 235, 215)" fill="rgb(250, 235, 215)" fill-opacity="0.37"/>
  <circle cx="45" cy="51" r="13" stroke="rgb(250, 235, 215)" fill="rgb(250, 235, 215)" fill-opacity="0.41"/>
  <rect x="5" y="47" width="26" height="32" stroke="rgb(250, 235, 215)" fill="rgb(250, 235, 215)" fill-opacity="0.22"/>
  <circle cx="43" cy="88" r="12" stroke="rgb(250, 235, 215)" fill="rgb(250, 235, 215)" fill-opacity="0.71"/>
  <circle cx="27" cy="50" r="9" stroke="rgb(250, 235, 215)" fill="rgb(250, 235, 215)" fill-opacity="0.5"/>
</svg>
