<?xml version="1.0" encoding="UTF-8" ?>
<!DOCTYPE svg PUBLIC "-//W3C//DTD SVG 1.1//EN" "http://www.w3.org/Graphics/SVG/1.1/DTD/svg11.dtd">
<svg width="100" height="100" xmlns="http://www.w3.org/2000/svg" version="1.1">
  <rect x="0" y="0" width="100" height="100" fill="rgb(0, 255, 255)" fill-opacity="0.61"/>
  <circle cx="53" cy="48" r="7" stroke="rgb(0, 255, 255)" fill="rgb(0, 255, 255)" fill-opacity="0.78"/>
  <rect x="98" y="85" width="39" height="25" stroke="rgb(0, 255, 255)" fill="rgb(0, 255, 255)" fill-opacity="0.99"/>
  <rect x="79" y="48" width="25" height="4" stroke="rgb(0, 255, 255)" fill="rgb(0, 255, 255)" fill-opacity="0.17"/>
  <rect x="56" y="70" width="11" height="1" stroke="rgb(0, 255, 255)" fill="rgb(0, 255, 255)" fill-opacity="0.83"/>
  <circle cx="84" cy="45" r="10" stroke="rgb(0, 255, 255)" fill="rgb(0, 255, 255)" fill-opacity="0.33"/>
  <circle cx="43" cy="80" r="15" stroke="rgb(0, 255, 255)" fill="rgb(0, 255, 255)" fill-opacity="0.1"/>
  <rect x="23" y="40" width="11" height="28" stroke="rgb(0, 255, 255)" fill="rgb(0, 255, 255)" fill-opacity="0.1"/>
  <circle cx="32" cy="41" r="1" stroke="rgb(0, 255, 255)" fill="rgb(0, 255, 255)" fill-opacity="0.74"/>
  <circle cx="40" cy="65" r="18" stroke="rgb(0, 255, 255)" fill="rgb(0, 255, 255)" fill-opacity="0.84"/>
  <circle cx="80" cy="48" r="2" stroke="rgb(0, 255, 255)" fill="rgb(0, 255, 255)" fill-opacity="0.82"/>
  <rect x="85" y="52" width="23" height="35" stroke="rgb(0, 255, 255)" fill="rgb(0, 255, 255)" fill-opacity="0.52"/>
  <rect x="7" y="100" width="3" height="37" stroke="rgb(0, 255, 255)" fill="rgb(0, 255, 255)" fill-opacity="0.32"/>
  <rect x="29" y="78" width="1" height="22" stroke="rgb(0, 255, 255)" fill="rgb(0, 255, 255)" fill-opacity="0.41"/>
  <circle cx="86" cy="37" r="4" stroke="rgb(0, 255, 255)" fill="rgb(0, 255, 255)" fill-opacity="0.71"/>
  <rect x="4" y="49" width="1" height="22" stroke="rgb(0, 255, 255)" fill="rgb(0, 255, 255)" fill-opacity="0.77"/>
  <circle cx="83" cy="38" r="6" stroke="rgb(0, 255, 255)" fill="rgb(0, 255, 255)" fill-opacity="0.57"/>
  <rect x="18" y="80" width="34" height="36" stroke="rgb(0, 255, 255)" fill="rgb(0, 255, 255)" fill-opacity="0.88"/>
  <circle cx="83" cy="87" r="14" stroke="rgb(0, 255, 255)" fill="rgb(0, 255, 255)" fill-opacity="0.52"/>
  <circle cx="41" cy="11" r="10" stroke="rgb(0, 255, 255)" fill="rgb(0, 255, 255)" fill-opacity="0.58"/>
  <circle cx="9" cy="63" r="10" stroke="rgb(0, 255, 255)" fill="rgb(0, 255, 255)" fill-opacity="0.03"/>
  <circle cx="97" cy="67" r="5" stroke="rgb(0, 255, 255)" fill="rgb(0, 255, 255)" fill-opacity="0.57"/>
</svg>
