<?xml version="1.0" encoding="UTF-8" ?>
<!DOCTYPE svg PUBLIC "-//W3C//DTD SVG 1.1//EN" "http://www.w3.org/Graphics/SVG/1.1/DTD/svg11.dtd">
<svg width="100" height="100" xmlns="http://www.w3.org/2000/svg" version="1.1">
  <rect x="0" y="0" width="100" height="100" fill="rgb(127, 255, 212)" fill-opacity="0.51"/>
  <rect x="24" y="70" width="34" height="11" stroke="rgb(127, 255, 212)" fill="rgb(127, 255, 212)" fill-opacity="0.27"/>
  <rect x="54" y="20" width="27" height="23" stroke="rgb(127, 255, 212)" fill="rgb(127, 255, 212)" fill-opacity="0.86"/>
  <circle cx="64" cy="29" r="11" stroke="rgb(127, 255, 212)" fill="rgb(127, 255, 212)" fill-opacity="0.97"/>
  <circle cx="41" cy="26" r="3" stroke="rgb(127, 255, 212)" fill="rgb(127, 255, 212)" fill-opacity="0.49"/>
  <circle cx="95" cy="14" r="6" stroke="rgb(127, 255, 212)" fill="rgb(127, 255, 212)" fill-opacity="0.57"/>
  <rect x="60" y="23" width="35" height="24" stroke="rgb(127, 255, 212)" fill="rgb(127, 255, 212)" fill-opacity="0.54"/>
  <circle cx="2" cy="12" r="7" stroke="rgb(127, 255, 212)" fill="rgb(127, 255, 212)" fill-opacity="0.42"/>
  <rect x="14" y="17" width="22" height="8" stroke="rgb(127, 255, 212)" fill="rgb(127, 255, 212)" fill-opacity="0.9399999999999999"/>
  <rect x="7" y="21" width="6" height="30" stroke="rgb(127, 255, 212)" fill="rgb(127, 255, 212)" fill-opacity="0.59"/>
  <circle cx="21" cy="40" r="17" stroke="rgb(127, 255, 212)" fill="rgb(127, 255, 212)" fill-opacity="0.24"/>
  <rect x="35" y="37" width="37" height="11" stroke="rgb(127, 255, 212)" fill="rgb(127, 255, 212)" fill-opacity="0.72"/>
  <rect x="82" y="71" width="19" height="2" stroke="rgb(127, 255, 212)" fill="rgb(127, 255, 212)" fill-opacity="0.39"/>
  <rect x="12" y="42" width="4" height="10" stroke="rgb(127, 255, 212)" fill="rgb(127, 255, 212)" fill-opacity="0.57"/>
  <circle cx="16" cy="71" r="9" stroke="rgb(127, 255, 212)" fill="rgb(127, 255, 212)" fill-opacity="0.73"/>
  <circle cx="91" cy="94" r="14" stroke="rgb(127, 255, 212)" fill="rgb(127, 255, 212)" fill-opacity="0.05"/>
  <rect x="100" y="20" width="31" height="25" stroke="rgb(127, 255, 212)" fill="rgb(127, 255, 212)" fill-opacity="0.49"/>
  <circle cx="77" cy="62" r="20" stroke="rgb(127, 255, 212)" fill="rgb(127, 255, 212)" fill-opacity="0.06"/>
  <circle cx="24" cy="60" r="16" stroke="rgb(127, 255, 212)" fill="rgb(127, 255, 212)" fill-opacity="0.53"/>
  <circle cx="29" cy="75" r="19" stroke="rgb(127, 255, 212)" fill="rgb(127, 255, 212)" fill-opacity="0.92"/>
  <rect x="53" y="81" width="26" height="34" stroke="rgb(127, 255, 212)" fill="rgb(127, 255, 212)" fill-opacity="0.82"/>
  <rect x="69" y="50" width="4" height="40" stroke="rgb(127, 255, 212)" fill="rgb(127, 255, 212)" fill-opacity="0.86"/>
</svg>
