<?xml version="1.0" encoding="UTF-8" ?>
<!DOCTYPE svg PUBLIC "-//W3C//DTD SVG 1.1//EN" "http://www.w3.org/Graphics/SVG/1.1/DTD/svg11.dtd">
<svg width="100" height="100" xmlns="http://www.w3.org/2000/svg" version="1.1">
  <rect x="0" y="0" width="100" height="100" fill="rgb(240, 255, 255)" fill-opacity="0.42"/>
  <circle cx="65" cy="96" r="11" stroke="rgb(240, 255, 255)" fill="rgb(240, 255, 255)" fill-opacity="0.2"/>
  <rect x="77" y="47" width="28" height="12" stroke="rgb(240, 255, 255)" fill="rgb(240, 255, 255)" fill-opacity="0.2"/>
  <rect x="90" y="2" width="0" height="18" stroke="rgb(240, 255, 255)" fill="rgb(240, 255, 255)" fill-opacity="0.85"/>
  <rect x="77" y="58" width="30" height="38" stroke="rgb(240, 255, 255)" fill="rgb(240, 255, 255)" fill-opacity="0.16"/>
  <circle cx="81" cy="62" r="16" stroke="rgb(240, 255, 255)" fill="rgb(240, 255, 255)" fill-opacity="0.61"/>
  <rect x="8" y="84" width="25" height="25" stroke="rgb(240, 255, 255)" fill="rgb(240, 255, 255)" fill-opacity="0.36"/>
  <rect x="47" y="6" width="36" height="26" stroke="rgb(240, 255, 255)" fill="rgb(240, 255, 255)" fill-opacity="0.73"/>
  <rect x="66" y="50" width="20" height="1" stroke="rgb(240, 255, 255)" fill="rgb(240, 255, 255)" fill-opacity="0.01"/>
  <circle cx="64" cy="90" r="1" stroke="rgb(240, 255, 255)" fill="rgb(240, 255, 255)" fill-opacity="0.2"/>
  <circle cx="65" cy="41" r="14" stroke="rgb(240, 255, 255)" fill="rgb(240, 255, 255)" fill-opacity="0.15"/>
  <circle cx="76" cy="14" r="8" stroke="rgb(240, 255, 255)" fill="rgb(240, 255, 255)" fill-opacity="0.76"/>
  <rect x="99" y="26" width="21" height="35" stroke="rgb(240, 255, 255)" fill="rgb(240, 255, 255)" fill-opacity="0.25"/>
  <circle cx="35" cy="22" r="0" stroke="rgb(240, 255, 255)" fill="rgb(240, 255, 255)" fill-opacity="0.67"/>
  <circle cx="40" cy="74" r="15" stroke="rgb(240, 255, 255)" fill="rgb(240, 255, 255)" fill-opacity="0.51"/>
  <rect x="51" y="16" width="17" height="26" stroke="rgb(240, 255, 255)" fill="rgb(240, 255, 255)" fill-opacity="0.26"/>
  <circle cx="28" cy="11" r="15" stroke="rgb(240, 255, 255)" fill="rgb(240, 255, 255)" fill-opacity="0.03"/>
  <circle cx="6" cy="69" r="13" stroke="rgb(240, 255, 255)" fill="rgb(240, 255, 255)" fill-opacity="0.83"/>
  <circle cx="42" cy="17" r="3" stroke="rgb(240, 255, 255)" fill="rgb(240, 255, 255)" fill-opacity="0.87"/>
  <circle cx="36" cy="15" r="8" stroke="rgb(240, 255, 255)" fill="rgb(240, 255, 255)" fill-opacity="0.87"/>
  <circle cx="95" cy="29" r="7" stroke="rgb(240, 255, 255)" fill="rgb(240, 255, 255)" fill-opacity="0.33"/>
  <rect x="3" y="63" width="21" height="11" stroke="rgb(240, 255, 255)" fill="rgb(240, 255, 255)" fill-opacity="0.18"/>
</svg>
