<?xml version="1.0" encoding="UTF-8" ?>
<!DOCTYPE svg PUBLIC "-//W3C//DTD SVG 1.1//EN" "http://www.w3.org/Graphics/SVG/1.1/DTD/svg11.dtd">
<svg width="100" height="100" xmlns="http://www.w3.org/2000/svg" version="1.1">
  <rect x="0" y="0" width="100" height="100" fill="rgb(245, 245, 220)" fill-opacity="0.5"/>
  <rect x="66" y="80" width="6" height="36" stroke="rgb(245, 245, 220)" fill="rgb(245, 245, 220)" fill-opacity="0.39"/>
  <circle cx="19" cy="20" r="0" stroke="rgb(245, 245, 220)" fill="rgb(245, 245, 220)" fill-opacity="0.16"/>
  <circle cx="80" cy="55" r="13" stroke="rgb(245, 245, 220)" fill="rgb(245, 245, 220)" fill-opacity="0.01"/>
  <rect x="63" y="32" width="25" height="23" stroke="rgb(245, 245, 220)" fill="rgb(245, 245, 220)" fill-opacity="0.8"/>
  <rect x="12" y="91" width="29" height="25" stroke="rgb(245, 245, 220)" fill="rgb(245, 245, 220)" fill-opacity="0.47"/>
  <circle cx="29" cy="19" r="2" stroke="rgb(245, 245, 220)" fill="rgb(245, 245, 220)" fill-opacity="0.95"/>
  <rect x="49" y="39" width="27" height="24" stroke="rgb(245, 245, 220)" fill="rgb(245, 245, 220)" fill-opacity="0.85"/>
  <rect x="49" y="91" width="20" height="15" stroke="rgb(245, 245, 220)" fill="rgb(245, 245, 220)" fill-opacity="0.34"/>
  <circle cx="33" cy="8" r="13" stroke="rgb(245, 245, 220)" fill="rgb(245, 245, 220)" fill-opacity="0.84"/>
  <circle cx="88" cy="37" r="3" stroke="rgb(245, 245, 220)" fill="rgb(245, 245, 220)" fill-opacity="0.41"/>
  <circle cx="58" cy="78" r="9" stroke="rgb(245, 245, 220)" fill="rgb(245, 245, 220)" fill-opacity="0.48"/>
  <circle cx="19" cy="43" r="16" stroke="rgb(245, 245, 220)" fill="rgb(245, 245, 220)" fill-opacity="0.38"/>
  <circle cx="78" cy="59" r="13" stroke="rgb(245, 245, 220)" fill="rgb(245, 245, 220)" fill-opacity="0.18"/>
  <rect x="97" y="47" width="22" height="35" stroke="rgb(245, 245, 220)" fill="rgb(245, 245, 220)" fill-opacity="0.82"/>
  <circle cx="34" cy="72" r="1" stroke="rgb(245, 245, 220)" fill="rgb(245, 245, 220)" fill-opacity="0.35"/>
  <rect x="26" y="28" width="24" height="18" stroke="rgb(245, 245, 220)" fill="rgb(245, 245, 220)" fill-opacity="0.21"/>
  <rect x="4" y="43" width="37" height="26" stroke="rgb(245, 245, 220)" fill="rgb(245, 245, 220)" fill-opacity="0.41"/>
  <rect x="97" y="50" width="7" height="23" stroke="rgb(245, 245, 220)" fill="rgb(245, 245, 220)" fill-opacity="0.4"/>
  <rect x="29" y="23" width="3" height="35" stroke="rgb(245, 245, 220)" fill="rgb(245, 245, 220)" fill-opacity="0.06"/>
  <rect x="84" y="87" width="24" height="6" stroke="rgb(245, 245, 220)" fill="rgb(245, 245, 220)" fill-opacity="0.18"/>
  <rect x="73" y="11" width="5" height="23" stroke="rgb(245, 245, 220)" fill="rgb(245, 245, 220)" fill-opacity="0.12"/>
</svg>
