<?xml version="1.0" encoding="UTF-8" ?>
<!DOCTYPE svg PUBLIC "-//W3C//DTD SVG 1.1//EN" "http://www.w3.org/Graphics/SVG/1.1/DTD/svg11.dtd">
<svg width="100" height="100" xmlns="http://www.w3.org/2000/svg" version="1.1">
  <rect x="0" y="0" width="100" height="100" fill="rgb(255, 228, 196)" fill-opacity="0.51"/>
  <rect x="99" y="23" width="27" height="14" stroke="rgb(255, 228, 196)" fill="rgb(255, 228, 196)" fill-opacity="0.77"/>
  <rect x="9" y="93" width="22" height="39" stroke="rgb(255, 228, 196)" fill="rgb(255, 228, 196)" fill-opacity="0.61"/>
  <circle cx="7" cy="31" r="11" stroke="rgb(255, 228, 196)" fill="rgb(255, 228, 196)" fill-opacity="0.13"/>
  <circle cx="5" cy="85" r="6" stroke="rgb(255, 228, 196)" fill="rgb(255, 228, 196)" fill-opacity="0.71"/>
  <rect x="30" y="46" width="30" height="39" stroke="rgb(255, 228, 196)" fill="rgb(255, 228, 196)" fill-opacity="0.02"/>
  <circle cx="11" cy="50" r="10" stroke="rgb(255, 228, 196)" fill="rgb(255, 228, 196)" fill-opacity="0.8"/>
  <rect x="10" y="35" width="35" height="40" stroke="rgb(255, 228, 196)" fill="rgb(255, 228, 196)" fill-opacity="0.61"/>
  <rect x="37" y="91" width="12" height="3" stroke="rgb(255, 228, 196)" fill="rgb(255, 228, 196)" fill-opacity="0.96"/>
  <rect x="65" y="21" width="16" height="34" stroke="rgb(255, 228, 196)" fill="rgb(255, 228, 196)" fill-opacity="0.2"/>
  <circle cx="23" cy="9" r="5" stroke="rgb(255, 228, 196)" fill="rgb(255, 228, 196)" fill-opacity="0.16"/>
  <rect x="57" y="67" width="9" height="13" stroke="rgb(255, 228, 196)" fill="rgb(255, 228, 196)" fill-opacity="0.92"/>
  <rect x="88" y="25" width="6" height="11" stroke="rgb(255, 228, 196)" fill="rgb(255, 228, 196)" fill-opacity="0.78"/>
  <circle cx="38" cy="95" r="12" stroke="rgb(255, 228, 196)" fill="rgb(255, 228, 196)" fill-opacity="0.43"/>
  <rect x="48" y="72" width="25" height="2" stroke="rgb(255, 228, 196)" fill="rgb(255, 228, 196)" fill-opacity="0.85"/>
  <rect x="75" y="44" width="1" height="4" stroke="rgb(255, 228, 196)" fill="rgb(255, 228, 196)" fill-opacity="0.15"/>
  <circle cx="82" cy="81" r="18" stroke="rgb(255, 228, 196)" fill="rgb(255, 228, 196)" fill-opacity="0.5"/>
  <circle cx="65" cy="43" r="20" stroke="rgb(255, 228, 196)" fill="rgb(255, 228, 196)" fill-opacity="0.85"/>
  <circle cx="7" cy="40" r="10" stroke="rgb(255, 228, 196)" fill="rgb(255, 228, 196)" fill-opacity="0.61"/>
  <circle cx="90" cy="91" r="16" stroke="rgb(255, 228, 196)" fill="rgb(255, 228, 196)" fill-opacity="0.98"/>
  <rect x="94" y="95" width="36" height="39" stroke="rgb(255, 228, 196)" fill="rgb(255, 228, 196)" fill-opacity="0.32"/>
  <rect x="9" y="4" width="27" height="29" stroke="rgb(255, 228, 196)" fill="rgb(255, 228, 196)" fill-opacity="0.92"/>
</svg>
