<?xml version="1.0" encoding="UTF-8" ?>
<!DOCTYPE svg PUBLIC "-//W3C//DTD SVG 1.1//EN" "http://www.w3.org/Graphics/SVG/1.1/DTD/svg11.dtd">
<svg width="100" height="100" xmlns="http://www.w3.org/2000/svg" version="1.1">
  <rect x="0" y="0" width="100" height="100" fill="rgb(0, 0, 0)" fill-opacity="0.47"/>
  <circle cx="55" cy="82" r="1" stroke="rgb(0, 0, 0)" fill="rgb(0, 0, 0)" fill-opacity="0.37"/>
  <rect x="19" y="73" width="31" height="30" stroke="rgb(0, 0, 0)" fill="rgb(0, 0, 0)" fill-opacity="0.31"/>
  <circle cx="36" cy="57" r="19" stroke="rgb(0, 0, 0)" fill="rgb(0, 0, 0)" fill-opacity="0.38"/>
  <rect x="11" y="50" width="24" height="5" stroke="rgb(0, 0, 0)" fill="rgb(0, 0, 0)" fill-opacity="0.97"/>
  <circle cx="65" cy="10" r="5" stroke="rgb(0, 0, 0)" fill="rgb(0, 0, 0)" fill-opacity="0.65"/>
  <circle cx="45" cy="70" r="20" stroke="rgb(0, 0, 0)" fill="rgb(0, 0, 0)" fill-opacity="0.92"/>
  <rect x="98" y="10" width="29" height="35" stroke="rgb(0, 0, 0)" fill="rgb(0, 0, 0)" fill-opacity="0.66"/>
  <rect x="91" y="84" width="34" height="15" stroke="rgb(0, 0, 0)" fill="rgb(0, 0, 0)" fill-opacity="0.67"/>
  <circle cx="68" cy="35" r="14" stroke="rgb(0, 0, 0)" fill="rgb(0, 0, 0)" fill-opacity="0.1"/>
  <circle cx="27" cy="20" r="8" stroke="rgb(0, 0, 0)" fill="rgb(0, 0, 0)" fill-opacity="0.88"/>
  <rect x="21" y="7" width="6" height="28" stroke="rgb(0, 0, 0)" fill="rgb(0, 0, 0)" fill-opacity="0.04"/>
  <rect x="37" y="82" width="20" height="19" stroke="rgb(0, 0, 0)" fill="rgb(0, 0, 0)" fill-opacity="0.23"/>
  <circle cx="78" cy="45" r="20" stroke="rgb(0, 0, 0)" fill="rgb(0, 0, 0)" fill-opacity="0.38"/>
  <rect x="29" y="88" width="19" height="40" stroke="rgb(0, 0, 0)" fill="rgb(0, 0, 0)" fill-opacity="0.24"/>
  <circle cx="9" cy="82" r="10" stroke="rgb(0, 0, 0)" fill="rgb(0, 0, 0)" fill-opacity="0.87"/>
  <circle cx="92" cy="11" r="7" stroke="rgb(0, 0, 0)" fill="rgb(0, 0, 0)" fill-opacity="0.66"/>
  <rect x="19" y="85" width="19" height="1" stroke="rgb(0, 0, 0)" fill="rgb(0, 0, 0)" fill-opacity="0.43"/>
  <rect x="54" y="6" width="8" height="9" stroke="rgb(0, 0, 0)" fill="rgb(0, 0, 0)" fill-opacity="0.75"/>
  <rect x="22" y="0" width="39" height="19" stroke="rgb(0, 0, 0)" fill="rgb(0, 0, 0)" fill-opacity="0.83"/>
  <rect x="50" y="43" width="27" height="31" stroke="rgb(0, 0, 0)" fill="rgb(0, 0, 0)" fill-opacity="0.7"/>
  <rect x="15" y="17" width="18" height="29" stroke="rgb(0, 0, 0)" fill="rgb(0, 0, 0)" fill-opacity="0.35"/>
</svg>
