<?xml version="1.0" encoding="UTF-8" ?>
<!DOCTYPE svg PUBLIC "-//W3C//DTD SVG 1.1//EN" "http://www.w3.org/Graphics/SVG/1.1/DTD/svg11.dtd">
<svg width="100" height="100" xmlns="http://www.w3.org/2000/svg" version="1.1">
  <rect x="0" y="0" width="100" height="100" fill="rgb(255, 235, 205)" fill-opacity="0.22"/>
  <rect x="18" y="10" width="26" height="36" stroke="rgb(255, 235, 205)" fill="rgb(255, 235, 205)" fill-opacity="0.71"/>
  <rect x="46" y="76" width="28" height="0" stroke="rgb(255, 235, 205)" fill="rgb(255, 235, 205)" fill-opacity="0.39"/>
  <rect x="7" y="9" width="13" height="7" stroke="rgb(255, 235, 205)" fill="rgb(255, 235, 205)" fill-opacity="0.12"/>
  <rect x="71" y="97" width="0" height="23" stroke="rgb(255, 235, 205)" fill="rgb(255, 235, 205)" fill-opacity="0.89"/>
  <rect x="82" y="60" width="33" height="39" stroke="rgb(255, 235, 205)" fill="rgb(255, 235, 205)" fill-opacity="0.03"/>
  <circle cx="65" cy="12" r="7" stroke="rgb(255, 235, 205)" fill="rgb(255, 235, 205)" fill-opacity="0.64"/>
  <circle cx="63" cy="53" r="4" stroke="rgb(255, 235, 205)" fill="rgb(255, 235, 205)" fill-opacity="0.5"/>
  <rect x="68" y="96" width="16" height="4" stroke="rgb(255, 235, 205)" fill="rgb(255, 235, 205)" fill-opacity="0.09"/>
  <circle cx="63" cy="91" r="12" stroke="rgb(255, 235, 205)" fill="rgb(255, 235, 205)" fill-opacity="0.96"/>
  <rect x="31" y="16" width="34" height="21" stroke="rgb(255, 235, 205)" fill="rgb(255, 235, 205)" fill-opacity="0.28"/>
  <rect x="2" y="49" width="0" height="33" stroke="rgb(255, 235, 205)" fill="rgb(255, 235, 205)" fill-opacity="0.38"/>
  <circle cx="79" cy="34" r="7" stroke="rgb(255, 235, 205)" fill="rgb(255, 235, 205)" fill-opacity="0.23"/>
  <circle cx="74" cy="64" r="10" stroke="rgb(255, 235, 205)" fill="rgb(255, 235, 205)" fill-opacity="0.8"/>
  <circle cx="76" cy="38" r="4" stroke="rgb(255, 235, 205)" fill="rgb(255, 235, 205)" fill-opacity="0.49"/>
  <rect x="65" y="60" width="8" height="15" stroke="rgb(255, 235, 205)" fill="rgb(255, 235, 205)" fill-opacity="0.65"/>
  <rect x="46" y="44" width="11" height="11" stroke="rgb(255, 235, 205)" fill="rgb(255, 235, 205)" fill-opacity="0.33"/>
  <rect x="64" y="7" width="34" height="10" stroke="rgb(255, 235, 205)" fill="rgb(255, 235, 205)" fill-opacity="0.9"/>
  <rect x="82" y="100" width="0" height="1" stroke="rgb(255, 235, 205)" fill="rgb(255, 235, 205)" fill-opacity="0.76"/>
  <circle cx="11" cy="3" r="12" stroke="rgb(255, 235, 205)" fill="rgb(255, 235, 205)" fill-opacity="0.95"/>
  <circle cx="61" cy="94" r="6" stroke="rgb(255, 235, 205)" fill="rgb(255, 235, 205)" fill-opacity="0.91"/>
  <circle cx="24" cy="81" r="6" stroke="rgb(255, 235, 205)" fill="rgb(255, 235, 205)" fill-opacity="0.05"/>
</svg>
