<?xml version="1.0" encoding="UTF-8" ?>
<!DOCTYPE svg PUBLIC "-//W3C//DTD SVG 1.1//EN" "http://www.w3.org/Graphics/SVG/1.1/DTD/svg11.dtd">
<svg width="100" height="100" xmlns="http://www.w3.org/2000/svg" version="1.1">
  <rect x="0" y="0" width="100" height="100" fill="rgb(138, 43, 226)" fill-opacity="0.41"/>
  <circle cx="94" cy="31" r="17" stroke="rgb(138, 43, 226)" fill="rgb(138, 43, 226)" fill-opacity="0.17"/>
  <circle cx="57" cy="14" r="1" stroke="rgb(138, 43, 226)" fill="rgb(138, 43, 226)" fill-opacity="0.37"/>
  <circle cx="70" cy="64" r="3" stroke="rgb(138, 43, 226)" fill="rgb(138, 43, 226)" fill-opacity="0.17"/>
  <circle cx="90" cy="96" r="0" stroke="rgb(138, 43, 226)" fill="rgb(138, 43, 226)" fill-opacity="0.26"/>
  <rect x="60" y="62" width="5" height="7" stroke="rgb(138, 43, 226)" fill="rgb(138, 43, 226)" fill-opacity="0.26"/>
  <rect x="33" y="67" width="24" height="15" stroke="rgb(138, 43, 226)" fill="rgb(138, 43, 226)" fill-opacity="0.55"/>
  <circle cx="44" cy="95" r="20" stroke="rgb(138, 43, 226)" fill="rgb(138, 43, 226)" fill-opacity="0.21"/>
  <rect x="84" y="72" width="29" height="38" stroke="rgb(138, 43, 226)" fill="rgb(138, 43, 226)" fill-opacity="0.85"/>
  <rect x="12" y="26" width="34" height="8" stroke="rgb(138, 43, 226)" fill="rgb(138, 43, 226)" fill-opacity="0.97"/>
  <circle cx="90" cy="74" r="11" stroke="rgb(138, 43, 226)" fill="rgb(138, 43, 226)" fill-opacity="0.6"/>
  <rect x="67" y="14" width="0" height="5" stroke="rgb(138, 43, 226)" fill="rgb(138, 43, 226)" fill-opacity="0.87"/>
  <rect x="72" y="29" width="24" height="1" stroke="rgb(138, 43, 226)" fill="rgb(138, 43, 226)" fill-opacity="0.61"/>
  <circle cx="27" cy="2" r="20" stroke="rgb(138, 43, 226)" fill="rgb(138, 43, 226)" fill-opacity="0.54"/>
  <rect x="81" y="96" width="21" height="37" stroke="rgb(138, 43, 226)" fill="rgb(138, 43, 226)" fill-opacity="0.42"/>
  <rect x="59" y="49" width="39" height="17" stroke="rgb(138, 43, 226)" fill="rgb(138, 43, 226)" fill-opacity="0.76"/>
  <circle cx="54" cy="7" r="20" stroke="rgb(138, 43, 226)" fill="rgb(138, 43, 226)" fill-opacity="0.63"/>
  <rect x="54" y="59" width="23" height="22" stroke="rgb(138, 43, 226)" fill="rgb(138, 43, 226)" fill-opacity="0.51"/>
  <circle cx="35" cy="33" r="8" stroke="rgb(138, 43, 226)" fill="rgb(138, 43, 226)" fill-opacity="0.8100000000000001"/>
  <circle cx="4" cy="47" r="14" stroke="rgb(138, 43, 226)" fill="rgb(138, 43, 226)" fill-opacity="0.88"/>
  <circle cx="21" cy="19" r="11" stroke="rgb(138, 43, 226)" fill="rgb(138, 43, 226)" fill-opacity="0.9399999999999999"/>
  <rect x="53" y="56" width="12" height="29" stroke="rgb(138, 43, 226)" fill="rgb(138, 43, 226)" fill-opacity="0.8"/>
</svg>
