<?xml version="1.0" encoding="UTF-8" ?>
<!DOCTYPE svg PUBLIC "-//W3C//DTD SVG 1.1//EN" "http://www.w3.org/Graphics/SVG/1.1/DTD/svg11.dtd">
<svg width="100" height="100" xmlns="http://www.w3.org/2000/svg" version="1.1">
  <rect x="0" y="0" width="100" height="100" fill="rgb(0, 0, 255)" fill-opacity="0.68"/>
  <rect x="92" y="17" width="18" height="26" stroke="rgb(0, 0, 255)" fill="rgb(0, 0, 255)" fill-opacity="0.77"/>
  <rect x="32" y="71" width="18" height="19" stroke="rgb(0, 0, 255)" fill="rgb(0, 0, 255)" fill-opacity="0.33"/>
  <rect x="17" y="32" width="32" height="33" stroke="rgb(0, 0, 255)" fill="rgb(0, 0, 255)" fill-opacity="0.9399999999999999"/>
  <circle cx="86" cy="48" r="6" stroke="rgb(0, 0, 255)" fill="rgb(0, 0, 255)" fill-opacity="0.82"/>
  <rect x="97" y="52" width="4" height="37" stroke="rgb(0, 0, 255)" fill="rgb(0, 0, 255)" fill-opacity="0.45"/>
  <rect x="74" y="2" width="23" height="15" stroke="rgb(0, 0, 255)" fill="rgb(0, 0, 255)" fill-opacity="0.26"/>
  <circle cx="9" cy="47" r="1" stroke="rgb(0, 0, 255)" fill="rgb(0, 0, 255)" fill-opacity="0.62"/>
  <rect x="14" y="10" width="11" height="3" stroke="rgb(0, 0, 255)" fill="rgb(0, 0, 255)" fill-opacity="0.11"/>
  <rect x="6" y="64" width="8" height="20" stroke="rgb(0, 0, 255)" fill="rgb(0, 0, 255)" fill-opacity="0.23"/>
  <rect x="18" y="59" width="7" height="21" stroke="rgb(0, 0, 255)" fill="rgb(0, 0, 255)" fill-opacity="0.8"/>
  <circle cx="67" cy="66" r="2" stroke="rgb(0, 0, 255)" fill="rgb(0, 0, 255)" fill-opacity="0.52"/>
  <rect x="89" y="87" width="39" height="29" stroke="rgb(0, 0, 255)" fill="rgb(0, 0, 255)" fill-opacity="0.41"/>
  <rect x="41" y="9" width="39" height="21" stroke="rgb(0, 0, 255)" fill="rgb(0, 0, 255)" fill-opacity="0.26"/>
  <rect x="13" y="39" width="0" height="16" stroke="rgb(0, 0, 255)" fill="rgb(0, 0, 255)" fill-opacity="0.29"/>
  <rect x="34" y="70" width="28" height="18" stroke="rgb(0, 0, 255)" fill="rgb(0, 0, 255)" fill-opacity="0.98"/>
  <circle cx="85" cy="73" r="9" stroke="rgb(0, 0, 255)" fill="rgb(0, 0, 255)" fill-opacity="0.31"/>
  <circle cx="71" cy="65" r="7" stroke="rgb(0, 0, 255)" fill="rgb(0, 0, 255)" fill-opacity="0.79"/>
  <circle cx="92" cy="85" r="7" stroke="rgb(0, 0, 255)" fill="rgb(0, 0, 255)" fill-opacity="0.66"/>
  <rect x="12" y="60" width="14" height="29" stroke="rgb(0, 0, 255)" fill="rgb(0, 0, 255)" fill-opacity="0.86"/>
  <rect x="2" y="32" width="27" height="2" stroke="rgb(0, 0, 255)" fill="rgb(0, 0, 255)" fill-opacity="0.76"/>
  <circle cx="20" cy="63" r="15" stroke="rgb(0, 0, 255)" fill="rgb(0, 0, 255)" fill-opacity="0.98"/>
</svg>
