<?xml version="1.0" encoding="UTF-8" ?>
<!DOCTYPE svg PUBLIC "-//W3C//DTD SVG 1.1//EN" "http://www.w3.org/Graphics/SVG/1.1/DTD/svg11.dtd">
<svg width="100" height="100" xmlns="http://www.w3.org/2000/svg" version="1.1">
  <rect x="0" y="0" width="100" height="100" fill="rgb(165, 42, 42)" fill-opacity="0.5"/>
  <rect x="62" y="70" width="38" height="5" stroke="rgb(165, 42, 42)" fill="rgb(165, 42, 42)" fill-opacity="0.76"/>
  <circle cx="65" cy="89" r="20" stroke="rgb(165, 42, 42)" fill="rgb(165, 42, 42)" fill-opacity="0.55"/>
  <rect x="43" y="54" width="32" height="8" stroke="rgb(165, 42, 42)" fill="rgb(165, 42, 42)" fill-opacity="0.7"/>
  <rect x="56" y="54" width="37" height="40" stroke="rgb(165, 42, 42)" fill="rgb(165, 42, 42)" fill-opacity="0.66"/>
  <rect x="48" y="39" width="8" height="20" stroke="rgb(165, 42, 42)" fill="rgb(165, 42, 42)" fill-opacity="0.77"/>
  <rect x="18" y="31" width="30" height="2" stroke="rgb(165, 42, 42)" fill="rgb(165, 42, 42)" fill-opacity="0.27"/>
  <rect x="50" y="61" width="20" height="19" stroke="rgb(165, 42, 42)" fill="rgb(165, 42, 42)" fill-opacity="0.58"/>
  <circle cx="46" cy="1" r="12" stroke="rgb(165, 42, 42)" fill="rgb(165, 42, 42)" fill-opacity="0.77"/>
  <rect x="20" y="53" width="26" height="24" stroke="rgb(165, 42, 42)" fill="rgb(165, 42, 42)" fill-opacity="0.9"/>
  <circle cx="42" cy="46" r="7" stroke="rgb(165, 42, 42)" fill="rgb(165, 42, 42)" fill-opacity="0.43"/>
  <circle cx="80" cy="6" r="1" stroke="rgb(165, 42, 42)" fill="rgb(165, 42, 42)" fill-opacity="0.43"/>
  <circle cx="38" cy="21" r="0" stroke="rgb(165, 42, 42)" fill="rgb(165, 42, 42)" fill-opacity="0.79"/>
  <rect x="60" y="66" width="8" height="35" stroke="rgb(165, 42, 42)" fill="rgb(165, 42, 42)" fill-opacity="0.68"/>
  <circle cx="3" cy="9" r="16" stroke="rgb(165, 42, 42)" fill="rgb(165, 42, 42)" fill-opacity="0.02"/>
  <rect x="85" y="9" width="40" height="39" stroke="rgb(165, 42, 42)" fill="rgb(165, 42, 42)" fill-opacity="0.29"/>
  <circle cx="6" cy="39" r="11" stroke="rgb(165, 42, 42)" fill="rgb(165, 42, 42)" fill-opacity="0.73"/>
  <rect x="82" y="99" width="17" height="13" stroke="rgb(165, 42, 42)" fill="rgb(165, 42, 42)" fill-opacity="0.47"/>
  <rect x="9" y="69" width="29" height="4" stroke="rgb(165, 42, 42)" fill="rgb(165, 42, 42)" fill-opacity="0.67"/>
  <rect x="60" y="0" width="29" height="31" stroke="rgb(165, 42, 42)" fill="rgb(165, 42, 42)" fill-opacity="0.49"/>
  <rect x="81" y="40" width="38" height="17" stroke="rgb(165, 42, 42)" fill="rgb(165, 42, 42)" fill-opacity="0.08"/>
  <circle cx="24" cy="58" r="10" stroke="rgb(165, 42, 42)" fill="rgb(165, 42, 42)" fill-opacity="0.02"/>
</svg>
