<?xml version="1.0" encoding="UTF-8" ?>
<!DOCTYPE svg PUBLIC "-//W3C//DTD SVG 1.1//EN" "http://www.w3.org/Graphics/SVG/1.1/DTD/svg11.dtd">
<svg width="100" height="100" xmlns="http://www.w3.org/2000/svg" version="1.1">
  <rect x="0" y="0" width="100" height="100" fill="rgb(222, 184, 135)" fill-opacity="0.68"/>
  <circle cx="54" cy="79" r="3" stroke="rgb(222, 184, 135)" fill="rgb(222, 184, 135)" fill-opacity="0.86"/>
  <rect x="87" y="7" width="34" height="37" stroke="rgb(222, 184, 135)" fill="rgb(222, 184, 135)" fill-opacity="0.38"/>
  <rect x="87" y="33" width="31" height="2" stroke="rgb(222, 184, 135)" fill="rgb(222, 184, 135)" fill-opacity="0.15"/>
  <rect x="15" y="34" width="28" height="17" stroke="rgb(222, 184, 135)" fill="rgb(222, 184, 135)" fill-opacity="0.9"/>
  <circle cx="99" cy="22" r="12" stroke="rgb(222, 184, 135)" fill="rgb(222, 184, 135)" fill-opacity="0.72"/>
  <rect x="70" y="18" width="36" height="4" stroke="rgb(222, 184, 135)" fill="rgb(222, 184, 135)" fill-opacity="0.84"/>
  <circle cx="58" cy="7" r="3" stroke="rgb(222, 184, 135)" fill="rgb(222, 184, 135)" fill-opacity="0.7"/>
  <rect x="44" y="16" width="9" height="30" stroke="rgb(222, 184, 135)" fill="rgb(222, 184, 135)" fill-opacity="0.54"/>
  <rect x="49" y="96" width="16" height="21" stroke="rgb(222, 184, 135)" fill="rgb(222, 184, 135)" fill-opacity="0.08"/>
  <circle cx="9" cy="85" r="15" stroke="rgb(222, 184, 135)" fill="rgb(222, 184, 135)" fill-opacity="0.87"/>
  <circle cx="66" cy="57" r="6" stroke="rgb(222, 184, 135)" fill="rgb(222, 184, 135)" fill-opacity="0.96"/>
  <rect x="58" y="92" width="28" height="11" stroke="rgb(222, 184, 135)" fill="rgb(222, 184, 135)" fill-opacity="0.13"/>
  <rect x="31" y="10" width="17" height="16" stroke="rgb(222, 184, 135)" fill="rgb(222, 184, 135)" fill-opacity="0.41"/>
  <circle cx="6" cy="46" r="18" stroke="rgb(222, 184, 135)" fill="rgb(222, 184, 135)" fill-opacity="0.64"/>
  <circle cx="86" cy="63" r="9" stroke="rgb(222, 184, 135)" fill="rgb(222, 184, 135)" fill-opacity="0.5"/>
  <rect x="2" y="31" width="39" height="33" stroke="rgb(222, 184, 135)" fill="rgb(222, 184, 135)" fill-opacity="0.89"/>
  <circle cx="16" cy="87" r="1" stroke="rgb(222, 184, 135)" fill="rgb(222, 184, 135)" fill-opacity="0.37"/>
  <circle cx="7" cy="75" r="19" stroke="rgb(222, 184, 135)" fill="rgb(222, 184, 135)" fill-opacity="0.52"/>
  <rect x="26" y="33" width="37" height="1" stroke="rgb(222, 184, 135)" fill="rgb(222, 184, 135)" fill-opacity="0.59"/>
  <circle cx="85" cy="54" r="13" stroke="rgb(222, 184, 135)" fill="rgb(222, 184, 135)" fill-opacity="0.7"/>
  <rect x="91" y="90" width="2" height="11" stroke="rgb(222, 184, 135)" fill="rgb(222, 184, 135)" fill-opacity="0.52"/>
</svg>
