<?xml version="1.0" encoding="UTF-8" ?>
<!DOCTYPE svg PUBLIC "-//W3C//DTD SVG 1.1//EN" "http://www.w3.org/Graphics/SVG/1.1/DTD/svg11.dtd">
<svg width="100" height="100" xmlns="http://www.w3.org/2000/svg" version="1.1">
  <rect x="0" y="0" width="100" height="100" fill="rgb(95, 158, 160)" fill-opacity="0.08"/>
  <circle cx="37" cy="51" r="2" stroke="rgb(95, 158, 160)" fill="rgb(95, 158, 160)" fill-opacity="0.6899999999999999"/>
  <circle cx="53" cy="4" r="15" stroke="rgb(95, 158, 160)" fill="rgb(95, 158, 160)" fill-opacity="0.03"/>
  <rect x="61" y="64" width="20" height="2" stroke="rgb(95, 158, 160)" fill="rgb(95, 158, 160)" fill-opacity="0.26"/>
  <circle cx="9" cy="32" r="0" stroke="rgb(95, 158, 160)" fill="rgb(95, 158, 160)" fill-opacity="0.52"/>
  <rect x="30" y="45" width="31" height="13" stroke="rgb(95, 158, 160)" fill="rgb(95, 158, 160)" fill-opacity="0.06"/>
  <rect x="14" y="91" width="5" height="16" stroke="rgb(95, 158, 160)" fill="rgb(95, 158, 160)" fill-opacity="0.5600000000000001"/>
  <circle cx="75" cy="31" r="7" stroke="rgb(95, 158, 160)" fill="rgb(95, 158, 160)" fill-opacity="0.25"/>
  <circle cx="27" cy="17" r="17" stroke="rgb(95, 158, 160)" fill="rgb(95, 158, 160)" fill-opacity="0.53"/>
  <circle cx="86" cy="46" r="16" stroke="rgb(95, 158, 160)" fill="rgb(95, 158, 160)" fill-opacity="0.67"/>
  <circle cx="29" cy="68" r="18" stroke="rgb(95, 158, 160)" fill="rgb(95, 158, 160)" fill-opacity="0.5600000000000001"/>
  <circle cx="40" cy="17" r="16" stroke="rgb(95, 158, 160)" fill="rgb(95, 158, 160)" fill-opacity="0.63"/>
  <circle cx="48" cy="0" r="12" stroke="rgb(95, 158, 160)" fill="rgb(95, 158, 160)" fill-opacity="0.9"/>
  <circle cx="32" cy="10" r="12" stroke="rgb(95, 158, 160)" fill="rgb(95, 158, 160)" fill-opacity="0.5"/>
  <circle cx="0" cy="35" r="4" stroke="rgb(95, 158, 160)" fill="rgb(95, 158, 160)" fill-opacity="0.61"/>
  <circle cx="50" cy="69" r="6" stroke="rgb(95, 158, 160)" fill="rgb(95, 158, 160)" fill-opacity="0.33"/>
  <circle cx="94" cy="85" r="14" stroke="rgb(95, 158, 160)" fill="rgb(95, 158, 160)" fill-opacity="0.91"/>
  <rect x="23" y="5" width="23" height="31" stroke="rgb(95, 158, 160)" fill="rgb(95, 158, 160)" fill-opacity="0.16"/>
  <rect x="93" y="35" width="5" height="12" stroke="rgb(95, 158, 160)" fill="rgb(95, 158, 160)" fill-opacity="0.77"/>
  <rect x="19" y="75" width="7" height="16" stroke="rgb(95, 158, 160)" fill="rgb(95, 158, 160)" fill-opacity="0.24"/>
  <rect x="53" y="55" width="7" height="35" stroke="rgb(95, 158, 160)" fill="rgb(95, 158, 160)" fill-opacity="0.5"/>
  <circle cx="70" cy="65" r="18" stroke="rgb(95, 158, 160)" fill="rgb(95, 158, 160)" fill-opacity="0.03"/>
</svg>
