<?xml version="1.0" encoding="UTF-8" ?>
<!DOCTYPE svg PUBLIC "-//W3C//DTD SVG 1.1//EN" "http://www.w3.org/Graphics/SVG/1.1/DTD/svg11.dtd">
<svg width="100" height="100" xmlns="http://www.w3.org/2000/svg" version="1.1">
  <rect x="0" y="0" width="100" height="100" fill="rgb(127, 255, 0)" fill-opacity="0.33"/>
  <rect x="33" y="48" width="27" height="16" stroke="rgb(127, 255, 0)" fill="rgb(127, 255, 0)" fill-opacity="0.45"/>
  <rect x="43" y="53" width="21" height="18" stroke="rgb(127, 255, 0)" fill="rgb(127, 255, 0)" fill-opacity="0.71"/>
  <circle cx="54" cy="41" r="7" stroke="rgb(127, 255, 0)" fill="rgb(127, 255, 0)" fill-opacity="0.0"/>
  <circle cx="7" cy="94" r="1" stroke="rgb(127, 255, 0)" fill="rgb(127, 255, 0)" fill-opacity="0.26"/>
  <rect x="37" y="23" width="7" height="12" stroke="rgb(127, 255, 0)" fill="rgb(127, 255, 0)" fill-opacity="0.95"/>
  <circle cx="34" cy="1" r="7" stroke="rgb(127, 255, 0)" fill="rgb(127, 255, 0)" fill-opacity="0.31"/>
  <rect x="79" y="91" width="20" height="29" stroke="rgb(127, 255, 0)" fill="rgb(127, 255, 0)" fill-opacity="0.46"/>
  <circle cx="68" cy="47" r="8" stroke="rgb(127, 255, 0)" fill="rgb(127, 255, 0)" fill-opacity="0.54"/>
  <circle cx="99" cy="47" r="1" stroke="rgb(127, 255, 0)" fill="rgb(127, 255, 0)" fill-opacity="0.44"/>
  <circle cx="29" cy="13" r="15" stroke="rgb(127, 255, 0)" fill="rgb(127, 255, 0)" fill-opacity="0.21"/>
  <rect x="62" y="19" width="3" height="22" stroke="rgb(127, 255, 0)" fill="rgb(127, 255, 0)" fill-opacity="0.92"/>
  <rect x="66" y="42" width="31" height="14" stroke="rgb(127, 255, 0)" fill="rgb(127, 255, 0)" fill-opacity="0.61"/>
  <circle cx="60" cy="47" r="14" stroke="rgb(127, 255, 0)" fill="rgb(127, 255, 0)" fill-opacity="0.31"/>
  <rect x="33" y="5" width="12" height="18" stroke="rgb(127, 255, 0)" fill="rgb(127, 255, 0)" fill-opacity="0.65"/>
  <circle cx="19" cy="24" r="0" stroke="rgb(127, 255, 0)" fill="rgb(127, 255, 0)" fill-opacity="0.31"/>
  <rect x="4" y="75" width="15" height="31" stroke="rgb(127, 255, 0)" fill="rgb(127, 255, 0)" fill-opacity="0.34"/>
  <circle cx="45" cy="76" r="10" stroke="rgb(127, 255, 0)" fill="rgb(127, 255, 0)" fill-opacity="0.39"/>
  <circle cx="61" cy="30" r="20" stroke="rgb(127, 255, 0)" fill="rgb(127, 255, 0)" fill-opacity="0.26"/>
  <rect x="7" y="67" width="8" height="38" stroke="rgb(127, 255, 0)" fill="rgb(127, 255, 0)" fill-opacity="0.59"/>
  <circle cx="43" cy="14" r="6" stroke="rgb(127, 255, 0)" fill="rgb(127, 255, 0)" fill-opacity="0.34"/>
  <circle cx="89" cy="97" r="3" stroke="rgb(127, 255, 0)" fill="rgb(127, 255, 0)" fill-opacity="0.03"/>
</svg>
