<?xml version="1.0" encoding="UTF-8" ?>
<!DOCTYPE svg PUBLIC "-//W3C//DTD SVG 1.1//EN" "http://www.w3.org/Graphics/SVG/1.1/DTD/svg11.dtd">
<svg width="100" height="100" xmlns="http://www.w3.org/2000/svg" version="1.1">
  <rect x="0" y="0" width="100" height="100" fill="rgb(210, 105, 30)" fill-opacity="0.37"/>
  <rect x="75" y="86" width="22" height="21" stroke="rgb(210, 105, 30)" fill="rgb(210, 105, 30)" fill-opacity="0.66"/>
  <circle cx="61" cy="12" r="18" stroke="rgb(210, 105, 30)" fill="rgb(210, 105, 30)" fill-opacity="0.46"/>
  <circle cx="59" cy="92" r="8" stroke="rgb(210, 105, 30)" fill="rgb(210, 105, 30)" fill-opacity="0.45"/>
  <circle cx="81" cy="77" r="4" stroke="rgb(210, 105, 30)" fill="rgb(210, 105, 30)" fill-opacity="0.98"/>
  <circle cx="44" cy="82" r="3" stroke="rgb(210, 105, 30)" fill="rgb(210, 105, 30)" fill-opacity="0.43"/>
  <circle cx="37" cy="59" r="18" stroke="rgb(210, 105, 30)" fill="rgb(210, 105, 30)" fill-opacity="0.89"/>
  <rect x="72" y="77" width="30" height="31" stroke="rgb(210, 105, 30)" fill="rgb(210, 105, 30)" fill-opacity="0.16"/>
  <rect x="83" y="94" width="27" height="0" stroke="rgb(210, 105, 30)" fill="rgb(210, 105, 30)" fill-opacity="0.78"/>
  <rect x="91" y="56" width="10" height="29" stroke="rgb(210, 105, 30)" fill="rgb(210, 105, 30)" fill-opacity="0.3"/>
  <rect x="51" y="87" width="28" height="13" stroke="rgb(210, 105, 30)" fill="rgb(210, 105, 30)" fill-opacity="0.8"/>
  <circle cx="30" cy="23" r="11" stroke="rgb(210, 105, 30)" fill="rgb(210, 105, 30)" fill-opacity="0.77"/>
  <circle cx="91" cy="35" r="8" stroke="rgb(210, 105, 30)" fill="rgb(210, 105, 30)" fill-opacity="0.11"/>
  <circle cx="6" cy="36" r="13" stroke="rgb(210, 105, 30)" fill="rgb(210, 105, 30)" fill-opacity="0.28"/>
  <circle cx="88" cy="78" r="19" stroke="rgb(210, 105, 30)" fill="rgb(210, 105, 30)" fill-opacity="0.9399999999999999"/>
  <circle cx="14" cy="73" r="14" stroke="rgb(210, 105, 30)" fill="rgb(210, 105, 30)" fill-opacity="0.23"/>
  <rect x="66" y="70" width="19" height="15" stroke="rgb(210, 105, 30)" fill="rgb(210, 105, 30)" fill-opacity="0.46"/>
  <circle cx="94" cy="8" r="6" stroke="rgb(210, 105, 30)" fill="rgb(210, 105, 30)" fill-opacity="0.16"/>
  <circle cx="87" cy="74" r="7" stroke="rgb(210, 105, 30)" fill="rgb(210, 105, 30)" fill-opacity="0.65"/>
  <rect x="95" y="69" width="1" height="9" stroke="rgb(210, 105, 30)" fill="rgb(210, 105, 30)" fill-opacity="0.63"/>
  <rect x="27" y="3" width="18" height="31" stroke="rgb(210, 105, 30)" fill="rgb(210, 105, 30)" fill-opacity="0.91"/>
  <rect x="42" y="7" width="7" height="25" stroke="rgb(210, 105, 30)" fill="rgb(210, 105, 30)" fill-opacity="0.92"/>
</svg>
