<?xml version="1.0" encoding="UTF-8" ?>
<!DOCTYPE svg PUBLIC "-//W3C//DTD SVG 1.1//EN" "http://www.w3.org/Graphics/SVG/1.1/DTD/svg11.dtd">
<svg width="100" height="100" xmlns="http://www.w3.org/2000/svg" version="1.1">
  <rect x="0" y="0" width="100" height="100" fill="rgb(255, 127, 80)" fill-opacity="0.17"/>
  <rect x="67" y="93" width="27" height="28" stroke="rgb(255, 127, 80)" fill="rgb(255, 127, 80)" fill-opacity="0.51"/>
  <circle cx="58" cy="55" r="12" stroke="rgb(255, 127, 80)" fill="rgb(255, 127, 80)" fill-opacity="0.71"/>
  <circle cx="12" cy="39" r="11" stroke="rgb(255, 127, 80)" fill="rgb(255, 127, 80)" fill-opacity="0.99"/>
  <rect x="56" y="63" width="9" height="20" stroke="rgb(255, 127, 80)" fill="rgb(255, 127, 80)" fill-opacity="0.24"/>
  <circle cx="7" cy="56" r="10" stroke="rgb(255, 127, 80)" fill="rgb(255, 127, 80)" fill-opacity="0.41"/>
  <rect x="53" y="25" width="32" height="15" stroke="rgb(255, 127, 80)" fill="rgb(255, 127, 80)" fill-opacity="0.08"/>
  <circle cx="12" cy="95" r="15" stroke="rgb(255, 127, 80)" fill="rgb(255, 127, 80)" fill-opacity="0.26"/>
  <circle cx="17" cy="37" r="14" stroke="rgb(255, 127, 80)" fill="rgb(255, 127, 80)" fill-opacity="0.75"/>
  <circle cx="96" cy="23" r="12" stroke="rgb(255, 127, 80)" fill="rgb(255, 127, 80)" fill-opacity="0.86"/>
  <circle cx="36" cy="2" r="16" stroke="rgb(255, 127, 80)" fill="rgb(255, 127, 80)" fill-opacity="0.36"/>
  <rect x="81" y="58" width="20" height="24" stroke="rgb(255, 127, 80)" fill="rgb(255, 127, 80)" fill-opacity="0.86"/>
  <circle cx="21" cy="57" r="11" stroke="rgb(255, 127, 80)" fill="rgb(255, 127, 80)" fill-opacity="0.87"/>
  <circle cx="28" cy="3" r="8" stroke="rgb(255, 127, 80)" fill="rgb(255, 127, 80)" fill-opacity="0.4"/>
  <circle cx="49" cy="9" r="11" stroke="rgb(255, 127, 80)" fill="rgb(255, 127, 80)" fill-opacity="0.89"/>
  <circle cx="20" cy="30" r="6" stroke="rgb(255, 127, 80)" fill="rgb(255, 127, 80)" fill-opacity="0.12"/>
  <circle cx="52" cy="6" r="5" stroke="rgb(255, 127, 80)" fill="rgb(255, 127, 80)" fill-opacity="0.99"/>
  <circle cx="38" cy="5" r="10" stroke="rgb(255, 127, 80)" fill="rgb(255, 127, 80)" fill-opacity="0.15"/>
  <rect x="4" y="47" width="33" height="28" stroke="rgb(255, 127, 80)" fill="rgb(255, 127, 80)" fill-opacity="0.18"/>
  <circle cx="97" cy="66" r="3" stroke="rgb(255, 127, 80)" fill="rgb(255, 127, 80)" fill-opacity="0.6899999999999999"/>
  <rect x="30" y="54" width="30" height="23" stroke="rgb(255, 127, 80)" fill="rgb(255, 127, 80)" fill-opacity="0.32"/>
  <circle cx="12" cy="79" r="14" stroke="rgb(255, 127, 80)" fill="rgb(255, 127, 80)" fill-opacity="0.84"/>
</svg>
