<?xml version="1.0" encoding="UTF-8" ?>
<!DOCTYPE svg PUBLIC "-//W3C//DTD SVG 1.1//EN" "http://www.w3.org/Graphics/SVG/1.1/DTD/svg11.dtd">
<svg width="100" height="100" xmlns="http://www.w3.org/2000/svg" version="1.1">
  <rect x="0" y="0" width="100" height="100" fill="rgb(100, 149, 237)" fill-opacity="0.63"/>
  <rect x="98" y="6" width="12" height="22" stroke="rgb(100, 149, 237)" fill="rgb(100, 149, 237)" fill-opacity="0.5"/>
  <rect x="99" y="36" width="11" height="10" stroke="rgb(100, 149, 237)" fill="rgb(100, 149, 237)" fill-opacity="0.78"/>
  <rect x="94" y="67" width="24" height="9" stroke="rgb(100, 149, 237)" fill="rgb(100, 149, 237)" fill-opacity="0.89"/>
  <circle cx="54" cy="100" r="10" stroke="rgb(100, 149, 237)" fill="rgb(100, 149, 237)" fill-opacity="0.77"/>
  <circle cx="24" cy="58" r="15" stroke="rgb(100, 149, 237)" fill="rgb(100, 149, 237)" fill-opacity="0.0"/>
  <rect x="31" y="87" width="12" height="15" stroke="rgb(100, 149, 237)" fill="rgb(100, 149, 237)" fill-opacity="1.0"/>
  <circle cx="63" cy="15" r="13" stroke="rgb(100, 149, 237)" fill="rgb(100, 149, 237)" fill-opacity="0.53"/>
  <circle cx="59" cy="53" r="18" stroke="rgb(100, 149, 237)" fill="rgb(100, 149, 237)" fill-opacity="0.28"/>
  <circle cx="7" cy="29" r="8" stroke="rgb(100, 149, 237)" fill="rgb(100, 149, 237)" fill-opacity="0.75"/>
  <circle cx="12" cy="5" r="16" stroke="rgb(100, 149, 237)" fill="rgb(100, 149, 237)" fill-opacity="0.4"/>
  <rect x="61" y="51" width="1" height="19" stroke="rgb(100, 149, 237)" fill="rgb(100, 149, 237)" fill-opacity="0.96"/>
  <rect x="26" y="36" width="21" height="40" stroke="rgb(100, 149, 237)" fill="rgb(100, 149, 237)" fill-opacity="0.83"/>
  <rect x="71" y="30" width="25" height="24" stroke="rgb(100, 149, 237)" fill="rgb(100, 149, 237)" fill-opacity="0.75"/>
  <circle cx="68" cy="60" r="3" stroke="rgb(100, 149, 237)" fill="rgb(100, 149, 237)" fill-opacity="0.83"/>
  <circle cx="56" cy="48" r="19" stroke="rgb(100, 149, 237)" fill="rgb(100, 149, 237)" fill-opacity="0.03"/>
  <rect x="49" y="28" width="31" height="8" stroke="rgb(100, 149, 237)" fill="rgb(100, 149, 237)" fill-opacity="0.68"/>
  <rect x="49" y="86" width="24" height="11" stroke="rgb(100, 149, 237)" fill="rgb(100, 149, 237)" fill-opacity="0.8100000000000001"/>
  <circle cx="43" cy="43" r="17" stroke="rgb(100, 149, 237)" fill="rgb(100, 149, 237)" fill-opacity="0.17"/>
  <circle cx="89" cy="87" r="17" stroke="rgb(100, 149, 237)" fill="rgb(100, 149, 237)" fill-opacity="0.19"/>
  <rect x="19" y="78" width="5" height="4" stroke="rgb(100, 149, 237)" fill="rgb(100, 149, 237)" fill-opacity="0.21"/>
  <rect x="0" y="94" width="0" height="9" stroke="rgb(100, 149, 237)" fill="rgb(100, 149, 237)" fill-opacity="0.72"/>
</svg>
