<?xml version="1.0" encoding="UTF-8" ?>
<!DOCTYPE svg PUBLIC "-//W3C//DTD SVG 1.1//EN" "http://www.w3.org/Graphics/SVG/1.1/DTD/svg11.dtd">
<svg width="100" height="100" xmlns="http://www.w3.org/2000/svg" version="1.1">
  <rect x="0" y="0" width="100" height="100" fill="rgb(255, 248, 220)" fill-opacity="0.43"/>
  <circle cx="82" cy="89" r="3" stroke="rgb(255, 248, 220)" fill="rgb(255, 248, 220)" fill-opacity="0.31"/>
  <rect x="85" y="98" width="35" height="12" stroke="rgb(255, 248, 220)" fill="rgb(255, 248, 220)" fill-opacity="0.93"/>
  <rect x="24" y="64" width="25" height="35" stroke="rgb(255, 248, 220)" fill="rgb(255, 248, 220)" fill-opacity="0.31"/>
  <rect x="22" y="69" width="35" height="21" stroke="rgb(255, 248, 220)" fill="rgb(255, 248, 220)" fill-opacity="0.45"/>
  <circle cx="36" cy="49" r="4" stroke="rgb(255, 248, 220)" fill="rgb(255, 248, 220)" fill-opacity="0.2"/>
  <circle cx="18" cy="31" r="4" stroke="rgb(255, 248, 220)" fill="rgb(255, 248, 220)" fill-opacity="0.13"/>
  <circle cx="27" cy="88" r="4" stroke="rgb(255, 248, 220)" fill="rgb(255, 248, 220)" fill-opacity="0.18"/>
  <circle cx="36" cy="40" r="2" stroke="rgb(255, 248, 220)" fill="rgb(255, 248, 220)" fill-opacity="0.47"/>
  <circle cx="35" cy="4" r="7" stroke="rgb(255, 248, 220)" fill="rgb(255, 248, 220)" fill-opacity="0.63"/>
  <rect x="72" y="6" width="3" height="12" stroke="rgb(255, 248, 220)" fill="rgb(255, 248, 220)" fill-opacity="0.99"/>
  <rect x="7" y="46" width="17" height="31" stroke="rgb(255, 248, 220)" fill="rgb(255, 248, 220)" fill-opacity="0.67"/>
  <circle cx="70" cy="62" r="0" stroke="rgb(255, 248, 220)" fill="rgb(255, 248, 220)" fill-opacity="0.72"/>
  <rect x="56" y="39" width="22" height="0" stroke="rgb(255, 248, 220)" fill="rgb(255, 248, 220)" fill-opacity="0.83"/>
  <rect x="16" y="91" width="31" height="33" stroke="rgb(255, 248, 220)" fill="rgb(255, 248, 220)" fill-opacity="0.52"/>
  <rect x="74" y="36" width="30" height="1" stroke="rgb(255, 248, 220)" fill="rgb(255, 248, 220)" fill-opacity="0.36"/>
  <rect x="36" y="21" width="38" height="5" stroke="rgb(255, 248, 220)" fill="rgb(255, 248, 220)" fill-opacity="0.48"/>
  <circle cx="35" cy="49" r="19" stroke="rgb(255, 248, 220)" fill="rgb(255, 248, 220)" fill-opacity="0.74"/>
  <circle cx="87" cy="27" r="6" stroke="rgb(255, 248, 220)" fill="rgb(255, 248, 220)" fill-opacity="0.05"/>
  <rect x="75" y="86" width="5" height="24" stroke="rgb(255, 248, 220)" fill="rgb(255, 248, 220)" fill-opacity="0.84"/>
  <circle cx="91" cy="34" r="1" stroke="rgb(255, 248, 220)" fill="rgb(255, 248, 220)" fill-opacity="0.6899999999999999"/>
  <circle cx="32" cy="5" r="0" stroke="rgb(255, 248, 220)" fill="rgb(255, 248, 220)" fill-opacity="0.19"/>
</svg>
