<?xml version="1.0" encoding="UTF-8" ?>
<!DOCTYPE svg PUBLIC "-//W3C//DTD SVG 1.1//EN" "http://www.w3.org/Graphics/SVG/1.1/DTD/svg11.dtd">
<svg width="100" height="100" xmlns="http://www.w3.org/2000/svg" version="1.1">
  <rect x="0" y="0" width="100" height="100" fill="rgb(220, 20, 60)" fill-opacity="0.33"/>
  <rect x="93" y="13" width="15" height="21" stroke="rgb(220, 20, 60)" fill="rgb(220, 20, 60)" fill-opacity="0.33"/>
  <circle cx="68" cy="82" r="0" stroke="rgb(220, 20, 60)" fill="rgb(220, 20, 60)" fill-opacity="0.15"/>
  <circle cx="69" cy="55" r="7" stroke="rgb(220, 20, 60)" fill="rgb(220, 20, 60)" fill-opacity="0.67"/>
  <circle cx="81" cy="15" r="7" stroke="rgb(220, 20, 60)" fill="rgb(220, 20, 60)" fill-opacity="0.44"/>
  <rect x="92" y="74" width="35" height="32" stroke="rgb(220, 20, 60)" fill="rgb(220, 20, 60)" fill-opacity="0.97"/>
  <rect x="87" y="81" width="21" height="30" stroke="rgb(220, 20, 60)" fill="rgb(220, 20, 60)" fill-opacity="0.59"/>
  <circle cx="56" cy="75" r="19" stroke="rgb(220, 20, 60)" fill="rgb(220, 20, 60)" fill-opacity="0.45"/>
  <rect x="100" y="61" width="1" height="39" stroke="rgb(220, 20, 60)" fill="rgb(220, 20, 60)" fill-opacity="0.57"/>
  <rect x="58" y="3" width="39" height="3" stroke="rgb(220, 20, 60)" fill="rgb(220, 20, 60)" fill-opacity="0.58"/>
  <circle cx="37" cy="58" r="10" stroke="rgb(220, 20, 60)" fill="rgb(220, 20, 60)" fill-opacity="0.84"/>
  <circle cx="59" cy="7" r="8" stroke="rgb(220, 20, 60)" fill="rgb(220, 20, 60)" fill-opacity="0.59"/>
  <circle cx="68" cy="69" r="18" stroke="rgb(220, 20, 60)" fill="rgb(220, 20, 60)" fill-opacity="0.41"/>
  <rect x="68" y="85" width="36" height="4" stroke="rgb(220, 20, 60)" fill="rgb(220, 20, 60)" fill-opacity="0.75"/>
  <rect x="87" y="84" width="14" height="7" stroke="rgb(220, 20, 60)" fill="rgb(220, 20, 60)" fill-opacity="0.3"/>
  <rect x="43" y="13" width="13" height="25" stroke="rgb(220, 20, 60)" fill="rgb(220, 20, 60)" fill-opacity="0.74"/>
  <rect x="35" y="86" width="14" height="2" stroke="rgb(220, 20, 60)" fill="rgb(220, 20, 60)" fill-opacity="0.95"/>
  <rect x="94" y="52" width="8" height="5" stroke="rgb(220, 20, 60)" fill="rgb(220, 20, 60)" fill-opacity="0.92"/>
  <rect x="29" y="47" width="1" height="1" stroke="rgb(220, 20, 60)" fill="rgb(220, 20, 60)" fill-opacity="0.9"/>
  <rect x="73" y="98" width="27" height="11" stroke="rgb(220, 20, 60)" fill="rgb(220, 20, 60)" fill-opacity="0.77"/>
  <rect x="27" y="86" width="11" height="15" stroke="rgb(220, 20, 60)" fill="rgb(220, 20, 60)" fill-opacity="0.33"/>
  <circle cx="25" cy="48" r="2" stroke="rgb(220, 20, 60)" fill="rgb(220, 20, 60)" fill-opacity="0.49"/>
</svg>
