<?xml version="1.0" encoding="UTF-8" ?>
<!DOCTYPE svg PUBLIC "-//W3C//DTD SVG 1.1//EN" "http://www.w3.org/Graphics/SVG/1.1/DTD/svg11.dtd">
<svg width="100" height="100" xmlns="http://www.w3.org/2000/svg" version="1.1">
  <rect x="0" y="0" width="100" height="100" fill="rgb(0, 100, 0)" fill-opacity="0.36"/>
  <rect x="72" y="21" width="38" height="16" stroke="rgb(0, 100, 0)" fill="rgb(0, 100, 0)" fill-opacity="0.62"/>
  <rect x="57" y="10" width="25" height="13" stroke="rgb(0, 100, 0)" fill="rgb(0, 100, 0)" fill-opacity="0.58"/>
  <circle cx="72" cy="53" r="4" stroke="rgb(0, 100, 0)" fill="rgb(0, 100, 0)" fill-opacity="0.78"/>
  <rect x="70" y="93" width="34" height="17" stroke="rgb(0, 100, 0)" fill="rgb(0, 100, 0)" fill-opacity="0.51"/>
  <circle cx="95" cy="80" r="12" stroke="rgb(0, 100, 0)" fill="rgb(0, 100, 0)" fill-opacity="0.48"/>
  <circle cx="63" cy="14" r="2" stroke="rgb(0, 100, 0)" fill="rgb(0, 100, 0)" fill-opacity="0.77"/>
  <circle cx="18" cy="59" r="15" stroke="rgb(0, 100, 0)" fill="rgb(0, 100, 0)" fill-opacity="0.24"/>
  <circle cx="23" cy="72" r="0" stroke="rgb(0, 100, 0)" fill="rgb(0, 100, 0)" fill-opacity="0.46"/>
  <rect x="36" y="82" width="3" height="14" stroke="rgb(0, 100, 0)" fill="rgb(0, 100, 0)" fill-opacity="0.78"/>
  <circle cx="52" cy="11" r="1" stroke="rgb(0, 100, 0)" fill="rgb(0, 100, 0)" fill-opacity="0.41"/>
  <rect x="34" y="96" width="29" height="17" stroke="rgb(0, 100, 0)" fill="rgb(0, 100, 0)" fill-opacity="0.14"/>
  <circle cx="67" cy="96" r="18" stroke="rgb(0, 100, 0)" fill="rgb(0, 100, 0)" fill-opacity="0.4"/>
  <rect x="51" y="62" width="26" height="20" stroke="rgb(0, 100, 0)" fill="rgb(0, 100, 0)" fill-opacity="0.76"/>
  <circle cx="25" cy="4" r="20" stroke="rgb(0, 100, 0)" fill="rgb(0, 100, 0)" fill-opacity="0.46"/>
  <circle cx="13" cy="64" r="12" stroke="rgb(0, 100, 0)" fill="rgb(0, 100, 0)" fill-opacity="0.43"/>
  <rect x="19" y="56" width="36" height="36" stroke="rgb(0, 100, 0)" fill="rgb(0, 100, 0)" fill-opacity="0.58"/>
  <circle cx="16" cy="20" r="14" stroke="rgb(0, 100, 0)" fill="rgb(0, 100, 0)" fill-opacity="0.83"/>
  <circle cx="20" cy="79" r="20" stroke="rgb(0, 100, 0)" fill="rgb(0, 100, 0)" fill-opacity="0.25"/>
  <circle cx="94" cy="38" r="8" stroke="rgb(0, 100, 0)" fill="rgb(0, 100, 0)" fill-opacity="0.35"/>
  <circle cx="27" cy="18" r="15" stroke="rgb(0, 100, 0)" fill="rgb(0, 100, 0)" fill-opacity="0.86"/>
  <rect x="11" y="73" width="35" height="32" stroke="rgb(0, 100, 0)" fill="rgb(0, 100, 0)" fill-opacity="0.59"/>
</svg>
