<?xml version="1.0" encoding="UTF-8" ?>
<!DOCTYPE svg PUBLIC "-//W3C//DTD SVG 1.1//EN" "http://www.w3.org/Graphics/SVG/1.1/DTD/svg11.dtd">
<svg width="100" height="100" xmlns="http://www.w3.org/2000/svg" version="1.1">
  <rect x="0" y="0" width="100" height="100" fill="rgb(47, 79, 79)" fill-opacity="0.55"/>
  <rect x="96" y="54" width="31" height="15" stroke="rgb(47, 79, 79)" fill="rgb(47, 79, 79)" fill-opacity="0.19"/>
  <rect x="6" y="55" width="27" height="1" stroke="rgb(47, 79, 79)" fill="rgb(47, 79, 79)" fill-opacity="0.97"/>
  <circle cx="34" cy="42" r="1" stroke="rgb(47, 79, 79)" fill="rgb(47, 79, 79)" fill-opacity="0.15"/>
  <circle cx="50" cy="58" r="0" stroke="rgb(47, 79, 79)" fill="rgb(47, 79, 79)" fill-opacity="0.38"/>
  <circle cx="86" cy="97" r="13" stroke="rgb(47, 79, 79)" fill="rgb(47, 79, 79)" fill-opacity="0.63"/>
  <rect x="45" y="99" width="12" height="4" stroke="rgb(47, 79, 79)" fill="rgb(47, 79, 79)" fill-opacity="0.74"/>
  <circle cx="0" cy="89" r="7" stroke="rgb(47, 79, 79)" fill="rgb(47, 79, 79)" fill-opacity="0.12"/>
  <circle cx="59" cy="88" r="6" stroke="rgb(47, 79, 79)" fill="rgb(47, 79, 79)" fill-opacity="0.01"/>
  <circle cx="49" cy="58" r="14" stroke="rgb(47, 79, 79)" fill="rgb(47, 79, 79)" fill-opacity="0.3"/>
  <circle cx="97" cy="17" r="15" stroke="rgb(47, 79, 79)" fill="rgb(47, 79, 79)" fill-opacity="0.06"/>
  <rect x="90" y="34" width="6" height="37" stroke="rgb(47, 79, 79)" fill="rgb(47, 79, 79)" fill-opacity="0.54"/>
  <circle cx="62" cy="61" r="5" stroke="rgb(47, 79, 79)" fill="rgb(47, 79, 79)" fill-opacity="0.41"/>
  <rect x="66" y="26" width="6" height="4" stroke="rgb(47, 79, 79)" fill="rgb(47, 79, 79)" fill-opacity="0.51"/>
  <rect x="62" y="82" width="26" height="0" stroke="rgb(47, 79, 79)" fill="rgb(47, 79, 79)" fill-opacity="0.15"/>
  <circle cx="65" cy="50" r="4" stroke="rgb(47, 79, 79)" fill="rgb(47, 79, 79)" fill-opacity="0.99"/>
  <circle cx="29" cy="44" r="7" stroke="rgb(47, 79, 79)" fill="rgb(47, 79, 79)" fill-opacity="0.93"/>
  <circle cx="80" cy="23" r="2" stroke="rgb(47, 79, 79)" fill="rgb(47, 79, 79)" fill-opacity="0.95"/>
  <rect x="91" y="76" width="38" height="36" stroke="rgb(47, 79, 79)" fill="rgb(47, 79, 79)" fill-opacity="0.03"/>
  <rect x="11" y="21" width="1" height="25" stroke="rgb(47, 79, 79)" fill="rgb(47, 79, 79)" fill-opacity="0.27"/>
  <circle cx="92" cy="34" r="3" stroke="rgb(47, 79, 79)" fill="rgb(47, 79, 79)" fill-opacity="0.48"/>
  <circle cx="76" cy="14" r="18" stroke="rgb(47, 79, 79)" fill="rgb(47, 79, 79)" fill-opacity="0.71"/>
</svg>
