<?xml version="1.0" encoding="UTF-8" ?>
<!DOCTYPE svg PUBLIC "-//W3C//DTD SVG 1.1//EN" "http://www.w3.org/Graphics/SVG/1.1/DTD/svg11.dtd">
<svg width="100" height="100" xmlns="http://www.w3.org/2000/svg" version="1.1">
  <rect x="0" y="0" width="100" height="100" fill="rgb(0, 206, 209)" fill-opacity="0.49"/>
  <circle cx="56" cy="66" r="12" stroke="rgb(0, 206, 209)" fill="rgb(0, 206, 209)" fill-opacity="0.58"/>
  <circle cx="6" cy="43" r="2" stroke="rgb(0, 206, 209)" fill="rgb(0, 206, 209)" fill-opacity="0.61"/>
  <rect x="96" y="16" width="23" height="36" stroke="rgb(0, 206, 209)" fill="rgb(0, 206, 209)" fill-opacity="0.8100000000000001"/>
  <rect x="41" y="34" width="6" height="15" stroke="rgb(0, 206, 209)" fill="rgb(0, 206, 209)" fill-opacity="0.05"/>
  <circle cx="52" cy="93" r="6" stroke="rgb(0, 206, 209)" fill="rgb(0, 206, 209)" fill-opacity="0.5"/>
  <rect x="7" y="65" width="29" height="23" stroke="rgb(0, 206, 209)" fill="rgb(0, 206, 209)" fill-opacity="0.8100000000000001"/>
  <rect x="67" y="64" width="13" height="21" stroke="rgb(0, 206, 209)" fill="rgb(0, 206, 209)" fill-opacity="0.19"/>
  <circle cx="45" cy="68" r="1" stroke="rgb(0, 206, 209)" fill="rgb(0, 206, 209)" fill-opacity="0.76"/>
  <rect x="88" y="35" width="20" height="37" stroke="rgb(0, 206, 209)" fill="rgb(0, 206, 209)" fill-opacity="0.2"/>
  <rect x="1" y="31" width="3" height="29" stroke="rgb(0, 206, 209)" fill="rgb(0, 206, 209)" fill-opacity="0.28"/>
  <rect x="0" y="74" width="22" height="1" stroke="rgb(0, 206, 209)" fill="rgb(0, 206, 209)" fill-opacity="0.59"/>
  <rect x="22" y="17" width="6" height="39" stroke="rgb(0, 206, 209)" fill="rgb(0, 206, 209)" fill-opacity="0.38"/>
  <rect x="41" y="58" width="18" height="17" stroke="rgb(0, 206, 209)" fill="rgb(0, 206, 209)" fill-opacity="0.67"/>
  <rect x="23" y="63" width="31" height="6" stroke="rgb(0, 206, 209)" fill="rgb(0, 206, 209)" fill-opacity="0.4"/>
  <rect x="34" y="67" width="4" height="30" stroke="rgb(0, 206, 209)" fill="rgb(0, 206, 209)" fill-opacity="0.75"/>
  <rect x="97" y="28" width="19" height="9" stroke="rgb(0, 206, 209)" fill="rgb(0, 206, 209)" fill-opacity="0.92"/>
  <circle cx="66" cy="34" r="14" stroke="rgb(0, 206, 209)" fill="rgb(0, 206, 209)" fill-opacity="0.16"/>
  <circle cx="90" cy="51" r="5" stroke="rgb(0, 206, 209)" fill="rgb(0, 206, 209)" fill-opacity="0.25"/>
  <circle cx="24" cy="5" r="12" stroke="rgb(0, 206, 209)" fill="rgb(0, 206, 209)" fill-opacity="0.73"/>
  <circle cx="27" cy="96" r="8" stroke="rgb(0, 206, 209)" fill="rgb(0, 206, 209)" fill-opacity="0.23"/>
  <rect x="30" y="68" width="26" height="11" stroke="rgb(0, 206, 209)" fill="rgb(0, 206, 209)" fill-opacity="0.66"/>
</svg>
