<?xml version="1.0" encoding="UTF-8" ?>
<!DOCTYPE svg PUBLIC "-//W3C//DTD SVG 1.1//EN" "http://www.w3.org/Graphics/SVG/1.1/DTD/svg11.dtd">
<svg width="100" height="100" xmlns="http://www.w3.org/2000/svg" version="1.1">
  <rect x="0" y="0" width="100" height="100" fill="rgb(139, 0, 0)" fill-opacity="0.05"/>
  <circle cx="100" cy="63" r="9" stroke="rgb(139, 0, 0)" fill="rgb(139, 0, 0)" fill-opacity="0.82"/>
  <rect x="74" y="23" width="10" height="28" stroke="rgb(139, 0, 0)" fill="rgb(139, 0, 0)" fill-opacity="0.47"/>
  <circle cx="69" cy="17" r="17" stroke="rgb(139, 0, 0)" fill="rgb(139, 0, 0)" fill-opacity="0.31"/>
  <rect x="55" y="45" width="29" height="22" stroke="rgb(139, 0, 0)" fill="rgb(139, 0, 0)" fill-opacity="0.87"/>
  <rect x="97" y="48" width="1" height="17" stroke="rgb(139, 0, 0)" fill="rgb(139, 0, 0)" fill-opacity="0.26"/>
  <circle cx="44" cy="85" r="19" stroke="rgb(139, 0, 0)" fill="rgb(139, 0, 0)" fill-opacity="0.25"/>
  <circle cx="22" cy="28" r="20" stroke="rgb(139, 0, 0)" fill="rgb(139, 0, 0)" fill-opacity="0.58"/>
  <circle cx="65" cy="51" r="12" stroke="rgb(139, 0, 0)" fill="rgb(139, 0, 0)" fill-opacity="0.75"/>
  <rect x="5" y="49" width="3" height="29" stroke="rgb(139, 0, 0)" fill="rgb(139, 0, 0)" fill-opacity="0.93"/>
  <rect x="13" y="95" width="33" height="28" stroke="rgb(139, 0, 0)" fill="rgb(139, 0, 0)" fill-opacity="0.18"/>
  <rect x="38" y="24" width="4" height="35" stroke="rgb(139, 0, 0)" fill="rgb(139, 0, 0)" fill-opacity="0.17"/>
  <circle cx="78" cy="38" r="10" stroke="rgb(139, 0, 0)" fill="rgb(139, 0, 0)" fill-opacity="0.24"/>
  <rect x="56" y="35" width="37" height="27" stroke="rgb(139, 0, 0)" fill="rgb(139, 0, 0)" fill-opacity="0.31"/>
  <circle cx="17" cy="77" r="20" stroke="rgb(139, 0, 0)" fill="rgb(139, 0, 0)" fill-opacity="0.03"/>
  <circle cx="85" cy="47" r="1" stroke="rgb(139, 0, 0)" fill="rgb(139, 0, 0)" fill-opacity="0.15"/>
  <rect x="81" y="50" width="26" height="27" stroke="rgb(139, 0, 0)" fill="rgb(139, 0, 0)" fill-opacity="0.43"/>
  <rect x="75" y="74" width="2" height="11" stroke="rgb(139, 0, 0)" fill="rgb(139, 0, 0)" fill-opacity="0.25"/>
  <rect x="47" y="6" width="2" height="30" stroke="rgb(139, 0, 0)" fill="rgb(139, 0, 0)" fill-opacity="0.65"/>
  <circle cx="95" cy="75" r="18" stroke="rgb(139, 0, 0)" fill="rgb(139, 0, 0)" fill-opacity="0.43"/>
  <circle cx="95" cy="8" r="7" stroke="rgb(139, 0, 0)" fill="rgb(139, 0, 0)" fill-opacity="0.51"/>
  <rect x="100" y="5" width="17" height="17" stroke="rgb(139, 0, 0)" fill="rgb(139, 0, 0)" fill-opacity="0.42"/>
</svg>
