<?xml version="1.0" encoding="UTF-8" ?>
<!DOCTYPE svg PUBLIC "-//W3C//DTD SVG 1.1//EN" "http://www.w3.org/Graphics/SVG/1.1/DTD/svg11.dtd">
<svg width="100" height="100" xmlns="http://www.w3.org/2000/svg" version="1.1">
  <rect x="0" y="0" width="100" height="100" fill="rgb(47, 79, 79)" fill-opacity="0.67"/>
  <rect x="53" y="52" width="35" height="34" stroke="rgb(47, 79, 79)" fill="rgb(47, 79, 79)" fill-opacity="0.62"/>
  <rect x="96" y="79" width="40" height="20" stroke="rgb(47, 79, 79)" fill="rgb(47, 79, 79)" fill-opacity="0.73"/>
  <circle cx="86" cy="21" r="6" stroke="rgb(47, 79, 79)" fill="rgb(47, 79, 79)" fill-opacity="0.27"/>
  <circle cx="43" cy="13" r="17" stroke="rgb(47, 79, 79)" fill="rgb(47, 79, 79)" fill-opacity="1.0"/>
  <circle cx="13" cy="36" r="12" stroke="rgb(47, 79, 79)" fill="rgb(47, 79, 79)" fill-opacity="0.76"/>
  <rect x="52" y="22" width="15" height="25" stroke="rgb(47, 79, 79)" fill="rgb(47, 79, 79)" fill-opacity="0.64"/>
  <circle cx="32" cy="56" r="4" stroke="rgb(47, 79, 79)" fill="rgb(47, 79, 79)" fill-opacity="0.8100000000000001"/>
  <circle cx="26" cy="33" r="4" stroke="rgb(47, 79, 79)" fill="rgb(47, 79, 79)" fill-opacity="0.84"/>
  <circle cx="37" cy="60" r="3" stroke="rgb(47, 79, 79)" fill="rgb(47, 79, 79)" fill-opacity="0.99"/>
  <rect x="73" y="95" width="25" height="33" stroke="rgb(47, 79, 79)" fill="rgb(47, 79, 79)" fill-opacity="0.22"/>
  <rect x="46" y="29" width="38" height="1" stroke="rgb(47, 79, 79)" fill="rgb(47, 79, 79)" fill-opacity="0.79"/>
  <rect x="3" y="94" width="11" height="2" stroke="rgb(47, 79, 79)" fill="rgb(47, 79, 79)" fill-opacity="0.7"/>
  <rect x="42" y="9" width="38" height="38" stroke="rgb(47, 79, 79)" fill="rgb(47, 79, 79)" fill-opacity="0.17"/>
  <circle cx="40" cy="72" r="6" stroke="rgb(47, 79, 79)" fill="rgb(47, 79, 79)" fill-opacity="0.82"/>
  <rect x="53" y="70" width="35" height="35" stroke="rgb(47, 79, 79)" fill="rgb(47, 79, 79)" fill-opacity="0.97"/>
  <circle cx="11" cy="15" r="2" stroke="rgb(47, 79, 79)" fill="rgb(47, 79, 79)" fill-opacity="0.93"/>
  <circle cx="17" cy="85" r="16" stroke="rgb(47, 79, 79)" fill="rgb(47, 79, 79)" fill-opacity="0.41"/>
  <rect x="59" y="73" width="23" height="18" stroke="rgb(47, 79, 79)" fill="rgb(47, 79, 79)" fill-opacity="0.2"/>
  <circle cx="42" cy="39" r="7" stroke="rgb(47, 79, 79)" fill="rgb(47, 79, 79)" fill-opacity="0.76"/>
  <circle cx="83" cy="71" r="12" stroke="rgb(47, 79, 79)" fill="rgb(47, 79, 79)" fill-opacity="0.28"/>
  <circle cx="92" cy="2" r="8" stroke="rgb(47, 79, 79)" fill="rgb(47, 79, 79)" fill-opacity="0.41"/>
</svg>
