<?xml version="1.0" encoding="UTF-8" ?>
<!DOCTYPE svg PUBLIC "-//W3C//DTD SVG 1.1//EN" "http://www.w3.org/Graphics/SVG/1.1/DTD/svg11.dtd">
<svg width="100" height="100" xmlns="http://www.w3.org/2000/svg" version="1.1">
  <rect x="0" y="0" width="100" height="100" fill="rgb(233, 150, 122)" fill-opacity="0.62"/>
  <circle cx="7" cy="86" r="15" stroke="rgb(233, 150, 122)" fill="rgb(233, 150, 122)" fill-opacity="0.02"/>
  <rect x="83" y="5" width="18" height="32" stroke="rgb(233, 150, 122)" fill="rgb(233, 150, 122)" fill-opacity="0.54"/>
  <rect x="42" y="2" width="22" height="32" stroke="rgb(233, 150, 122)" fill="rgb(233, 150, 122)" fill-opacity="0.92"/>
  <circle cx="21" cy="93" r="8" stroke="rgb(233, 150, 122)" fill="rgb(233, 150, 122)" fill-opacity="0.1"/>
  <circle cx="24" cy="52" r="12" stroke="rgb(233, 150, 122)" fill="rgb(233, 150, 122)" fill-opacity="0.61"/>
  <rect x="81" y="69" width="35" height="7" stroke="rgb(233, 150, 122)" fill="rgb(233, 150, 122)" fill-opacity="0.36"/>
  <rect x="30" y="72" width="4" height="6" stroke="rgb(233, 150, 122)" fill="rgb(233, 150, 122)" fill-opacity="0.05"/>
  <circle cx="17" cy="38" r="7" stroke="rgb(233, 150, 122)" fill="rgb(233, 150, 122)" fill-opacity="0.41"/>
  <rect x="69" y="5" width="34" height="14" stroke="rgb(233, 150, 122)" fill="rgb(233, 150, 122)" fill-opacity="0.36"/>
  <rect x="46" y="52" width="27" height="1" stroke="rgb(233, 150, 122)" fill="rgb(233, 150, 122)" fill-opacity="0.71"/>
  <rect x="53" y="25" width="15" height="2" stroke="rgb(233, 150, 122)" fill="rgb(233, 150, 122)" fill-opacity="0.68"/>
  <circle cx="73" cy="71" r="0" stroke="rgb(233, 150, 122)" fill="rgb(233, 150, 122)" fill-opacity="0.22"/>
  <circle cx="92" cy="73" r="20" stroke="rgb(233, 150, 122)" fill="rgb(233, 150, 122)" fill-opacity="0.24"/>
  <rect x="3" y="64" width="10" height="3" stroke="rgb(233, 150, 122)" fill="rgb(233, 150, 122)" fill-opacity="0.2"/>
  <circle cx="74" cy="59" r="0" stroke="rgb(233, 150, 122)" fill="rgb(233, 150, 122)" fill-opacity="0.6"/>
  <circle cx="77" cy="95" r="10" stroke="rgb(233, 150, 122)" fill="rgb(233, 150, 122)" fill-opacity="0.77"/>
  <rect x="75" y="65" width="10" height="17" stroke="rgb(233, 150, 122)" fill="rgb(233, 150, 122)" fill-opacity="0.61"/>
  <rect x="31" y="62" width="19" height="4" stroke="rgb(233, 150, 122)" fill="rgb(233, 150, 122)" fill-opacity="0.37"/>
  <rect x="2" y="10" width="17" height="39" stroke="rgb(233, 150, 122)" fill="rgb(233, 150, 122)" fill-opacity="0.89"/>
  <circle cx="52" cy="18" r="8" stroke="rgb(233, 150, 122)" fill="rgb(233, 150, 122)" fill-opacity="0.67"/>
  <rect x="76" y="95" width="23" height="38" stroke="rgb(233, 150, 122)" fill="rgb(233, 150, 122)" fill-opacity="0.55"/>
</svg>
