<?xml version="1.0" encoding="UTF-8" ?>
<!DOCTYPE svg PUBLIC "-//W3C//DTD SVG 1.1//EN" "http://www.w3.org/Graphics/SVG/1.1/DTD/svg11.dtd">
<svg width="100" height="100" xmlns="http://www.w3.org/2000/svg" version="1.1">
  <rect x="0" y="0" width="100" height="100" fill="rgb(255, 140, 0)" fill-opacity="0.16"/>
  <rect x="90" y="22" width="25" height="12" stroke="rgb(255, 140, 0)" fill="rgb(255, 140, 0)" fill-opacity="0.31"/>
  <rect x="2" y="1" width="25" height="6" stroke="rgb(255, 140, 0)" fill="rgb(255, 140, 0)" fill-opacity="0.78"/>
  <circle cx="2" cy="33" r="8" stroke="rgb(255, 140, 0)" fill="rgb(255, 140, 0)" fill-opacity="0.88"/>
  <rect x="57" y="99" width="7" height="29" stroke="rgb(255, 140, 0)" fill="rgb(255, 140, 0)" fill-opacity="0.25"/>
  <rect x="39" y="88" width="24" height="0" stroke="rgb(255, 140, 0)" fill="rgb(255, 140, 0)" fill-opacity="0.21"/>
  <rect x="67" y="38" width="4" height="24" stroke="rgb(255, 140, 0)" fill="rgb(255, 140, 0)" fill-opacity="0.15"/>
  <rect x="52" y="88" width="10" height="31" stroke="rgb(255, 140, 0)" fill="rgb(255, 140, 0)" fill-opacity="0.92"/>
  <rect x="98" y="44" width="27" height="19" stroke="rgb(255, 140, 0)" fill="rgb(255, 140, 0)" fill-opacity="0.65"/>
  <rect x="40" y="67" width="38" height="9" stroke="rgb(255, 140, 0)" fill="rgb(255, 140, 0)" fill-opacity="0.72"/>
  <rect x="17" y="37" width="34" height="20" stroke="rgb(255, 140, 0)" fill="rgb(255, 140, 0)" fill-opacity="0.31"/>
  <rect x="24" y="62" width="38" height="13" stroke="rgb(255, 140, 0)" fill="rgb(255, 140, 0)" fill-opacity="0.65"/>
  <rect x="75" y="68" width="19" height="31" stroke="rgb(255, 140, 0)" fill="rgb(255, 140, 0)" fill-opacity="0.39"/>
  <rect x="95" y="43" width="4" height="31" stroke="rgb(255, 140, 0)" fill="rgb(255, 140, 0)" fill-opacity="0.73"/>
  <rect x="70" y="54" width="11" height="27" stroke="rgb(255, 140, 0)" fill="rgb(255, 140, 0)" fill-opacity="0.21"/>
  <circle cx="68" cy="75" r="10" stroke="rgb(255, 140, 0)" fill="rgb(255, 140, 0)" fill-opacity="0.07000000000000001"/>
  <rect x="9" y="54" width="7" height="3" stroke="rgb(255, 140, 0)" fill="rgb(255, 140, 0)" fill-opacity="0.86"/>
  <circle cx="20" cy="34" r="12" stroke="rgb(255, 140, 0)" fill="rgb(255, 140, 0)" fill-opacity="0.73"/>
  <circle cx="86" cy="79" r="12" stroke="rgb(255, 140, 0)" fill="rgb(255, 140, 0)" fill-opacity="0.98"/>
  <circle cx="81" cy="2" r="17" stroke="rgb(255, 140, 0)" fill="rgb(255, 140, 0)" fill-opacity="0.27"/>
  <circle cx="92" cy="59" r="8" stroke="rgb(255, 140, 0)" fill="rgb(255, 140, 0)" fill-opacity="0.34"/>
  <rect x="41" y="23" width="11" height="16" stroke="rgb(255, 140, 0)" fill="rgb(255, 140, 0)" fill-opacity="0.98"/>
</svg>
