<?xml version="1.0" encoding="UTF-8" ?>
<!DOCTYPE svg PUBLIC "-//W3C//DTD SVG 1.1//EN" "http://www.w3.org/Graphics/SVG/1.1/DTD/svg11.dtd">
<svg width="100" height="100" xmlns="http://www.w3.org/2000/svg" version="1.1">
  <rect x="0" y="0" width="100" height="100" fill="rgb(169, 169, 169)" fill-opacity="0.68"/>
  <circle cx="63" cy="79" r="8" stroke="rgb(169, 169, 169)" fill="rgb(169, 169, 169)" fill-opacity="0.18"/>
  <rect x="3" y="73" width="24" height="6" stroke="rgb(169, 169, 169)" fill="rgb(169, 169, 169)" fill-opacity="0.01"/>
  <circle cx="57" cy="2" r="18" stroke="rgb(169, 169, 169)" fill="rgb(169, 169, 169)" fill-opacity="0.12"/>
  <circle cx="55" cy="14" r="3" stroke="rgb(169, 169, 169)" fill="rgb(169, 169, 169)" fill-opacity="0.26"/>
  <circle cx="12" cy="47" r="12" stroke="rgb(169, 169, 169)" fill="rgb(169, 169, 169)" fill-opacity="0.47"/>
  <circle cx="29" cy="34" r="6" stroke="rgb(169, 169, 169)" fill="rgb(169, 169, 169)" fill-opacity="0.7"/>
  <rect x="99" y="38" width="25" height="29" stroke="rgb(169, 169, 169)" fill="rgb(169, 169, 169)" fill-opacity="0.96"/>
  <circle cx="3" cy="8" r="9" stroke="rgb(169, 169, 169)" fill="rgb(169, 169, 169)" fill-opacity="0.58"/>
  <circle cx="85" cy="76" r="8" stroke="rgb(169, 169, 169)" fill="rgb(169, 169, 169)" fill-opacity="0.44"/>
  <circle cx="29" cy="95" r="3" stroke="rgb(169, 169, 169)" fill="rgb(169, 169, 169)" fill-opacity="0.06"/>
  <circle cx="87" cy="93" r="12" stroke="rgb(169, 169, 169)" fill="rgb(169, 169, 169)" fill-opacity="0.34"/>
  <circle cx="41" cy="41" r="13" stroke="rgb(169, 169, 169)" fill="rgb(169, 169, 169)" fill-opacity="0.36"/>
  <rect x="53" y="30" width="34" height="20" stroke="rgb(169, 169, 169)" fill="rgb(169, 169, 169)" fill-opacity="0.9399999999999999"/>
  <circle cx="64" cy="5" r="14" stroke="rgb(169, 169, 169)" fill="rgb(169, 169, 169)" fill-opacity="0.9399999999999999"/>
  <circle cx="89" cy="48" r="6" stroke="rgb(169, 169, 169)" fill="rgb(169, 169, 169)" fill-opacity="0.68"/>
  <circle cx="25" cy="58" r="13" stroke="rgb(169, 169, 169)" fill="rgb(169, 169, 169)" fill-opacity="0.37"/>
  <rect x="8" y="37" width="20" height="13" stroke="rgb(169, 169, 169)" fill="rgb(169, 169, 169)" fill-opacity="0.24"/>
  <rect x="22" y="96" width="36" height="10" stroke="rgb(169, 169, 169)" fill="rgb(169, 169, 169)" fill-opacity="0.58"/>
  <circle cx="9" cy="32" r="0" stroke="rgb(169, 169, 169)" fill="rgb(169, 169, 169)" fill-opacity="0.68"/>
  <circle cx="90" cy="81" r="16" stroke="rgb(169, 169, 169)" fill="rgb(169, 169, 169)" fill-opacity="0.66"/>
  <rect x="71" y="11" width="11" height="14" stroke="rgb(169, 169, 169)" fill="rgb(169, 169, 169)" fill-opacity="0.6899999999999999"/>
</svg>
