<?xml version="1.0" encoding="UTF-8" ?>
<!DOCTYPE svg PUBLIC "-//W3C//DTD SVG 1.1//EN" "http://www.w3.org/Graphics/SVG/1.1/DTD/svg11.dtd">
<svg width="100" height="100" xmlns="http://www.w3.org/2000/svg" version="1.1">
  <rect x="0" y="0" width="100" height="100" fill="rgb(85, 107, 47)" fill-opacity="0.61"/>
  <circle cx="95" cy="41" r="6" stroke="rgb(85, 107, 47)" fill="rgb(85, 107, 47)" fill-opacity="0.24"/>
  <circle cx="39" cy="18" r="12" stroke="rgb(85, 107, 47)" fill="rgb(85, 107, 47)" fill-opacity="0.46"/>
  <rect x="96" y="11" width="12" height="2" stroke="rgb(85, 107, 47)" fill="rgb(85, 107, 47)" fill-opacity="0.8100000000000001"/>
  <circle cx="85" cy="46" r="11" stroke="rgb(85, 107, 47)" fill="rgb(85, 107, 47)" fill-opacity="0.83"/>
  <rect x="27" y="82" width="9" height="9" stroke="rgb(85, 107, 47)" fill="rgb(85, 107, 47)" fill-opacity="0.27"/>
  <rect x="79" y="26" width="40" height="35" stroke="rgb(85, 107, 47)" fill="rgb(85, 107, 47)" fill-opacity="0.66"/>
  <circle cx="49" cy="22" r="0" stroke="rgb(85, 107, 47)" fill="rgb(85, 107, 47)" fill-opacity="0.86"/>
  <circle cx="83" cy="79" r="4" stroke="rgb(85, 107, 47)" fill="rgb(85, 107, 47)" fill-opacity="0.62"/>
  <circle cx="12" cy="91" r="9" stroke="rgb(85, 107, 47)" fill="rgb(85, 107, 47)" fill-opacity="0.9"/>
  <circle cx="17" cy="31" r="8" stroke="rgb(85, 107, 47)" fill="rgb(85, 107, 47)" fill-opacity="0.6"/>
  <rect x="0" y="17" width="35" height="17" stroke="rgb(85, 107, 47)" fill="rgb(85, 107, 47)" fill-opacity="0.27"/>
  <circle cx="89" cy="2" r="20" stroke="rgb(85, 107, 47)" fill="rgb(85, 107, 47)" fill-opacity="0.19"/>
  <circle cx="8" cy="62" r="16" stroke="rgb(85, 107, 47)" fill="rgb(85, 107, 47)" fill-opacity="0.99"/>
  <rect x="41" y="41" width="1" height="24" stroke="rgb(85, 107, 47)" fill="rgb(85, 107, 47)" fill-opacity="0.13"/>
  <circle cx="7" cy="9" r="20" stroke="rgb(85, 107, 47)" fill="rgb(85, 107, 47)" fill-opacity="0.49"/>
  <rect x="1" y="78" width="23" height="34" stroke="rgb(85, 107, 47)" fill="rgb(85, 107, 47)" fill-opacity="0.6899999999999999"/>
  <circle cx="25" cy="38" r="3" stroke="rgb(85, 107, 47)" fill="rgb(85, 107, 47)" fill-opacity="0.8"/>
  <rect x="21" y="58" width="28" height="10" stroke="rgb(85, 107, 47)" fill="rgb(85, 107, 47)" fill-opacity="0.66"/>
  <rect x="92" y="47" width="16" height="28" stroke="rgb(85, 107, 47)" fill="rgb(85, 107, 47)" fill-opacity="0.65"/>
  <circle cx="100" cy="34" r="15" stroke="rgb(85, 107, 47)" fill="rgb(85, 107, 47)" fill-opacity="0.96"/>
  <circle cx="92" cy="21" r="12" stroke="rgb(85, 107, 47)" fill="rgb(85, 107, 47)" fill-opacity="0.41"/>
</svg>
