<?xml version="1.0" encoding="UTF-8" ?>
<!DOCTYPE svg PUBLIC "-//W3C//DTD SVG 1.1//EN" "http://www.w3.org/Graphics/SVG/1.1/DTD/svg11.dtd">
<svg width="100" height="100" xmlns="http://www.w3.org/2000/svg" version="1.1">
  <rect x="0" y="0" width="100" height="100" fill="rgb(72, 61, 139)" fill-opacity="0.08"/>
  <rect x="45" y="73" width="12" height="29" stroke="rgb(72, 61, 139)" fill="rgb(72, 61, 139)" fill-opacity="0.03"/>
  <circle cx="61" cy="5" r="12" stroke="rgb(72, 61, 139)" fill="rgb(72, 61, 139)" fill-opacity="0.58"/>
  <circle cx="76" cy="77" r="14" stroke="rgb(72, 61, 139)" fill="rgb(72, 61, 139)" fill-opacity="0.44"/>
  <circle cx="86" cy="70" r="7" stroke="rgb(72, 61, 139)" fill="rgb(72, 61, 139)" fill-opacity="0.88"/>
  <rect x="99" y="80" width="24" height="14" stroke="rgb(72, 61, 139)" fill="rgb(72, 61, 139)" fill-opacity="0.55"/>
  <rect x="86" y="11" width="27" height="27" stroke="rgb(72, 61, 139)" fill="rgb(72, 61, 139)" fill-opacity="0.5600000000000001"/>
  <rect x="6" y="30" width="31" height="11" stroke="rgb(72, 61, 139)" fill="rgb(72, 61, 139)" fill-opacity="0.8"/>
  <circle cx="18" cy="76" r="13" stroke="rgb(72, 61, 139)" fill="rgb(72, 61, 139)" fill-opacity="0.63"/>
  <circle cx="84" cy="65" r="13" stroke="rgb(72, 61, 139)" fill="rgb(72, 61, 139)" fill-opacity="0.42"/>
  <rect x="71" y="94" width="32" height="27" stroke="rgb(72, 61, 139)" fill="rgb(72, 61, 139)" fill-opacity="0.46"/>
  <rect x="48" y="45" width="17" height="28" stroke="rgb(72, 61, 139)" fill="rgb(72, 61, 139)" fill-opacity="0.63"/>
  <rect x="27" y="20" width="0" height="16" stroke="rgb(72, 61, 139)" fill="rgb(72, 61, 139)" fill-opacity="0.68"/>
  <rect x="19" y="75" width="39" height="2" stroke="rgb(72, 61, 139)" fill="rgb(72, 61, 139)" fill-opacity="0.4"/>
  <circle cx="33" cy="12" r="18" stroke="rgb(72, 61, 139)" fill="rgb(72, 61, 139)" fill-opacity="0.87"/>
  <circle cx="44" cy="20" r="7" stroke="rgb(72, 61, 139)" fill="rgb(72, 61, 139)" fill-opacity="0.0"/>
  <circle cx="63" cy="90" r="11" stroke="rgb(72, 61, 139)" fill="rgb(72, 61, 139)" fill-opacity="0.61"/>
  <rect x="11" y="53" width="7" height="9" stroke="rgb(72, 61, 139)" fill="rgb(72, 61, 139)" fill-opacity="0.19"/>
  <circle cx="54" cy="93" r="17" stroke="rgb(72, 61, 139)" fill="rgb(72, 61, 139)" fill-opacity="0.67"/>
  <rect x="68" y="81" width="28" height="20" stroke="rgb(72, 61, 139)" fill="rgb(72, 61, 139)" fill-opacity="0.76"/>
  <rect x="64" y="71" width="15" height="13" stroke="rgb(72, 61, 139)" fill="rgb(72, 61, 139)" fill-opacity="0.89"/>
  <circle cx="94" cy="10" r="0" stroke="rgb(72, 61, 139)" fill="rgb(72, 61, 139)" fill-opacity="0.26"/>
</svg>
