<?xml version="1.0" encoding="UTF-8" ?>
<!DOCTYPE svg PUBLIC "-//W3C//DTD SVG 1.1//EN" "http://www.w3.org/Graphics/SVG/1.1/DTD/svg11.dtd">
<svg width="100" height="100" xmlns="http://www.w3.org/2000/svg" version="1.1">
  <rect x="0" y="0" width="100" height="100" fill="rgb(169, 169, 169)" fill-opacity="0.52"/>
  <rect x="2" y="0" width="26" height="23" stroke="rgb(169, 169, 169)" fill="rgb(169, 169, 169)" fill-opacity="0.22"/>
  <circle cx="16" cy="15" r="20" stroke="rgb(169, 169, 169)" fill="rgb(169, 169, 169)" fill-opacity="0.8"/>
  <circle cx="29" cy="41" r="10" stroke="rgb(169, 169, 169)" fill="rgb(169, 169, 169)" fill-opacity="0.19"/>
  <rect x="56" y="45" width="2" height="34" stroke="rgb(169, 169, 169)" fill="rgb(169, 169, 169)" fill-opacity="0.92"/>
  <rect x="32" y="100" width="24" height="28" stroke="rgb(169, 169, 169)" fill="rgb(169, 169, 169)" fill-opacity="0.71"/>
  <circle cx="85" cy="83" r="5" stroke="rgb(169, 169, 169)" fill="rgb(169, 169, 169)" fill-opacity="0.09"/>
  <rect x="84" y="53" width="27" height="40" stroke="rgb(169, 169, 169)" fill="rgb(169, 169, 169)" fill-opacity="0.92"/>
  <circle cx="65" cy="44" r="9" stroke="rgb(169, 169, 169)" fill="rgb(169, 169, 169)" fill-opacity="0.82"/>
  <rect x="45" y="15" width="10" height="36" stroke="rgb(169, 169, 169)" fill="rgb(169, 169, 169)" fill-opacity="0.26"/>
  <circle cx="12" cy="12" r="16" stroke="rgb(169, 169, 169)" fill="rgb(169, 169, 169)" fill-opacity="0.38"/>
  <circle cx="38" cy="92" r="11" stroke="rgb(169, 169, 169)" fill="rgb(169, 169, 169)" fill-opacity="0.71"/>
  <circle cx="76" cy="42" r="14" stroke="rgb(169, 169, 169)" fill="rgb(169, 169, 169)" fill-opacity="0.48"/>
  <rect x="8" y="80" width="9" height="3" stroke="rgb(169, 169, 169)" fill="rgb(169, 169, 169)" fill-opacity="0.39"/>
  <rect x="0" y="93" width="4" height="6" stroke="rgb(169, 169, 169)" fill="rgb(169, 169, 169)" fill-opacity="0.99"/>
  <rect x="41" y="40" width="36" height="38" stroke="rgb(169, 169, 169)" fill="rgb(169, 169, 169)" fill-opacity="0.76"/>
  <rect x="32" y="75" width="40" height="20" stroke="rgb(169, 169, 169)" fill="rgb(169, 169, 169)" fill-opacity="0.79"/>
  <rect x="57" y="21" width="40" height="12" stroke="rgb(169, 169, 169)" fill="rgb(169, 169, 169)" fill-opacity="0.02"/>
  <rect x="10" y="100" width="32" height="2" stroke="rgb(169, 169, 169)" fill="rgb(169, 169, 169)" fill-opacity="0.23"/>
  <rect x="72" y="14" width="35" height="28" stroke="rgb(169, 169, 169)" fill="rgb(169, 169, 169)" fill-opacity="0.23"/>
  <circle cx="8" cy="32" r="17" stroke="rgb(169, 169, 169)" fill="rgb(169, 169, 169)" fill-opacity="0.41"/>
  <circle cx="84" cy="74" r="15" stroke="rgb(169, 169, 169)" fill="rgb(169, 169, 169)" fill-opacity="0.39"/>
</svg>
