<?xml version="1.0" encoding="UTF-8" ?>
<!DOCTYPE svg PUBLIC "-//W3C//DTD SVG 1.1//EN" "http://www.w3.org/Graphics/SVG/1.1/DTD/svg11.dtd">
<svg width="100" height="100" xmlns="http://www.w3.org/2000/svg" version="1.1">
  <rect x="0" y="0" width="100" height="100" fill="rgb(184, 134, 11)" fill-opacity="0.57"/>
  <circle cx="72" cy="90" r="6" stroke="rgb(184, 134, 11)" fill="rgb(184, 134, 11)" fill-opacity="0.82"/>
  <circle cx="84" cy="48" r="8" stroke="rgb(184, 134, 11)" fill="rgb(184, 134, 11)" fill-opacity="0.54"/>
  <circle cx="75" cy="12" r="19" stroke="rgb(184, 134, 11)" fill="rgb(184, 134, 11)" fill-opacity="0.05"/>
  <rect x="14" y="48" width="23" height="36" stroke="rgb(184, 134, 11)" fill="rgb(184, 134, 11)" fill-opacity="0.9399999999999999"/>
  <rect x="96" y="91" width="33" height="1" stroke="rgb(184, 134, 11)" fill="rgb(184, 134, 11)" fill-opacity="0.67"/>
  <rect x="54" y="15" width="35" height="33" stroke="rgb(184, 134, 11)" fill="rgb(184, 134, 11)" fill-opacity="0.31"/>
  <rect x="32" y="17" width="14" height="28" stroke="rgb(184, 134, 11)" fill="rgb(184, 134, 11)" fill-opacity="0.5600000000000001"/>
  <circle cx="43" cy="38" r="13" stroke="rgb(184, 134, 11)" fill="rgb(184, 134, 11)" fill-opacity="0.31"/>
  <rect x="19" y="77" width="22" height="31" stroke="rgb(184, 134, 11)" fill="rgb(184, 134, 11)" fill-opacity="0.26"/>
  <rect x="48" y="74" width="0" height="22" stroke="rgb(184, 134, 11)" fill="rgb(184, 134, 11)" fill-opacity="0.5600000000000001"/>
  <rect x="76" y="10" width="30" height="29" stroke="rgb(184, 134, 11)" fill="rgb(184, 134, 11)" fill-opacity="0.12"/>
  <rect x="64" y="87" width="24" height="19" stroke="rgb(184, 134, 11)" fill="rgb(184, 134, 11)" fill-opacity="0.18"/>
  <circle cx="16" cy="86" r="0" stroke="rgb(184, 134, 11)" fill="rgb(184, 134, 11)" fill-opacity="0.03"/>
  <rect x="13" y="30" width="3" height="2" stroke="rgb(184, 134, 11)" fill="rgb(184, 134, 11)" fill-opacity="0.43"/>
  <circle cx="91" cy="77" r="19" stroke="rgb(184, 134, 11)" fill="rgb(184, 134, 11)" fill-opacity="0.8"/>
  <rect x="14" y="59" width="33" height="28" stroke="rgb(184, 134, 11)" fill="rgb(184, 134, 11)" fill-opacity="0.83"/>
  <rect x="100" y="65" width="27" height="11" stroke="rgb(184, 134, 11)" fill="rgb(184, 134, 11)" fill-opacity="0.09"/>
  <rect x="30" y="10" width="37" height="22" stroke="rgb(184, 134, 11)" fill="rgb(184, 134, 11)" fill-opacity="0.68"/>
  <rect x="39" y="30" width="15" height="37" stroke="rgb(184, 134, 11)" fill="rgb(184, 134, 11)" fill-opacity="0.82"/>
  <circle cx="17" cy="7" r="3" stroke="rgb(184, 134, 11)" fill="rgb(184, 134, 11)" fill-opacity="0.63"/>
  <rect x="93" y="11" width="17" height="27" stroke="rgb(184, 134, 11)" fill="rgb(184, 134, 11)" fill-opacity="0.36"/>
</svg>
