<?xml version="1.0" encoding="UTF-8" ?>
<!DOCTYPE svg PUBLIC "-//W3C//DTD SVG 1.1//EN" "http://www.w3.org/Graphics/SVG/1.1/DTD/svg11.dtd">
<svg width="100" height="100" xmlns="http://www.w3.org/2000/svg" version="1.1">
  <rect x="0" y="0" width="100" height="100" fill="rgb(153, 50, 204)" fill-opacity="0.12"/>
  <circle cx="85" cy="4" r="20" stroke="rgb(153, 50, 204)" fill="rgb(153, 50, 204)" fill-opacity="0.19"/>
  <rect x="74" y="93" width="32" height="20" stroke="rgb(153, 50, 204)" fill="rgb(153, 50, 204)" fill-opacity="0.41"/>
  <circle cx="6" cy="69" r="17" stroke="rgb(153, 50, 204)" fill="rgb(153, 50, 204)" fill-opacity="0.52"/>
  <rect x="71" y="98" width="22" height="12" stroke="rgb(153, 50, 204)" fill="rgb(153, 50, 204)" fill-opacity="0.22"/>
  <rect x="87" y="75" width="38" height="16" stroke="rgb(153, 50, 204)" fill="rgb(153, 50, 204)" fill-opacity="0.95"/>
  <rect x="61" y="52" width="17" height="5" stroke="rgb(153, 50, 204)" fill="rgb(153, 50, 204)" fill-opacity="0.38"/>
  <rect x="0" y="47" width="1" height="31" stroke="rgb(153, 50, 204)" fill="rgb(153, 50, 204)" fill-opacity="0.16"/>
  <circle cx="66" cy="9" r="3" stroke="rgb(153, 50, 204)" fill="rgb(153, 50, 204)" fill-opacity="0.3"/>
  <circle cx="49" cy="86" r="2" stroke="rgb(153, 50, 204)" fill="rgb(153, 50, 204)" fill-opacity="0.76"/>
  <circle cx="56" cy="0" r="8" stroke="rgb(153, 50, 204)" fill="rgb(153, 50, 204)" fill-opacity="0.78"/>
  <rect x="89" y="17" width="40" height="31" stroke="rgb(153, 50, 204)" fill="rgb(153, 50, 204)" fill-opacity="0.3"/>
  <rect x="76" y="14" width="24" height="15" stroke="rgb(153, 50, 204)" fill="rgb(153, 50, 204)" fill-opacity="0.88"/>
  <rect x="87" y="24" width="13" height="40" stroke="rgb(153, 50, 204)" fill="rgb(153, 50, 204)" fill-opacity="0.31"/>
  <circle cx="18" cy="98" r="0" stroke="rgb(153, 50, 204)" fill="rgb(153, 50, 204)" fill-opacity="0.02"/>
  <rect x="74" y="32" width="9" height="16" stroke="rgb(153, 50, 204)" fill="rgb(153, 50, 204)" fill-opacity="0.12"/>
  <circle cx="77" cy="23" r="11" stroke="rgb(153, 50, 204)" fill="rgb(153, 50, 204)" fill-opacity="0.82"/>
  <rect x="50" y="57" width="18" height="11" stroke="rgb(153, 50, 204)" fill="rgb(153, 50, 204)" fill-opacity="0.37"/>
  <rect x="88" y="100" width="39" height="10" stroke="rgb(153, 50, 204)" fill="rgb(153, 50, 204)" fill-opacity="0.59"/>
  <circle cx="56" cy="14" r="11" stroke="rgb(153, 50, 204)" fill="rgb(153, 50, 204)" fill-opacity="0.09"/>
  <circle cx="34" cy="40" r="11" stroke="rgb(153, 50, 204)" fill="rgb(153, 50, 204)" fill-opacity="0.04"/>
  <rect x="88" y="11" width="13" height="35" stroke="rgb(153, 50, 204)" fill="rgb(153, 50, 204)" fill-opacity="0.82"/>
</svg>
