<?xml version="1.0" encoding="UTF-8" ?>
<!DOCTYPE svg PUBLIC "-//W3C//DTD SVG 1.1//EN" "http://www.w3.org/Graphics/SVG/1.1/DTD/svg11.dtd">
<svg width="100" height="100" xmlns="http://www.w3.org/2000/svg" version="1.1">
  <rect x="0" y="0" width="100" height="100" fill="rgb(148, 0, 211)" fill-opacity="0.16"/>
  <rect x="16" y="63" width="29" height="9" stroke="rgb(148, 0, 211)" fill="rgb(148, 0, 211)" fill-opacity="0.41"/>
  <circle cx="61" cy="55" r="7" stroke="rgb(148, 0, 211)" fill="rgb(148, 0, 211)" fill-opacity="0.28"/>
  <rect x="50" y="21" width="37" height="7" stroke="rgb(148, 0, 211)" fill="rgb(148, 0, 211)" fill-opacity="0.77"/>
  <rect x="14" y="48" width="35" height="19" stroke="rgb(148, 0, 211)" fill="rgb(148, 0, 211)" fill-opacity="0.57"/>
  <rect x="71" y="86" width="19" height="25" stroke="rgb(148, 0, 211)" fill="rgb(148, 0, 211)" fill-opacity="0.61"/>
  <rect x="74" y="26" width="37" height="37" stroke="rgb(148, 0, 211)" fill="rgb(148, 0, 211)" fill-opacity="0.28"/>
  <rect x="79" y="22" width="9" height="29" stroke="rgb(148, 0, 211)" fill="rgb(148, 0, 211)" fill-opacity="0.98"/>
  <circle cx="91" cy="20" r="2" stroke="rgb(148, 0, 211)" fill="rgb(148, 0, 211)" fill-opacity="0.91"/>
  <rect x="54" y="17" width="0" height="4" stroke="rgb(148, 0, 211)" fill="rgb(148, 0, 211)" fill-opacity="0.06"/>
  <rect x="29" y="17" width="15" height="29" stroke="rgb(148, 0, 211)" fill="rgb(148, 0, 211)" fill-opacity="0.59"/>
  <rect x="68" y="69" width="14" height="10" stroke="rgb(148, 0, 211)" fill="rgb(148, 0, 211)" fill-opacity="0.07000000000000001"/>
  <circle cx="94" cy="60" r="20" stroke="rgb(148, 0, 211)" fill="rgb(148, 0, 211)" fill-opacity="0.79"/>
  <rect x="41" y="28" width="3" height="27" stroke="rgb(148, 0, 211)" fill="rgb(148, 0, 211)" fill-opacity="0.35"/>
  <circle cx="6" cy="74" r="0" stroke="rgb(148, 0, 211)" fill="rgb(148, 0, 211)" fill-opacity="0.82"/>
  <circle cx="1" cy="12" r="1" stroke="rgb(148, 0, 211)" fill="rgb(148, 0, 211)" fill-opacity="0.3"/>
  <rect x="6" y="77" width="27" height="33" stroke="rgb(148, 0, 211)" fill="rgb(148, 0, 211)" fill-opacity="0.53"/>
  <circle cx="64" cy="82" r="10" stroke="rgb(148, 0, 211)" fill="rgb(148, 0, 211)" fill-opacity="0.57"/>
  <circle cx="58" cy="86" r="10" stroke="rgb(148, 0, 211)" fill="rgb(148, 0, 211)" fill-opacity="0.97"/>
  <rect x="19" y="62" width="9" height="37" stroke="rgb(148, 0, 211)" fill="rgb(148, 0, 211)" fill-opacity="0.65"/>
  <circle cx="79" cy="35" r="1" stroke="rgb(148, 0, 211)" fill="rgb(148, 0, 211)" fill-opacity="0.15"/>
  <rect x="69" y="86" width="8" height="4" stroke="rgb(148, 0, 211)" fill="rgb(148, 0, 211)" fill-opacity="0.48"/>
</svg>
