<?xml version="1.0" encoding="UTF-8" ?>
<!DOCTYPE svg PUBLIC "-//W3C//DTD SVG 1.1//EN" "http://www.w3.org/Graphics/SVG/1.1/DTD/svg11.dtd">
<svg width="100" height="100" xmlns="http://www.w3.org/2000/svg" version="1.1">
  <rect x="0" y="0" width="100" height="100" fill="rgb(189, 183, 107)" fill-opacity="0.62"/>
  <circle cx="2" cy="87" r="10" stroke="rgb(189, 183, 107)" fill="rgb(189, 183, 107)" fill-opacity="0.12"/>
  <circle cx="6" cy="84" r="19" stroke="rgb(189, 183, 107)" fill="rgb(189, 183, 107)" fill-opacity="0.28"/>
  <circle cx="18" cy="37" r="10" stroke="rgb(189, 183, 107)" fill="rgb(189, 183, 107)" fill-opacity="0.37"/>
  <rect x="53" y="95" width="36" height="0" stroke="rgb(189, 183, 107)" fill="rgb(189, 183, 107)" fill-opacity="0.19"/>
  <rect x="5" y="2" width="11" height="16" stroke="rgb(189, 183, 107)" fill="rgb(189, 183, 107)" fill-opacity="0.96"/>
  <rect x="55" y="91" width="25" height="33" stroke="rgb(189, 183, 107)" fill="rgb(189, 183, 107)" fill-opacity="0.77"/>
  <rect x="97" y="31" width="5" height="29" stroke="rgb(189, 183, 107)" fill="rgb(189, 183, 107)" fill-opacity="0.32"/>
  <circle cx="21" cy="40" r="16" stroke="rgb(189, 183, 107)" fill="rgb(189, 183, 107)" fill-opacity="0.18"/>
  <rect x="86" y="53" width="38" height="15" stroke="rgb(189, 183, 107)" fill="rgb(189, 183, 107)" fill-opacity="0.5600000000000001"/>
  <circle cx="59" cy="88" r="7" stroke="rgb(189, 183, 107)" fill="rgb(189, 183, 107)" fill-opacity="0.3"/>
  <circle cx="77" cy="83" r="20" stroke="rgb(189, 183, 107)" fill="rgb(189, 183, 107)" fill-opacity="0.84"/>
  <circle cx="5" cy="31" r="1" stroke="rgb(189, 183, 107)" fill="rgb(189, 183, 107)" fill-opacity="0.33"/>
  <circle cx="54" cy="64" r="14" stroke="rgb(189, 183, 107)" fill="rgb(189, 183, 107)" fill-opacity="0.34"/>
  <circle cx="74" cy="69" r="5" stroke="rgb(189, 183, 107)" fill="rgb(189, 183, 107)" fill-opacity="0.44"/>
  <rect x="58" y="44" width="20" height="16" stroke="rgb(189, 183, 107)" fill="rgb(189, 183, 107)" fill-opacity="0.42"/>
  <rect x="98" y="58" width="30" height="18" stroke="rgb(189, 183, 107)" fill="rgb(189, 183, 107)" fill-opacity="0.84"/>
  <rect x="19" y="67" width="10" height="35" stroke="rgb(189, 183, 107)" fill="rgb(189, 183, 107)" fill-opacity="0.8"/>
  <circle cx="28" cy="18" r="10" stroke="rgb(189, 183, 107)" fill="rgb(189, 183, 107)" fill-opacity="0.22"/>
  <rect x="55" y="37" width="29" height="12" stroke="rgb(189, 183, 107)" fill="rgb(189, 183, 107)" fill-opacity="0.82"/>
  <circle cx="30" cy="88" r="16" stroke="rgb(189, 183, 107)" fill="rgb(189, 183, 107)" fill-opacity="0.87"/>
  <circle cx="26" cy="74" r="3" stroke="rgb(189, 183, 107)" fill="rgb(189, 183, 107)" fill-opacity="0.24"/>
</svg>
