<?xml version="1.0" encoding="UTF-8" ?>
<!DOCTYPE svg PUBLIC "-//W3C//DTD SVG 1.1//EN" "http://www.w3.org/Graphics/SVG/1.1/DTD/svg11.dtd">
<svg width="100" height="100" xmlns="http://www.w3.org/2000/svg" version="1.1">
  <rect x="0" y="0" width="100" height="100" fill="rgb(143, 188, 143)" fill-opacity="0.51"/>
  <circle cx="35" cy="16" r="6" stroke="rgb(143, 188, 143)" fill="rgb(143, 188, 143)" fill-opacity="0.75"/>
  <circle cx="18" cy="42" r="12" stroke="rgb(143, 188, 143)" fill="rgb(143, 188, 143)" fill-opacity="0.43"/>
  <circle cx="24" cy="46" r="0" stroke="rgb(143, 188, 143)" fill="rgb(143, 188, 143)" fill-opacity="0.99"/>
  <rect x="25" y="69" width="2" height="36" stroke="rgb(143, 188, 143)" fill="rgb(143, 188, 143)" fill-opacity="0.52"/>
  <circle cx="84" cy="92" r="15" stroke="rgb(143, 188, 143)" fill="rgb(143, 188, 143)" fill-opacity="0.22"/>
  <circle cx="16" cy="37" r="15" stroke="rgb(143, 188, 143)" fill="rgb(143, 188, 143)" fill-opacity="0.76"/>
  <circle cx="66" cy="38" r="9" stroke="rgb(143, 188, 143)" fill="rgb(143, 188, 143)" fill-opacity="0.63"/>
  <rect x="76" y="32" width="22" height="0" stroke="rgb(143, 188, 143)" fill="rgb(143, 188, 143)" fill-opacity="0.29"/>
  <circle cx="86" cy="70" r="2" stroke="rgb(143, 188, 143)" fill="rgb(143, 188, 143)" fill-opacity="0.34"/>
  <rect x="22" y="59" width="23" height="0" stroke="rgb(143, 188, 143)" fill="rgb(143, 188, 143)" fill-opacity="0.73"/>
  <circle cx="65" cy="83" r="3" stroke="rgb(143, 188, 143)" fill="rgb(143, 188, 143)" fill-opacity="0.32"/>
  <circle cx="72" cy="87" r="0" stroke="rgb(143, 188, 143)" fill="rgb(143, 188, 143)" fill-opacity="0.87"/>
  <rect x="45" y="70" width="39" height="13" stroke="rgb(143, 188, 143)" fill="rgb(143, 188, 143)" fill-opacity="0.48"/>
  <circle cx="33" cy="10" r="12" stroke="rgb(143, 188, 143)" fill="rgb(143, 188, 143)" fill-opacity="0.43"/>
  <rect x="95" y="7" width="13" height="32" stroke="rgb(143, 188, 143)" fill="rgb(143, 188, 143)" fill-opacity="0.27"/>
  <rect x="7" y="75" width="38" height="6" stroke="rgb(143, 188, 143)" fill="rgb(143, 188, 143)" fill-opacity="0.39"/>
  <rect x="54" y="52" width="18" height="17" stroke="rgb(143, 188, 143)" fill="rgb(143, 188, 143)" fill-opacity="0.74"/>
  <rect x="61" y="52" width="5" height="10" stroke="rgb(143, 188, 143)" fill="rgb(143, 188, 143)" fill-opacity="0.38"/>
  <circle cx="46" cy="3" r="5" stroke="rgb(143, 188, 143)" fill="rgb(143, 188, 143)" fill-opacity="0.33"/>
  <circle cx="13" cy="26" r="20" stroke="rgb(143, 188, 143)" fill="rgb(143, 188, 143)" fill-opacity="0.16"/>
  <circle cx="38" cy="14" r="15" stroke="rgb(143, 188, 143)" fill="rgb(143, 188, 143)" fill-opacity="0.63"/>
</svg>
