<?xml version="1.0" encoding="UTF-8" ?>
<!DOCTYPE svg PUBLIC "-//W3C//DTD SVG 1.1//EN" "http://www.w3.org/Graphics/SVG/1.1/DTD/svg11.dtd">
<svg width="100" height="100" xmlns="http://www.w3.org/2000/svg" version="1.1">
  <rect x="0" y="0" width="100" height="100" fill="rgb(0, 191, 255)" fill-opacity="0.06"/>
  <circle cx="17" cy="4" r="11" stroke="rgb(0, 191, 255)" fill="rgb(0, 191, 255)" fill-opacity="0.23"/>
  <circle cx="40" cy="31" r="7" stroke="rgb(0, 191, 255)" fill="rgb(0, 191, 255)" fill-opacity="0.53"/>
  <rect x="98" y="29" width="10" height="3" stroke="rgb(0, 191, 255)" fill="rgb(0, 191, 255)" fill-opacity="0.47"/>
  <circle cx="46" cy="54" r="15" stroke="rgb(0, 191, 255)" fill="rgb(0, 191, 255)" fill-opacity="0.11"/>
  <rect x="65" y="20" width="38" height="29" stroke="rgb(0, 191, 255)" fill="rgb(0, 191, 255)" fill-opacity="0.08"/>
  <circle cx="79" cy="6" r="5" stroke="rgb(0, 191, 255)" fill="rgb(0, 191, 255)" fill-opacity="0.96"/>
  <rect x="80" y="19" width="40" height="6" stroke="rgb(0, 191, 255)" fill="rgb(0, 191, 255)" fill-opacity="0.66"/>
  <rect x="56" y="55" width="9" height="8" stroke="rgb(0, 191, 255)" fill="rgb(0, 191, 255)" fill-opacity="0.72"/>
  <circle cx="15" cy="18" r="8" stroke="rgb(0, 191, 255)" fill="rgb(0, 191, 255)" fill-opacity="0.92"/>
  <rect x="86" y="77" width="9" height="1" stroke="rgb(0, 191, 255)" fill="rgb(0, 191, 255)" fill-opacity="0.19"/>
  <rect x="71" y="99" width="37" height="24" stroke="rgb(0, 191, 255)" fill="rgb(0, 191, 255)" fill-opacity="0.58"/>
  <circle cx="43" cy="58" r="5" stroke="rgb(0, 191, 255)" fill="rgb(0, 191, 255)" fill-opacity="0.67"/>
  <circle cx="12" cy="4" r="14" stroke="rgb(0, 191, 255)" fill="rgb(0, 191, 255)" fill-opacity="0.83"/>
  <rect x="27" y="35" width="38" height="32" stroke="rgb(0, 191, 255)" fill="rgb(0, 191, 255)" fill-opacity="0.17"/>
  <rect x="35" y="54" width="9" height="23" stroke="rgb(0, 191, 255)" fill="rgb(0, 191, 255)" fill-opacity="0.46"/>
  <circle cx="82" cy="49" r="6" stroke="rgb(0, 191, 255)" fill="rgb(0, 191, 255)" fill-opacity="0.32"/>
  <circle cx="17" cy="19" r="16" stroke="rgb(0, 191, 255)" fill="rgb(0, 191, 255)" fill-opacity="0.46"/>
  <circle cx="91" cy="36" r="9" stroke="rgb(0, 191, 255)" fill="rgb(0, 191, 255)" fill-opacity="0.23"/>
  <circle cx="22" cy="84" r="9" stroke="rgb(0, 191, 255)" fill="rgb(0, 191, 255)" fill-opacity="0.83"/>
  <rect x="0" y="39" width="5" height="26" stroke="rgb(0, 191, 255)" fill="rgb(0, 191, 255)" fill-opacity="1.0"/>
  <circle cx="1" cy="46" r="17" stroke="rgb(0, 191, 255)" fill="rgb(0, 191, 255)" fill-opacity="0.16"/>
</svg>
