<?xml version="1.0" encoding="UTF-8" ?>
<!DOCTYPE svg PUBLIC "-//W3C//DTD SVG 1.1//EN" "http://www.w3.org/Graphics/SVG/1.1/DTD/svg11.dtd">
<svg width="100" height="100" xmlns="http://www.w3.org/2000/svg" version="1.1">
  <rect x="0" y="0" width="100" height="100" fill="rgb(255, 20, 147)" fill-opacity="0.08"/>
  <rect x="33" y="38" width="6" height="29" stroke="rgb(255, 20, 147)" fill="rgb(255, 20, 147)" fill-opacity="0.1"/>
  <circle cx="12" cy="16" r="18" stroke="rgb(255, 20, 147)" fill="rgb(255, 20, 147)" fill-opacity="0.86"/>
  <rect x="5" y="28" width="39" height="28" stroke="rgb(255, 20, 147)" fill="rgb(255, 20, 147)" fill-opacity="0.98"/>
  <circle cx="3" cy="63" r="12" stroke="rgb(255, 20, 147)" fill="rgb(255, 20, 147)" fill-opacity="0.96"/>
  <rect x="87" y="74" width="11" height="39" stroke="rgb(255, 20, 147)" fill="rgb(255, 20, 147)" fill-opacity="0.2"/>
  <rect x="67" y="23" width="0" height="32" stroke="rgb(255, 20, 147)" fill="rgb(255, 20, 147)" fill-opacity="0.52"/>
  <circle cx="95" cy="8" r="5" stroke="rgb(255, 20, 147)" fill="rgb(255, 20, 147)" fill-opacity="0.39"/>
  <circle cx="14" cy="55" r="6" stroke="rgb(255, 20, 147)" fill="rgb(255, 20, 147)" fill-opacity="0.36"/>
  <circle cx="93" cy="91" r="2" stroke="rgb(255, 20, 147)" fill="rgb(255, 20, 147)" fill-opacity="0.6"/>
  <circle cx="55" cy="60" r="15" stroke="rgb(255, 20, 147)" fill="rgb(255, 20, 147)" fill-opacity="0.54"/>
  <circle cx="44" cy="53" r="6" stroke="rgb(255, 20, 147)" fill="rgb(255, 20, 147)" fill-opacity="0.32"/>
  <rect x="64" y="56" width="40" height="22" stroke="rgb(255, 20, 147)" fill="rgb(255, 20, 147)" fill-opacity="0.75"/>
  <circle cx="38" cy="10" r="18" stroke="rgb(255, 20, 147)" fill="rgb(255, 20, 147)" fill-opacity="0.31"/>
  <circle cx="71" cy="89" r="19" stroke="rgb(255, 20, 147)" fill="rgb(255, 20, 147)" fill-opacity="0.98"/>
  <circle cx="77" cy="82" r="20" stroke="rgb(255, 20, 147)" fill="rgb(255, 20, 147)" fill-opacity="0.66"/>
  <rect x="2" y="16" width="3" height="37" stroke="rgb(255, 20, 147)" fill="rgb(255, 20, 147)" fill-opacity="0.34"/>
  <rect x="86" y="38" width="27" height="37" stroke="rgb(255, 20, 147)" fill="rgb(255, 20, 147)" fill-opacity="0.07000000000000001"/>
  <circle cx="60" cy="73" r="4" stroke="rgb(255, 20, 147)" fill="rgb(255, 20, 147)" fill-opacity="0.05"/>
  <rect x="21" y="0" width="15" height="3" stroke="rgb(255, 20, 147)" fill="rgb(255, 20, 147)" fill-opacity="0.98"/>
  <circle cx="50" cy="33" r="17" stroke="rgb(255, 20, 147)" fill="rgb(255, 20, 147)" fill-opacity="0.45"/>
  <rect x="2" y="88" width="29" height="27" stroke="rgb(255, 20, 147)" fill="rgb(255, 20, 147)" fill-opacity="0.49"/>
</svg>
