<?xml version="1.0" encoding="UTF-8" ?>
<!DOCTYPE svg PUBLIC "-//W3C//DTD SVG 1.1//EN" "http://www.w3.org/Graphics/SVG/1.1/DTD/svg11.dtd">
<svg width="100" height="100" xmlns="http://www.w3.org/2000/svg" version="1.1">
  <rect x="0" y="0" width="100" height="100" fill="rgb(105, 105, 105)" fill-opacity="0.61"/>
  <rect x="35" y="10" width="39" height="37" stroke="rgb(105, 105, 105)" fill="rgb(105, 105, 105)" fill-opacity="0.33"/>
  <rect x="92" y="57" width="34" height="17" stroke="rgb(105, 105, 105)" fill="rgb(105, 105, 105)" fill-opacity="0.55"/>
  <rect x="83" y="27" width="33" height="21" stroke="rgb(105, 105, 105)" fill="rgb(105, 105, 105)" fill-opacity="0.24"/>
  <rect x="37" y="56" width="1" height="31" stroke="rgb(105, 105, 105)" fill="rgb(105, 105, 105)" fill-opacity="0.7"/>
  <rect x="28" y="98" width="6" height="36" stroke="rgb(105, 105, 105)" fill="rgb(105, 105, 105)" fill-opacity="0.26"/>
  <circle cx="93" cy="22" r="14" stroke="rgb(105, 105, 105)" fill="rgb(105, 105, 105)" fill-opacity="0.59"/>
  <rect x="90" y="28" width="39" height="39" stroke="rgb(105, 105, 105)" fill="rgb(105, 105, 105)" fill-opacity="0.3"/>
  <rect x="68" y="25" width="27" height="34" stroke="rgb(105, 105, 105)" fill="rgb(105, 105, 105)" fill-opacity="0.2"/>
  <circle cx="56" cy="11" r="8" stroke="rgb(105, 105, 105)" fill="rgb(105, 105, 105)" fill-opacity="0.7"/>
  <circle cx="26" cy="54" r="13" stroke="rgb(105, 105, 105)" fill="rgb(105, 105, 105)" fill-opacity="0.97"/>
  <rect x="85" y="23" width="4" height="25" stroke="rgb(105, 105, 105)" fill="rgb(105, 105, 105)" fill-opacity="0.83"/>
  <circle cx="24" cy="11" r="2" stroke="rgb(105, 105, 105)" fill="rgb(105, 105, 105)" fill-opacity="0.54"/>
  <circle cx="82" cy="60" r="18" stroke="rgb(105, 105, 105)" fill="rgb(105, 105, 105)" fill-opacity="0.34"/>
  <rect x="64" y="73" width="3" height="19" stroke="rgb(105, 105, 105)" fill="rgb(105, 105, 105)" fill-opacity="0.77"/>
  <rect x="81" y="59" width="34" height="10" stroke="rgb(105, 105, 105)" fill="rgb(105, 105, 105)" fill-opacity="0.3"/>
  <rect x="75" y="26" width="7" height="24" stroke="rgb(105, 105, 105)" fill="rgb(105, 105, 105)" fill-opacity="0.38"/>
  <rect x="43" y="36" width="22" height="7" stroke="rgb(105, 105, 105)" fill="rgb(105, 105, 105)" fill-opacity="0.68"/>
  <circle cx="34" cy="55" r="4" stroke="rgb(105, 105, 105)" fill="rgb(105, 105, 105)" fill-opacity="0.95"/>
  <circle cx="73" cy="3" r="4" stroke="rgb(105, 105, 105)" fill="rgb(105, 105, 105)" fill-opacity="0.41"/>
  <rect x="38" y="50" width="34" height="14" stroke="rgb(105, 105, 105)" fill="rgb(105, 105, 105)" fill-opacity="0.43"/>
  <circle cx="19" cy="16" r="7" stroke="rgb(105, 105, 105)" fill="rgb(105, 105, 105)" fill-opacity="0.43"/>
</svg>
