<?xml version="1.0" encoding="UTF-8" ?>
<!DOCTYPE svg PUBLIC "-//W3C//DTD SVG 1.1//EN" "http://www.w3.org/Graphics/SVG/1.1/DTD/svg11.dtd">
<svg width="100" height="100" xmlns="http://www.w3.org/2000/svg" version="1.1">
  <rect x="0" y="0" width="100" height="100" fill="rgb(105, 105, 105)" fill-opacity="0.45"/>
  <circle cx="78" cy="22" r="4" stroke="rgb(105, 105, 105)" fill="rgb(105, 105, 105)" fill-opacity="0.13"/>
  <circle cx="51" cy="71" r="10" stroke="rgb(105, 105, 105)" fill="rgb(105, 105, 105)" fill-opacity="0.0"/>
  <rect x="51" y="20" width="4" height="16" stroke="rgb(105, 105, 105)" fill="rgb(105, 105, 105)" fill-opacity="0.8"/>
  <circle cx="89" cy="0" r="3" stroke="rgb(105, 105, 105)" fill="rgb(105, 105, 105)" fill-opacity="0.27"/>
  <circle cx="21" cy="76" r="5" stroke="rgb(105, 105, 105)" fill="rgb(105, 105, 105)" fill-opacity="0.58"/>
  <circle cx="13" cy="35" r="14" stroke="rgb(105, 105, 105)" fill="rgb(105, 105, 105)" fill-opacity="0.97"/>
  <rect x="59" y="12" width="22" height="23" stroke="rgb(105, 105, 105)" fill="rgb(105, 105, 105)" fill-opacity="0.33"/>
  <rect x="56" y="13" width="28" height="34" stroke="rgb(105, 105, 105)" fill="rgb(105, 105, 105)" fill-opacity="0.59"/>
  <circle cx="92" cy="53" r="1" stroke="rgb(105, 105, 105)" fill="rgb(105, 105, 105)" fill-opacity="0.84"/>
  <circle cx="96" cy="6" r="5" stroke="rgb(105, 105, 105)" fill="rgb(105, 105, 105)" fill-opacity="0.88"/>
  <rect x="97" y="18" width="9" height="21" stroke="rgb(105, 105, 105)" fill="rgb(105, 105, 105)" fill-opacity="0.33"/>
  <circle cx="25" cy="80" r="19" stroke="rgb(105, 105, 105)" fill="rgb(105, 105, 105)" fill-opacity="0.22"/>
  <rect x="91" y="45" width="35" height="28" stroke="rgb(105, 105, 105)" fill="rgb(105, 105, 105)" fill-opacity="0.85"/>
  <circle cx="31" cy="25" r="8" stroke="rgb(105, 105, 105)" fill="rgb(105, 105, 105)" fill-opacity="0.14"/>
  <circle cx="92" cy="99" r="15" stroke="rgb(105, 105, 105)" fill="rgb(105, 105, 105)" fill-opacity="0.73"/>
  <rect x="14" y="61" width="38" height="7" stroke="rgb(105, 105, 105)" fill="rgb(105, 105, 105)" fill-opacity="0.22"/>
  <circle cx="58" cy="94" r="11" stroke="rgb(105, 105, 105)" fill="rgb(105, 105, 105)" fill-opacity="0.72"/>
  <rect x="98" y="60" width="5" height="28" stroke="rgb(105, 105, 105)" fill="rgb(105, 105, 105)" fill-opacity="0.26"/>
  <rect x="7" y="16" width="38" height="36" stroke="rgb(105, 105, 105)" fill="rgb(105, 105, 105)" fill-opacity="0.18"/>
  <rect x="76" y="20" width="30" height="1" stroke="rgb(105, 105, 105)" fill="rgb(105, 105, 105)" fill-opacity="0.18"/>
  <rect x="51" y="18" width="13" height="23" stroke="rgb(105, 105, 105)" fill="rgb(105, 105, 105)" fill-opacity="0.26"/>
</svg>
