<?xml version="1.0" encoding="UTF-8" ?>
<!DOCTYPE svg PUBLIC "-//W3C//DTD SVG 1.1//EN" "http://www.w3.org/Graphics/SVG/1.1/DTD/svg11.dtd">
<svg width="100" height="100" xmlns="http://www.w3.org/2000/svg" version="1.1">
  <rect x="0" y="0" width="100" height="100" fill="rgb(30, 144, 255)" fill-opacity="0.48"/>
  <circle cx="6" cy="95" r="17" stroke="rgb(30, 144, 255)" fill="rgb(30, 144, 255)" fill-opacity="0.5600000000000001"/>
  <circle cx="85" cy="31" r="6" stroke="rgb(30, 144, 255)" fill="rgb(30, 144, 255)" fill-opacity="0.3"/>
  <rect x="86" y="99" width="24" height="23" stroke="rgb(30, 144, 255)" fill="rgb(30, 144, 255)" fill-opacity="0.64"/>
  <circle cx="5" cy="5" r="18" stroke="rgb(30, 144, 255)" fill="rgb(30, 144, 255)" fill-opacity="0.4"/>
  <rect x="4" y="70" width="9" height="26" stroke="rgb(30, 144, 255)" fill="rgb(30, 144, 255)" fill-opacity="0.44"/>
  <rect x="38" y="60" width="19" height="7" stroke="rgb(30, 144, 255)" fill="rgb(30, 144, 255)" fill-opacity="0.44"/>
  <rect x="96" y="51" width="37" height="5" stroke="rgb(30, 144, 255)" fill="rgb(30, 144, 255)" fill-opacity="0.12"/>
  <circle cx="16" cy="47" r="2" stroke="rgb(30, 144, 255)" fill="rgb(30, 144, 255)" fill-opacity="0.29"/>
  <rect x="99" y="29" width="36" height="9" stroke="rgb(30, 144, 255)" fill="rgb(30, 144, 255)" fill-opacity="0.5"/>
  <rect x="21" y="64" width="5" height="17" stroke="rgb(30, 144, 255)" fill="rgb(30, 144, 255)" fill-opacity="0.09"/>
  <circle cx="88" cy="100" r="14" stroke="rgb(30, 144, 255)" fill="rgb(30, 144, 255)" fill-opacity="0.9"/>
  <circle cx="42" cy="83" r="12" stroke="rgb(30, 144, 255)" fill="rgb(30, 144, 255)" fill-opacity="0.8100000000000001"/>
  <circle cx="24" cy="14" r="18" stroke="rgb(30, 144, 255)" fill="rgb(30, 144, 255)" fill-opacity="0.06"/>
  <rect x="97" y="48" width="0" height="21" stroke="rgb(30, 144, 255)" fill="rgb(30, 144, 255)" fill-opacity="0.0"/>
  <rect x="88" y="51" width="22" height="27" stroke="rgb(30, 144, 255)" fill="rgb(30, 144, 255)" fill-opacity="0.12"/>
  <circle cx="53" cy="58" r="4" stroke="rgb(30, 144, 255)" fill="rgb(30, 144, 255)" fill-opacity="0.43"/>
  <circle cx="82" cy="16" r="14" stroke="rgb(30, 144, 255)" fill="rgb(30, 144, 255)" fill-opacity="0.35"/>
  <rect x="92" y="41" width="29" height="7" stroke="rgb(30, 144, 255)" fill="rgb(30, 144, 255)" fill-opacity="0.06"/>
  <rect x="84" y="78" width="28" height="15" stroke="rgb(30, 144, 255)" fill="rgb(30, 144, 255)" fill-opacity="0.52"/>
  <rect x="99" y="64" width="10" height="21" stroke="rgb(30, 144, 255)" fill="rgb(30, 144, 255)" fill-opacity="0.17"/>
  <rect x="1" y="25" width="32" height="12" stroke="rgb(30, 144, 255)" fill="rgb(30, 144, 255)" fill-opacity="0.85"/>
</svg>
