<?xml version="1.0" encoding="UTF-8" ?>
<!DOCTYPE svg PUBLIC "-//W3C//DTD SVG 1.1//EN" "http://www.w3.org/Graphics/SVG/1.1/DTD/svg11.dtd">
<svg width="100" height="100" xmlns="http://www.w3.org/2000/svg" version="1.1">
  <rect x="0" y="0" width="100" height="100" fill="rgb(178, 34, 34)" fill-opacity="0.44"/>
  <rect x="30" y="9" width="6" height="3" stroke="rgb(178, 34, 34)" fill="rgb(178, 34, 34)" fill-opacity="0.58"/>
  <circle cx="79" cy="12" r="14" stroke="rgb(178, 34, 34)" fill="rgb(178, 34, 34)" fill-opacity="0.92"/>
  <circle cx="66" cy="62" r="11" stroke="rgb(178, 34, 34)" fill="rgb(178, 34, 34)" fill-opacity="0.89"/>
  <rect x="15" y="39" width="9" height="12" stroke="rgb(178, 34, 34)" fill="rgb(178, 34, 34)" fill-opacity="0.5600000000000001"/>
  <rect x="30" y="54" width="38" height="16" stroke="rgb(178, 34, 34)" fill="rgb(178, 34, 34)" fill-opacity="0.9399999999999999"/>
  <rect x="80" y="40" width="5" height="39" stroke="rgb(178, 34, 34)" fill="rgb(178, 34, 34)" fill-opacity="0.49"/>
  <circle cx="48" cy="36" r="19" stroke="rgb(178, 34, 34)" fill="rgb(178, 34, 34)" fill-opacity="0.54"/>
  <circle cx="99" cy="75" r="13" stroke="rgb(178, 34, 34)" fill="rgb(178, 34, 34)" fill-opacity="0.22"/>
  <rect x="72" y="19" width="34" height="10" stroke="rgb(178, 34, 34)" fill="rgb(178, 34, 34)" fill-opacity="0.26"/>
  <rect x="63" y="40" width="7" height="23" stroke="rgb(178, 34, 34)" fill="rgb(178, 34, 34)" fill-opacity="0.86"/>
  <circle cx="56" cy="47" r="9" stroke="rgb(178, 34, 34)" fill="rgb(178, 34, 34)" fill-opacity="0.29"/>
  <rect x="64" y="24" width="3" height="8" stroke="rgb(178, 34, 34)" fill="rgb(178, 34, 34)" fill-opacity="0.92"/>
  <circle cx="65" cy="89" r="10" stroke="rgb(178, 34, 34)" fill="rgb(178, 34, 34)" fill-opacity="0.08"/>
  <rect x="66" y="69" width="24" height="25" stroke="rgb(178, 34, 34)" fill="rgb(178, 34, 34)" fill-opacity="0.73"/>
  <circle cx="2" cy="47" r="20" stroke="rgb(178, 34, 34)" fill="rgb(178, 34, 34)" fill-opacity="0.92"/>
  <circle cx="26" cy="16" r="6" stroke="rgb(178, 34, 34)" fill="rgb(178, 34, 34)" fill-opacity="0.9"/>
  <circle cx="6" cy="39" r="1" stroke="rgb(178, 34, 34)" fill="rgb(178, 34, 34)" fill-opacity="0.46"/>
  <circle cx="10" cy="24" r="1" stroke="rgb(178, 34, 34)" fill="rgb(178, 34, 34)" fill-opacity="0.1"/>
  <circle cx="2" cy="6" r="7" stroke="rgb(178, 34, 34)" fill="rgb(178, 34, 34)" fill-opacity="0.48"/>
  <rect x="93" y="37" width="26" height="19" stroke="rgb(178, 34, 34)" fill="rgb(178, 34, 34)" fill-opacity="0.99"/>
  <circle cx="60" cy="62" r="8" stroke="rgb(178, 34, 34)" fill="rgb(178, 34, 34)" fill-opacity="0.18"/>
</svg>
