<?xml version="1.0" encoding="UTF-8" ?>
<!DOCTYPE svg PUBLIC "-//W3C//DTD SVG 1.1//EN" "http://www.w3.org/Graphics/SVG/1.1/DTD/svg11.dtd">
<svg width="100" height="100" xmlns="http://www.w3.org/2000/svg" version="1.1">
  <rect x="0" y="0" width="100" height="100" fill="rgb(255, 250, 240)" fill-opacity="0.21"/>
  <rect x="96" y="40" width="15" height="24" stroke="rgb(255, 250, 240)" fill="rgb(255, 250, 240)" fill-opacity="0.97"/>
  <circle cx="88" cy="8" r="4" stroke="rgb(255, 250, 240)" fill="rgb(255, 250, 240)" fill-opacity="0.87"/>
  <rect x="55" y="65" width="40" height="20" stroke="rgb(255, 250, 240)" fill="rgb(255, 250, 240)" fill-opacity="0.59"/>
  <circle cx="62" cy="68" r="0" stroke="rgb(255, 250, 240)" fill="rgb(255, 250, 240)" fill-opacity="0.38"/>
  <circle cx="72" cy="21" r="3" stroke="rgb(255, 250, 240)" fill="rgb(255, 250, 240)" fill-opacity="0.7"/>
  <circle cx="62" cy="80" r="20" stroke="rgb(255, 250, 240)" fill="rgb(255, 250, 240)" fill-opacity="0.36"/>
  <rect x="96" y="24" width="33" height="4" stroke="rgb(255, 250, 240)" fill="rgb(255, 250, 240)" fill-opacity="0.41"/>
  <rect x="24" y="56" width="12" height="28" stroke="rgb(255, 250, 240)" fill="rgb(255, 250, 240)" fill-opacity="0.68"/>
  <circle cx="41" cy="85" r="16" stroke="rgb(255, 250, 240)" fill="rgb(255, 250, 240)" fill-opacity="0.27"/>
  <rect x="42" y="59" width="21" height="1" stroke="rgb(255, 250, 240)" fill="rgb(255, 250, 240)" fill-opacity="0.65"/>
  <rect x="45" y="53" width="38" height="14" stroke="rgb(255, 250, 240)" fill="rgb(255, 250, 240)" fill-opacity="0.72"/>
  <circle cx="29" cy="29" r="2" stroke="rgb(255, 250, 240)" fill="rgb(255, 250, 240)" fill-opacity="0.83"/>
  <circle cx="23" cy="46" r="2" stroke="rgb(255, 250, 240)" fill="rgb(255, 250, 240)" fill-opacity="0.21"/>
  <rect x="32" y="45" width="22" height="23" stroke="rgb(255, 250, 240)" fill="rgb(255, 250, 240)" fill-opacity="0.45"/>
  <circle cx="94" cy="34" r="15" stroke="rgb(255, 250, 240)" fill="rgb(255, 250, 240)" fill-opacity="0.12"/>
  <circle cx="47" cy="89" r="12" stroke="rgb(255, 250, 240)" fill="rgb(255, 250, 240)" fill-opacity="0.45"/>
  <rect x="44" y="25" width="10" height="20" stroke="rgb(255, 250, 240)" fill="rgb(255, 250, 240)" fill-opacity="0.18"/>
  <rect x="95" y="36" width="14" height="5" stroke="rgb(255, 250, 240)" fill="rgb(255, 250, 240)" fill-opacity="0.76"/>
  <circle cx="69" cy="49" r="8" stroke="rgb(255, 250, 240)" fill="rgb(255, 250, 240)" fill-opacity="0.92"/>
  <circle cx="54" cy="93" r="17" stroke="rgb(255, 250, 240)" fill="rgb(255, 250, 240)" fill-opacity="0.87"/>
  <rect x="1" y="21" width="4" height="5" stroke="rgb(255, 250, 240)" fill="rgb(255, 250, 240)" fill-opacity="0.55"/>
</svg>
