<?xml version="1.0" encoding="UTF-8" ?>
<!DOCTYPE svg PUBLIC "-//W3C//DTD SVG 1.1//EN" "http://www.w3.org/Graphics/SVG/1.1/DTD/svg11.dtd">
<svg width="100" height="100" xmlns="http://www.w3.org/2000/svg" version="1.1">
  <rect x="0" y="0" width="100" height="100" fill="rgb(34, 139, 34)" fill-opacity="0.05"/>
  <circle cx="80" cy="65" r="15" stroke="rgb(34, 139, 34)" fill="rgb(34, 139, 34)" fill-opacity="0.21"/>
  <rect x="19" y="46" width="19" height="6" stroke="rgb(34, 139, 34)" fill="rgb(34, 139, 34)" fill-opacity="0.99"/>
  <rect x="46" y="37" width="37" height="39" stroke="rgb(34, 139, 34)" fill="rgb(34, 139, 34)" fill-opacity="0.74"/>
  <rect x="29" y="59" width="8" height="18" stroke="rgb(34, 139, 34)" fill="rgb(34, 139, 34)" fill-opacity="0.55"/>
  <rect x="77" y="66" width="0" height="0" stroke="rgb(34, 139, 34)" fill="rgb(34, 139, 34)" fill-opacity="0.45"/>
  <rect x="82" y="16" width="37" height="16" stroke="rgb(34, 139, 34)" fill="rgb(34, 139, 34)" fill-opacity="0.08"/>
  <rect x="64" y="61" width="12" height="22" stroke="rgb(34, 139, 34)" fill="rgb(34, 139, 34)" fill-opacity="0.65"/>
  <circle cx="6" cy="94" r="7" stroke="rgb(34, 139, 34)" fill="rgb(34, 139, 34)" fill-opacity="0.48"/>
  <circle cx="88" cy="5" r="2" stroke="rgb(34, 139, 34)" fill="rgb(34, 139, 34)" fill-opacity="0.49"/>
  <circle cx="78" cy="73" r="12" stroke="rgb(34, 139, 34)" fill="rgb(34, 139, 34)" fill-opacity="0.38"/>
  <rect x="52" y="7" width="0" height="31" stroke="rgb(34, 139, 34)" fill="rgb(34, 139, 34)" fill-opacity="0.96"/>
  <circle cx="49" cy="60" r="4" stroke="rgb(34, 139, 34)" fill="rgb(34, 139, 34)" fill-opacity="0.99"/>
  <circle cx="60" cy="58" r="12" stroke="rgb(34, 139, 34)" fill="rgb(34, 139, 34)" fill-opacity="0.3"/>
  <rect x="54" y="46" width="23" height="28" stroke="rgb(34, 139, 34)" fill="rgb(34, 139, 34)" fill-opacity="0.18"/>
  <circle cx="70" cy="96" r="3" stroke="rgb(34, 139, 34)" fill="rgb(34, 139, 34)" fill-opacity="0.43"/>
  <rect x="94" y="47" width="3" height="22" stroke="rgb(34, 139, 34)" fill="rgb(34, 139, 34)" fill-opacity="0.4"/>
  <circle cx="28" cy="99" r="2" stroke="rgb(34, 139, 34)" fill="rgb(34, 139, 34)" fill-opacity="0.73"/>
  <rect x="9" y="33" width="4" height="5" stroke="rgb(34, 139, 34)" fill="rgb(34, 139, 34)" fill-opacity="0.22"/>
  <rect x="27" y="34" width="28" height="15" stroke="rgb(34, 139, 34)" fill="rgb(34, 139, 34)" fill-opacity="0.95"/>
  <rect x="57" y="38" width="30" height="32" stroke="rgb(34, 139, 34)" fill="rgb(34, 139, 34)" fill-opacity="1.0"/>
  <circle cx="83" cy="69" r="19" stroke="rgb(34, 139, 34)" fill="rgb(34, 139, 34)" fill-opacity="0.07000000000000001"/>
</svg>
