<?xml version="1.0" encoding="UTF-8" ?>
<!DOCTYPE svg PUBLIC "-//W3C//DTD SVG 1.1//EN" "http://www.w3.org/Graphics/SVG/1.1/DTD/svg11.dtd">
<svg width="100" height="100" xmlns="http://www.w3.org/2000/svg" version="1.1">
  <rect x="0" y="0" width="100" height="100" fill="rgb(255, 0, 255)" fill-opacity="0.11"/>
  <circle cx="32" cy="61" r="3" stroke="rgb(255, 0, 255)" fill="rgb(255, 0, 255)" fill-opacity="0.88"/>
  <circle cx="7" cy="50" r="13" stroke="rgb(255, 0, 255)" fill="rgb(255, 0, 255)" fill-opacity="0.46"/>
  <rect x="69" y="44" width="9" height="27" stroke="rgb(255, 0, 255)" fill="rgb(255, 0, 255)" fill-opacity="0.34"/>
  <circle cx="79" cy="50" r="13" stroke="rgb(255, 0, 255)" fill="rgb(255, 0, 255)" fill-opacity="0.42"/>
  <circle cx="60" cy="13" r="16" stroke="rgb(255, 0, 255)" fill="rgb(255, 0, 255)" fill-opacity="0.45"/>
  <rect x="18" y="81" width="32" height="34" stroke="rgb(255, 0, 255)" fill="rgb(255, 0, 255)" fill-opacity="0.09"/>
  <rect x="92" y="89" width="9" height="27" stroke="rgb(255, 0, 255)" fill="rgb(255, 0, 255)" fill-opacity="0.74"/>
  <circle cx="67" cy="68" r="4" stroke="rgb(255, 0, 255)" fill="rgb(255, 0, 255)" fill-opacity="0.09"/>
  <rect x="32" y="37" width="20" height="21" stroke="rgb(255, 0, 255)" fill="rgb(255, 0, 255)" fill-opacity="0.42"/>
  <rect x="31" y="47" width="27" height="17" stroke="rgb(255, 0, 255)" fill="rgb(255, 0, 255)" fill-opacity="0.82"/>
  <rect x="32" y="44" width="14" height="2" stroke="rgb(255, 0, 255)" fill="rgb(255, 0, 255)" fill-opacity="0.64"/>
  <circle cx="58" cy="20" r="0" stroke="rgb(255, 0, 255)" fill="rgb(255, 0, 255)" fill-opacity="0.79"/>
  <circle cx="64" cy="57" r="3" stroke="rgb(255, 0, 255)" fill="rgb(255, 0, 255)" fill-opacity="0.31"/>
  <circle cx="65" cy="82" r="8" stroke="rgb(255, 0, 255)" fill="rgb(255, 0, 255)" fill-opacity="0.12"/>
  <circle cx="83" cy="80" r="20" stroke="rgb(255, 0, 255)" fill="rgb(255, 0, 255)" fill-opacity="0.28"/>
  <rect x="56" y="81" width="32" height="29" stroke="rgb(255, 0, 255)" fill="rgb(255, 0, 255)" fill-opacity="0.17"/>
  <circle cx="78" cy="31" r="19" stroke="rgb(255, 0, 255)" fill="rgb(255, 0, 255)" fill-opacity="0.11"/>
  <rect x="97" y="29" width="23" height="32" stroke="rgb(255, 0, 255)" fill="rgb(255, 0, 255)" fill-opacity="0.15"/>
  <circle cx="55" cy="26" r="12" stroke="rgb(255, 0, 255)" fill="rgb(255, 0, 255)" fill-opacity="0.35"/>
  <circle cx="58" cy="53" r="6" stroke="rgb(255, 0, 255)" fill="rgb(255, 0, 255)" fill-opacity="1.0"/>
  <rect x="29" y="58" width="27" height="23" stroke="rgb(255, 0, 255)" fill="rgb(255, 0, 255)" fill-opacity="0.42"/>
</svg>
