<?xml version="1.0" encoding="UTF-8" ?>
<!DOCTYPE svg PUBLIC "-//W3C//DTD SVG 1.1//EN" "http://www.w3.org/Graphics/SVG/1.1/DTD/svg11.dtd">
<svg width="100" height="100" xmlns="http://www.w3.org/2000/svg" version="1.1">
  <rect x="0" y="0" width="100" height="100" fill="rgb(220, 220, 220)" fill-opacity="0.45"/>
  <rect x="34" y="57" width="2" height="2" stroke="rgb(220, 220, 220)" fill="rgb(220, 220, 220)" fill-opacity="0.62"/>
  <rect x="15" y="20" width="29" height="9" stroke="rgb(220, 220, 220)" fill="rgb(220, 220, 220)" fill-opacity="0.32"/>
  <rect x="91" y="39" width="29" height="24" stroke="rgb(220, 220, 220)" fill="rgb(220, 220, 220)" fill-opacity="0.48"/>
  <rect x="58" y="17" width="34" height="31" stroke="rgb(220, 220, 220)" fill="rgb(220, 220, 220)" fill-opacity="0.47"/>
  <rect x="42" y="14" width="25" height="29" stroke="rgb(220, 220, 220)" fill="rgb(220, 220, 220)" fill-opacity="0.51"/>
  <circle cx="13" cy="62" r="14" stroke="rgb(220, 220, 220)" fill="rgb(220, 220, 220)" fill-opacity="0.04"/>
  <rect x="22" y="32" width="5" height="29" stroke="rgb(220, 220, 220)" fill="rgb(220, 220, 220)" fill-opacity="0.15"/>
  <rect x="96" y="88" width="0" height="29" stroke="rgb(220, 220, 220)" fill="rgb(220, 220, 220)" fill-opacity="0.43"/>
  <rect x="49" y="88" width="13" height="25" stroke="rgb(220, 220, 220)" fill="rgb(220, 220, 220)" fill-opacity="1.0"/>
  <circle cx="85" cy="74" r="19" stroke="rgb(220, 220, 220)" fill="rgb(220, 220, 220)" fill-opacity="0.01"/>
  <rect x="65" y="21" width="35" height="4" stroke="rgb(220, 220, 220)" fill="rgb(220, 220, 220)" fill-opacity="0.93"/>
  <circle cx="60" cy="8" r="5" stroke="rgb(220, 220, 220)" fill="rgb(220, 220, 220)" fill-opacity="0.3"/>
  <rect x="10" y="40" width="19" height="5" stroke="rgb(220, 220, 220)" fill="rgb(220, 220, 220)" fill-opacity="0.63"/>
  <circle cx="80" cy="14" r="17" stroke="rgb(220, 220, 220)" fill="rgb(220, 220, 220)" fill-opacity="0.22"/>
  <rect x="58" y="97" width="35" height="28" stroke="rgb(220, 220, 220)" fill="rgb(220, 220, 220)" fill-opacity="0.33"/>
  <circle cx="49" cy="90" r="13" stroke="rgb(220, 220, 220)" fill="rgb(220, 220, 220)" fill-opacity="0.14"/>
  <circle cx="67" cy="22" r="5" stroke="rgb(220, 220, 220)" fill="rgb(220, 220, 220)" fill-opacity="0.01"/>
  <rect x="34" y="84" width="28" height="28" stroke="rgb(220, 220, 220)" fill="rgb(220, 220, 220)" fill-opacity="0.12"/>
  <rect x="10" y="46" width="3" height="33" stroke="rgb(220, 220, 220)" fill="rgb(220, 220, 220)" fill-opacity="0.98"/>
  <rect x="92" y="13" width="21" height="5" stroke="rgb(220, 220, 220)" fill="rgb(220, 220, 220)" fill-opacity="0.42"/>
  <circle cx="83" cy="10" r="0" stroke="rgb(220, 220, 220)" fill="rgb(220, 220, 220)" fill-opacity="0.87"/>
</svg>
