<?xml version="1.0" encoding="UTF-8" ?>
<!DOCTYPE svg PUBLIC "-//W3C//DTD SVG 1.1//EN" "http://www.w3.org/Graphics/SVG/1.1/DTD/svg11.dtd">
<svg width="100" height="100" xmlns="http://www.w3.org/2000/svg" version="1.1">
  <rect x="0" y="0" width="100" height="100" fill="rgb(248, 248, 255)" fill-opacity="0.16"/>
  <circle cx="99" cy="81" r="9" stroke="rgb(248, 248, 255)" fill="rgb(248, 248, 255)" fill-opacity="0.42"/>
  <circle cx="94" cy="99" r="4" stroke="rgb(248, 248, 255)" fill="rgb(248, 248, 255)" fill-opacity="0.6"/>
  <rect x="100" y="18" width="7" height="38" stroke="rgb(248, 248, 255)" fill="rgb(248, 248, 255)" fill-opacity="0.3"/>
  <circle cx="1" cy="92" r="16" stroke="rgb(248, 248, 255)" fill="rgb(248, 248, 255)" fill-opacity="0.53"/>
  <rect x="71" y="18" width="13" height="14" stroke="rgb(248, 248, 255)" fill="rgb(248, 248, 255)" fill-opacity="0.51"/>
  <circle cx="63" cy="87" r="15" stroke="rgb(248, 248, 255)" fill="rgb(248, 248, 255)" fill-opacity="0.78"/>
  <rect x="42" y="92" width="32" height="7" stroke="rgb(248, 248, 255)" fill="rgb(248, 248, 255)" fill-opacity="0.64"/>
  <circle cx="88" cy="78" r="7" stroke="rgb(248, 248, 255)" fill="rgb(248, 248, 255)" fill-opacity="0.5"/>
  <rect x="63" y="19" width="33" height="30" stroke="rgb(248, 248, 255)" fill="rgb(248, 248, 255)" fill-opacity="0.88"/>
  <circle cx="32" cy="44" r="16" stroke="rgb(248, 248, 255)" fill="rgb(248, 248, 255)" fill-opacity="0.46"/>
  <rect x="27" y="58" width="0" height="35" stroke="rgb(248, 248, 255)" fill="rgb(248, 248, 255)" fill-opacity="0.51"/>
  <rect x="63" y="90" width="10" height="26" stroke="rgb(248, 248, 255)" fill="rgb(248, 248, 255)" fill-opacity="0.65"/>
  <circle cx="32" cy="69" r="8" stroke="rgb(248, 248, 255)" fill="rgb(248, 248, 255)" fill-opacity="0.37"/>
  <circle cx="56" cy="91" r="6" stroke="rgb(248, 248, 255)" fill="rgb(248, 248, 255)" fill-opacity="0.83"/>
  <rect x="98" y="66" width="30" height="37" stroke="rgb(248, 248, 255)" fill="rgb(248, 248, 255)" fill-opacity="0.18"/>
  <circle cx="0" cy="19" r="15" stroke="rgb(248, 248, 255)" fill="rgb(248, 248, 255)" fill-opacity="0.52"/>
  <circle cx="16" cy="92" r="0" stroke="rgb(248, 248, 255)" fill="rgb(248, 248, 255)" fill-opacity="0.52"/>
  <circle cx="93" cy="73" r="7" stroke="rgb(248, 248, 255)" fill="rgb(248, 248, 255)" fill-opacity="0.59"/>
  <rect x="20" y="98" width="11" height="31" stroke="rgb(248, 248, 255)" fill="rgb(248, 248, 255)" fill-opacity="0.17"/>
  <circle cx="12" cy="90" r="5" stroke="rgb(248, 248, 255)" fill="rgb(248, 248, 255)" fill-opacity="0.31"/>
  <circle cx="48" cy="95" r="6" stroke="rgb(248, 248, 255)" fill="rgb(248, 248, 255)" fill-opacity="0.96"/>
</svg>
