<?xml version="1.0" encoding="UTF-8" ?>
<!DOCTYPE svg PUBLIC "-//W3C//DTD SVG 1.1//EN" "http://www.w3.org/Graphics/SVG/1.1/DTD/svg11.dtd">
<svg width="100" height="100" xmlns="http://www.w3.org/2000/svg" version="1.1">
  <rect x="0" y="0" width="100" height="100" fill="rgb(218, 165, 32)" fill-opacity="0.59"/>
  <circle cx="74" cy="83" r="7" stroke="rgb(218, 165, 32)" fill="rgb(218, 165, 32)" fill-opacity="0.68"/>
  <rect x="34" y="83" width="31" height="2" stroke="rgb(218, 165, 32)" fill="rgb(218, 165, 32)" fill-opacity="0.39"/>
  <circle cx="1" cy="83" r="1" stroke="rgb(218, 165, 32)" fill="rgb(218, 165, 32)" fill-opacity="0.49"/>
  <circle cx="77" cy="96" r="12" stroke="rgb(218, 165, 32)" fill="rgb(218, 165, 32)" fill-opacity="0.5"/>
  <rect x="55" y="23" width="36" height="19" stroke="rgb(218, 165, 32)" fill="rgb(218, 165, 32)" fill-opacity="0.37"/>
  <rect x="45" y="74" width="27" height="30" stroke="rgb(218, 165, 32)" fill="rgb(218, 165, 32)" fill-opacity="0.05"/>
  <circle cx="89" cy="81" r="5" stroke="rgb(218, 165, 32)" fill="rgb(218, 165, 32)" fill-opacity="0.68"/>
  <rect x="12" y="73" width="18" height="36" stroke="rgb(218, 165, 32)" fill="rgb(218, 165, 32)" fill-opacity="0.2"/>
  <rect x="98" y="89" width="37" height="33" stroke="rgb(218, 165, 32)" fill="rgb(218, 165, 32)" fill-opacity="0.2"/>
  <rect x="23" y="47" width="13" height="30" stroke="rgb(218, 165, 32)" fill="rgb(218, 165, 32)" fill-opacity="0.88"/>
  <rect x="34" y="37" width="6" height="24" stroke="rgb(218, 165, 32)" fill="rgb(218, 165, 32)" fill-opacity="0.11"/>
  <rect x="63" y="77" width="11" height="24" stroke="rgb(218, 165, 32)" fill="rgb(218, 165, 32)" fill-opacity="1.0"/>
  <circle cx="52" cy="64" r="14" stroke="rgb(218, 165, 32)" fill="rgb(218, 165, 32)" fill-opacity="0.99"/>
  <rect x="6" y="62" width="19" height="20" stroke="rgb(218, 165, 32)" fill="rgb(218, 165, 32)" fill-opacity="0.73"/>
  <rect x="40" y="3" width="8" height="29" stroke="rgb(218, 165, 32)" fill="rgb(218, 165, 32)" fill-opacity="1.0"/>
  <rect x="43" y="50" width="15" height="25" stroke="rgb(218, 165, 32)" fill="rgb(218, 165, 32)" fill-opacity="0.85"/>
  <rect x="99" y="24" width="3" height="17" stroke="rgb(218, 165, 32)" fill="rgb(218, 165, 32)" fill-opacity="0.51"/>
  <rect x="79" y="62" width="31" height="40" stroke="rgb(218, 165, 32)" fill="rgb(218, 165, 32)" fill-opacity="0.98"/>
  <rect x="0" y="58" width="33" height="8" stroke="rgb(218, 165, 32)" fill="rgb(218, 165, 32)" fill-opacity="0.04"/>
  <circle cx="42" cy="56" r="4" stroke="rgb(218, 165, 32)" fill="rgb(218, 165, 32)" fill-opacity="0.83"/>
  <rect x="11" y="16" width="2" height="20" stroke="rgb(218, 165, 32)" fill="rgb(218, 165, 32)" fill-opacity="0.15"/>
</svg>
