<?xml version="1.0" encoding="UTF-8" ?>
<!DOCTYPE svg PUBLIC "-//W3C//DTD SVG 1.1//EN" "http://www.w3.org/Graphics/SVG/1.1/DTD/svg11.dtd">
<svg width="100" height="100" xmlns="http://www.w3.org/2000/svg" version="1.1">
  <rect x="0" y="0" width="100" height="100" fill="rgb(255, 215, 0)" fill-opacity="0.44"/>
  <rect x="98" y="23" width="15" height="26" stroke="rgb(255, 215, 0)" fill="rgb(255, 215, 0)" fill-opacity="0.21"/>
  <circle cx="51" cy="86" r="3" stroke="rgb(255, 215, 0)" fill="rgb(255, 215, 0)" fill-opacity="0.16"/>
  <circle cx="95" cy="68" r="16" stroke="rgb(255, 215, 0)" fill="rgb(255, 215, 0)" fill-opacity="0.74"/>
  <circle cx="42" cy="37" r="6" stroke="rgb(255, 215, 0)" fill="rgb(255, 215, 0)" fill-opacity="0.41"/>
  <circle cx="21" cy="28" r="2" stroke="rgb(255, 215, 0)" fill="rgb(255, 215, 0)" fill-opacity="0.83"/>
  <rect x="91" y="1" width="4" height="40" stroke="rgb(255, 215, 0)" fill="rgb(255, 215, 0)" fill-opacity="0.6"/>
  <rect x="9" y="71" width="34" height="0" stroke="rgb(255, 215, 0)" fill="rgb(255, 215, 0)" fill-opacity="0.82"/>
  <rect x="25" y="25" width="26" height="6" stroke="rgb(255, 215, 0)" fill="rgb(255, 215, 0)" fill-opacity="0.95"/>
  <circle cx="51" cy="90" r="13" stroke="rgb(255, 215, 0)" fill="rgb(255, 215, 0)" fill-opacity="0.67"/>
  <circle cx="92" cy="54" r="7" stroke="rgb(255, 215, 0)" fill="rgb(255, 215, 0)" fill-opacity="0.1"/>
  <circle cx="49" cy="90" r="9" stroke="rgb(255, 215, 0)" fill="rgb(255, 215, 0)" fill-opacity="0.46"/>
  <rect x="89" y="96" width="18" height="5" stroke="rgb(255, 215, 0)" fill="rgb(255, 215, 0)" fill-opacity="0.62"/>
  <circle cx="89" cy="91" r="10" stroke="rgb(255, 215, 0)" fill="rgb(255, 215, 0)" fill-opacity="0.96"/>
  <rect x="46" y="25" width="3" height="2" stroke="rgb(255, 215, 0)" fill="rgb(255, 215, 0)" fill-opacity="0.71"/>
  <rect x="14" y="12" width="16" height="16" stroke="rgb(255, 215, 0)" fill="rgb(255, 215, 0)" fill-opacity="0.68"/>
  <circle cx="13" cy="82" r="1" stroke="rgb(255, 215, 0)" fill="rgb(255, 215, 0)" fill-opacity="0.89"/>
  <circle cx="15" cy="18" r="0" stroke="rgb(255, 215, 0)" fill="rgb(255, 215, 0)" fill-opacity="0.73"/>
  <rect x="18" y="65" width="23" height="0" stroke="rgb(255, 215, 0)" fill="rgb(255, 215, 0)" fill-opacity="0.65"/>
  <circle cx="89" cy="78" r="19" stroke="rgb(255, 215, 0)" fill="rgb(255, 215, 0)" fill-opacity="0.13"/>
  <rect x="1" y="7" width="22" height="22" stroke="rgb(255, 215, 0)" fill="rgb(255, 215, 0)" fill-opacity="0.29"/>
  <circle cx="80" cy="77" r="9" stroke="rgb(255, 215, 0)" fill="rgb(255, 215, 0)" fill-opacity="0.97"/>
</svg>
