<?xml version="1.0" encoding="UTF-8" ?>
<!DOCTYPE svg PUBLIC "-//W3C//DTD SVG 1.1//EN" "http://www.w3.org/Graphics/SVG/1.1/DTD/svg11.dtd">
<svg width="100" height="100" xmlns="http://www.w3.org/2000/svg" version="1.1">
  <rect x="0" y="0" width="100" height="100" fill="rgb(128, 128, 128)" fill-opacity="0.67"/>
  <rect x="51" y="41" width="4" height="4" stroke="rgb(128, 128, 128)" fill="rgb(128, 128, 128)" fill-opacity="0.54"/>
  <circle cx="64" cy="62" r="17" stroke="rgb(128, 128, 128)" fill="rgb(128, 128, 128)" fill-opacity="0.97"/>
  <circle cx="20" cy="94" r="0" stroke="rgb(128, 128, 128)" fill="rgb(128, 128, 128)" fill-opacity="0.89"/>
  <circle cx="9" cy="44" r="20" stroke="rgb(128, 128, 128)" fill="rgb(128, 128, 128)" fill-opacity="0.26"/>
  <rect x="72" y="31" width="22" height="9" stroke="rgb(128, 128, 128)" fill="rgb(128, 128, 128)" fill-opacity="0.43"/>
  <rect x="38" y="78" width="10" height="12" stroke="rgb(128, 128, 128)" fill="rgb(128, 128, 128)" fill-opacity="0.22"/>
  <rect x="89" y="27" width="25" height="18" stroke="rgb(128, 128, 128)" fill="rgb(128, 128, 128)" fill-opacity="0.8100000000000001"/>
  <rect x="76" y="71" width="28" height="21" stroke="rgb(128, 128, 128)" fill="rgb(128, 128, 128)" fill-opacity="0.14"/>
  <rect x="59" y="4" width="9" height="23" stroke="rgb(128, 128, 128)" fill="rgb(128, 128, 128)" fill-opacity="0.91"/>
  <rect x="14" y="28" width="13" height="22" stroke="rgb(128, 128, 128)" fill="rgb(128, 128, 128)" fill-opacity="0.8"/>
  <rect x="42" y="14" width="26" height="11" stroke="rgb(128, 128, 128)" fill="rgb(128, 128, 128)" fill-opacity="0.51"/>
  <circle cx="51" cy="98" r="3" stroke="rgb(128, 128, 128)" fill="rgb(128, 128, 128)" fill-opacity="0.29"/>
  <rect x="99" y="14" width="38" height="15" stroke="rgb(128, 128, 128)" fill="rgb(128, 128, 128)" fill-opacity="0.76"/>
  <rect x="99" y="95" width="21" height="19" stroke="rgb(128, 128, 128)" fill="rgb(128, 128, 128)" fill-opacity="0.29"/>
  <rect x="68" y="77" width="20" height="14" stroke="rgb(128, 128, 128)" fill="rgb(128, 128, 128)" fill-opacity="0.06"/>
  <circle cx="61" cy="94" r="18" stroke="rgb(128, 128, 128)" fill="rgb(128, 128, 128)" fill-opacity="0.99"/>
  <rect x="0" y="0" width="8" height="12" stroke="rgb(128, 128, 128)" fill="rgb(128, 128, 128)" fill-opacity="0.9399999999999999"/>
  <circle cx="68" cy="58" r="8" stroke="rgb(128, 128, 128)" fill="rgb(128, 128, 128)" fill-opacity="0.04"/>
  <circle cx="12" cy="27" r="17" stroke="rgb(128, 128, 128)" fill="rgb(128, 128, 128)" fill-opacity="0.47"/>
  <circle cx="85" cy="74" r="5" stroke="rgb(128, 128, 128)" fill="rgb(128, 128, 128)" fill-opacity="0.32"/>
  <circle cx="81" cy="8" r="6" stroke="rgb(128, 128, 128)" fill="rgb(128, 128, 128)" fill-opacity="0.39"/>
</svg>
