<?xml version="1.0" encoding="UTF-8" ?>
<!DOCTYPE svg PUBLIC "-//W3C//DTD SVG 1.1//EN" "http://www.w3.org/Graphics/SVG/1.1/DTD/svg11.dtd">
<svg width="100" height="100" xmlns="http://www.w3.org/2000/svg" version="1.1">
  <rect x="0" y="0" width="100" height="100" fill="rgb(173, 255, 47)" fill-opacity="0.09"/>
  <rect x="51" y="73" width="16" height="4" stroke="rgb(173, 255, 47)" fill="rgb(173, 255, 47)" fill-opacity="0.2"/>
  <rect x="10" y="89" width="23" height="16" stroke="rgb(173, 255, 47)" fill="rgb(173, 255, 47)" fill-opacity="0.82"/>
  <rect x="70" y="1" width="1" height="25" stroke="rgb(173, 255, 47)" fill="rgb(173, 255, 47)" fill-opacity="0.55"/>
  <circle cx="5" cy="21" r="15" stroke="rgb(173, 255, 47)" fill="rgb(173, 255, 47)" fill-opacity="0.05"/>
  <rect x="66" y="47" width="29" height="28" stroke="rgb(173, 255, 47)" fill="rgb(173, 255, 47)" fill-opacity="0.25"/>
  <circle cx="32" cy="77" r="7" stroke="rgb(173, 255, 47)" fill="rgb(173, 255, 47)" fill-opacity="0.05"/>
  <rect x="93" y="54" width="15" height="24" stroke="rgb(173, 255, 47)" fill="rgb(173, 255, 47)" fill-opacity="0.28"/>
  <rect x="78" y="14" width="20" height="12" stroke="rgb(173, 255, 47)" fill="rgb(173, 255, 47)" fill-opacity="0.12"/>
  <circle cx="48" cy="91" r="2" stroke="rgb(173, 255, 47)" fill="rgb(173, 255, 47)" fill-opacity="0.93"/>
  <circle cx="76" cy="25" r="20" stroke="rgb(173, 255, 47)" fill="rgb(173, 255, 47)" fill-opacity="0.05"/>
  <circle cx="64" cy="41" r="11" stroke="rgb(173, 255, 47)" fill="rgb(173, 255, 47)" fill-opacity="0.05"/>
  <circle cx="91" cy="59" r="17" stroke="rgb(173, 255, 47)" fill="rgb(173, 255, 47)" fill-opacity="0.61"/>
  <circle cx="27" cy="89" r="19" stroke="rgb(173, 255, 47)" fill="rgb(173, 255, 47)" fill-opacity="0.4"/>
  <rect x="5" y="25" width="31" height="32" stroke="rgb(173, 255, 47)" fill="rgb(173, 255, 47)" fill-opacity="0.55"/>
  <circle cx="54" cy="14" r="7" stroke="rgb(173, 255, 47)" fill="rgb(173, 255, 47)" fill-opacity="0.75"/>
  <rect x="90" y="10" width="0" height="18" stroke="rgb(173, 255, 47)" fill="rgb(173, 255, 47)" fill-opacity="0.52"/>
  <rect x="98" y="54" width="12" height="22" stroke="rgb(173, 255, 47)" fill="rgb(173, 255, 47)" fill-opacity="0.72"/>
  <circle cx="88" cy="23" r="18" stroke="rgb(173, 255, 47)" fill="rgb(173, 255, 47)" fill-opacity="0.38"/>
  <circle cx="4" cy="38" r="19" stroke="rgb(173, 255, 47)" fill="rgb(173, 255, 47)" fill-opacity="0.39"/>
  <rect x="40" y="45" width="12" height="32" stroke="rgb(173, 255, 47)" fill="rgb(173, 255, 47)" fill-opacity="0.57"/>
  <rect x="74" y="58" width="40" height="15" stroke="rgb(173, 255, 47)" fill="rgb(173, 255, 47)" fill-opacity="0.95"/>
</svg>
