<?xml version="1.0" encoding="UTF-8" ?>
<!DOCTYPE svg PUBLIC "-//W3C//DTD SVG 1.1//EN" "http://www.w3.org/Graphics/SVG/1.1/DTD/svg11.dtd">
<svg width="100" height="100" xmlns="http://www.w3.org/2000/svg" version="1.1">
  <rect x="0" y="0" width="100" height="100" fill="rgb(0, 128, 0)" fill-opacity="0.21"/>
  <circle cx="60" cy="23" r="3" stroke="rgb(0, 128, 0)" fill="rgb(0, 128, 0)" fill-opacity="0.03"/>
  <circle cx="54" cy="37" r="9" stroke="rgb(0, 128, 0)" fill="rgb(0, 128, 0)" fill-opacity="0.19"/>
  <circle cx="50" cy="18" r="6" stroke="rgb(0, 128, 0)" fill="rgb(0, 128, 0)" fill-opacity="0.74"/>
  <circle cx="60" cy="21" r="10" stroke="rgb(0, 128, 0)" fill="rgb(0, 128, 0)" fill-opacity="0.47"/>
  <rect x="85" y="25" width="10" height="27" stroke="rgb(0, 128, 0)" fill="rgb(0, 128, 0)" fill-opacity="0.5"/>
  <rect x="76" y="2" width="38" height="27" stroke="rgb(0, 128, 0)" fill="rgb(0, 128, 0)" fill-opacity="0.39"/>
  <rect x="100" y="28" width="21" height="35" stroke="rgb(0, 128, 0)" fill="rgb(0, 128, 0)" fill-opacity="0.31"/>
  <circle cx="16" cy="47" r="14" stroke="rgb(0, 128, 0)" fill="rgb(0, 128, 0)" fill-opacity="0.76"/>
  <circle cx="68" cy="60" r="18" stroke="rgb(0, 128, 0)" fill="rgb(0, 128, 0)" fill-opacity="0.3"/>
  <rect x="77" y="72" width="22" height="25" stroke="rgb(0, 128, 0)" fill="rgb(0, 128, 0)" fill-opacity="0.71"/>
  <circle cx="100" cy="31" r="3" stroke="rgb(0, 128, 0)" fill="rgb(0, 128, 0)" fill-opacity="0.3"/>
  <circle cx="80" cy="96" r="10" stroke="rgb(0, 128, 0)" fill="rgb(0, 128, 0)" fill-opacity="0.84"/>
  <rect x="83" y="18" width="0" height="27" stroke="rgb(0, 128, 0)" fill="rgb(0, 128, 0)" fill-opacity="0.83"/>
  <rect x="48" y="13" width="24" height="19" stroke="rgb(0, 128, 0)" fill="rgb(0, 128, 0)" fill-opacity="0.04"/>
  <circle cx="35" cy="59" r="0" stroke="rgb(0, 128, 0)" fill="rgb(0, 128, 0)" fill-opacity="0.57"/>
  <rect x="85" y="63" width="29" height="9" stroke="rgb(0, 128, 0)" fill="rgb(0, 128, 0)" fill-opacity="0.17"/>
  <circle cx="42" cy="97" r="3" stroke="rgb(0, 128, 0)" fill="rgb(0, 128, 0)" fill-opacity="0.31"/>
  <rect x="77" y="81" width="7" height="20" stroke="rgb(0, 128, 0)" fill="rgb(0, 128, 0)" fill-opacity="0.5"/>
  <circle cx="51" cy="85" r="7" stroke="rgb(0, 128, 0)" fill="rgb(0, 128, 0)" fill-opacity="0.91"/>
  <circle cx="37" cy="85" r="12" stroke="rgb(0, 128, 0)" fill="rgb(0, 128, 0)" fill-opacity="0.35"/>
  <rect x="73" y="41" width="12" height="10" stroke="rgb(0, 128, 0)" fill="rgb(0, 128, 0)" fill-opacity="0.32"/>
</svg>
