<?xml version="1.0" encoding="UTF-8" ?>
<!DOCTYPE svg PUBLIC "-//W3C//DTD SVG 1.1//EN" "http://www.w3.org/Graphics/SVG/1.1/DTD/svg11.dtd">
<svg width="100" height="100" xmlns="http://www.w3.org/2000/svg" version="1.1">
  <rect x="0" y="0" width="100" height="100" fill="rgb(128, 128, 128)" fill-opacity="0.09"/>
  <circle cx="14" cy="17" r="2" stroke="rgb(128, 128, 128)" fill="rgb(128, 128, 128)" fill-opacity="0.15"/>
  <rect x="60" y="46" width="38" height="19" stroke="rgb(128, 128, 128)" fill="rgb(128, 128, 128)" fill-opacity="0.97"/>
  <rect x="32" y="56" width="21" height="34" stroke="rgb(128, 128, 128)" fill="rgb(128, 128, 128)" fill-opacity="0.8100000000000001"/>
  <circle cx="47" cy="79" r="7" stroke="rgb(128, 128, 128)" fill="rgb(128, 128, 128)" fill-opacity="0.34"/>
  <circle cx="70" cy="0" r="11" stroke="rgb(128, 128, 128)" fill="rgb(128, 128, 128)" fill-opacity="0.07000000000000001"/>
  <rect x="78" y="37" width="39" height="1" stroke="rgb(128, 128, 128)" fill="rgb(128, 128, 128)" fill-opacity="1.0"/>
  <rect x="81" y="52" width="19" height="0" stroke="rgb(128, 128, 128)" fill="rgb(128, 128, 128)" fill-opacity="0.39"/>
  <rect x="12" y="85" width="5" height="11" stroke="rgb(128, 128, 128)" fill="rgb(128, 128, 128)" fill-opacity="0.27"/>
  <rect x="37" y="22" width="16" height="1" stroke="rgb(128, 128, 128)" fill="rgb(128, 128, 128)" fill-opacity="0.29"/>
  <rect x="19" y="38" width="38" height="11" stroke="rgb(128, 128, 128)" fill="rgb(128, 128, 128)" fill-opacity="0.62"/>
  <circle cx="20" cy="73" r="16" stroke="rgb(128, 128, 128)" fill="rgb(128, 128, 128)" fill-opacity="0.0"/>
  <circle cx="34" cy="19" r="5" stroke="rgb(128, 128, 128)" fill="rgb(128, 128, 128)" fill-opacity="0.7"/>
  <rect x="20" y="2" width="32" height="10" stroke="rgb(128, 128, 128)" fill="rgb(128, 128, 128)" fill-opacity="0.21"/>
  <rect x="18" y="35" width="26" height="28" stroke="rgb(128, 128, 128)" fill="rgb(128, 128, 128)" fill-opacity="0.5600000000000001"/>
  <circle cx="22" cy="38" r="14" stroke="rgb(128, 128, 128)" fill="rgb(128, 128, 128)" fill-opacity="0.99"/>
  <rect x="89" y="4" width="21" height="0" stroke="rgb(128, 128, 128)" fill="rgb(128, 128, 128)" fill-opacity="0.63"/>
  <circle cx="26" cy="98" r="12" stroke="rgb(128, 128, 128)" fill="rgb(128, 128, 128)" fill-opacity="0.03"/>
  <circle cx="46" cy="37" r="5" stroke="rgb(128, 128, 128)" fill="rgb(128, 128, 128)" fill-opacity="0.01"/>
  <rect x="87" y="4" width="39" height="24" stroke="rgb(128, 128, 128)" fill="rgb(128, 128, 128)" fill-opacity="0.8"/>
  <rect x="58" y="5" width="22" height="22" stroke="rgb(128, 128, 128)" fill="rgb(128, 128, 128)" fill-opacity="0.22"/>
  <circle cx="72" cy="69" r="1" stroke="rgb(128, 128, 128)" fill="rgb(128, 128, 128)" fill-opacity="0.8"/>
</svg>
