<?xml version="1.0" encoding="UTF-8" ?>
<!DOCTYPE svg PUBLIC "-//W3C//DTD SVG 1.1//EN" "http://www.w3.org/Graphics/SVG/1.1/DTD/svg11.dtd">
<svg width="100" height="100" xmlns="http://www.w3.org/2000/svg" version="1.1">
  <rect x="0" y="0" width="100" height="100" fill="rgb(255, 105, 180)" fill-opacity="0.27"/>
  <rect x="69" y="80" width="20" height="21" stroke="rgb(255, 105, 180)" fill="rgb(255, 105, 180)" fill-opacity="0.77"/>
  <rect x="71" y="98" width="30" height="7" stroke="rgb(255, 105, 180)" fill="rgb(255, 105, 180)" fill-opacity="0.99"/>
  <circle cx="21" cy="51" r="16" stroke="rgb(255, 105, 180)" fill="rgb(255, 105, 180)" fill-opacity="0.25"/>
  <rect x="67" y="28" width="27" height="14" stroke="rgb(255, 105, 180)" fill="rgb(255, 105, 180)" fill-opacity="0.38"/>
  <circle cx="15" cy="29" r="17" stroke="rgb(255, 105, 180)" fill="rgb(255, 105, 180)" fill-opacity="1.0"/>
  <circle cx="74" cy="63" r="15" stroke="rgb(255, 105, 180)" fill="rgb(255, 105, 180)" fill-opacity="0.0"/>
  <circle cx="96" cy="10" r="4" stroke="rgb(255, 105, 180)" fill="rgb(255, 105, 180)" fill-opacity="0.02"/>
  <rect x="55" y="89" width="38" height="0" stroke="rgb(255, 105, 180)" fill="rgb(255, 105, 180)" fill-opacity="0.74"/>
  <rect x="40" y="36" width="33" height="26" stroke="rgb(255, 105, 180)" fill="rgb(255, 105, 180)" fill-opacity="0.39"/>
  <circle cx="76" cy="35" r="16" stroke="rgb(255, 105, 180)" fill="rgb(255, 105, 180)" fill-opacity="0.36"/>
  <circle cx="61" cy="43" r="5" stroke="rgb(255, 105, 180)" fill="rgb(255, 105, 180)" fill-opacity="0.48"/>
  <rect x="5" y="82" width="19" height="20" stroke="rgb(255, 105, 180)" fill="rgb(255, 105, 180)" fill-opacity="0.28"/>
  <circle cx="99" cy="100" r="2" stroke="rgb(255, 105, 180)" fill="rgb(255, 105, 180)" fill-opacity="0.12"/>
  <circle cx="15" cy="27" r="2" stroke="rgb(255, 105, 180)" fill="rgb(255, 105, 180)" fill-opacity="0.75"/>
  <circle cx="31" cy="49" r="4" stroke="rgb(255, 105, 180)" fill="rgb(255, 105, 180)" fill-opacity="0.5600000000000001"/>
  <circle cx="81" cy="96" r="5" stroke="rgb(255, 105, 180)" fill="rgb(255, 105, 180)" fill-opacity="0.48"/>
  <circle cx="47" cy="51" r="6" stroke="rgb(255, 105, 180)" fill="rgb(255, 105, 180)" fill-opacity="0.44"/>
  <circle cx="10" cy="76" r="18" stroke="rgb(255, 105, 180)" fill="rgb(255, 105, 180)" fill-opacity="0.88"/>
  <circle cx="36" cy="69" r="13" stroke="rgb(255, 105, 180)" fill="rgb(255, 105, 180)" fill-opacity="0.55"/>
  <rect x="76" y="44" width="30" height="26" stroke="rgb(255, 105, 180)" fill="rgb(255, 105, 180)" fill-opacity="0.42"/>
  <circle cx="56" cy="84" r="15" stroke="rgb(255, 105, 180)" fill="rgb(255, 105, 180)" fill-opacity="0.29"/>
</svg>
