<?xml version="1.0" encoding="UTF-8" ?>
<!DOCTYPE svg PUBLIC "-//W3C//DTD SVG 1.1//EN" "http://www.w3.org/Graphics/SVG/1.1/DTD/svg11.dtd">
<svg width="100" height="100" xmlns="http://www.w3.org/2000/svg" version="1.1">
  <rect x="0" y="0" width="100" height="100" fill="rgb(205, 92, 92)" fill-opacity="0.06"/>
  <rect x="12" y="53" width="39" height="30" stroke="rgb(205, 92, 92)" fill="rgb(205, 92, 92)" fill-opacity="0.1"/>
  <rect x="72" y="77" width="4" height="11" stroke="rgb(205, 92, 92)" fill="rgb(205, 92, 92)" fill-opacity="0.48"/>
  <rect x="39" y="68" width="7" height="11" stroke="rgb(205, 92, 92)" fill="rgb(205, 92, 92)" fill-opacity="0.57"/>
  <circle cx="55" cy="57" r="5" stroke="rgb(205, 92, 92)" fill="rgb(205, 92, 92)" fill-opacity="0.23"/>
  <circle cx="82" cy="65" r="16" stroke="rgb(205, 92, 92)" fill="rgb(205, 92, 92)" fill-opacity="0.3"/>
  <rect x="8" y="68" width="25" height="12" stroke="rgb(205, 92, 92)" fill="rgb(205, 92, 92)" fill-opacity="0.67"/>
  <circle cx="35" cy="8" r="3" stroke="rgb(205, 92, 92)" fill="rgb(205, 92, 92)" fill-opacity="0.35"/>
  <rect x="48" y="75" width="16" height="22" stroke="rgb(205, 92, 92)" fill="rgb(205, 92, 92)" fill-opacity="0.49"/>
  <circle cx="48" cy="67" r="11" stroke="rgb(205, 92, 92)" fill="rgb(205, 92, 92)" fill-opacity="0.58"/>
  <circle cx="38" cy="51" r="7" stroke="rgb(205, 92, 92)" fill="rgb(205, 92, 92)" fill-opacity="0.2"/>
  <rect x="22" y="41" width="6" height="18" stroke="rgb(205, 92, 92)" fill="rgb(205, 92, 92)" fill-opacity="0.6"/>
  <circle cx="6" cy="38" r="14" stroke="rgb(205, 92, 92)" fill="rgb(205, 92, 92)" fill-opacity="0.43"/>
  <rect x="5" y="83" width="0" height="20" stroke="rgb(205, 92, 92)" fill="rgb(205, 92, 92)" fill-opacity="0.98"/>
  <rect x="20" y="86" width="11" height="21" stroke="rgb(205, 92, 92)" fill="rgb(205, 92, 92)" fill-opacity="0.11"/>
  <circle cx="74" cy="91" r="14" stroke="rgb(205, 92, 92)" fill="rgb(205, 92, 92)" fill-opacity="0.38"/>
  <circle cx="72" cy="89" r="16" stroke="rgb(205, 92, 92)" fill="rgb(205, 92, 92)" fill-opacity="0.96"/>
  <rect x="64" y="5" width="34" height="9" stroke="rgb(205, 92, 92)" fill="rgb(205, 92, 92)" fill-opacity="0.98"/>
  <rect x="33" y="98" width="7" height="2" stroke="rgb(205, 92, 92)" fill="rgb(205, 92, 92)" fill-opacity="0.23"/>
  <rect x="69" y="24" width="7" height="26" stroke="rgb(205, 92, 92)" fill="rgb(205, 92, 92)" fill-opacity="0.84"/>
  <circle cx="88" cy="16" r="8" stroke="rgb(205, 92, 92)" fill="rgb(205, 92, 92)" fill-opacity="0.99"/>
  <rect x="77" y="67" width="2" height="23" stroke="rgb(205, 92, 92)" fill="rgb(205, 92, 92)" fill-opacity="0.0"/>
</svg>
