<?xml version="1.0" encoding="UTF-8" ?>
<!DOCTYPE svg PUBLIC "-//W3C//DTD SVG 1.1//EN" "http://www.w3.org/Graphics/SVG/1.1/DTD/svg11.dtd">
<svg width="100" height="100" xmlns="http://www.w3.org/2000/svg" version="1.1">
  <rect x="0" y="0" width="100" height="100" fill="rgb(75, 0, 130)" fill-opacity="0.54"/>
  <rect x="56" y="33" width="37" height="27" stroke="rgb(75, 0, 130)" fill="rgb(75, 0, 130)" fill-opacity="0.89"/>
  <circle cx="18" cy="28" r="20" stroke="rgb(75, 0, 130)" fill="rgb(75, 0, 130)" fill-opacity="0.17"/>
  <rect x="93" y="0" width="22" height="7" stroke="rgb(75, 0, 130)" fill="rgb(75, 0, 130)" fill-opacity="0.23"/>
  <rect x="5" y="27" width="4" height="12" stroke="rgb(75, 0, 130)" fill="rgb(75, 0, 130)" fill-opacity="0.32"/>
  <circle cx="19" cy="81" r="4" stroke="rgb(75, 0, 130)" fill="rgb(75, 0, 130)" fill-opacity="0.88"/>
  <circle cx="46" cy="58" r="7" stroke="rgb(75, 0, 130)" fill="rgb(75, 0, 130)" fill-opacity="0.04"/>
  <rect x="21" y="52" width="18" height="14" stroke="rgb(75, 0, 130)" fill="rgb(75, 0, 130)" fill-opacity="0.17"/>
  <rect x="69" y="51" width="14" height="30" stroke="rgb(75, 0, 130)" fill="rgb(75, 0, 130)" fill-opacity="0.44"/>
  <rect x="80" y="21" width="13" height="19" stroke="rgb(75, 0, 130)" fill="rgb(75, 0, 130)" fill-opacity="0.66"/>
  <rect x="23" y="95" width="33" height="13" stroke="rgb(75, 0, 130)" fill="rgb(75, 0, 130)" fill-opacity="0.79"/>
  <circle cx="22" cy="82" r="7" stroke="rgb(75, 0, 130)" fill="rgb(75, 0, 130)" fill-opacity="0.4"/>
  <circle cx="64" cy="4" r="16" stroke="rgb(75, 0, 130)" fill="rgb(75, 0, 130)" fill-opacity="0.13"/>
  <rect x="20" y="42" width="37" height="25" stroke="rgb(75, 0, 130)" fill="rgb(75, 0, 130)" fill-opacity="0.74"/>
  <rect x="63" y="100" width="26" height="38" stroke="rgb(75, 0, 130)" fill="rgb(75, 0, 130)" fill-opacity="0.93"/>
  <rect x="26" y="61" width="8" height="38" stroke="rgb(75, 0, 130)" fill="rgb(75, 0, 130)" fill-opacity="0.42"/>
  <circle cx="96" cy="54" r="14" stroke="rgb(75, 0, 130)" fill="rgb(75, 0, 130)" fill-opacity="0.21"/>
  <circle cx="41" cy="7" r="3" stroke="rgb(75, 0, 130)" fill="rgb(75, 0, 130)" fill-opacity="0.47"/>
  <circle cx="22" cy="62" r="7" stroke="rgb(75, 0, 130)" fill="rgb(75, 0, 130)" fill-opacity="0.01"/>
  <circle cx="5" cy="80" r="6" stroke="rgb(75, 0, 130)" fill="rgb(75, 0, 130)" fill-opacity="0.25"/>
  <rect x="30" y="85" width="5" height="25" stroke="rgb(75, 0, 130)" fill="rgb(75, 0, 130)" fill-opacity="0.82"/>
  <rect x="66" y="59" width="16" height="3" stroke="rgb(75, 0, 130)" fill="rgb(75, 0, 130)" fill-opacity="0.3"/>
</svg>
