<?xml version="1.0" encoding="UTF-8" ?>
<!DOCTYPE svg PUBLIC "-//W3C//DTD SVG 1.1//EN" "http://www.w3.org/Graphics/SVG/1.1/DTD/svg11.dtd">
<svg width="100" height="100" xmlns="http://www.w3.org/2000/svg" version="1.1">
  <rect x="0" y="0" width="100" height="100" fill="rgb(255, 255, 240)" fill-opacity="0.64"/>
  <rect x="74" y="48" width="9" height="38" stroke="rgb(255, 255, 240)" fill="rgb(255, 255, 240)" fill-opacity="0.75"/>
  <rect x="14" y="23" width="29" height="39" stroke="rgb(255, 255, 240)" fill="rgb(255, 255, 240)" fill-opacity="0.54"/>
  <circle cx="22" cy="32" r="2" stroke="rgb(255, 255, 240)" fill="rgb(255, 255, 240)" fill-opacity="0.23"/>
  <circle cx="88" cy="50" r="20" stroke="rgb(255, 255, 240)" fill="rgb(255, 255, 240)" fill-opacity="0.78"/>
  <rect x="60" y="90" width="38" height="20" stroke="rgb(255, 255, 240)" fill="rgb(255, 255, 240)" fill-opacity="0.51"/>
  <circle cx="18" cy="10" r="15" stroke="rgb(255, 255, 240)" fill="rgb(255, 255, 240)" fill-opacity="0.85"/>
  <rect x="74" y="16" width="36" height="19" stroke="rgb(255, 255, 240)" fill="rgb(255, 255, 240)" fill-opacity="0.25"/>
  <circle cx="36" cy="32" r="16" stroke="rgb(255, 255, 240)" fill="rgb(255, 255, 240)" fill-opacity="0.93"/>
  <circle cx="29" cy="6" r="4" stroke="rgb(255, 255, 240)" fill="rgb(255, 255, 240)" fill-opacity="0.88"/>
  <rect x="85" y="89" width="18" height="17" stroke="rgb(255, 255, 240)" fill="rgb(255, 255, 240)" fill-opacity="0.03"/>
  <rect x="13" y="73" width="13" height="36" stroke="rgb(255, 255, 240)" fill="rgb(255, 255, 240)" fill-opacity="0.23"/>
  <circle cx="40" cy="97" r="18" stroke="rgb(255, 255, 240)" fill="rgb(255, 255, 240)" fill-opacity="0.11"/>
  <rect x="82" y="75" width="11" height="2" stroke="rgb(255, 255, 240)" fill="rgb(255, 255, 240)" fill-opacity="0.06"/>
  <rect x="3" y="65" width="4" height="31" stroke="rgb(255, 255, 240)" fill="rgb(255, 255, 240)" fill-opacity="0.3"/>
  <rect x="22" y="82" width="34" height="6" stroke="rgb(255, 255, 240)" fill="rgb(255, 255, 240)" fill-opacity="0.83"/>
  <rect x="83" y="1" width="26" height="22" stroke="rgb(255, 255, 240)" fill="rgb(255, 255, 240)" fill-opacity="0.0"/>
  <rect x="28" y="80" width="10" height="6" stroke="rgb(255, 255, 240)" fill="rgb(255, 255, 240)" fill-opacity="0.93"/>
  <circle cx="10" cy="83" r="6" stroke="rgb(255, 255, 240)" fill="rgb(255, 255, 240)" fill-opacity="0.82"/>
  <circle cx="2" cy="94" r="1" stroke="rgb(255, 255, 240)" fill="rgb(255, 255, 240)" fill-opacity="0.87"/>
  <rect x="72" y="94" width="18" height="18" stroke="rgb(255, 255, 240)" fill="rgb(255, 255, 240)" fill-opacity="0.39"/>
  <rect x="55" y="81" width="8" height="38" stroke="rgb(255, 255, 240)" fill="rgb(255, 255, 240)" fill-opacity="0.29"/>
</svg>
