<?xml version="1.0" encoding="UTF-8" ?>
<!DOCTYPE svg PUBLIC "-//W3C//DTD SVG 1.1//EN" "http://www.w3.org/Graphics/SVG/1.1/DTD/svg11.dtd">
<svg width="100" height="100" xmlns="http://www.w3.org/2000/svg" version="1.1">
  <rect x="0" y="0" width="100" height="100" fill="rgb(240, 230, 140)" fill-opacity="0.39"/>
  <circle cx="13" cy="82" r="20" stroke="rgb(240, 230, 140)" fill="rgb(240, 230, 140)" fill-opacity="0.34"/>
  <circle cx="80" cy="68" r="18" stroke="rgb(240, 230, 140)" fill="rgb(240, 230, 140)" fill-opacity="0.78"/>
  <rect x="19" y="5" width="28" height="35" stroke="rgb(240, 230, 140)" fill="rgb(240, 230, 140)" fill-opacity="0.86"/>
  <circle cx="43" cy="46" r="2" stroke="rgb(240, 230, 140)" fill="rgb(240, 230, 140)" fill-opacity="0.85"/>
  <circle cx="26" cy="10" r="10" stroke="rgb(240, 230, 140)" fill="rgb(240, 230, 140)" fill-opacity="0.96"/>
  <circle cx="83" cy="98" r="9" stroke="rgb(240, 230, 140)" fill="rgb(240, 230, 140)" fill-opacity="0.9399999999999999"/>
  <rect x="21" y="83" width="25" height="29" stroke="rgb(240, 230, 140)" fill="rgb(240, 230, 140)" fill-opacity="0.96"/>
  <rect x="5" y="53" width="9" height="20" stroke="rgb(240, 230, 140)" fill="rgb(240, 230, 140)" fill-opacity="0.06"/>
  <circle cx="98" cy="33" r="10" stroke="rgb(240, 230, 140)" fill="rgb(240, 230, 140)" fill-opacity="0.04"/>
  <circle cx="24" cy="96" r="19" stroke="rgb(240, 230, 140)" fill="rgb(240, 230, 140)" fill-opacity="0.43"/>
  <circle cx="92" cy="86" r="12" stroke="rgb(240, 230, 140)" fill="rgb(240, 230, 140)" fill-opacity="0.67"/>
  <rect x="6" y="88" width="29" height="34" stroke="rgb(240, 230, 140)" fill="rgb(240, 230, 140)" fill-opacity="0.75"/>
  <rect x="15" y="45" width="12" height="13" stroke="rgb(240, 230, 140)" fill="rgb(240, 230, 140)" fill-opacity="0.57"/>
  <rect x="32" y="86" width="33" height="34" stroke="rgb(240, 230, 140)" fill="rgb(240, 230, 140)" fill-opacity="0.23"/>
  <circle cx="64" cy="59" r="1" stroke="rgb(240, 230, 140)" fill="rgb(240, 230, 140)" fill-opacity="0.34"/>
  <circle cx="44" cy="39" r="18" stroke="rgb(240, 230, 140)" fill="rgb(240, 230, 140)" fill-opacity="0.3"/>
  <circle cx="25" cy="52" r="12" stroke="rgb(240, 230, 140)" fill="rgb(240, 230, 140)" fill-opacity="0.98"/>
  <circle cx="90" cy="23" r="15" stroke="rgb(240, 230, 140)" fill="rgb(240, 230, 140)" fill-opacity="0.26"/>
  <circle cx="50" cy="34" r="6" stroke="rgb(240, 230, 140)" fill="rgb(240, 230, 140)" fill-opacity="0.64"/>
  <rect x="69" y="55" width="19" height="30" stroke="rgb(240, 230, 140)" fill="rgb(240, 230, 140)" fill-opacity="0.12"/>
  <rect x="88" y="64" width="40" height="16" stroke="rgb(240, 230, 140)" fill="rgb(240, 230, 140)" fill-opacity="0.53"/>
</svg>
