<?xml version="1.0" encoding="UTF-8" ?>
<!DOCTYPE svg PUBLIC "-//W3C//DTD SVG 1.1//EN" "http://www.w3.org/Graphics/SVG/1.1/DTD/svg11.dtd">
<svg width="100" height="100" xmlns="http://www.w3.org/2000/svg" version="1.1">
  <rect x="0" y="0" width="100" height="100" fill="rgb(230, 230, 250)" fill-opacity="0.36"/>
  <circle cx="93" cy="38" r="16" stroke="rgb(230, 230, 250)" fill="rgb(230, 230, 250)" fill-opacity="0.7"/>
  <rect x="91" y="92" width="4" height="15" stroke="rgb(230, 230, 250)" fill="rgb(230, 230, 250)" fill-opacity="0.51"/>
  <rect x="25" y="27" width="2" height="39" stroke="rgb(230, 230, 250)" fill="rgb(230, 230, 250)" fill-opacity="0.05"/>
  <circle cx="18" cy="93" r="16" stroke="rgb(230, 230, 250)" fill="rgb(230, 230, 250)" fill-opacity="0.75"/>
  <rect x="44" y="52" width="37" height="21" stroke="rgb(230, 230, 250)" fill="rgb(230, 230, 250)" fill-opacity="0.01"/>
  <rect x="25" y="91" width="22" height="15" stroke="rgb(230, 230, 250)" fill="rgb(230, 230, 250)" fill-opacity="0.3"/>
  <circle cx="17" cy="76" r="12" stroke="rgb(230, 230, 250)" fill="rgb(230, 230, 250)" fill-opacity="0.44"/>
  <rect x="90" y="33" width="20" height="31" stroke="rgb(230, 230, 250)" fill="rgb(230, 230, 250)" fill-opacity="0.04"/>
  <circle cx="24" cy="82" r="15" stroke="rgb(230, 230, 250)" fill="rgb(230, 230, 250)" fill-opacity="0.52"/>
  <circle cx="49" cy="28" r="19" stroke="rgb(230, 230, 250)" fill="rgb(230, 230, 250)" fill-opacity="0.35"/>
  <circle cx="46" cy="25" r="9" stroke="rgb(230, 230, 250)" fill="rgb(230, 230, 250)" fill-opacity="0.74"/>
  <rect x="16" y="88" width="32" height="15" stroke="rgb(230, 230, 250)" fill="rgb(230, 230, 250)" fill-opacity="0.47"/>
  <rect x="7" y="5" width="26" height="16" stroke="rgb(230, 230, 250)" fill="rgb(230, 230, 250)" fill-opacity="0.78"/>
  <circle cx="81" cy="94" r="15" stroke="rgb(230, 230, 250)" fill="rgb(230, 230, 250)" fill-opacity="0.79"/>
  <rect x="90" y="5" width="16" height="33" stroke="rgb(230, 230, 250)" fill="rgb(230, 230, 250)" fill-opacity="0.6899999999999999"/>
  <rect x="24" y="36" width="16" height="33" stroke="rgb(230, 230, 250)" fill="rgb(230, 230, 250)" fill-opacity="0.1"/>
  <rect x="26" y="21" width="27" height="8" stroke="rgb(230, 230, 250)" fill="rgb(230, 230, 250)" fill-opacity="0.71"/>
  <circle cx="43" cy="36" r="4" stroke="rgb(230, 230, 250)" fill="rgb(230, 230, 250)" fill-opacity="0.06"/>
  <circle cx="48" cy="61" r="2" stroke="rgb(230, 230, 250)" fill="rgb(230, 230, 250)" fill-opacity="0.23"/>
  <circle cx="79" cy="20" r="20" stroke="rgb(230, 230, 250)" fill="rgb(230, 230, 250)" fill-opacity="1.0"/>
  <rect x="24" y="20" width="13" height="30" stroke="rgb(230, 230, 250)" fill="rgb(230, 230, 250)" fill-opacity="0.06"/>
</svg>
