<?xml version="1.0" encoding="UTF-8" ?>
<!DOCTYPE svg PUBLIC "-//W3C//DTD SVG 1.1//EN" "http://www.w3.org/Graphics/SVG/1.1/DTD/svg11.dtd">
<svg width="100" height="100" xmlns="http://www.w3.org/2000/svg" version="1.1">
  <rect x="0" y="0" width="100" height="100" fill="rgb(255, 240, 245)" fill-opacity="0.43"/>
  <rect x="75" y="18" width="3" height="13" stroke="rgb(255, 240, 245)" fill="rgb(255, 240, 245)" fill-opacity="0.07000000000000001"/>
  <circle cx="34" cy="89" r="14" stroke="rgb(255, 240, 245)" fill="rgb(255, 240, 245)" fill-opacity="0.98"/>
  <rect x="56" y="16" width="9" height="25" stroke="rgb(255, 240, 245)" fill="rgb(255, 240, 245)" fill-opacity="0.93"/>
  <circle cx="38" cy="20" r="6" stroke="rgb(255, 240, 245)" fill="rgb(255, 240, 245)" fill-opacity="0.24"/>
  <rect x="45" y="66" width="24" height="12" stroke="rgb(255, 240, 245)" fill="rgb(255, 240, 245)" fill-opacity="0.89"/>
  <rect x="91" y="22" width="23" height="6" stroke="rgb(255, 240, 245)" fill="rgb(255, 240, 245)" fill-opacity="0.31"/>
  <rect x="52" y="9" width="19" height="29" stroke="rgb(255, 240, 245)" fill="rgb(255, 240, 245)" fill-opacity="0.03"/>
  <circle cx="41" cy="22" r="2" stroke="rgb(255, 240, 245)" fill="rgb(255, 240, 245)" fill-opacity="0.63"/>
  <rect x="53" y="62" width="19" height="36" stroke="rgb(255, 240, 245)" fill="rgb(255, 240, 245)" fill-opacity="0.25"/>
  <rect x="82" y="92" width="11" height="36" stroke="rgb(255, 240, 245)" fill="rgb(255, 240, 245)" fill-opacity="0.21"/>
  <circle cx="80" cy="50" r="12" stroke="rgb(255, 240, 245)" fill="rgb(255, 240, 245)" fill-opacity="0.41"/>
  <rect x="12" y="25" width="32" height="7" stroke="rgb(255, 240, 245)" fill="rgb(255, 240, 245)" fill-opacity="0.16"/>
  <circle cx="40" cy="16" r="17" stroke="rgb(255, 240, 245)" fill="rgb(255, 240, 245)" fill-opacity="0.34"/>
  <circle cx="25" cy="52" r="19" stroke="rgb(255, 240, 245)" fill="rgb(255, 240, 245)" fill-opacity="0.55"/>
  <circle cx="12" cy="34" r="12" stroke="rgb(255, 240, 245)" fill="rgb(255, 240, 245)" fill-opacity="0.04"/>
  <circle cx="56" cy="58" r="15" stroke="rgb(255, 240, 245)" fill="rgb(255, 240, 245)" fill-opacity="0.63"/>
  <rect x="4" y="64" width="4" height="8" stroke="rgb(255, 240, 245)" fill="rgb(255, 240, 245)" fill-opacity="0.68"/>
  <circle cx="56" cy="99" r="15" stroke="rgb(255, 240, 245)" fill="rgb(255, 240, 245)" fill-opacity="0.21"/>
  <rect x="36" y="71" width="24" height="18" stroke="rgb(255, 240, 245)" fill="rgb(255, 240, 245)" fill-opacity="0.8"/>
  <rect x="79" y="47" width="4" height="21" stroke="rgb(255, 240, 245)" fill="rgb(255, 240, 245)" fill-opacity="0.29"/>
  <circle cx="74" cy="72" r="18" stroke="rgb(255, 240, 245)" fill="rgb(255, 240, 245)" fill-opacity="0.36"/>
</svg>
