<?xml version="1.0" encoding="UTF-8" ?>
<!DOCTYPE svg PUBLIC "-//W3C//DTD SVG 1.1//EN" "http://www.w3.org/Graphics/SVG/1.1/DTD/svg11.dtd">
<svg width="100" height="100" xmlns="http://www.w3.org/2000/svg" version="1.1">
  <rect x="0" y="0" width="100" height="100" fill="rgb(124, 252, 0)" fill-opacity="0.23"/>
  <circle cx="63" cy="31" r="17" stroke="rgb(124, 252, 0)" fill="rgb(124, 252, 0)" fill-opacity="0.83"/>
  <circle cx="54" cy="47" r="15" stroke="rgb(124, 252, 0)" fill="rgb(124, 252, 0)" fill-opacity="0.59"/>
  <rect x="52" y="29" width="40" height="36" stroke="rgb(124, 252, 0)" fill="rgb(124, 252, 0)" fill-opacity="0.93"/>
  <circle cx="41" cy="96" r="15" stroke="rgb(124, 252, 0)" fill="rgb(124, 252, 0)" fill-opacity="0.18"/>
  <circle cx="53" cy="77" r="10" stroke="rgb(124, 252, 0)" fill="rgb(124, 252, 0)" fill-opacity="0.22"/>
  <rect x="45" y="25" width="39" height="0" stroke="rgb(124, 252, 0)" fill="rgb(124, 252, 0)" fill-opacity="0.9399999999999999"/>
  <circle cx="4" cy="4" r="9" stroke="rgb(124, 252, 0)" fill="rgb(124, 252, 0)" fill-opacity="0.01"/>
  <rect x="50" y="9" width="12" height="21" stroke="rgb(124, 252, 0)" fill="rgb(124, 252, 0)" fill-opacity="0.57"/>
  <rect x="52" y="88" width="22" height="26" stroke="rgb(124, 252, 0)" fill="rgb(124, 252, 0)" fill-opacity="0.53"/>
  <rect x="88" y="78" width="39" height="23" stroke="rgb(124, 252, 0)" fill="rgb(124, 252, 0)" fill-opacity="0.64"/>
  <rect x="43" y="36" width="10" height="25" stroke="rgb(124, 252, 0)" fill="rgb(124, 252, 0)" fill-opacity="0.52"/>
  <circle cx="34" cy="53" r="1" stroke="rgb(124, 252, 0)" fill="rgb(124, 252, 0)" fill-opacity="0.39"/>
  <rect x="64" y="86" width="39" height="36" stroke="rgb(124, 252, 0)" fill="rgb(124, 252, 0)" fill-opacity="0.32"/>
  <rect x="13" y="13" width="3" height="12" stroke="rgb(124, 252, 0)" fill="rgb(124, 252, 0)" fill-opacity="0.6899999999999999"/>
  <circle cx="80" cy="39" r="6" stroke="rgb(124, 252, 0)" fill="rgb(124, 252, 0)" fill-opacity="0.29"/>
  <circle cx="24" cy="71" r="2" stroke="rgb(124, 252, 0)" fill="rgb(124, 252, 0)" fill-opacity="0.82"/>
  <rect x="73" y="44" width="13" height="31" stroke="rgb(124, 252, 0)" fill="rgb(124, 252, 0)" fill-opacity="0.33"/>
  <rect x="76" y="78" width="28" height="3" stroke="rgb(124, 252, 0)" fill="rgb(124, 252, 0)" fill-opacity="0.31"/>
  <rect x="30" y="34" width="8" height="22" stroke="rgb(124, 252, 0)" fill="rgb(124, 252, 0)" fill-opacity="0.8100000000000001"/>
  <rect x="55" y="20" width="24" height="28" stroke="rgb(124, 252, 0)" fill="rgb(124, 252, 0)" fill-opacity="0.88"/>
  <circle cx="34" cy="11" r="3" stroke="rgb(124, 252, 0)" fill="rgb(124, 252, 0)" fill-opacity="0.04"/>
</svg>
