<?xml version="1.0" encoding="UTF-8" ?>
<!DOCTYPE svg PUBLIC "-//W3C//DTD SVG 1.1//EN" "http://www.w3.org/Graphics/SVG/1.1/DTD/svg11.dtd">
<svg width="100" height="100" xmlns="http://www.w3.org/2000/svg" version="1.1">
  <rect x="0" y="0" width="100" height="100" fill="rgb(255, 250, 205)" fill-opacity="0.15"/>
  <circle cx="60" cy="65" r="5" stroke="rgb(255, 250, 205)" fill="rgb(255, 250, 205)" fill-opacity="0.54"/>
  <circle cx="18" cy="75" r="9" stroke="rgb(255, 250, 205)" fill="rgb(255, 250, 205)" fill-opacity="0.6"/>
  <rect x="94" y="8" width="18" height="19" stroke="rgb(255, 250, 205)" fill="rgb(255, 250, 205)" fill-opacity="0.83"/>
  <circle cx="71" cy="25" r="4" stroke="rgb(255, 250, 205)" fill="rgb(255, 250, 205)" fill-opacity="0.42"/>
  <circle cx="75" cy="95" r="13" stroke="rgb(255, 250, 205)" fill="rgb(255, 250, 205)" fill-opacity="0.96"/>
  <circle cx="93" cy="9" r="11" stroke="rgb(255, 250, 205)" fill="rgb(255, 250, 205)" fill-opacity="0.23"/>
  <rect x="21" y="92" width="16" height="2" stroke="rgb(255, 250, 205)" fill="rgb(255, 250, 205)" fill-opacity="0.9399999999999999"/>
  <rect x="99" y="96" width="4" height="32" stroke="rgb(255, 250, 205)" fill="rgb(255, 250, 205)" fill-opacity="0.24"/>
  <rect x="57" y="64" width="2" height="30" stroke="rgb(255, 250, 205)" fill="rgb(255, 250, 205)" fill-opacity="0.2"/>
  <rect x="12" y="92" width="38" height="16" stroke="rgb(255, 250, 205)" fill="rgb(255, 250, 205)" fill-opacity="0.12"/>
  <circle cx="53" cy="79" r="20" stroke="rgb(255, 250, 205)" fill="rgb(255, 250, 205)" fill-opacity="0.3"/>
  <circle cx="9" cy="5" r="15" stroke="rgb(255, 250, 205)" fill="rgb(255, 250, 205)" fill-opacity="0.42"/>
  <circle cx="33" cy="5" r="0" stroke="rgb(255, 250, 205)" fill="rgb(255, 250, 205)" fill-opacity="0.37"/>
  <circle cx="9" cy="38" r="6" stroke="rgb(255, 250, 205)" fill="rgb(255, 250, 205)" fill-opacity="0.05"/>
  <rect x="59" y="95" width="27" height="31" stroke="rgb(255, 250, 205)" fill="rgb(255, 250, 205)" fill-opacity="0.33"/>
  <rect x="94" y="68" width="26" height="31" stroke="rgb(255, 250, 205)" fill="rgb(255, 250, 205)" fill-opacity="0.87"/>
  <circle cx="50" cy="40" r="0" stroke="rgb(255, 250, 205)" fill="rgb(255, 250, 205)" fill-opacity="1.0"/>
  <circle cx="32" cy="34" r="11" stroke="rgb(255, 250, 205)" fill="rgb(255, 250, 205)" fill-opacity="0.95"/>
  <rect x="83" y="0" width="2" height="19" stroke="rgb(255, 250, 205)" fill="rgb(255, 250, 205)" fill-opacity="0.46"/>
  <rect x="65" y="41" width="16" height="6" stroke="rgb(255, 250, 205)" fill="rgb(255, 250, 205)" fill-opacity="0.48"/>
  <circle cx="56" cy="23" r="11" stroke="rgb(255, 250, 205)" fill="rgb(255, 250, 205)" fill-opacity="0.21"/>
</svg>
