<?xml version="1.0" encoding="UTF-8" ?>
<!DOCTYPE svg PUBLIC "-//W3C//DTD SVG 1.1//EN" "http://www.w3.org/Graphics/SVG/1.1/DTD/svg11.dtd">
<svg width="100" height="100" xmlns="http://www.w3.org/2000/svg" version="1.1">
  <rect x="0" y="0" width="100" height="100" fill="rgb(144, 238, 144)" fill-opacity="0.33"/>
  <circle cx="94" cy="64" r="0" stroke="rgb(144, 238, 144)" fill="rgb(144, 238, 144)" fill-opacity="0.34"/>
  <rect x="4" y="27" width="23" height="0" stroke="rgb(144, 238, 144)" fill="rgb(144, 238, 144)" fill-opacity="0.77"/>
  <circle cx="86" cy="14" r="10" stroke="rgb(144, 238, 144)" fill="rgb(144, 238, 144)" fill-opacity="0.71"/>
  <circle cx="60" cy="56" r="10" stroke="rgb(144, 238, 144)" fill="rgb(144, 238, 144)" fill-opacity="0.86"/>
  <circle cx="75" cy="78" r="10" stroke="rgb(144, 238, 144)" fill="rgb(144, 238, 144)" fill-opacity="0.98"/>
  <circle cx="36" cy="26" r="12" stroke="rgb(144, 238, 144)" fill="rgb(144, 238, 144)" fill-opacity="0.59"/>
  <circle cx="29" cy="78" r="16" stroke="rgb(144, 238, 144)" fill="rgb(144, 238, 144)" fill-opacity="0.23"/>
  <rect x="55" y="99" width="40" height="12" stroke="rgb(144, 238, 144)" fill="rgb(144, 238, 144)" fill-opacity="0.54"/>
  <rect x="93" y="79" width="12" height="34" stroke="rgb(144, 238, 144)" fill="rgb(144, 238, 144)" fill-opacity="0.05"/>
  <circle cx="50" cy="80" r="6" stroke="rgb(144, 238, 144)" fill="rgb(144, 238, 144)" fill-opacity="0.12"/>
  <rect x="52" y="13" width="6" height="9" stroke="rgb(144, 238, 144)" fill="rgb(144, 238, 144)" fill-opacity="0.14"/>
  <rect x="8" y="45" width="35" height="15" stroke="rgb(144, 238, 144)" fill="rgb(144, 238, 144)" fill-opacity="0.24"/>
  <circle cx="74" cy="51" r="5" stroke="rgb(144, 238, 144)" fill="rgb(144, 238, 144)" fill-opacity="0.58"/>
  <rect x="56" y="72" width="1" height="23" stroke="rgb(144, 238, 144)" fill="rgb(144, 238, 144)" fill-opacity="0.62"/>
  <circle cx="92" cy="19" r="12" stroke="rgb(144, 238, 144)" fill="rgb(144, 238, 144)" fill-opacity="0.55"/>
  <rect x="75" y="91" width="1" height="3" stroke="rgb(144, 238, 144)" fill="rgb(144, 238, 144)" fill-opacity="0.68"/>
  <circle cx="81" cy="39" r="9" stroke="rgb(144, 238, 144)" fill="rgb(144, 238, 144)" fill-opacity="0.53"/>
  <rect x="13" y="72" width="8" height="18" stroke="rgb(144, 238, 144)" fill="rgb(144, 238, 144)" fill-opacity="0.01"/>
  <circle cx="96" cy="72" r="12" stroke="rgb(144, 238, 144)" fill="rgb(144, 238, 144)" fill-opacity="1.0"/>
  <circle cx="14" cy="97" r="11" stroke="rgb(144, 238, 144)" fill="rgb(144, 238, 144)" fill-opacity="0.68"/>
  <rect x="78" y="99" width="18" height="36" stroke="rgb(144, 238, 144)" fill="rgb(144, 238, 144)" fill-opacity="0.54"/>
</svg>
