<?xml version="1.0" encoding="UTF-8" ?>
<!DOCTYPE svg PUBLIC "-//W3C//DTD SVG 1.1//EN" "http://www.w3.org/Graphics/SVG/1.1/DTD/svg11.dtd">
<svg width="100" height="100" xmlns="http://www.w3.org/2000/svg" version="1.1">
  <rect x="0" y="0" width="100" height="100" fill="rgb(255, 160, 122)" fill-opacity="0.49"/>
  <rect x="5" y="47" width="16" height="1" stroke="rgb(255, 160, 122)" fill="rgb(255, 160, 122)" fill-opacity="0.23"/>
  <rect x="69" y="16" width="36" height="40" stroke="rgb(255, 160, 122)" fill="rgb(255, 160, 122)" fill-opacity="0.79"/>
  <rect x="27" y="63" width="28" height="26" stroke="rgb(255, 160, 122)" fill="rgb(255, 160, 122)" fill-opacity="0.07000000000000001"/>
  <circle cx="42" cy="58" r="6" stroke="rgb(255, 160, 122)" fill="rgb(255, 160, 122)" fill-opacity="0.44"/>
  <circle cx="84" cy="74" r="20" stroke="rgb(255, 160, 122)" fill="rgb(255, 160, 122)" fill-opacity="0.4"/>
  <circle cx="73" cy="45" r="19" stroke="rgb(255, 160, 122)" fill="rgb(255, 160, 122)" fill-opacity="0.68"/>
  <circle cx="54" cy="83" r="0" stroke="rgb(255, 160, 122)" fill="rgb(255, 160, 122)" fill-opacity="0.23"/>
  <circle cx="22" cy="61" r="0" stroke="rgb(255, 160, 122)" fill="rgb(255, 160, 122)" fill-opacity="0.39"/>
  <rect x="57" y="52" width="5" height="22" stroke="rgb(255, 160, 122)" fill="rgb(255, 160, 122)" fill-opacity="0.3"/>
  <rect x="7" y="12" width="6" height="23" stroke="rgb(255, 160, 122)" fill="rgb(255, 160, 122)" fill-opacity="0.03"/>
  <rect x="75" y="32" width="35" height="32" stroke="rgb(255, 160, 122)" fill="rgb(255, 160, 122)" fill-opacity="0.51"/>
  <circle cx="45" cy="25" r="2" stroke="rgb(255, 160, 122)" fill="rgb(255, 160, 122)" fill-opacity="0.79"/>
  <rect x="86" y="92" width="37" height="1" stroke="rgb(255, 160, 122)" fill="rgb(255, 160, 122)" fill-opacity="0.72"/>
  <circle cx="7" cy="84" r="20" stroke="rgb(255, 160, 122)" fill="rgb(255, 160, 122)" fill-opacity="0.8"/>
  <circle cx="23" cy="71" r="20" stroke="rgb(255, 160, 122)" fill="rgb(255, 160, 122)" fill-opacity="0.6899999999999999"/>
  <rect x="89" y="81" width="9" height="6" stroke="rgb(255, 160, 122)" fill="rgb(255, 160, 122)" fill-opacity="0.96"/>
  <circle cx="83" cy="55" r="16" stroke="rgb(255, 160, 122)" fill="rgb(255, 160, 122)" fill-opacity="0.11"/>
  <rect x="83" y="58" width="12" height="1" stroke="rgb(255, 160, 122)" fill="rgb(255, 160, 122)" fill-opacity="0.26"/>
  <rect x="0" y="1" width="14" height="19" stroke="rgb(255, 160, 122)" fill="rgb(255, 160, 122)" fill-opacity="0.35"/>
  <rect x="61" y="32" width="28" height="26" stroke="rgb(255, 160, 122)" fill="rgb(255, 160, 122)" fill-opacity="0.92"/>
  <circle cx="61" cy="98" r="5" stroke="rgb(255, 160, 122)" fill="rgb(255, 160, 122)" fill-opacity="0.75"/>
</svg>
