<?xml version="1.0" encoding="UTF-8" ?>
<!DOCTYPE svg PUBLIC "-//W3C//DTD SVG 1.1//EN" "http://www.w3.org/Graphics/SVG/1.1/DTD/svg11.dtd">
<svg width="100" height="100" xmlns="http://www.w3.org/2000/svg" version="1.1">
  <rect x="0" y="0" width="100" height="100" fill="rgb(119, 136, 153)" fill-opacity="0.57"/>
  <rect x="60" y="56" width="9" height="30" stroke="rgb(119, 136, 153)" fill="rgb(119, 136, 153)" fill-opacity="0.6899999999999999"/>
  <circle cx="29" cy="30" r="4" stroke="rgb(119, 136, 153)" fill="rgb(119, 136, 153)" fill-opacity="0.23"/>
  <circle cx="62" cy="55" r="12" stroke="rgb(119, 136, 153)" fill="rgb(119, 136, 153)" fill-opacity="0.36"/>
  <circle cx="86" cy="5" r="11" stroke="rgb(119, 136, 153)" fill="rgb(119, 136, 153)" fill-opacity="0.27"/>
  <rect x="4" y="45" width="2" height="4" stroke="rgb(119, 136, 153)" fill="rgb(119, 136, 153)" fill-opacity="0.91"/>
  <rect x="8" y="65" width="0" height="39" stroke="rgb(119, 136, 153)" fill="rgb(119, 136, 153)" fill-opacity="0.96"/>
  <circle cx="34" cy="11" r="9" stroke="rgb(119, 136, 153)" fill="rgb(119, 136, 153)" fill-opacity="0.65"/>
  <circle cx="99" cy="67" r="12" stroke="rgb(119, 136, 153)" fill="rgb(119, 136, 153)" fill-opacity="0.36"/>
  <circle cx="36" cy="80" r="0" stroke="rgb(119, 136, 153)" fill="rgb(119, 136, 153)" fill-opacity="0.29"/>
  <circle cx="10" cy="37" r="8" stroke="rgb(119, 136, 153)" fill="rgb(119, 136, 153)" fill-opacity="0.42"/>
  <rect x="44" y="21" width="37" height="20" stroke="rgb(119, 136, 153)" fill="rgb(119, 136, 153)" fill-opacity="0.88"/>
  <circle cx="37" cy="21" r="14" stroke="rgb(119, 136, 153)" fill="rgb(119, 136, 153)" fill-opacity="0.47"/>
  <circle cx="100" cy="69" r="8" stroke="rgb(119, 136, 153)" fill="rgb(119, 136, 153)" fill-opacity="0.33"/>
  <rect x="42" y="78" width="7" height="30" stroke="rgb(119, 136, 153)" fill="rgb(119, 136, 153)" fill-opacity="0.96"/>
  <rect x="51" y="40" width="25" height="10" stroke="rgb(119, 136, 153)" fill="rgb(119, 136, 153)" fill-opacity="0.31"/>
  <circle cx="69" cy="27" r="2" stroke="rgb(119, 136, 153)" fill="rgb(119, 136, 153)" fill-opacity="0.42"/>
  <rect x="94" y="100" width="15" height="1" stroke="rgb(119, 136, 153)" fill="rgb(119, 136, 153)" fill-opacity="0.97"/>
  <circle cx="52" cy="25" r="20" stroke="rgb(119, 136, 153)" fill="rgb(119, 136, 153)" fill-opacity="0.09"/>
  <rect x="77" y="1" width="27" height="35" stroke="rgb(119, 136, 153)" fill="rgb(119, 136, 153)" fill-opacity="0.35"/>
  <circle cx="90" cy="38" r="11" stroke="rgb(119, 136, 153)" fill="rgb(119, 136, 153)" fill-opacity="0.29"/>
  <rect x="17" y="81" width="23" height="28" stroke="rgb(119, 136, 153)" fill="rgb(119, 136, 153)" fill-opacity="0.78"/>
</svg>
