<?xml version="1.0" encoding="UTF-8" ?>
<!DOCTYPE svg PUBLIC "-//W3C//DTD SVG 1.1//EN" "http://www.w3.org/Graphics/SVG/1.1/DTD/svg11.dtd">
<svg width="100" height="100" xmlns="http://www.w3.org/2000/svg" version="1.1">
  <rect x="0" y="0" width="100" height="100" fill="rgb(211, 211, 211)" fill-opacity="0.03"/>
  <rect x="92" y="7" width="33" height="23" stroke="rgb(211, 211, 211)" fill="rgb(211, 211, 211)" fill-opacity="0.66"/>
  <circle cx="50" cy="96" r="0" stroke="rgb(211, 211, 211)" fill="rgb(211, 211, 211)" fill-opacity="0.02"/>
  <rect x="5" y="52" width="29" height="1" stroke="rgb(211, 211, 211)" fill="rgb(211, 211, 211)" fill-opacity="0.64"/>
  <circle cx="68" cy="94" r="1" stroke="rgb(211, 211, 211)" fill="rgb(211, 211, 211)" fill-opacity="0.6"/>
  <circle cx="12" cy="40" r="16" stroke="rgb(211, 211, 211)" fill="rgb(211, 211, 211)" fill-opacity="0.11"/>
  <circle cx="3" cy="18" r="1" stroke="rgb(211, 211, 211)" fill="rgb(211, 211, 211)" fill-opacity="0.84"/>
  <circle cx="50" cy="54" r="0" stroke="rgb(211, 211, 211)" fill="rgb(211, 211, 211)" fill-opacity="0.95"/>
  <rect x="21" y="10" width="33" height="24" stroke="rgb(211, 211, 211)" fill="rgb(211, 211, 211)" fill-opacity="0.14"/>
  <circle cx="57" cy="99" r="7" stroke="rgb(211, 211, 211)" fill="rgb(211, 211, 211)" fill-opacity="0.95"/>
  <circle cx="41" cy="93" r="14" stroke="rgb(211, 211, 211)" fill="rgb(211, 211, 211)" fill-opacity="0.54"/>
  <rect x="5" y="65" width="15" height="34" stroke="rgb(211, 211, 211)" fill="rgb(211, 211, 211)" fill-opacity="0.57"/>
  <circle cx="34" cy="88" r="13" stroke="rgb(211, 211, 211)" fill="rgb(211, 211, 211)" fill-opacity="0.25"/>
  <rect x="33" y="90" width="8" height="2" stroke="rgb(211, 211, 211)" fill="rgb(211, 211, 211)" fill-opacity="0.17"/>
  <rect x="96" y="44" width="4" height="32" stroke="rgb(211, 211, 211)" fill="rgb(211, 211, 211)" fill-opacity="0.6899999999999999"/>
  <rect x="39" y="26" width="25" height="7" stroke="rgb(211, 211, 211)" fill="rgb(211, 211, 211)" fill-opacity="0.62"/>
  <circle cx="67" cy="81" r="20" stroke="rgb(211, 211, 211)" fill="rgb(211, 211, 211)" fill-opacity="0.76"/>
  <rect x="19" y="17" width="11" height="38" stroke="rgb(211, 211, 211)" fill="rgb(211, 211, 211)" fill-opacity="0.51"/>
  <rect x="75" y="13" width="26" height="0" stroke="rgb(211, 211, 211)" fill="rgb(211, 211, 211)" fill-opacity="0.21"/>
  <rect x="100" y="36" width="22" height="4" stroke="rgb(211, 211, 211)" fill="rgb(211, 211, 211)" fill-opacity="0.41"/>
  <rect x="11" y="47" width="0" height="12" stroke="rgb(211, 211, 211)" fill="rgb(211, 211, 211)" fill-opacity="0.8"/>
  <circle cx="57" cy="52" r="9" stroke="rgb(211, 211, 211)" fill="rgb(211, 211, 211)" fill-opacity="0.67"/>
</svg>
