<?xml version="1.0" encoding="UTF-8" ?>
<!DOCTYPE svg PUBLIC "-//W3C//DTD SVG 1.1//EN" "http://www.w3.org/Graphics/SVG/1.1/DTD/svg11.dtd">
<svg width="100" height="100" xmlns="http://www.w3.org/2000/svg" version="1.1">
  <rect x="0" y="0" width="100" height="100" fill="rgb(250, 250, 210)" fill-opacity="0.34"/>
  <circle cx="88" cy="6" r="16" stroke="rgb(250, 250, 210)" fill="rgb(250, 250, 210)" fill-opacity="0.73"/>
  <rect x="58" y="37" width="17" height="28" stroke="rgb(250, 250, 210)" fill="rgb(250, 250, 210)" fill-opacity="0.38"/>
  <rect x="3" y="12" width="6" height="0" stroke="rgb(250, 250, 210)" fill="rgb(250, 250, 210)" fill-opacity="0.37"/>
  <circle cx="11" cy="60" r="6" stroke="rgb(250, 250, 210)" fill="rgb(250, 250, 210)" fill-opacity="0.51"/>
  <rect x="46" y="27" width="23" height="37" stroke="rgb(250, 250, 210)" fill="rgb(250, 250, 210)" fill-opacity="0.77"/>
  <circle cx="60" cy="15" r="4" stroke="rgb(250, 250, 210)" fill="rgb(250, 250, 210)" fill-opacity="0.87"/>
  <rect x="29" y="58" width="29" height="35" stroke="rgb(250, 250, 210)" fill="rgb(250, 250, 210)" fill-opacity="0.71"/>
  <circle cx="0" cy="16" r="16" stroke="rgb(250, 250, 210)" fill="rgb(250, 250, 210)" fill-opacity="0.39"/>
  <circle cx="11" cy="38" r="0" stroke="rgb(250, 250, 210)" fill="rgb(250, 250, 210)" fill-opacity="0.11"/>
  <circle cx="27" cy="17" r="8" stroke="rgb(250, 250, 210)" fill="rgb(250, 250, 210)" fill-opacity="0.05"/>
  <rect x="41" y="62" width="5" height="35" stroke="rgb(250, 250, 210)" fill="rgb(250, 250, 210)" fill-opacity="0.33"/>
  <circle cx="34" cy="29" r="4" stroke="rgb(250, 250, 210)" fill="rgb(250, 250, 210)" fill-opacity="0.73"/>
  <rect x="21" y="98" width="20" height="35" stroke="rgb(250, 250, 210)" fill="rgb(250, 250, 210)" fill-opacity="0.36"/>
  <circle cx="42" cy="53" r="13" stroke="rgb(250, 250, 210)" fill="rgb(250, 250, 210)" fill-opacity="0.16"/>
  <rect x="19" y="62" width="14" height="20" stroke="rgb(250, 250, 210)" fill="rgb(250, 250, 210)" fill-opacity="0.82"/>
  <rect x="72" y="40" width="18" height="18" stroke="rgb(250, 250, 210)" fill="rgb(250, 250, 210)" fill-opacity="0.34"/>
  <circle cx="49" cy="18" r="0" stroke="rgb(250, 250, 210)" fill="rgb(250, 250, 210)" fill-opacity="0.0"/>
  <circle cx="95" cy="96" r="4" stroke="rgb(250, 250, 210)" fill="rgb(250, 250, 210)" fill-opacity="0.65"/>
  <rect x="14" y="56" width="8" height="34" stroke="rgb(250, 250, 210)" fill="rgb(250, 250, 210)" fill-opacity="0.39"/>
  <circle cx="85" cy="92" r="5" stroke="rgb(250, 250, 210)" fill="rgb(250, 250, 210)" fill-opacity="0.5"/>
  <circle cx="85" cy="17" r="7" stroke="rgb(250, 250, 210)" fill="rgb(250, 250, 210)" fill-opacity="0.3"/>
</svg>
