<?xml version="1.0" encoding="UTF-8" ?>
<!DOCTYPE svg PUBLIC "-//W3C//DTD SVG 1.1//EN" "http://www.w3.org/Graphics/SVG/1.1/DTD/svg11.dtd">
<svg width="100" height="100" xmlns="http://www.w3.org/2000/svg" version="1.1">
  <rect x="0" y="0" width="100" height="100" fill="rgb(135, 206, 250)" fill-opacity="0.54"/>
  <circle cx="62" cy="79" r="19" stroke="rgb(135, 206, 250)" fill="rgb(135, 206, 250)" fill-opacity="0.47"/>
  <rect x="33" y="66" width="40" height="2" stroke="rgb(135, 206, 250)" fill="rgb(135, 206, 250)" fill-opacity="0.52"/>
  <circle cx="20" cy="20" r="8" stroke="rgb(135, 206, 250)" fill="rgb(135, 206, 250)" fill-opacity="0.15"/>
  <circle cx="9" cy="72" r="17" stroke="rgb(135, 206, 250)" fill="rgb(135, 206, 250)" fill-opacity="0.62"/>
  <rect x="91" y="98" width="13" height="25" stroke="rgb(135, 206, 250)" fill="rgb(135, 206, 250)" fill-opacity="0.2"/>
  <circle cx="75" cy="62" r="2" stroke="rgb(135, 206, 250)" fill="rgb(135, 206, 250)" fill-opacity="0.61"/>
  <rect x="80" y="47" width="12" height="24" stroke="rgb(135, 206, 250)" fill="rgb(135, 206, 250)" fill-opacity="0.98"/>
  <rect x="87" y="21" width="1" height="2" stroke="rgb(135, 206, 250)" fill="rgb(135, 206, 250)" fill-opacity="0.5600000000000001"/>
  <circle cx="79" cy="54" r="17" stroke="rgb(135, 206, 250)" fill="rgb(135, 206, 250)" fill-opacity="0.39"/>
  <rect x="83" y="16" width="15" height="20" stroke="rgb(135, 206, 250)" fill="rgb(135, 206, 250)" fill-opacity="0.98"/>
  <rect x="59" y="67" width="9" height="15" stroke="rgb(135, 206, 250)" fill="rgb(135, 206, 250)" fill-opacity="0.17"/>
  <rect x="36" y="80" width="36" height="33" stroke="rgb(135, 206, 250)" fill="rgb(135, 206, 250)" fill-opacity="0.76"/>
  <circle cx="15" cy="21" r="12" stroke="rgb(135, 206, 250)" fill="rgb(135, 206, 250)" fill-opacity="0.02"/>
  <circle cx="65" cy="41" r="0" stroke="rgb(135, 206, 250)" fill="rgb(135, 206, 250)" fill-opacity="0.64"/>
  <circle cx="76" cy="38" r="20" stroke="rgb(135, 206, 250)" fill="rgb(135, 206, 250)" fill-opacity="0.38"/>
  <circle cx="59" cy="39" r="12" stroke="rgb(135, 206, 250)" fill="rgb(135, 206, 250)" fill-opacity="0.32"/>
  <rect x="79" y="77" width="5" height="20" stroke="rgb(135, 206, 250)" fill="rgb(135, 206, 250)" fill-opacity="0.26"/>
  <circle cx="18" cy="81" r="20" stroke="rgb(135, 206, 250)" fill="rgb(135, 206, 250)" fill-opacity="0.34"/>
  <rect x="8" y="58" width="25" height="36" stroke="rgb(135, 206, 250)" fill="rgb(135, 206, 250)" fill-opacity="0.25"/>
  <rect x="99" y="0" width="9" height="25" stroke="rgb(135, 206, 250)" fill="rgb(135, 206, 250)" fill-opacity="0.39"/>
  <rect x="21" y="0" width="6" height="17" stroke="rgb(135, 206, 250)" fill="rgb(135, 206, 250)" fill-opacity="0.85"/>
</svg>
