<?xml version="1.0" encoding="UTF-8" ?>
<!DOCTYPE svg PUBLIC "-//W3C//DTD SVG 1.1//EN" "http://www.w3.org/Graphics/SVG/1.1/DTD/svg11.dtd">
<svg width="100" height="100" xmlns="http://www.w3.org/2000/svg" version="1.1">
  <rect x="0" y="0" width="100" height="100" fill="rgb(255, 255, 224)" fill-opacity="0.07000000000000001"/>
  <circle cx="93" cy="76" r="3" stroke="rgb(255, 255, 224)" fill="rgb(255, 255, 224)" fill-opacity="0.59"/>
  <rect x="61" y="21" width="11" height="32" stroke="rgb(255, 255, 224)" fill="rgb(255, 255, 224)" fill-opacity="0.21"/>
  <rect x="41" y="9" width="36" height="20" stroke="rgb(255, 255, 224)" fill="rgb(255, 255, 224)" fill-opacity="0.66"/>
  <rect x="13" y="54" width="19" height="31" stroke="rgb(255, 255, 224)" fill="rgb(255, 255, 224)" fill-opacity="0.03"/>
  <circle cx="98" cy="20" r="19" stroke="rgb(255, 255, 224)" fill="rgb(255, 255, 224)" fill-opacity="0.89"/>
  <rect x="54" y="41" width="15" height="11" stroke="rgb(255, 255, 224)" fill="rgb(255, 255, 224)" fill-opacity="0.89"/>
  <rect x="9" y="30" width="0" height="3" stroke="rgb(255, 255, 224)" fill="rgb(255, 255, 224)" fill-opacity="0.42"/>
  <rect x="76" y="89" width="26" height="12" stroke="rgb(255, 255, 224)" fill="rgb(255, 255, 224)" fill-opacity="0.98"/>
  <circle cx="77" cy="80" r="9" stroke="rgb(255, 255, 224)" fill="rgb(255, 255, 224)" fill-opacity="0.66"/>
  <circle cx="64" cy="51" r="0" stroke="rgb(255, 255, 224)" fill="rgb(255, 255, 224)" fill-opacity="0.97"/>
  <rect x="90" y="50" width="31" height="32" stroke="rgb(255, 255, 224)" fill="rgb(255, 255, 224)" fill-opacity="0.01"/>
  <circle cx="20" cy="29" r="1" stroke="rgb(255, 255, 224)" fill="rgb(255, 255, 224)" fill-opacity="0.01"/>
  <circle cx="78" cy="28" r="0" stroke="rgb(255, 255, 224)" fill="rgb(255, 255, 224)" fill-opacity="0.51"/>
  <circle cx="3" cy="5" r="4" stroke="rgb(255, 255, 224)" fill="rgb(255, 255, 224)" fill-opacity="0.1"/>
  <circle cx="6" cy="57" r="13" stroke="rgb(255, 255, 224)" fill="rgb(255, 255, 224)" fill-opacity="0.76"/>
  <circle cx="6" cy="63" r="5" stroke="rgb(255, 255, 224)" fill="rgb(255, 255, 224)" fill-opacity="0.95"/>
  <circle cx="15" cy="3" r="9" stroke="rgb(255, 255, 224)" fill="rgb(255, 255, 224)" fill-opacity="0.9399999999999999"/>
  <circle cx="42" cy="74" r="11" stroke="rgb(255, 255, 224)" fill="rgb(255, 255, 224)" fill-opacity="0.39"/>
  <circle cx="98" cy="59" r="1" stroke="rgb(255, 255, 224)" fill="rgb(255, 255, 224)" fill-opacity="0.42"/>
  <circle cx="26" cy="73" r="6" stroke="rgb(255, 255, 224)" fill="rgb(255, 255, 224)" fill-opacity="0.79"/>
  <rect x="9" y="39" width="28" height="14" stroke="rgb(255, 255, 224)" fill="rgb(255, 255, 224)" fill-opacity="0.44"/>
</svg>
