<?xml version="1.0" encoding="UTF-8" ?>
<!DOCTYPE svg PUBLIC "-//W3C//DTD SVG 1.1//EN" "http://www.w3.org/Graphics/SVG/1.1/DTD/svg11.dtd">
<svg width="100" height="100" xmlns="http://www.w3.org/2000/svg" version="1.1">
  <rect x="0" y="0" width="100" height="100" fill="rgb(240, 128, 128)" fill-opacity="0.28"/>
  <circle cx="67" cy="92" r="5" stroke="rgb(240, 128, 128)" fill="rgb(240, 128, 128)" fill-opacity="0.87"/>
  <circle cx="19" cy="18" r="12" stroke="rgb(240, 128, 128)" fill="rgb(240, 128, 128)" fill-opacity="0.44"/>
  <circle cx="0" cy="37" r="9" stroke="rgb(240, 128, 128)" fill="rgb(240, 128, 128)" fill-opacity="0.64"/>
  <circle cx="91" cy="47" r="5" stroke="rgb(240, 128, 128)" fill="rgb(240, 128, 128)" fill-opacity="0.22"/>
  <circle cx="52" cy="47" r="19" stroke="rgb(240, 128, 128)" fill="rgb(240, 128, 128)" fill-opacity="0.31"/>
  <circle cx="24" cy="64" r="3" stroke="rgb(240, 128, 128)" fill="rgb(240, 128, 128)" fill-opacity="0.12"/>
  <circle cx="42" cy="53" r="7" stroke="rgb(240, 128, 128)" fill="rgb(240, 128, 128)" fill-opacity="0.01"/>
  <rect x="35" y="56" width="18" height="18" stroke="rgb(240, 128, 128)" fill="rgb(240, 128, 128)" fill-opacity="0.43"/>
  <rect x="46" y="65" width="21" height="0" stroke="rgb(240, 128, 128)" fill="rgb(240, 128, 128)" fill-opacity="0.99"/>
  <circle cx="55" cy="96" r="9" stroke="rgb(240, 128, 128)" fill="rgb(240, 128, 128)" fill-opacity="1.0"/>
  <circle cx="92" cy="32" r="15" stroke="rgb(240, 128, 128)" fill="rgb(240, 128, 128)" fill-opacity="0.6899999999999999"/>
  <circle cx="26" cy="54" r="2" stroke="rgb(240, 128, 128)" fill="rgb(240, 128, 128)" fill-opacity="0.8100000000000001"/>
  <rect x="51" y="60" width="18" height="24" stroke="rgb(240, 128, 128)" fill="rgb(240, 128, 128)" fill-opacity="0.72"/>
  <rect x="6" y="45" width="26" height="19" stroke="rgb(240, 128, 128)" fill="rgb(240, 128, 128)" fill-opacity="0.21"/>
  <rect x="28" y="35" width="14" height="28" stroke="rgb(240, 128, 128)" fill="rgb(240, 128, 128)" fill-opacity="0.59"/>
  <rect x="17" y="36" width="1" height="25" stroke="rgb(240, 128, 128)" fill="rgb(240, 128, 128)" fill-opacity="0.68"/>
  <rect x="51" y="74" width="25" height="36" stroke="rgb(240, 128, 128)" fill="rgb(240, 128, 128)" fill-opacity="0.03"/>
  <circle cx="99" cy="78" r="14" stroke="rgb(240, 128, 128)" fill="rgb(240, 128, 128)" fill-opacity="0.97"/>
  <rect x="5" y="47" width="2" height="39" stroke="rgb(240, 128, 128)" fill="rgb(240, 128, 128)" fill-opacity="0.63"/>
  <rect x="94" y="32" width="8" height="24" stroke="rgb(240, 128, 128)" fill="rgb(240, 128, 128)" fill-opacity="0.0"/>
  <rect x="5" y="94" width="21" height="25" stroke="rgb(240, 128, 128)" fill="rgb(240, 128, 128)" fill-opacity="0.5"/>
</svg>
