<?xml version="1.0" encoding="UTF-8" ?>
<!DOCTYPE svg PUBLIC "-//W3C//DTD SVG 1.1//EN" "http://www.w3.org/Graphics/SVG/1.1/DTD/svg11.dtd">
<svg width="100" height="100" xmlns="http://www.w3.org/2000/svg" version="1.1">
  <rect x="0" y="0" width="100" height="100" fill="rgb(255, 182, 193)" fill-opacity="0.65"/>
  <circle cx="32" cy="89" r="0" stroke="rgb(255, 182, 193)" fill="rgb(255, 182, 193)" fill-opacity="0.79"/>
  <rect x="77" y="14" width="5" height="25" stroke="rgb(255, 182, 193)" fill="rgb(255, 182, 193)" fill-opacity="0.18"/>
  <rect x="84" y="72" width="36" height="6" stroke="rgb(255, 182, 193)" fill="rgb(255, 182, 193)" fill-opacity="0.54"/>
  <circle cx="58" cy="21" r="20" stroke="rgb(255, 182, 193)" fill="rgb(255, 182, 193)" fill-opacity="0.18"/>
  <rect x="94" y="43" width="18" height="7" stroke="rgb(255, 182, 193)" fill="rgb(255, 182, 193)" fill-opacity="0.27"/>
  <circle cx="51" cy="7" r="19" stroke="rgb(255, 182, 193)" fill="rgb(255, 182, 193)" fill-opacity="0.62"/>
  <rect x="36" y="71" width="14" height="16" stroke="rgb(255, 182, 193)" fill="rgb(255, 182, 193)" fill-opacity="0.97"/>
  <rect x="98" y="95" width="31" height="6" stroke="rgb(255, 182, 193)" fill="rgb(255, 182, 193)" fill-opacity="0.23"/>
  <rect x="94" y="49" width="30" height="23" stroke="rgb(255, 182, 193)" fill="rgb(255, 182, 193)" fill-opacity="0.15"/>
  <rect x="76" y="17" width="14" height="26" stroke="rgb(255, 182, 193)" fill="rgb(255, 182, 193)" fill-opacity="0.93"/>
  <circle cx="79" cy="52" r="0" stroke="rgb(255, 182, 193)" fill="rgb(255, 182, 193)" fill-opacity="0.47"/>
  <circle cx="39" cy="62" r="11" stroke="rgb(255, 182, 193)" fill="rgb(255, 182, 193)" fill-opacity="0.79"/>
  <circle cx="73" cy="58" r="9" stroke="rgb(255, 182, 193)" fill="rgb(255, 182, 193)" fill-opacity="0.5600000000000001"/>
  <circle cx="11" cy="41" r="13" stroke="rgb(255, 182, 193)" fill="rgb(255, 182, 193)" fill-opacity="0.14"/>
  <rect x="86" y="78" width="40" height="16" stroke="rgb(255, 182, 193)" fill="rgb(255, 182, 193)" fill-opacity="0.45"/>
  <circle cx="77" cy="1" r="10" stroke="rgb(255, 182, 193)" fill="rgb(255, 182, 193)" fill-opacity="0.72"/>
  <rect x="98" y="88" width="2" height="34" stroke="rgb(255, 182, 193)" fill="rgb(255, 182, 193)" fill-opacity="0.52"/>
  <rect x="95" y="2" width="5" height="20" stroke="rgb(255, 182, 193)" fill="rgb(255, 182, 193)" fill-opacity="0.14"/>
  <rect x="4" y="70" width="28" height="35" stroke="rgb(255, 182, 193)" fill="rgb(255, 182, 193)" fill-opacity="0.84"/>
  <circle cx="20" cy="27" r="4" stroke="rgb(255, 182, 193)" fill="rgb(255, 182, 193)" fill-opacity="0.88"/>
  <circle cx="64" cy="97" r="9" stroke="rgb(255, 182, 193)" fill="rgb(255, 182, 193)" fill-opacity="0.9"/>
</svg>
