<?xml version="1.0" encoding="UTF-8" ?>
<!DOCTYPE svg PUBLIC "-//W3C//DTD SVG 1.1//EN" "http://www.w3.org/Graphics/SVG/1.1/DTD/svg11.dtd">
<svg width="100" height="100" xmlns="http://www.w3.org/2000/svg" version="1.1">
  <rect x="0" y="0" width="100" height="100" fill="rgb(32, 178, 170)" fill-opacity="0.29"/>
  <rect x="78" y="32" width="20" height="2" stroke="rgb(32, 178, 170)" fill="rgb(32, 178, 170)" fill-opacity="0.87"/>
  <rect x="22" y="76" width="28" height="36" stroke="rgb(32, 178, 170)" fill="rgb(32, 178, 170)" fill-opacity="0.29"/>
  <rect x="13" y="81" width="16" height="38" stroke="rgb(32, 178, 170)" fill="rgb(32, 178, 170)" fill-opacity="0.8"/>
  <circle cx="57" cy="52" r="15" stroke="rgb(32, 178, 170)" fill="rgb(32, 178, 170)" fill-opacity="0.04"/>
  <circle cx="100" cy="37" r="13" stroke="rgb(32, 178, 170)" fill="rgb(32, 178, 170)" fill-opacity="0.62"/>
  <circle cx="14" cy="85" r="2" stroke="rgb(32, 178, 170)" fill="rgb(32, 178, 170)" fill-opacity="0.28"/>
  <circle cx="0" cy="33" r="19" stroke="rgb(32, 178, 170)" fill="rgb(32, 178, 170)" fill-opacity="0.3"/>
  <circle cx="53" cy="77" r="2" stroke="rgb(32, 178, 170)" fill="rgb(32, 178, 170)" fill-opacity="0.1"/>
  <circle cx="97" cy="38" r="20" stroke="rgb(32, 178, 170)" fill="rgb(32, 178, 170)" fill-opacity="0.86"/>
  <circle cx="24" cy="14" r="2" stroke="rgb(32, 178, 170)" fill="rgb(32, 178, 170)" fill-opacity="0.62"/>
  <circle cx="35" cy="85" r="10" stroke="rgb(32, 178, 170)" fill="rgb(32, 178, 170)" fill-opacity="0.2"/>
  <rect x="20" y="26" width="40" height="31" stroke="rgb(32, 178, 170)" fill="rgb(32, 178, 170)" fill-opacity="0.49"/>
  <circle cx="10" cy="48" r="17" stroke="rgb(32, 178, 170)" fill="rgb(32, 178, 170)" fill-opacity="0.15"/>
  <rect x="6" y="97" width="27" height="28" stroke="rgb(32, 178, 170)" fill="rgb(32, 178, 170)" fill-opacity="0.9"/>
  <circle cx="7" cy="34" r="1" stroke="rgb(32, 178, 170)" fill="rgb(32, 178, 170)" fill-opacity="0.51"/>
  <rect x="6" y="54" width="26" height="14" stroke="rgb(32, 178, 170)" fill="rgb(32, 178, 170)" fill-opacity="0.25"/>
  <rect x="92" y="60" width="2" height="8" stroke="rgb(32, 178, 170)" fill="rgb(32, 178, 170)" fill-opacity="0.86"/>
  <circle cx="29" cy="11" r="15" stroke="rgb(32, 178, 170)" fill="rgb(32, 178, 170)" fill-opacity="0.49"/>
  <circle cx="8" cy="61" r="3" stroke="rgb(32, 178, 170)" fill="rgb(32, 178, 170)" fill-opacity="0.08"/>
  <circle cx="74" cy="87" r="14" stroke="rgb(32, 178, 170)" fill="rgb(32, 178, 170)" fill-opacity="0.5"/>
  <circle cx="69" cy="17" r="5" stroke="rgb(32, 178, 170)" fill="rgb(32, 178, 170)" fill-opacity="0.6"/>
</svg>
