<?xml version="1.0" encoding="UTF-8" ?>
<!DOCTYPE svg PUBLIC "-//W3C//DTD SVG 1.1//EN" "http://www.w3.org/Graphics/SVG/1.1/DTD/svg11.dtd">
<svg width="100" height="100" xmlns="http://www.w3.org/2000/svg" version="1.1">
  <rect x="0" y="0" width="100" height="100" fill="rgb(211, 211, 211)" fill-opacity="0.5"/>
  <circle cx="52" cy="59" r="6" stroke="rgb(211, 211, 211)" fill="rgb(211, 211, 211)" fill-opacity="0.9"/>
  <rect x="92" y="53" width="38" height="9" stroke="rgb(211, 211, 211)" fill="rgb(211, 211, 211)" fill-opacity="0.04"/>
  <circle cx="91" cy="70" r="18" stroke="rgb(211, 211, 211)" fill="rgb(211, 211, 211)" fill-opacity="0.92"/>
  <rect x="18" y="62" width="6" height="39" stroke="rgb(211, 211, 211)" fill="rgb(211, 211, 211)" fill-opacity="0.23"/>
  <rect x="79" y="53" width="25" height="25" stroke="rgb(211, 211, 211)" fill="rgb(211, 211, 211)" fill-opacity="0.42"/>
  <circle cx="40" cy="57" r="17" stroke="rgb(211, 211, 211)" fill="rgb(211, 211, 211)" fill-opacity="0.19"/>
  <circle cx="8" cy="68" r="17" stroke="rgb(211, 211, 211)" fill="rgb(211, 211, 211)" fill-opacity="0.47"/>
  <circle cx="85" cy="84" r="2" stroke="rgb(211, 211, 211)" fill="rgb(211, 211, 211)" fill-opacity="0.34"/>
  <rect x="41" y="72" width="27" height="17" stroke="rgb(211, 211, 211)" fill="rgb(211, 211, 211)" fill-opacity="0.04"/>
  <rect x="47" y="64" width="40" height="7" stroke="rgb(211, 211, 211)" fill="rgb(211, 211, 211)" fill-opacity="0.09"/>
  <rect x="51" y="37" width="29" height="1" stroke="rgb(211, 211, 211)" fill="rgb(211, 211, 211)" fill-opacity="0.17"/>
  <rect x="93" y="67" width="22" height="39" stroke="rgb(211, 211, 211)" fill="rgb(211, 211, 211)" fill-opacity="0.57"/>
  <rect x="86" y="7" width="12" height="10" stroke="rgb(211, 211, 211)" fill="rgb(211, 211, 211)" fill-opacity="0.43"/>
  <rect x="7" y="44" width="40" height="37" stroke="rgb(211, 211, 211)" fill="rgb(211, 211, 211)" fill-opacity="0.38"/>
  <rect x="1" y="62" width="22" height="9" stroke="rgb(211, 211, 211)" fill="rgb(211, 211, 211)" fill-opacity="0.44"/>
  <circle cx="83" cy="46" r="20" stroke="rgb(211, 211, 211)" fill="rgb(211, 211, 211)" fill-opacity="0.03"/>
  <circle cx="83" cy="100" r="20" stroke="rgb(211, 211, 211)" fill="rgb(211, 211, 211)" fill-opacity="0.65"/>
  <circle cx="95" cy="22" r="16" stroke="rgb(211, 211, 211)" fill="rgb(211, 211, 211)" fill-opacity="0.78"/>
  <circle cx="100" cy="0" r="11" stroke="rgb(211, 211, 211)" fill="rgb(211, 211, 211)" fill-opacity="0.79"/>
  <circle cx="73" cy="50" r="0" stroke="rgb(211, 211, 211)" fill="rgb(211, 211, 211)" fill-opacity="0.27"/>
  <rect x="51" y="32" width="20" height="17" stroke="rgb(211, 211, 211)" fill="rgb(211, 211, 211)" fill-opacity="0.31"/>
</svg>
