<?xml version="1.0" encoding="UTF-8" ?>
<!DOCTYPE svg PUBLIC "-//W3C//DTD SVG 1.1//EN" "http://www.w3.org/Graphics/SVG/1.1/DTD/svg11.dtd">
<svg width="100" height="100" xmlns="http://www.w3.org/2000/svg" version="1.1">
  <rect x="0" y="0" width="100" height="100" fill="rgb(224, 255, 255)" fill-opacity="0.39"/>
  <rect x="58" y="29" width="13" height="11" stroke="rgb(224, 255, 255)" fill="rgb(224, 255, 255)" fill-opacity="0.41"/>
  <rect x="74" y="71" width="39" height="27" stroke="rgb(224, 255, 255)" fill="rgb(224, 255, 255)" fill-opacity="0.24"/>
  <rect x="52" y="31" width="40" height="8" stroke="rgb(224, 255, 255)" fill="rgb(224, 255, 255)" fill-opacity="0.76"/>
  <circle cx="33" cy="15" r="2" stroke="rgb(224, 255, 255)" fill="rgb(224, 255, 255)" fill-opacity="0.15"/>
  <circle cx="49" cy="88" r="4" stroke="rgb(224, 255, 255)" fill="rgb(224, 255, 255)" fill-opacity="0.73"/>
  <circle cx="7" cy="28" r="9" stroke="rgb(224, 255, 255)" fill="rgb(224, 255, 255)" fill-opacity="0.37"/>
  <rect x="56" y="11" width="2" height="28" stroke="rgb(224, 255, 255)" fill="rgb(224, 255, 255)" fill-opacity="0.93"/>
  <rect x="23" y="78" width="4" height="7" stroke="rgb(224, 255, 255)" fill="rgb(224, 255, 255)" fill-opacity="0.4"/>
  <circle cx="52" cy="91" r="14" stroke="rgb(224, 255, 255)" fill="rgb(224, 255, 255)" fill-opacity="0.24"/>
  <rect x="10" y="99" width="30" height="1" stroke="rgb(224, 255, 255)" fill="rgb(224, 255, 255)" fill-opacity="0.61"/>
  <rect x="53" y="92" width="31" height="5" stroke="rgb(224, 255, 255)" fill="rgb(224, 255, 255)" fill-opacity="0.95"/>
  <circle cx="73" cy="35" r="1" stroke="rgb(224, 255, 255)" fill="rgb(224, 255, 255)" fill-opacity="0.46"/>
  <rect x="76" y="84" width="35" height="33" stroke="rgb(224, 255, 255)" fill="rgb(224, 255, 255)" fill-opacity="0.12"/>
  <circle cx="48" cy="16" r="18" stroke="rgb(224, 255, 255)" fill="rgb(224, 255, 255)" fill-opacity="0.09"/>
  <circle cx="84" cy="10" r="12" stroke="rgb(224, 255, 255)" fill="rgb(224, 255, 255)" fill-opacity="0.46"/>
  <circle cx="81" cy="42" r="16" stroke="rgb(224, 255, 255)" fill="rgb(224, 255, 255)" fill-opacity="0.47"/>
  <rect x="63" y="26" width="9" height="15" stroke="rgb(224, 255, 255)" fill="rgb(224, 255, 255)" fill-opacity="0.28"/>
  <circle cx="62" cy="31" r="10" stroke="rgb(224, 255, 255)" fill="rgb(224, 255, 255)" fill-opacity="0.35"/>
  <rect x="76" y="43" width="25" height="36" stroke="rgb(224, 255, 255)" fill="rgb(224, 255, 255)" fill-opacity="0.75"/>
  <rect x="97" y="78" width="32" height="3" stroke="rgb(224, 255, 255)" fill="rgb(224, 255, 255)" fill-opacity="0.22"/>
  <rect x="51" y="80" width="16" height="3" stroke="rgb(224, 255, 255)" fill="rgb(224, 255, 255)" fill-opacity="0.97"/>
</svg>
