<?xml version="1.0" encoding="UTF-8" ?>
<!DOCTYPE svg PUBLIC "-//W3C//DTD SVG 1.1//EN" "http://www.w3.org/Graphics/SVG/1.1/DTD/svg11.dtd">
<svg width="100" height="100" xmlns="http://www.w3.org/2000/svg" version="1.1">
  <rect x="0" y="0" width="100" height="100" fill="rgb(0, 255, 0)" fill-opacity="0.64"/>
  <rect x="51" y="58" width="37" height="29" stroke="rgb(0, 255, 0)" fill="rgb(0, 255, 0)" fill-opacity="0.06"/>
  <rect x="68" y="82" width="21" height="24" stroke="rgb(0, 255, 0)" fill="rgb(0, 255, 0)" fill-opacity="0.18"/>
  <circle cx="16" cy="15" r="7" stroke="rgb(0, 255, 0)" fill="rgb(0, 255, 0)" fill-opacity="0.55"/>
  <rect x="46" y="45" width="31" height="25" stroke="rgb(0, 255, 0)" fill="rgb(0, 255, 0)" fill-opacity="0.26"/>
  <circle cx="63" cy="5" r="18" stroke="rgb(0, 255, 0)" fill="rgb(0, 255, 0)" fill-opacity="0.38"/>
  <rect x="46" y="51" width="5" height="23" stroke="rgb(0, 255, 0)" fill="rgb(0, 255, 0)" fill-opacity="0.24"/>
  <rect x="15" y="26" width="26" height="9" stroke="rgb(0, 255, 0)" fill="rgb(0, 255, 0)" fill-opacity="0.53"/>
  <circle cx="70" cy="46" r="9" stroke="rgb(0, 255, 0)" fill="rgb(0, 255, 0)" fill-opacity="0.6899999999999999"/>
  <rect x="75" y="19" width="23" height="36" stroke="rgb(0, 255, 0)" fill="rgb(0, 255, 0)" fill-opacity="0.84"/>
  <rect x="91" y="17" width="9" height="20" stroke="rgb(0, 255, 0)" fill="rgb(0, 255, 0)" fill-opacity="0.9399999999999999"/>
  <circle cx="45" cy="51" r="1" stroke="rgb(0, 255, 0)" fill="rgb(0, 255, 0)" fill-opacity="0.67"/>
  <rect x="76" y="93" width="16" height="30" stroke="rgb(0, 255, 0)" fill="rgb(0, 255, 0)" fill-opacity="0.65"/>
  <circle cx="27" cy="69" r="8" stroke="rgb(0, 255, 0)" fill="rgb(0, 255, 0)" fill-opacity="0.74"/>
  <circle cx="82" cy="99" r="19" stroke="rgb(0, 255, 0)" fill="rgb(0, 255, 0)" fill-opacity="0.66"/>
  <rect x="3" y="83" width="1" height="6" stroke="rgb(0, 255, 0)" fill="rgb(0, 255, 0)" fill-opacity="0.12"/>
  <circle cx="48" cy="20" r="2" stroke="rgb(0, 255, 0)" fill="rgb(0, 255, 0)" fill-opacity="0.97"/>
  <circle cx="29" cy="0" r="20" stroke="rgb(0, 255, 0)" fill="rgb(0, 255, 0)" fill-opacity="0.86"/>
  <circle cx="14" cy="77" r="5" stroke="rgb(0, 255, 0)" fill="rgb(0, 255, 0)" fill-opacity="0.26"/>
  <circle cx="97" cy="49" r="10" stroke="rgb(0, 255, 0)" fill="rgb(0, 255, 0)" fill-opacity="0.61"/>
  <circle cx="73" cy="3" r="10" stroke="rgb(0, 255, 0)" fill="rgb(0, 255, 0)" fill-opacity="0.25"/>
  <rect x="72" y="88" width="2" height="26" stroke="rgb(0, 255, 0)" fill="rgb(0, 255, 0)" fill-opacity="0.52"/>
</svg>
