<?xml version="1.0" encoding="UTF-8" ?>
<!DOCTYPE svg PUBLIC "-//W3C//DTD SVG 1.1//EN" "http://www.w3.org/Graphics/SVG/1.1/DTD/svg11.dtd">
<svg width="100" height="100" xmlns="http://www.w3.org/2000/svg" version="1.1">
  <rect x="0" y="0" width="100" height="100" fill="rgb(50, 205, 50)" fill-opacity="0.59"/>
  <circle cx="67" cy="57" r="7" stroke="rgb(50, 205, 50)" fill="rgb(50, 205, 50)" fill-opacity="0.8100000000000001"/>
  <circle cx="67" cy="82" r="2" stroke="rgb(50, 205, 50)" fill="rgb(50, 205, 50)" fill-opacity="0.99"/>
  <rect x="17" y="10" width="28" height="40" stroke="rgb(50, 205, 50)" fill="rgb(50, 205, 50)" fill-opacity="0.32"/>
  <circle cx="33" cy="4" r="13" stroke="rgb(50, 205, 50)" fill="rgb(50, 205, 50)" fill-opacity="0.65"/>
  <rect x="48" y="44" width="12" height="0" stroke="rgb(50, 205, 50)" fill="rgb(50, 205, 50)" fill-opacity="0.73"/>
  <rect x="4" y="28" width="32" height="35" stroke="rgb(50, 205, 50)" fill="rgb(50, 205, 50)" fill-opacity="0.66"/>
  <rect x="66" y="97" width="14" height="23" stroke="rgb(50, 205, 50)" fill="rgb(50, 205, 50)" fill-opacity="0.06"/>
  <circle cx="93" cy="17" r="14" stroke="rgb(50, 205, 50)" fill="rgb(50, 205, 50)" fill-opacity="0.24"/>
  <circle cx="71" cy="28" r="12" stroke="rgb(50, 205, 50)" fill="rgb(50, 205, 50)" fill-opacity="0.76"/>
  <circle cx="7" cy="57" r="17" stroke="rgb(50, 205, 50)" fill="rgb(50, 205, 50)" fill-opacity="0.68"/>
  <circle cx="19" cy="99" r="0" stroke="rgb(50, 205, 50)" fill="rgb(50, 205, 50)" fill-opacity="0.07000000000000001"/>
  <rect x="93" y="85" width="15" height="0" stroke="rgb(50, 205, 50)" fill="rgb(50, 205, 50)" fill-opacity="0.71"/>
  <rect x="60" y="24" width="21" height="40" stroke="rgb(50, 205, 50)" fill="rgb(50, 205, 50)" fill-opacity="0.9399999999999999"/>
  <circle cx="53" cy="81" r="4" stroke="rgb(50, 205, 50)" fill="rgb(50, 205, 50)" fill-opacity="0.47"/>
  <rect x="42" y="9" width="10" height="38" stroke="rgb(50, 205, 50)" fill="rgb(50, 205, 50)" fill-opacity="0.27"/>
  <rect x="51" y="34" width="29" height="4" stroke="rgb(50, 205, 50)" fill="rgb(50, 205, 50)" fill-opacity="0.89"/>
  <circle cx="16" cy="65" r="10" stroke="rgb(50, 205, 50)" fill="rgb(50, 205, 50)" fill-opacity="0.75"/>
  <circle cx="94" cy="70" r="0" stroke="rgb(50, 205, 50)" fill="rgb(50, 205, 50)" fill-opacity="0.24"/>
  <rect x="43" y="29" width="6" height="14" stroke="rgb(50, 205, 50)" fill="rgb(50, 205, 50)" fill-opacity="0.43"/>
  <rect x="93" y="52" width="36" height="5" stroke="rgb(50, 205, 50)" fill="rgb(50, 205, 50)" fill-opacity="0.86"/>
  <rect x="32" y="68" width="24" height="13" stroke="rgb(50, 205, 50)" fill="rgb(50, 205, 50)" fill-opacity="0.75"/>
</svg>
