<?xml version="1.0" encoding="UTF-8" ?>
<!DOCTYPE svg PUBLIC "-//W3C//DTD SVG 1.1//EN" "http://www.w3.org/Graphics/SVG/1.1/DTD/svg11.dtd">
<svg width="100" height="100" xmlns="http://www.w3.org/2000/svg" version="1.1">
  <rect x="0" y="0" width="100" height="100" fill="rgb(250, 240, 230)" fill-opacity="0.52"/>
  <rect x="54" y="8" width="30" height="23" stroke="rgb(250, 240, 230)" fill="rgb(250, 240, 230)" fill-opacity="0.75"/>
  <circle cx="0" cy="49" r="5" stroke="rgb(250, 240, 230)" fill="rgb(250, 240, 230)" fill-opacity="0.14"/>
  <rect x="24" y="16" width="27" height="35" stroke="rgb(250, 240, 230)" fill="rgb(250, 240, 230)" fill-opacity="0.9"/>
  <rect x="5" y="59" width="26" height="13" stroke="rgb(250, 240, 230)" fill="rgb(250, 240, 230)" fill-opacity="0.35"/>
  <rect x="66" y="23" width="16" height="38" stroke="rgb(250, 240, 230)" fill="rgb(250, 240, 230)" fill-opacity="0.64"/>
  <rect x="4" y="71" width="19" height="21" stroke="rgb(250, 240, 230)" fill="rgb(250, 240, 230)" fill-opacity="0.02"/>
  <circle cx="50" cy="31" r="6" stroke="rgb(250, 240, 230)" fill="rgb(250, 240, 230)" fill-opacity="0.49"/>
  <circle cx="48" cy="57" r="16" stroke="rgb(250, 240, 230)" fill="rgb(250, 240, 230)" fill-opacity="0.45"/>
  <circle cx="96" cy="94" r="18" stroke="rgb(250, 240, 230)" fill="rgb(250, 240, 230)" fill-opacity="0.77"/>
  <circle cx="49" cy="93" r="8" stroke="rgb(250, 240, 230)" fill="rgb(250, 240, 230)" fill-opacity="0.42"/>
  <circle cx="89" cy="2" r="0" stroke="rgb(250, 240, 230)" fill="rgb(250, 240, 230)" fill-opacity="0.41"/>
  <circle cx="40" cy="83" r="20" stroke="rgb(250, 240, 230)" fill="rgb(250, 240, 230)" fill-opacity="0.53"/>
  <circle cx="11" cy="26" r="11" stroke="rgb(250, 240, 230)" fill="rgb(250, 240, 230)" fill-opacity="0.93"/>
  <rect x="59" y="76" width="13" height="23" stroke="rgb(250, 240, 230)" fill="rgb(250, 240, 230)" fill-opacity="0.9399999999999999"/>
  <rect x="51" y="46" width="12" height="33" stroke="rgb(250, 240, 230)" fill="rgb(250, 240, 230)" fill-opacity="0.28"/>
  <circle cx="64" cy="27" r="4" stroke="rgb(250, 240, 230)" fill="rgb(250, 240, 230)" fill-opacity="0.79"/>
  <rect x="97" y="15" width="4" height="4" stroke="rgb(250, 240, 230)" fill="rgb(250, 240, 230)" fill-opacity="0.57"/>
  <rect x="83" y="59" width="7" height="29" stroke="rgb(250, 240, 230)" fill="rgb(250, 240, 230)" fill-opacity="0.08"/>
  <rect x="33" y="49" width="11" height="21" stroke="rgb(250, 240, 230)" fill="rgb(250, 240, 230)" fill-opacity="0.59"/>
  <circle cx="28" cy="55" r="8" stroke="rgb(250, 240, 230)" fill="rgb(250, 240, 230)" fill-opacity="0.18"/>
  <rect x="5" y="20" width="6" height="32" stroke="rgb(250, 240, 230)" fill="rgb(250, 240, 230)" fill-opacity="0.14"/>
</svg>
