<?xml version="1.0" encoding="UTF-8" ?>
<!DOCTYPE svg PUBLIC "-//W3C//DTD SVG 1.1//EN" "http://www.w3.org/Graphics/SVG/1.1/DTD/svg11.dtd">
<svg width="100" height="100" xmlns="http://www.w3.org/2000/svg" version="1.1">
  <rect x="0" y="0" width="100" height="100" fill="rgb(128, 0, 0)" fill-opacity="0.45"/>
  <rect x="90" y="62" width="1" height="6" stroke="rgb(128, 0, 0)" fill="rgb(128, 0, 0)" fill-opacity="0.55"/>
  <circle cx="44" cy="63" r="11" stroke="rgb(128, 0, 0)" fill="rgb(128, 0, 0)" fill-opacity="0.44"/>
  <rect x="16" y="46" width="21" height="5" stroke="rgb(128, 0, 0)" fill="rgb(128, 0, 0)" fill-opacity="0.36"/>
  <circle cx="84" cy="76" r="10" stroke="rgb(128, 0, 0)" fill="rgb(128, 0, 0)" fill-opacity="0.8"/>
  <circle cx="22" cy="41" r="8" stroke="rgb(128, 0, 0)" fill="rgb(128, 0, 0)" fill-opacity="0.49"/>
  <circle cx="76" cy="39" r="12" stroke="rgb(128, 0, 0)" fill="rgb(128, 0, 0)" fill-opacity="0.13"/>
  <circle cx="8" cy="42" r="11" stroke="rgb(128, 0, 0)" fill="rgb(128, 0, 0)" fill-opacity="0.82"/>
  <circle cx="90" cy="85" r="17" stroke="rgb(128, 0, 0)" fill="rgb(128, 0, 0)" fill-opacity="0.76"/>
  <rect x="25" y="2" width="11" height="16" stroke="rgb(128, 0, 0)" fill="rgb(128, 0, 0)" fill-opacity="0.53"/>
  <rect x="19" y="3" width="26" height="29" stroke="rgb(128, 0, 0)" fill="rgb(128, 0, 0)" fill-opacity="0.9"/>
  <circle cx="87" cy="12" r="15" stroke="rgb(128, 0, 0)" fill="rgb(128, 0, 0)" fill-opacity="0.07000000000000001"/>
  <rect x="26" y="30" width="25" height="36" stroke="rgb(128, 0, 0)" fill="rgb(128, 0, 0)" fill-opacity="0.38"/>
  <circle cx="74" cy="36" r="7" stroke="rgb(128, 0, 0)" fill="rgb(128, 0, 0)" fill-opacity="0.8100000000000001"/>
  <rect x="21" y="93" width="8" height="32" stroke="rgb(128, 0, 0)" fill="rgb(128, 0, 0)" fill-opacity="0.22"/>
  <circle cx="64" cy="81" r="9" stroke="rgb(128, 0, 0)" fill="rgb(128, 0, 0)" fill-opacity="0.62"/>
  <rect x="37" y="31" width="23" height="38" stroke="rgb(128, 0, 0)" fill="rgb(128, 0, 0)" fill-opacity="0.59"/>
  <circle cx="11" cy="77" r="5" stroke="rgb(128, 0, 0)" fill="rgb(128, 0, 0)" fill-opacity="0.48"/>
  <circle cx="58" cy="44" r="6" stroke="rgb(128, 0, 0)" fill="rgb(128, 0, 0)" fill-opacity="0.84"/>
  <circle cx="52" cy="85" r="8" stroke="rgb(128, 0, 0)" fill="rgb(128, 0, 0)" fill-opacity="0.23"/>
  <circle cx="57" cy="26" r="7" stroke="rgb(128, 0, 0)" fill="rgb(128, 0, 0)" fill-opacity="0.07000000000000001"/>
  <rect x="42" y="58" width="30" height="12" stroke="rgb(128, 0, 0)" fill="rgb(128, 0, 0)" fill-opacity="0.52"/>
</svg>
