<?xml version="1.0" encoding="UTF-8" ?>
<!DOCTYPE svg PUBLIC "-//W3C//DTD SVG 1.1//EN" "http://www.w3.org/Graphics/SVG/1.1/DTD/svg11.dtd">
<svg width="100" height="100" xmlns="http://www.w3.org/2000/svg" version="1.1">
  <rect x="0" y="0" width="100" height="100" fill="rgb(147, 112, 219)" fill-opacity="0.19"/>
  <circle cx="70" cy="8" r="6" stroke="rgb(147, 112, 219)" fill="rgb(147, 112, 219)" fill-opacity="0.6899999999999999"/>
  <rect x="10" y="34" width="25" height="4" stroke="rgb(147, 112, 219)" fill="rgb(147, 112, 219)" fill-opacity="0.48"/>
  <rect x="8" y="5" width="40" height="34" stroke="rgb(147, 112, 219)" fill="rgb(147, 112, 219)" fill-opacity="0.71"/>
  <circle cx="51" cy="34" r="17" stroke="rgb(147, 112, 219)" fill="rgb(147, 112, 219)" fill-opacity="0.71"/>
  <circle cx="80" cy="26" r="15" stroke="rgb(147, 112, 219)" fill="rgb(147, 112, 219)" fill-opacity="0.12"/>
  <rect x="68" y="99" width="16" height="3" stroke="rgb(147, 112, 219)" fill="rgb(147, 112, 219)" fill-opacity="0.99"/>
  <circle cx="39" cy="43" r="18" stroke="rgb(147, 112, 219)" fill="rgb(147, 112, 219)" fill-opacity="0.64"/>
  <circle cx="63" cy="94" r="9" stroke="rgb(147, 112, 219)" fill="rgb(147, 112, 219)" fill-opacity="0.08"/>
  <circle cx="90" cy="80" r="12" stroke="rgb(147, 112, 219)" fill="rgb(147, 112, 219)" fill-opacity="0.64"/>
  <circle cx="37" cy="65" r="9" stroke="rgb(147, 112, 219)" fill="rgb(147, 112, 219)" fill-opacity="0.88"/>
  <circle cx="67" cy="11" r="3" stroke="rgb(147, 112, 219)" fill="rgb(147, 112, 219)" fill-opacity="0.27"/>
  <rect x="59" y="78" width="37" height="38" stroke="rgb(147, 112, 219)" fill="rgb(147, 112, 219)" fill-opacity="0.48"/>
  <circle cx="44" cy="76" r="5" stroke="rgb(147, 112, 219)" fill="rgb(147, 112, 219)" fill-opacity="0.08"/>
  <rect x="60" y="46" width="13" height="7" stroke="rgb(147, 112, 219)" fill="rgb(147, 112, 219)" fill-opacity="0.08"/>
  <rect x="36" y="47" width="10" height="6" stroke="rgb(147, 112, 219)" fill="rgb(147, 112, 219)" fill-opacity="0.49"/>
  <rect x="75" y="20" width="12" height="2" stroke="rgb(147, 112, 219)" fill="rgb(147, 112, 219)" fill-opacity="0.14"/>
  <circle cx="54" cy="62" r="2" stroke="rgb(147, 112, 219)" fill="rgb(147, 112, 219)" fill-opacity="0.86"/>
  <circle cx="56" cy="60" r="14" stroke="rgb(147, 112, 219)" fill="rgb(147, 112, 219)" fill-opacity="0.1"/>
  <rect x="38" y="69" width="7" height="18" stroke="rgb(147, 112, 219)" fill="rgb(147, 112, 219)" fill-opacity="0.6"/>
  <rect x="94" y="90" width="23" height="4" stroke="rgb(147, 112, 219)" fill="rgb(147, 112, 219)" fill-opacity="0.06"/>
  <rect x="0" y="41" width="8" height="31" stroke="rgb(147, 112, 219)" fill="rgb(147, 112, 219)" fill-opacity="0.22"/>
</svg>
