<?xml version="1.0" encoding="UTF-8" ?>
<!DOCTYPE svg PUBLIC "-//W3C//DTD SVG 1.1//EN" "http://www.w3.org/Graphics/SVG/1.1/DTD/svg11.dtd">
<svg width="100" height="100" xmlns="http://www.w3.org/2000/svg" version="1.1">
  <rect x="0" y="0" width="100" height="100" fill="rgb(102, 205, 170)" fill-opacity="0.64"/>
  <rect x="15" y="48" width="18" height="39" stroke="rgb(102, 205, 170)" fill="rgb(102, 205, 170)" fill-opacity="0.18"/>
  <rect x="27" y="44" width="4" height="36" stroke="rgb(102, 205, 170)" fill="rgb(102, 205, 170)" fill-opacity="0.09"/>
  <rect x="89" y="1" width="33" height="9" stroke="rgb(102, 205, 170)" fill="rgb(102, 205, 170)" fill-opacity="0.34"/>
  <circle cx="28" cy="75" r="16" stroke="rgb(102, 205, 170)" fill="rgb(102, 205, 170)" fill-opacity="0.85"/>
  <circle cx="12" cy="100" r="0" stroke="rgb(102, 205, 170)" fill="rgb(102, 205, 170)" fill-opacity="0.76"/>
  <circle cx="61" cy="46" r="6" stroke="rgb(102, 205, 170)" fill="rgb(102, 205, 170)" fill-opacity="0.82"/>
  <circle cx="40" cy="100" r="3" stroke="rgb(102, 205, 170)" fill="rgb(102, 205, 170)" fill-opacity="0.38"/>
  <circle cx="81" cy="10" r="7" stroke="rgb(102, 205, 170)" fill="rgb(102, 205, 170)" fill-opacity="0.48"/>
  <circle cx="38" cy="98" r="19" stroke="rgb(102, 205, 170)" fill="rgb(102, 205, 170)" fill-opacity="0.12"/>
  <rect x="30" y="11" width="26" height="35" stroke="rgb(102, 205, 170)" fill="rgb(102, 205, 170)" fill-opacity="0.24"/>
  <rect x="11" y="66" width="5" height="26" stroke="rgb(102, 205, 170)" fill="rgb(102, 205, 170)" fill-opacity="0.63"/>
  <rect x="7" y="10" width="25" height="18" stroke="rgb(102, 205, 170)" fill="rgb(102, 205, 170)" fill-opacity="0.23"/>
  <circle cx="62" cy="71" r="9" stroke="rgb(102, 205, 170)" fill="rgb(102, 205, 170)" fill-opacity="0.58"/>
  <circle cx="96" cy="25" r="11" stroke="rgb(102, 205, 170)" fill="rgb(102, 205, 170)" fill-opacity="0.71"/>
  <rect x="78" y="89" width="4" height="28" stroke="rgb(102, 205, 170)" fill="rgb(102, 205, 170)" fill-opacity="0.3"/>
  <circle cx="11" cy="4" r="11" stroke="rgb(102, 205, 170)" fill="rgb(102, 205, 170)" fill-opacity="0.19"/>
  <circle cx="17" cy="91" r="3" stroke="rgb(102, 205, 170)" fill="rgb(102, 205, 170)" fill-opacity="0.41"/>
  <rect x="72" y="26" width="31" height="2" stroke="rgb(102, 205, 170)" fill="rgb(102, 205, 170)" fill-opacity="0.38"/>
  <rect x="91" y="20" width="26" height="1" stroke="rgb(102, 205, 170)" fill="rgb(102, 205, 170)" fill-opacity="0.6899999999999999"/>
  <rect x="36" y="21" width="16" height="12" stroke="rgb(102, 205, 170)" fill="rgb(102, 205, 170)" fill-opacity="0.61"/>
  <circle cx="43" cy="45" r="10" stroke="rgb(102, 205, 170)" fill="rgb(102, 205, 170)" fill-opacity="0.37"/>
</svg>
