<?xml version="1.0" encoding="UTF-8" ?>
<!DOCTYPE svg PUBLIC "-//W3C//DTD SVG 1.1//EN" "http://www.w3.org/Graphics/SVG/1.1/DTD/svg11.dtd">
<svg width="100" height="100" xmlns="http://www.w3.org/2000/svg" version="1.1">
  <rect x="0" y="0" width="100" height="100" fill="rgb(0, 250, 154)" fill-opacity="0.66"/>
  <circle cx="80" cy="77" r="15" stroke="rgb(0, 250, 154)" fill="rgb(0, 250, 154)" fill-opacity="0.83"/>
  <rect x="9" y="15" width="1" height="37" stroke="rgb(0, 250, 154)" fill="rgb(0, 250, 154)" fill-opacity="0.04"/>
  <rect x="65" y="38" width="9" height="20" stroke="rgb(0, 250, 154)" fill="rgb(0, 250, 154)" fill-opacity="0.12"/>
  <rect x="0" y="12" width="20" height="18" stroke="rgb(0, 250, 154)" fill="rgb(0, 250, 154)" fill-opacity="0.3"/>
  <circle cx="59" cy="61" r="18" stroke="rgb(0, 250, 154)" fill="rgb(0, 250, 154)" fill-opacity="0.85"/>
  <circle cx="95" cy="93" r="15" stroke="rgb(0, 250, 154)" fill="rgb(0, 250, 154)" fill-opacity="0.08"/>
  <circle cx="5" cy="5" r="3" stroke="rgb(0, 250, 154)" fill="rgb(0, 250, 154)" fill-opacity="0.68"/>
  <rect x="83" y="15" width="19" height="5" stroke="rgb(0, 250, 154)" fill="rgb(0, 250, 154)" fill-opacity="0.74"/>
  <circle cx="83" cy="54" r="12" stroke="rgb(0, 250, 154)" fill="rgb(0, 250, 154)" fill-opacity="0.74"/>
  <rect x="37" y="24" width="8" height="6" stroke="rgb(0, 250, 154)" fill="rgb(0, 250, 154)" fill-opacity="0.38"/>
  <circle cx="43" cy="13" r="0" stroke="rgb(0, 250, 154)" fill="rgb(0, 250, 154)" fill-opacity="0.38"/>
  <circle cx="91" cy="75" r="20" stroke="rgb(0, 250, 154)" fill="rgb(0, 250, 154)" fill-opacity="0.5"/>
  <circle cx="16" cy="2" r="14" stroke="rgb(0, 250, 154)" fill="rgb(0, 250, 154)" fill-opacity="0.25"/>
  <circle cx="86" cy="34" r="10" stroke="rgb(0, 250, 154)" fill="rgb(0, 250, 154)" fill-opacity="0.93"/>
  <rect x="1" y="6" width="5" height="8" stroke="rgb(0, 250, 154)" fill="rgb(0, 250, 154)" fill-opacity="0.84"/>
  <rect x="47" y="63" width="26" height="30" stroke="rgb(0, 250, 154)" fill="rgb(0, 250, 154)" fill-opacity="0.12"/>
  <circle cx="0" cy="28" r="8" stroke="rgb(0, 250, 154)" fill="rgb(0, 250, 154)" fill-opacity="0.86"/>
  <rect x="12" y="9" width="12" height="10" stroke="rgb(0, 250, 154)" fill="rgb(0, 250, 154)" fill-opacity="0.21"/>
  <circle cx="0" cy="63" r="0" stroke="rgb(0, 250, 154)" fill="rgb(0, 250, 154)" fill-opacity="0.8100000000000001"/>
  <rect x="52" y="36" width="0" height="3" stroke="rgb(0, 250, 154)" fill="rgb(0, 250, 154)" fill-opacity="0.43"/>
  <circle cx="26" cy="81" r="12" stroke="rgb(0, 250, 154)" fill="rgb(0, 250, 154)" fill-opacity="0.77"/>
</svg>
