<?xml version="1.0" encoding="UTF-8" ?>
<!DOCTYPE svg PUBLIC "-//W3C//DTD SVG 1.1//EN" "http://www.w3.org/Graphics/SVG/1.1/DTD/svg11.dtd">
<svg width="100" height="100" xmlns="http://www.w3.org/2000/svg" version="1.1">
  <rect x="0" y="0" width="100" height="100" fill="rgb(60, 179, 113)" fill-opacity="0.43"/>
  <rect x="42" y="31" width="4" height="21" stroke="rgb(60, 179, 113)" fill="rgb(60, 179, 113)" fill-opacity="0.29"/>
  <circle cx="56" cy="37" r="18" stroke="rgb(60, 179, 113)" fill="rgb(60, 179, 113)" fill-opacity="0.89"/>
  <circle cx="69" cy="66" r="13" stroke="rgb(60, 179, 113)" fill="rgb(60, 179, 113)" fill-opacity="0.12"/>
  <circle cx="2" cy="72" r="17" stroke="rgb(60, 179, 113)" fill="rgb(60, 179, 113)" fill-opacity="0.17"/>
  <rect x="38" y="11" width="24" height="38" stroke="rgb(60, 179, 113)" fill="rgb(60, 179, 113)" fill-opacity="0.12"/>
  <circle cx="51" cy="3" r="15" stroke="rgb(60, 179, 113)" fill="rgb(60, 179, 113)" fill-opacity="0.72"/>
  <rect x="14" y="53" width="18" height="16" stroke="rgb(60, 179, 113)" fill="rgb(60, 179, 113)" fill-opacity="0.48"/>
  <rect x="25" y="19" width="5" height="7" stroke="rgb(60, 179, 113)" fill="rgb(60, 179, 113)" fill-opacity="0.27"/>
  <rect x="68" y="62" width="10" height="14" stroke="rgb(60, 179, 113)" fill="rgb(60, 179, 113)" fill-opacity="0.77"/>
  <rect x="58" y="15" width="8" height="15" stroke="rgb(60, 179, 113)" fill="rgb(60, 179, 113)" fill-opacity="0.1"/>
  <rect x="42" y="48" width="5" height="6" stroke="rgb(60, 179, 113)" fill="rgb(60, 179, 113)" fill-opacity="0.75"/>
  <rect x="2" y="54" width="18" height="25" stroke="rgb(60, 179, 113)" fill="rgb(60, 179, 113)" fill-opacity="0.09"/>
  <circle cx="55" cy="98" r="10" stroke="rgb(60, 179, 113)" fill="rgb(60, 179, 113)" fill-opacity="0.78"/>
  <circle cx="38" cy="70" r="9" stroke="rgb(60, 179, 113)" fill="rgb(60, 179, 113)" fill-opacity="0.05"/>
  <circle cx="35" cy="32" r="0" stroke="rgb(60, 179, 113)" fill="rgb(60, 179, 113)" fill-opacity="0.66"/>
  <circle cx="29" cy="81" r="5" stroke="rgb(60, 179, 113)" fill="rgb(60, 179, 113)" fill-opacity="0.6"/>
  <circle cx="44" cy="82" r="9" stroke="rgb(60, 179, 113)" fill="rgb(60, 179, 113)" fill-opacity="0.4"/>
  <rect x="35" y="81" width="14" height="19" stroke="rgb(60, 179, 113)" fill="rgb(60, 179, 113)" fill-opacity="0.86"/>
  <circle cx="69" cy="57" r="9" stroke="rgb(60, 179, 113)" fill="rgb(60, 179, 113)" fill-opacity="0.11"/>
  <circle cx="9" cy="7" r="3" stroke="rgb(60, 179, 113)" fill="rgb(60, 179, 113)" fill-opacity="0.0"/>
  <rect x="33" y="8" width="39" height="26" stroke="rgb(60, 179, 113)" fill="rgb(60, 179, 113)" fill-opacity="0.68"/>
</svg>
