<?xml version="1.0" encoding="UTF-8" ?>
<!DOCTYPE svg PUBLIC "-//W3C//DTD SVG 1.1//EN" "http://www.w3.org/Graphics/SVG/1.1/DTD/svg11.dtd">
<svg width="100" height="100" xmlns="http://www.w3.org/2000/svg" version="1.1">
  <rect x="0" y="0" width="100" height="100" fill="rgb(123, 104, 238)" fill-opacity="0.24"/>
  <circle cx="49" cy="33" r="16" stroke="rgb(123, 104, 238)" fill="rgb(123, 104, 238)" fill-opacity="0.53"/>
  <rect x="95" y="1" width="33" height="13" stroke="rgb(123, 104, 238)" fill="rgb(123, 104, 238)" fill-opacity="0.49"/>
  <rect x="37" y="56" width="14" height="22" stroke="rgb(123, 104, 238)" fill="rgb(123, 104, 238)" fill-opacity="0.39"/>
  <rect x="1" y="76" width="2" height="38" stroke="rgb(123, 104, 238)" fill="rgb(123, 104, 238)" fill-opacity="0.76"/>
  <circle cx="30" cy="90" r="20" stroke="rgb(123, 104, 238)" fill="rgb(123, 104, 238)" fill-opacity="0.88"/>
  <circle cx="6" cy="91" r="16" stroke="rgb(123, 104, 238)" fill="rgb(123, 104, 238)" fill-opacity="0.85"/>
  <circle cx="87" cy="21" r="7" stroke="rgb(123, 104, 238)" fill="rgb(123, 104, 238)" fill-opacity="0.33"/>
  <circle cx="55" cy="35" r="0" stroke="rgb(123, 104, 238)" fill="rgb(123, 104, 238)" fill-opacity="0.5600000000000001"/>
  <rect x="23" y="72" width="2" height="4" stroke="rgb(123, 104, 238)" fill="rgb(123, 104, 238)" fill-opacity="0.83"/>
  <circle cx="27" cy="0" r="8" stroke="rgb(123, 104, 238)" fill="rgb(123, 104, 238)" fill-opacity="0.67"/>
  <rect x="67" y="35" width="39" height="11" stroke="rgb(123, 104, 238)" fill="rgb(123, 104, 238)" fill-opacity="0.48"/>
  <circle cx="88" cy="57" r="2" stroke="rgb(123, 104, 238)" fill="rgb(123, 104, 238)" fill-opacity="0.65"/>
  <circle cx="86" cy="27" r="15" stroke="rgb(123, 104, 238)" fill="rgb(123, 104, 238)" fill-opacity="0.26"/>
  <circle cx="61" cy="45" r="18" stroke="rgb(123, 104, 238)" fill="rgb(123, 104, 238)" fill-opacity="0.03"/>
  <rect x="38" y="22" width="21" height="34" stroke="rgb(123, 104, 238)" fill="rgb(123, 104, 238)" fill-opacity="0.0"/>
  <circle cx="14" cy="29" r="0" stroke="rgb(123, 104, 238)" fill="rgb(123, 104, 238)" fill-opacity="0.43"/>
  <circle cx="78" cy="59" r="17" stroke="rgb(123, 104, 238)" fill="rgb(123, 104, 238)" fill-opacity="0.1"/>
  <circle cx="97" cy="32" r="16" stroke="rgb(123, 104, 238)" fill="rgb(123, 104, 238)" fill-opacity="0.66"/>
  <rect x="27" y="87" width="25" height="8" stroke="rgb(123, 104, 238)" fill="rgb(123, 104, 238)" fill-opacity="0.54"/>
  <rect x="3" y="43" width="24" height="18" stroke="rgb(123, 104, 238)" fill="rgb(123, 104, 238)" fill-opacity="0.7"/>
  <rect x="78" y="91" width="34" height="31" stroke="rgb(123, 104, 238)" fill="rgb(123, 104, 238)" fill-opacity="0.93"/>
</svg>
