<?xml version="1.0" encoding="UTF-8" ?>
<!DOCTYPE svg PUBLIC "-//W3C//DTD SVG 1.1//EN" "http://www.w3.org/Graphics/SVG/1.1/DTD/svg11.dtd">
<svg width="100" height="100" xmlns="http://www.w3.org/2000/svg" version="1.1">
  <rect x="0" y="0" width="100" height="100" fill="rgb(0, 0, 205)" fill-opacity="0.31"/>
  <circle cx="68" cy="53" r="2" stroke="rgb(0, 0, 205)" fill="rgb(0, 0, 205)" fill-opacity="0.9"/>
  <circle cx="64" cy="76" r="11" stroke="rgb(0, 0, 205)" fill="rgb(0, 0, 205)" fill-opacity="0.99"/>
  <circle cx="25" cy="46" r="6" stroke="rgb(0, 0, 205)" fill="rgb(0, 0, 205)" fill-opacity="0.92"/>
  <rect x="52" y="3" width="27" height="5" stroke="rgb(0, 0, 205)" fill="rgb(0, 0, 205)" fill-opacity="0.9399999999999999"/>
  <circle cx="89" cy="89" r="17" stroke="rgb(0, 0, 205)" fill="rgb(0, 0, 205)" fill-opacity="0.47"/>
  <circle cx="39" cy="8" r="1" stroke="rgb(0, 0, 205)" fill="rgb(0, 0, 205)" fill-opacity="0.61"/>
  <circle cx="98" cy="91" r="10" stroke="rgb(0, 0, 205)" fill="rgb(0, 0, 205)" fill-opacity="0.74"/>
  <circle cx="51" cy="64" r="19" stroke="rgb(0, 0, 205)" fill="rgb(0, 0, 205)" fill-opacity="0.42"/>
  <circle cx="54" cy="54" r="6" stroke="rgb(0, 0, 205)" fill="rgb(0, 0, 205)" fill-opacity="0.87"/>
  <rect x="34" y="65" width="31" height="0" stroke="rgb(0, 0, 205)" fill="rgb(0, 0, 205)" fill-opacity="0.14"/>
  <rect x="24" y="89" width="2" height="0" stroke="rgb(0, 0, 205)" fill="rgb(0, 0, 205)" fill-opacity="0.89"/>
  <circle cx="79" cy="78" r="18" stroke="rgb(0, 0, 205)" fill="rgb(0, 0, 205)" fill-opacity="0.27"/>
  <circle cx="52" cy="75" r="6" stroke="rgb(0, 0, 205)" fill="rgb(0, 0, 205)" fill-opacity="0.72"/>
  <circle cx="65" cy="40" r="13" stroke="rgb(0, 0, 205)" fill="rgb(0, 0, 205)" fill-opacity="0.66"/>
  <rect x="3" y="0" width="36" height="11" stroke="rgb(0, 0, 205)" fill="rgb(0, 0, 205)" fill-opacity="0.74"/>
  <rect x="32" y="78" width="15" height="3" stroke="rgb(0, 0, 205)" fill="rgb(0, 0, 205)" fill-opacity="0.68"/>
  <rect x="91" y="66" width="6" height="40" stroke="rgb(0, 0, 205)" fill="rgb(0, 0, 205)" fill-opacity="0.71"/>
  <rect x="13" y="19" width="20" height="17" stroke="rgb(0, 0, 205)" fill="rgb(0, 0, 205)" fill-opacity="0.4"/>
  <rect x="7" y="50" width="20" height="39" stroke="rgb(0, 0, 205)" fill="rgb(0, 0, 205)" fill-opacity="0.45"/>
  <rect x="49" y="77" width="17" height="12" stroke="rgb(0, 0, 205)" fill="rgb(0, 0, 205)" fill-opacity="0.97"/>
  <circle cx="75" cy="56" r="0" stroke="rgb(0, 0, 205)" fill="rgb(0, 0, 205)" fill-opacity="0.37"/>
</svg>
