<?xml version="1.0" encoding="UTF-8" ?>
<!DOCTYPE svg PUBLIC "-//W3C//DTD SVG 1.1//EN" "http://www.w3.org/Graphics/SVG/1.1/DTD/svg11.dtd">
<svg width="100" height="100" xmlns="http://www.w3.org/2000/svg" version="1.1">
  <rect x="0" y="0" width="100" height="100" fill="rgb(186, 85, 211)" fill-opacity="0.06"/>
  <circle cx="6" cy="20" r="8" stroke="rgb(186, 85, 211)" fill="rgb(186, 85, 211)" fill-opacity="0.2"/>
  <rect x="20" y="52" width="8" height="18" stroke="rgb(186, 85, 211)" fill="rgb(186, 85, 211)" fill-opacity="0.12"/>
  <circle cx="14" cy="78" r="7" stroke="rgb(186, 85, 211)" fill="rgb(186, 85, 211)" fill-opacity="0.74"/>
  <circle cx="77" cy="47" r="16" stroke="rgb(186, 85, 211)" fill="rgb(186, 85, 211)" fill-opacity="0.17"/>
  <rect x="16" y="59" width="1" height="38" stroke="rgb(186, 85, 211)" fill="rgb(186, 85, 211)" fill-opacity="0.88"/>
  <rect x="78" y="28" width="14" height="0" stroke="rgb(186, 85, 211)" fill="rgb(186, 85, 211)" fill-opacity="0.46"/>
  <circle cx="16" cy="39" r="8" stroke="rgb(186, 85, 211)" fill="rgb(186, 85, 211)" fill-opacity="0.79"/>
  <rect x="2" y="9" width="22" height="14" stroke="rgb(186, 85, 211)" fill="rgb(186, 85, 211)" fill-opacity="0.0"/>
  <rect x="48" y="44" width="36" height="36" stroke="rgb(186, 85, 211)" fill="rgb(186, 85, 211)" fill-opacity="0.36"/>
  <circle cx="58" cy="74" r="20" stroke="rgb(186, 85, 211)" fill="rgb(186, 85, 211)" fill-opacity="0.68"/>
  <rect x="81" y="17" width="3" height="11" stroke="rgb(186, 85, 211)" fill="rgb(186, 85, 211)" fill-opacity="0.26"/>
  <circle cx="55" cy="94" r="1" stroke="rgb(186, 85, 211)" fill="rgb(186, 85, 211)" fill-opacity="0.89"/>
  <circle cx="12" cy="97" r="16" stroke="rgb(186, 85, 211)" fill="rgb(186, 85, 211)" fill-opacity="0.39"/>
  <circle cx="89" cy="43" r="12" stroke="rgb(186, 85, 211)" fill="rgb(186, 85, 211)" fill-opacity="0.68"/>
  <circle cx="38" cy="11" r="20" stroke="rgb(186, 85, 211)" fill="rgb(186, 85, 211)" fill-opacity="0.05"/>
  <rect x="7" y="58" width="37" height="0" stroke="rgb(186, 85, 211)" fill="rgb(186, 85, 211)" fill-opacity="0.79"/>
  <circle cx="5" cy="38" r="17" stroke="rgb(186, 85, 211)" fill="rgb(186, 85, 211)" fill-opacity="0.1"/>
  <rect x="4" y="8" width="26" height="5" stroke="rgb(186, 85, 211)" fill="rgb(186, 85, 211)" fill-opacity="0.28"/>
  <rect x="41" y="73" width="30" height="28" stroke="rgb(186, 85, 211)" fill="rgb(186, 85, 211)" fill-opacity="0.04"/>
  <rect x="29" y="36" width="28" height="10" stroke="rgb(186, 85, 211)" fill="rgb(186, 85, 211)" fill-opacity="0.91"/>
  <circle cx="0" cy="23" r="13" stroke="rgb(186, 85, 211)" fill="rgb(186, 85, 211)" fill-opacity="0.93"/>
</svg>
