<?xml version="1.0" encoding="UTF-8" ?>
<!DOCTYPE svg PUBLIC "-//W3C//DTD SVG 1.1//EN" "http://www.w3.org/Graphics/SVG/1.1/DTD/svg11.dtd">
<svg width="100" height="100" xmlns="http://www.w3.org/2000/svg" version="1.1">
  <rect x="0" y="0" width="100" height="100" fill="rgb(25, 25, 112)" fill-opacity="0.36"/>
  <rect x="53" y="55" width="28" height="14" stroke="rgb(25, 25, 112)" fill="rgb(25, 25, 112)" fill-opacity="0.86"/>
  <circle cx="65" cy="22" r="9" stroke="rgb(25, 25, 112)" fill="rgb(25, 25, 112)" fill-opacity="0.49"/>
  <circle cx="26" cy="14" r="7" stroke="rgb(25, 25, 112)" fill="rgb(25, 25, 112)" fill-opacity="0.21"/>
  <circle cx="45" cy="32" r="8" stroke="rgb(25, 25, 112)" fill="rgb(25, 25, 112)" fill-opacity="0.63"/>
  <circle cx="71" cy="26" r="5" stroke="rgb(25, 25, 112)" fill="rgb(25, 25, 112)" fill-opacity="0.54"/>
  <rect x="78" y="62" width="40" height="24" stroke="rgb(25, 25, 112)" fill="rgb(25, 25, 112)" fill-opacity="0.86"/>
  <rect x="64" y="67" width="11" height="16" stroke="rgb(25, 25, 112)" fill="rgb(25, 25, 112)" fill-opacity="0.78"/>
  <circle cx="75" cy="18" r="11" stroke="rgb(25, 25, 112)" fill="rgb(25, 25, 112)" fill-opacity="0.22"/>
  <rect x="97" y="93" width="5" height="22" stroke="rgb(25, 25, 112)" fill="rgb(25, 25, 112)" fill-opacity="0.45"/>
  <circle cx="82" cy="48" r="3" stroke="rgb(25, 25, 112)" fill="rgb(25, 25, 112)" fill-opacity="0.55"/>
  <rect x="66" y="69" width="10" height="31" stroke="rgb(25, 25, 112)" fill="rgb(25, 25, 112)" fill-opacity="0.84"/>
  <rect x="18" y="73" width="2" height="29" stroke="rgb(25, 25, 112)" fill="rgb(25, 25, 112)" fill-opacity="0.59"/>
  <circle cx="30" cy="39" r="15" stroke="rgb(25, 25, 112)" fill="rgb(25, 25, 112)" fill-opacity="0.5"/>
  <rect x="67" y="39" width="0" height="23" stroke="rgb(25, 25, 112)" fill="rgb(25, 25, 112)" fill-opacity="0.6"/>
  <circle cx="30" cy="23" r="11" stroke="rgb(25, 25, 112)" fill="rgb(25, 25, 112)" fill-opacity="0.76"/>
  <circle cx="8" cy="40" r="3" stroke="rgb(25, 25, 112)" fill="rgb(25, 25, 112)" fill-opacity="0.98"/>
  <rect x="24" y="10" width="7" height="34" stroke="rgb(25, 25, 112)" fill="rgb(25, 25, 112)" fill-opacity="0.29"/>
  <circle cx="41" cy="3" r="19" stroke="rgb(25, 25, 112)" fill="rgb(25, 25, 112)" fill-opacity="0.26"/>
  <circle cx="87" cy="83" r="13" stroke="rgb(25, 25, 112)" fill="rgb(25, 25, 112)" fill-opacity="0.82"/>
  <circle cx="10" cy="58" r="11" stroke="rgb(25, 25, 112)" fill="rgb(25, 25, 112)" fill-opacity="0.43"/>
  <circle cx="34" cy="47" r="10" stroke="rgb(25, 25, 112)" fill="rgb(25, 25, 112)" fill-opacity="0.92"/>
</svg>
