<?xml version="1.0" encoding="UTF-8" ?>
<!DOCTYPE svg PUBLIC "-//W3C//DTD SVG 1.1//EN" "http://www.w3.org/Graphics/SVG/1.1/DTD/svg11.dtd">
<svg width="100" height="100" xmlns="http://www.w3.org/2000/svg" version="1.1">
  <rect x="0" y="0" width="100" height="100" fill="rgb(245, 255, 250)" fill-opacity="0.68"/>
  <circle cx="14" cy="89" r="2" stroke="rgb(245, 255, 250)" fill="rgb(245, 255, 250)" fill-opacity="0.45"/>
  <rect x="86" y="22" width="12" height="12" stroke="rgb(245, 255, 250)" fill="rgb(245, 255, 250)" fill-opacity="0.05"/>
  <rect x="24" y="35" width="6" height="1" stroke="rgb(245, 255, 250)" fill="rgb(245, 255, 250)" fill-opacity="0.77"/>
  <circle cx="42" cy="77" r="17" stroke="rgb(245, 255, 250)" fill="rgb(245, 255, 250)" fill-opacity="0.95"/>
  <rect x="15" y="26" width="40" height="15" stroke="rgb(245, 255, 250)" fill="rgb(245, 255, 250)" fill-opacity="0.07000000000000001"/>
  <rect x="42" y="7" width="8" height="18" stroke="rgb(245, 255, 250)" fill="rgb(245, 255, 250)" fill-opacity="0.1"/>
  <circle cx="33" cy="6" r="2" stroke="rgb(245, 255, 250)" fill="rgb(245, 255, 250)" fill-opacity="0.47"/>
  <circle cx="70" cy="31" r="3" stroke="rgb(245, 255, 250)" fill="rgb(245, 255, 250)" fill-opacity="0.37"/>
  <circle cx="81" cy="28" r="11" stroke="rgb(245, 255, 250)" fill="rgb(245, 255, 250)" fill-opacity="0.28"/>
  <rect x="6" y="8" width="9" height="6" stroke="rgb(245, 255, 250)" fill="rgb(245, 255, 250)" fill-opacity="0.52"/>
  <circle cx="53" cy="74" r="0" stroke="rgb(245, 255, 250)" fill="rgb(245, 255, 250)" fill-opacity="0.36"/>
  <circle cx="12" cy="66" r="10" stroke="rgb(245, 255, 250)" fill="rgb(245, 255, 250)" fill-opacity="0.9399999999999999"/>
  <circle cx="62" cy="43" r="8" stroke="rgb(245, 255, 250)" fill="rgb(245, 255, 250)" fill-opacity="0.8100000000000001"/>
  <circle cx="2" cy="8" r="8" stroke="rgb(245, 255, 250)" fill="rgb(245, 255, 250)" fill-opacity="0.21"/>
  <circle cx="2" cy="19" r="6" stroke="rgb(245, 255, 250)" fill="rgb(245, 255, 250)" fill-opacity="0.49"/>
  <circle cx="55" cy="78" r="0" stroke="rgb(245, 255, 250)" fill="rgb(245, 255, 250)" fill-opacity="0.47"/>
  <rect x="31" y="90" width="3" height="36" stroke="rgb(245, 255, 250)" fill="rgb(245, 255, 250)" fill-opacity="1.0"/>
  <rect x="26" y="78" width="5" height="25" stroke="rgb(245, 255, 250)" fill="rgb(245, 255, 250)" fill-opacity="0.93"/>
  <rect x="38" y="97" width="7" height="28" stroke="rgb(245, 255, 250)" fill="rgb(245, 255, 250)" fill-opacity="0.78"/>
  <rect x="69" y="58" width="38" height="11" stroke="rgb(245, 255, 250)" fill="rgb(245, 255, 250)" fill-opacity="0.0"/>
  <circle cx="18" cy="50" r="19" stroke="rgb(245, 255, 250)" fill="rgb(245, 255, 250)" fill-opacity="0.8100000000000001"/>
</svg>
