<?xml version="1.0" encoding="UTF-8" ?>
<!DOCTYPE svg PUBLIC "-//W3C//DTD SVG 1.1//EN" "http://www.w3.org/Graphics/SVG/1.1/DTD/svg11.dtd">
<svg width="100" height="100" xmlns="http://www.w3.org/2000/svg" version="1.1">
  <rect x="0" y="0" width="100" height="100" fill="rgb(255, 228, 225)" fill-opacity="0.21"/>
  <circle cx="16" cy="96" r="19" stroke="rgb(255, 228, 225)" fill="rgb(255, 228, 225)" fill-opacity="0.31"/>
  <circle cx="32" cy="57" r="9" stroke="rgb(255, 228, 225)" fill="rgb(255, 228, 225)" fill-opacity="0.95"/>
  <circle cx="10" cy="67" r="10" stroke="rgb(255, 228, 225)" fill="rgb(255, 228, 225)" fill-opacity="0.1"/>
  <circle cx="100" cy="15" r="7" stroke="rgb(255, 228, 225)" fill="rgb(255, 228, 225)" fill-opacity="0.0"/>
  <circle cx="81" cy="78" r="7" stroke="rgb(255, 228, 225)" fill="rgb(255, 228, 225)" fill-opacity="0.14"/>
  <circle cx="80" cy="70" r="3" stroke="rgb(255, 228, 225)" fill="rgb(255, 228, 225)" fill-opacity="0.84"/>
  <rect x="71" y="48" width="11" height="40" stroke="rgb(255, 228, 225)" fill="rgb(255, 228, 225)" fill-opacity="0.92"/>
  <circle cx="21" cy="53" r="18" stroke="rgb(255, 228, 225)" fill="rgb(255, 228, 225)" fill-opacity="0.98"/>
  <circle cx="23" cy="73" r="13" stroke="rgb(255, 228, 225)" fill="rgb(255, 228, 225)" fill-opacity="0.03"/>
  <circle cx="55" cy="82" r="4" stroke="rgb(255, 228, 225)" fill="rgb(255, 228, 225)" fill-opacity="0.87"/>
  <circle cx="27" cy="75" r="18" stroke="rgb(255, 228, 225)" fill="rgb(255, 228, 225)" fill-opacity="0.8"/>
  <circle cx="33" cy="96" r="11" stroke="rgb(255, 228, 225)" fill="rgb(255, 228, 225)" fill-opacity="0.5"/>
  <circle cx="50" cy="21" r="16" stroke="rgb(255, 228, 225)" fill="rgb(255, 228, 225)" fill-opacity="0.38"/>
  <rect x="87" y="17" width="18" height="26" stroke="rgb(255, 228, 225)" fill="rgb(255, 228, 225)" fill-opacity="0.67"/>
  <rect x="38" y="73" width="18" height="32" stroke="rgb(255, 228, 225)" fill="rgb(255, 228, 225)" fill-opacity="0.78"/>
  <rect x="56" y="18" width="26" height="32" stroke="rgb(255, 228, 225)" fill="rgb(255, 228, 225)" fill-opacity="0.61"/>
  <circle cx="3" cy="99" r="20" stroke="rgb(255, 228, 225)" fill="rgb(255, 228, 225)" fill-opacity="0.55"/>
  <circle cx="3" cy="16" r="20" stroke="rgb(255, 228, 225)" fill="rgb(255, 228, 225)" fill-opacity="0.24"/>
  <rect x="86" y="88" width="19" height="12" stroke="rgb(255, 228, 225)" fill="rgb(255, 228, 225)" fill-opacity="0.71"/>
  <rect x="79" y="60" width="12" height="5" stroke="rgb(255, 228, 225)" fill="rgb(255, 228, 225)" fill-opacity="0.98"/>
  <rect x="60" y="94" width="27" height="11" stroke="rgb(255, 228, 225)" fill="rgb(255, 228, 225)" fill-opacity="0.63"/>
</svg>
