<?xml version="1.0" encoding="UTF-8" ?>
<!DOCTYPE svg PUBLIC "-//W3C//DTD SVG 1.1//EN" "http://www.w3.org/Graphics/SVG/1.1/DTD/svg11.dtd">
<svg width="100" height="100" xmlns="http://www.w3.org/2000/svg" version="1.1">
  <rect x="0" y="0" width="100" height="100" fill="rgb(255, 228, 181)" fill-opacity="0.1"/>
  <circle cx="69" cy="73" r="17" stroke="rgb(255, 228, 181)" fill="rgb(255, 228, 181)" fill-opacity="0.9399999999999999"/>
  <circle cx="54" cy="54" r="19" stroke="rgb(255, 228, 181)" fill="rgb(255, 228, 181)" fill-opacity="0.2"/>
  <circle cx="12" cy="43" r="16" stroke="rgb(255, 228, 181)" fill="rgb(255, 228, 181)" fill-opacity="0.8100000000000001"/>
  <circle cx="95" cy="3" r="20" stroke="rgb(255, 228, 181)" fill="rgb(255, 228, 181)" fill-opacity="0.3"/>
  <circle cx="50" cy="88" r="4" stroke="rgb(255, 228, 181)" fill="rgb(255, 228, 181)" fill-opacity="0.16"/>
  <rect x="58" y="2" width="1" height="29" stroke="rgb(255, 228, 181)" fill="rgb(255, 228, 181)" fill-opacity="0.96"/>
  <rect x="0" y="59" width="32" height="30" stroke="rgb(255, 228, 181)" fill="rgb(255, 228, 181)" fill-opacity="0.68"/>
  <rect x="88" y="58" width="5" height="0" stroke="rgb(255, 228, 181)" fill="rgb(255, 228, 181)" fill-opacity="0.03"/>
  <rect x="19" y="40" width="38" height="35" stroke="rgb(255, 228, 181)" fill="rgb(255, 228, 181)" fill-opacity="0.64"/>
  <rect x="5" y="68" width="37" height="20" stroke="rgb(255, 228, 181)" fill="rgb(255, 228, 181)" fill-opacity="0.74"/>
  <rect x="47" y="27" width="12" height="27" stroke="rgb(255, 228, 181)" fill="rgb(255, 228, 181)" fill-opacity="0.8"/>
  <rect x="65" y="62" width="6" height="15" stroke="rgb(255, 228, 181)" fill="rgb(255, 228, 181)" fill-opacity="0.05"/>
  <circle cx="93" cy="23" r="12" stroke="rgb(255, 228, 181)" fill="rgb(255, 228, 181)" fill-opacity="0.6899999999999999"/>
  <rect x="44" y="42" width="28" height="25" stroke="rgb(255, 228, 181)" fill="rgb(255, 228, 181)" fill-opacity="0.78"/>
  <circle cx="93" cy="1" r="18" stroke="rgb(255, 228, 181)" fill="rgb(255, 228, 181)" fill-opacity="0.9399999999999999"/>
  <circle cx="44" cy="7" r="17" stroke="rgb(255, 228, 181)" fill="rgb(255, 228, 181)" fill-opacity="0.99"/>
  <rect x="31" y="71" width="37" height="8" stroke="rgb(255, 228, 181)" fill="rgb(255, 228, 181)" fill-opacity="0.5600000000000001"/>
  <rect x="15" y="63" width="13" height="2" stroke="rgb(255, 228, 181)" fill="rgb(255, 228, 181)" fill-opacity="0.96"/>
  <circle cx="87" cy="34" r="17" stroke="rgb(255, 228, 181)" fill="rgb(255, 228, 181)" fill-opacity="0.11"/>
  <rect x="25" y="61" width="2" height="0" stroke="rgb(255, 228, 181)" fill="rgb(255, 228, 181)" fill-opacity="0.0"/>
  <circle cx="3" cy="7" r="0" stroke="rgb(255, 228, 181)" fill="rgb(255, 228, 181)" fill-opacity="0.79"/>
</svg>
