<?xml version="1.0" encoding="UTF-8" ?>
<!DOCTYPE svg PUBLIC "-//W3C//DTD SVG 1.1//EN" "http://www.w3.org/Graphics/SVG/1.1/DTD/svg11.dtd">
<svg width="100" height="100" xmlns="http://www.w3.org/2000/svg" version="1.1">
  <rect x="0" y="0" width="100" height="100" fill="rgb(255, 222, 173)" fill-opacity="0.46"/>
  <rect x="18" y="52" width="37" height="31" stroke="rgb(255, 222, 173)" fill="rgb(255, 222, 173)" fill-opacity="0.78"/>
  <circle cx="99" cy="70" r="11" stroke="rgb(255, 222, 173)" fill="rgb(255, 222, 173)" fill-opacity="0.32"/>
  <rect x="25" y="15" width="20" height="11" stroke="rgb(255, 222, 173)" fill="rgb(255, 222, 173)" fill-opacity="0.9"/>
  <circle cx="53" cy="67" r="9" stroke="rgb(255, 222, 173)" fill="rgb(255, 222, 173)" fill-opacity="0.59"/>
  <circle cx="79" cy="41" r="11" stroke="rgb(255, 222, 173)" fill="rgb(255, 222, 173)" fill-opacity="0.24"/>
  <circle cx="69" cy="88" r="1" stroke="rgb(255, 222, 173)" fill="rgb(255, 222, 173)" fill-opacity="0.43"/>
  <circle cx="55" cy="90" r="2" stroke="rgb(255, 222, 173)" fill="rgb(255, 222, 173)" fill-opacity="0.27"/>
  <circle cx="40" cy="46" r="19" stroke="rgb(255, 222, 173)" fill="rgb(255, 222, 173)" fill-opacity="0.68"/>
  <circle cx="58" cy="83" r="19" stroke="rgb(255, 222, 173)" fill="rgb(255, 222, 173)" fill-opacity="0.82"/>
  <rect x="55" y="9" width="22" height="26" stroke="rgb(255, 222, 173)" fill="rgb(255, 222, 173)" fill-opacity="0.58"/>
  <rect x="77" y="11" width="37" height="0" stroke="rgb(255, 222, 173)" fill="rgb(255, 222, 173)" fill-opacity="0.97"/>
  <rect x="42" y="90" width="28" height="32" stroke="rgb(255, 222, 173)" fill="rgb(255, 222, 173)" fill-opacity="0.49"/>
  <rect x="71" y="62" width="32" height="35" stroke="rgb(255, 222, 173)" fill="rgb(255, 222, 173)" fill-opacity="0.17"/>
  <circle cx="80" cy="83" r="6" stroke="rgb(255, 222, 173)" fill="rgb(255, 222, 173)" fill-opacity="0.98"/>
  <circle cx="70" cy="71" r="6" stroke="rgb(255, 222, 173)" fill="rgb(255, 222, 173)" fill-opacity="0.8100000000000001"/>
  <rect x="53" y="3" width="8" height="10" stroke="rgb(255, 222, 173)" fill="rgb(255, 222, 173)" fill-opacity="0.3"/>
  <rect x="23" y="41" width="12" height="40" stroke="rgb(255, 222, 173)" fill="rgb(255, 222, 173)" fill-opacity="0.85"/>
  <circle cx="62" cy="20" r="8" stroke="rgb(255, 222, 173)" fill="rgb(255, 222, 173)" fill-opacity="0.0"/>
  <rect x="59" y="50" width="19" height="28" stroke="rgb(255, 222, 173)" fill="rgb(255, 222, 173)" fill-opacity="0.85"/>
  <rect x="89" y="50" width="4" height="17" stroke="rgb(255, 222, 173)" fill="rgb(255, 222, 173)" fill-opacity="0.58"/>
  <rect x="74" y="89" width="2" height="13" stroke="rgb(255, 222, 173)" fill="rgb(255, 222, 173)" fill-opacity="0.77"/>
</svg>
