<?xml version="1.0" encoding="UTF-8" ?>
<!DOCTYPE svg PUBLIC "-//W3C//DTD SVG 1.1//EN" "http://www.w3.org/Graphics/SVG/1.1/DTD/svg11.dtd">
<svg width="100" height="100" xmlns="http://www.w3.org/2000/svg" version="1.1">
  <rect x="0" y="0" width="100" height="100" fill="rgb(253, 245, 230)" fill-opacity="0.04"/>
  <rect x="27" y="62" width="24" height="12" stroke="rgb(253, 245, 230)" fill="rgb(253, 245, 230)" fill-opacity="0.01"/>
  <rect x="93" y="22" width="2" height="0" stroke="rgb(253, 245, 230)" fill="rgb(253, 245, 230)" fill-opacity="0.6899999999999999"/>
  <circle cx="34" cy="55" r="8" stroke="rgb(253, 245, 230)" fill="rgb(253, 245, 230)" fill-opacity="0.88"/>
  <circle cx="73" cy="24" r="12" stroke="rgb(253, 245, 230)" fill="rgb(253, 245, 230)" fill-opacity="0.3"/>
  <rect x="54" y="12" width="23" height="24" stroke="rgb(253, 245, 230)" fill="rgb(253, 245, 230)" fill-opacity="0.13"/>
  <rect x="2" y="62" width="39" height="39" stroke="rgb(253, 245, 230)" fill="rgb(253, 245, 230)" fill-opacity="0.37"/>
  <circle cx="86" cy="98" r="12" stroke="rgb(253, 245, 230)" fill="rgb(253, 245, 230)" fill-opacity="0.27"/>
  <circle cx="86" cy="61" r="6" stroke="rgb(253, 245, 230)" fill="rgb(253, 245, 230)" fill-opacity="0.96"/>
  <circle cx="52" cy="96" r="4" stroke="rgb(253, 245, 230)" fill="rgb(253, 245, 230)" fill-opacity="0.49"/>
  <circle cx="59" cy="74" r="7" stroke="rgb(253, 245, 230)" fill="rgb(253, 245, 230)" fill-opacity="0.71"/>
  <rect x="40" y="84" width="31" height="17" stroke="rgb(253, 245, 230)" fill="rgb(253, 245, 230)" fill-opacity="0.78"/>
  <circle cx="98" cy="90" r="20" stroke="rgb(253, 245, 230)" fill="rgb(253, 245, 230)" fill-opacity="0.76"/>
  <circle cx="83" cy="44" r="7" stroke="rgb(253, 245, 230)" fill="rgb(253, 245, 230)" fill-opacity="0.29"/>
  <circle cx="30" cy="23" r="18" stroke="rgb(253, 245, 230)" fill="rgb(253, 245, 230)" fill-opacity="0.55"/>
  <circle cx="68" cy="99" r="4" stroke="rgb(253, 245, 230)" fill="rgb(253, 245, 230)" fill-opacity="0.97"/>
  <rect x="80" y="16" width="15" height="29" stroke="rgb(253, 245, 230)" fill="rgb(253, 245, 230)" fill-opacity="0.9399999999999999"/>
  <rect x="5" y="86" width="14" height="27" stroke="rgb(253, 245, 230)" fill="rgb(253, 245, 230)" fill-opacity="0.67"/>
  <circle cx="2" cy="56" r="14" stroke="rgb(253, 245, 230)" fill="rgb(253, 245, 230)" fill-opacity="0.52"/>
  <circle cx="75" cy="59" r="0" stroke="rgb(253, 245, 230)" fill="rgb(253, 245, 230)" fill-opacity="0.53"/>
  <circle cx="96" cy="15" r="8" stroke="rgb(253, 245, 230)" fill="rgb(253, 245, 230)" fill-opacity="0.22"/>
  <rect x="85" y="70" width="36" height="38" stroke="rgb(253, 245, 230)" fill="rgb(253, 245, 230)" fill-opacity="0.73"/>
</svg>
