<?xml version="1.0" encoding="UTF-8" ?>
<!DOCTYPE svg PUBLIC "-//W3C//DTD SVG 1.1//EN" "http://www.w3.org/Graphics/SVG/1.1/DTD/svg11.dtd">
<svg width="100" height="100" xmlns="http://www.w3.org/2000/svg" version="1.1">
  <rect x="0" y="0" width="100" height="100" fill="rgb(107, 142, 35)" fill-opacity="0.28"/>
  <rect x="31" y="49" width="0" height="25" stroke="rgb(107, 142, 35)" fill="rgb(107, 142, 35)" fill-opacity="0.32"/>
  <rect x="49" y="31" width="38" height="20" stroke="rgb(107, 142, 35)" fill="rgb(107, 142, 35)" fill-opacity="0.06"/>
  <rect x="100" y="24" width="24" height="6" stroke="rgb(107, 142, 35)" fill="rgb(107, 142, 35)" fill-opacity="0.03"/>
  <rect x="100" y="7" width="19" height="6" stroke="rgb(107, 142, 35)" fill="rgb(107, 142, 35)" fill-opacity="0.06"/>
  <rect x="35" y="21" width="27" height="28" stroke="rgb(107, 142, 35)" fill="rgb(107, 142, 35)" fill-opacity="0.35"/>
  <rect x="31" y="54" width="33" height="0" stroke="rgb(107, 142, 35)" fill="rgb(107, 142, 35)" fill-opacity="0.82"/>
  <circle cx="98" cy="68" r="3" stroke="rgb(107, 142, 35)" fill="rgb(107, 142, 35)" fill-opacity="0.88"/>
  <rect x="91" y="60" width="33" height="9" stroke="rgb(107, 142, 35)" fill="rgb(107, 142, 35)" fill-opacity="0.91"/>
  <circle cx="28" cy="66" r="5" stroke="rgb(107, 142, 35)" fill="rgb(107, 142, 35)" fill-opacity="0.76"/>
  <circle cx="45" cy="0" r="17" stroke="rgb(107, 142, 35)" fill="rgb(107, 142, 35)" fill-opacity="0.22"/>
  <rect x="92" y="36" width="20" height="24" stroke="rgb(107, 142, 35)" fill="rgb(107, 142, 35)" fill-opacity="0.27"/>
  <rect x="66" y="83" width="13" height="28" stroke="rgb(107, 142, 35)" fill="rgb(107, 142, 35)" fill-opacity="0.1"/>
  <circle cx="67" cy="70" r="7" stroke="rgb(107, 142, 35)" fill="rgb(107, 142, 35)" fill-opacity="0.44"/>
  <circle cx="2" cy="11" r="6" stroke="rgb(107, 142, 35)" fill="rgb(107, 142, 35)" fill-opacity="0.36"/>
  <rect x="49" y="12" width="31" height="5" stroke="rgb(107, 142, 35)" fill="rgb(107, 142, 35)" fill-opacity="0.83"/>
  <rect x="62" y="66" width="17" height="5" stroke="rgb(107, 142, 35)" fill="rgb(107, 142, 35)" fill-opacity="0.9"/>
  <circle cx="38" cy="24" r="11" stroke="rgb(107, 142, 35)" fill="rgb(107, 142, 35)" fill-opacity="0.98"/>
  <rect x="9" y="73" width="15" height="36" stroke="rgb(107, 142, 35)" fill="rgb(107, 142, 35)" fill-opacity="0.79"/>
  <rect x="100" y="14" width="30" height="3" stroke="rgb(107, 142, 35)" fill="rgb(107, 142, 35)" fill-opacity="0.64"/>
  <circle cx="40" cy="57" r="17" stroke="rgb(107, 142, 35)" fill="rgb(107, 142, 35)" fill-opacity="0.43"/>
  <rect x="99" y="14" width="1" height="1" stroke="rgb(107, 142, 35)" fill="rgb(107, 142, 35)" fill-opacity="0.37"/>
</svg>
