<?xml version="1.0" encoding="UTF-8" ?>
<!DOCTYPE svg PUBLIC "-//W3C//DTD SVG 1.1//EN" "http://www.w3.org/Graphics/SVG/1.1/DTD/svg11.dtd">
<svg width="100" height="100" xmlns="http://www.w3.org/2000/svg" version="1.1">
  <rect x="0" y="0" width="100" height="100" fill="rgb(128, 128, 0)" fill-opacity="0.6"/>
  <rect x="6" y="31" width="21" height="16" stroke="rgb(128, 128, 0)" fill="rgb(128, 128, 0)" fill-opacity="0.39"/>
  <rect x="7" y="48" width="14" height="22" stroke="rgb(128, 128, 0)" fill="rgb(128, 128, 0)" fill-opacity="0.04"/>
  <rect x="24" y="34" width="12" height="24" stroke="rgb(128, 128, 0)" fill="rgb(128, 128, 0)" fill-opacity="0.11"/>
  <circle cx="57" cy="62" r="8" stroke="rgb(128, 128, 0)" fill="rgb(128, 128, 0)" fill-opacity="0.37"/>
  <circle cx="36" cy="19" r="15" stroke="rgb(128, 128, 0)" fill="rgb(128, 128, 0)" fill-opacity="0.35"/>
  <circle cx="62" cy="6" r="2" stroke="rgb(128, 128, 0)" fill="rgb(128, 128, 0)" fill-opacity="0.01"/>
  <rect x="53" y="11" width="11" height="37" stroke="rgb(128, 128, 0)" fill="rgb(128, 128, 0)" fill-opacity="0.91"/>
  <rect x="14" y="35" width="36" height="13" stroke="rgb(128, 128, 0)" fill="rgb(128, 128, 0)" fill-opacity="0.38"/>
  <rect x="52" y="10" width="7" height="31" stroke="rgb(128, 128, 0)" fill="rgb(128, 128, 0)" fill-opacity="0.14"/>
  <circle cx="21" cy="14" r="17" stroke="rgb(128, 128, 0)" fill="rgb(128, 128, 0)" fill-opacity="0.72"/>
  <rect x="59" y="74" width="13" height="39" stroke="rgb(128, 128, 0)" fill="rgb(128, 128, 0)" fill-opacity="0.8"/>
  <rect x="17" y="34" width="7" height="5" stroke="rgb(128, 128, 0)" fill="rgb(128, 128, 0)" fill-opacity="0.05"/>
  <rect x="37" y="88" width="37" height="24" stroke="rgb(128, 128, 0)" fill="rgb(128, 128, 0)" fill-opacity="0.97"/>
  <rect x="15" y="43" width="37" height="36" stroke="rgb(128, 128, 0)" fill="rgb(128, 128, 0)" fill-opacity="0.88"/>
  <circle cx="92" cy="0" r="11" stroke="rgb(128, 128, 0)" fill="rgb(128, 128, 0)" fill-opacity="0.07000000000000001"/>
  <rect x="69" y="84" width="27" height="25" stroke="rgb(128, 128, 0)" fill="rgb(128, 128, 0)" fill-opacity="0.1"/>
  <circle cx="73" cy="73" r="2" stroke="rgb(128, 128, 0)" fill="rgb(128, 128, 0)" fill-opacity="0.63"/>
  <rect x="38" y="77" width="8" height="23" stroke="rgb(128, 128, 0)" fill="rgb(128, 128, 0)" fill-opacity="0.74"/>
  <rect x="75" y="78" width="27" height="6" stroke="rgb(128, 128, 0)" fill="rgb(128, 128, 0)" fill-opacity="0.79"/>
  <rect x="63" y="88" width="19" height="32" stroke="rgb(128, 128, 0)" fill="rgb(128, 128, 0)" fill-opacity="0.82"/>
  <rect x="94" y="14" width="18" height="38" stroke="rgb(128, 128, 0)" fill="rgb(128, 128, 0)" fill-opacity="0.48"/>
</svg>
