<?xml version="1.0" encoding="UTF-8" ?>
<!DOCTYPE svg PUBLIC "-//W3C//DTD SVG 1.1//EN" "http://www.w3.org/Graphics/SVG/1.1/DTD/svg11.dtd">
<svg width="100" height="100" xmlns="http://www.w3.org/2000/svg" version="1.1">
  <rect x="0" y="0" width="100" height="100" fill="rgb(255, 165, 0)" fill-opacity="0.6"/>
  <circle cx="48" cy="72" r="11" stroke="rgb(255, 165, 0)" fill="rgb(255, 165, 0)" fill-opacity="0.37"/>
  <rect x="45" y="48" width="30" height="7" stroke="rgb(255, 165, 0)" fill="rgb(255, 165, 0)" fill-opacity="1.0"/>
  <rect x="83" y="79" width="16" height="6" stroke="rgb(255, 165, 0)" fill="rgb(255, 165, 0)" fill-opacity="0.8"/>
  <circle cx="66" cy="66" r="14" stroke="rgb(255, 165, 0)" fill="rgb(255, 165, 0)" fill-opacity="0.96"/>
  <circle cx="34" cy="93" r="9" stroke="rgb(255, 165, 0)" fill="rgb(255, 165, 0)" fill-opacity="0.12"/>
  <rect x="88" y="52" width="0" height="18" stroke="rgb(255, 165, 0)" fill="rgb(255, 165, 0)" fill-opacity="0.57"/>
  <rect x="35" y="86" width="11" height="20" stroke="rgb(255, 165, 0)" fill="rgb(255, 165, 0)" fill-opacity="0.8100000000000001"/>
  <circle cx="7" cy="66" r="18" stroke="rgb(255, 165, 0)" fill="rgb(255, 165, 0)" fill-opacity="0.8"/>
  <circle cx="13" cy="61" r="9" stroke="rgb(255, 165, 0)" fill="rgb(255, 165, 0)" fill-opacity="0.35"/>
  <circle cx="43" cy="26" r="8" stroke="rgb(255, 165, 0)" fill="rgb(255, 165, 0)" fill-opacity="0.07000000000000001"/>
  <circle cx="22" cy="26" r="17" stroke="rgb(255, 165, 0)" fill="rgb(255, 165, 0)" fill-opacity="0.48"/>
  <circle cx="93" cy="56" r="2" stroke="rgb(255, 165, 0)" fill="rgb(255, 165, 0)" fill-opacity="0.57"/>
  <rect x="84" y="68" width="15" height="23" stroke="rgb(255, 165, 0)" fill="rgb(255, 165, 0)" fill-opacity="0.91"/>
  <circle cx="35" cy="11" r="2" stroke="rgb(255, 165, 0)" fill="rgb(255, 165, 0)" fill-opacity="0.06"/>
  <rect x="28" y="9" width="12" height="3" stroke="rgb(255, 165, 0)" fill="rgb(255, 165, 0)" fill-opacity="0.33"/>
  <circle cx="70" cy="58" r="5" stroke="rgb(255, 165, 0)" fill="rgb(255, 165, 0)" fill-opacity="0.76"/>
  <rect x="36" y="27" width="31" height="35" stroke="rgb(255, 165, 0)" fill="rgb(255, 165, 0)" fill-opacity="0.79"/>
  <circle cx="9" cy="96" r="16" stroke="rgb(255, 165, 0)" fill="rgb(255, 165, 0)" fill-opacity="0.76"/>
  <rect x="83" y="34" width="20" height="15" stroke="rgb(255, 165, 0)" fill="rgb(255, 165, 0)" fill-opacity="0.47"/>
  <circle cx="97" cy="26" r="6" stroke="rgb(255, 165, 0)" fill="rgb(255, 165, 0)" fill-opacity="0.88"/>
  <rect x="20" y="47" width="13" height="37" stroke="rgb(255, 165, 0)" fill="rgb(255, 165, 0)" fill-opacity="0.91"/>
</svg>
