<?xml version="1.0" encoding="UTF-8" ?>
<!DOCTYPE svg PUBLIC "-//W3C//DTD SVG 1.1//EN" "http://www.w3.org/Graphics/SVG/1.1/DTD/svg11.dtd">
<svg width="100" height="100" xmlns="http://www.w3.org/2000/svg" version="1.1">
  <rect x="0" y="0" width="100" height="100" fill="rgb(218, 112, 214)" fill-opacity="0.03"/>
  <circle cx="20" cy="30" r="16" stroke="rgb(218, 112, 214)" fill="rgb(218, 112, 214)" fill-opacity="0.71"/>
  <circle cx="68" cy="40" r="15" stroke="rgb(218, 112, 214)" fill="rgb(218, 112, 214)" fill-opacity="0.06"/>
  <circle cx="89" cy="38" r="19" stroke="rgb(218, 112, 214)" fill="rgb(218, 112, 214)" fill-opacity="0.9"/>
  <circle cx="67" cy="4" r="3" stroke="rgb(218, 112, 214)" fill="rgb(218, 112, 214)" fill-opacity="0.25"/>
  <circle cx="56" cy="75" r="4" stroke="rgb(218, 112, 214)" fill="rgb(218, 112, 214)" fill-opacity="0.07000000000000001"/>
  <rect x="60" y="3" width="25" height="28" stroke="rgb(218, 112, 214)" fill="rgb(218, 112, 214)" fill-opacity="0.13"/>
  <rect x="95" y="6" width="22" height="17" stroke="rgb(218, 112, 214)" fill="rgb(218, 112, 214)" fill-opacity="0.11"/>
  <circle cx="10" cy="23" r="1" stroke="rgb(218, 112, 214)" fill="rgb(218, 112, 214)" fill-opacity="0.11"/>
  <rect x="51" y="96" width="40" height="35" stroke="rgb(218, 112, 214)" fill="rgb(218, 112, 214)" fill-opacity="0.5"/>
  <rect x="83" y="95" width="9" height="2" stroke="rgb(218, 112, 214)" fill="rgb(218, 112, 214)" fill-opacity="0.41"/>
  <circle cx="93" cy="48" r="15" stroke="rgb(218, 112, 214)" fill="rgb(218, 112, 214)" fill-opacity="0.08"/>
  <circle cx="11" cy="100" r="8" stroke="rgb(218, 112, 214)" fill="rgb(218, 112, 214)" fill-opacity="0.82"/>
  <circle cx="86" cy="81" r="12" stroke="rgb(218, 112, 214)" fill="rgb(218, 112, 214)" fill-opacity="0.79"/>
  <rect x="8" y="33" width="26" height="13" stroke="rgb(218, 112, 214)" fill="rgb(218, 112, 214)" fill-opacity="0.8"/>
  <rect x="73" y="4" width="31" height="2" stroke="rgb(218, 112, 214)" fill="rgb(218, 112, 214)" fill-opacity="0.98"/>
  <circle cx="88" cy="9" r="1" stroke="rgb(218, 112, 214)" fill="rgb(218, 112, 214)" fill-opacity="0.25"/>
  <circle cx="62" cy="61" r="7" stroke="rgb(218, 112, 214)" fill="rgb(218, 112, 214)" fill-opacity="0.0"/>
  <rect x="84" y="24" width="39" height="0" stroke="rgb(218, 112, 214)" fill="rgb(218, 112, 214)" fill-opacity="0.95"/>
  <circle cx="66" cy="57" r="0" stroke="rgb(218, 112, 214)" fill="rgb(218, 112, 214)" fill-opacity="0.62"/>
  <circle cx="42" cy="31" r="18" stroke="rgb(218, 112, 214)" fill="rgb(218, 112, 214)" fill-opacity="0.58"/>
  <circle cx="51" cy="83" r="18" stroke="rgb(218, 112, 214)" fill="rgb(218, 112, 214)" fill-opacity="0.07000000000000001"/>
</svg>
