<?xml version="1.0" encoding="UTF-8" ?>
<!DOCTYPE svg PUBLIC "-//W3C//DTD SVG 1.1//EN" "http://www.w3.org/Graphics/SVG/1.1/DTD/svg11.dtd">
<svg width="100" height="100" xmlns="http://www.w3.org/2000/svg" version="1.1">
  <rect x="0" y="0" width="100" height="100" fill="rgb(238, 232, 170)" fill-opacity="0.61"/>
  <rect x="25" y="60" width="0" height="19" stroke="rgb(238, 232, 170)" fill="rgb(238, 232, 170)" fill-opacity="0.91"/>
  <rect x="4" y="50" width="10" height="0" stroke="rgb(238, 232, 170)" fill="rgb(238, 232, 170)" fill-opacity="0.64"/>
  <circle cx="46" cy="38" r="13" stroke="rgb(238, 232, 170)" fill="rgb(238, 232, 170)" fill-opacity="0.85"/>
  <rect x="24" y="18" width="27" height="11" stroke="rgb(238, 232, 170)" fill="rgb(238, 232, 170)" fill-opacity="0.83"/>
  <rect x="56" y="92" width="20" height="35" stroke="rgb(238, 232, 170)" fill="rgb(238, 232, 170)" fill-opacity="0.16"/>
  <rect x="44" y="100" width="11" height="28" stroke="rgb(238, 232, 170)" fill="rgb(238, 232, 170)" fill-opacity="0.83"/>
  <circle cx="8" cy="23" r="13" stroke="rgb(238, 232, 170)" fill="rgb(238, 232, 170)" fill-opacity="0.52"/>
  <circle cx="20" cy="23" r="4" stroke="rgb(238, 232, 170)" fill="rgb(238, 232, 170)" fill-opacity="0.66"/>
  <circle cx="1" cy="92" r="5" stroke="rgb(238, 232, 170)" fill="rgb(238, 232, 170)" fill-opacity="0.38"/>
  <circle cx="24" cy="37" r="10" stroke="rgb(238, 232, 170)" fill="rgb(238, 232, 170)" fill-opacity="0.99"/>
  <rect x="65" y="22" width="23" height="33" stroke="rgb(238, 232, 170)" fill="rgb(238, 232, 170)" fill-opacity="0.63"/>
  <rect x="80" y="63" width="3" height="29" stroke="rgb(238, 232, 170)" fill="rgb(238, 232, 170)" fill-opacity="0.6"/>
  <rect x="92" y="23" width="15" height="21" stroke="rgb(238, 232, 170)" fill="rgb(238, 232, 170)" fill-opacity="0.84"/>
  <circle cx="87" cy="29" r="10" stroke="rgb(238, 232, 170)" fill="rgb(238, 232, 170)" fill-opacity="0.19"/>
  <rect x="22" y="15" width="19" height="40" stroke="rgb(238, 232, 170)" fill="rgb(238, 232, 170)" fill-opacity="0.15"/>
  <circle cx="66" cy="86" r="3" stroke="rgb(238, 232, 170)" fill="rgb(238, 232, 170)" fill-opacity="0.83"/>
  <circle cx="81" cy="66" r="1" stroke="rgb(238, 232, 170)" fill="rgb(238, 232, 170)" fill-opacity="0.31"/>
  <rect x="83" y="12" width="30" height="15" stroke="rgb(238, 232, 170)" fill="rgb(238, 232, 170)" fill-opacity="0.75"/>
  <rect x="8" y="73" width="18" height="21" stroke="rgb(238, 232, 170)" fill="rgb(238, 232, 170)" fill-opacity="0.65"/>
  <circle cx="2" cy="7" r="9" stroke="rgb(238, 232, 170)" fill="rgb(238, 232, 170)" fill-opacity="0.22"/>
  <circle cx="45" cy="14" r="5" stroke="rgb(238, 232, 170)" fill="rgb(238, 232, 170)" fill-opacity="0.19"/>
</svg>
