<?xml version="1.0" encoding="UTF-8" ?>
<!DOCTYPE svg PUBLIC "-//W3C//DTD SVG 1.1//EN" "http://www.w3.org/Graphics/SVG/1.1/DTD/svg11.dtd">
<svg width="100" height="100" xmlns="http://www.w3.org/2000/svg" version="1.1">
  <rect x="0" y="0" width="100" height="100" fill="rgb(175, 238, 238)" fill-opacity="0.6"/>
  <circle cx="81" cy="86" r="19" stroke="rgb(175, 238, 238)" fill="rgb(175, 238, 238)" fill-opacity="0.33"/>
  <rect x="6" y="10" width="30" height="7" stroke="rgb(175, 238, 238)" fill="rgb(175, 238, 238)" fill-opacity="0.34"/>
  <circle cx="39" cy="37" r="17" stroke="rgb(175, 238, 238)" fill="rgb(175, 238, 238)" fill-opacity="0.12"/>
  <rect x="78" y="61" width="28" height="21" stroke="rgb(175, 238, 238)" fill="rgb(175, 238, 238)" fill-opacity="0.7"/>
  <circle cx="40" cy="80" r="6" stroke="rgb(175, 238, 238)" fill="rgb(175, 238, 238)" fill-opacity="0.88"/>
  <rect x="73" y="83" width="17" height="17" stroke="rgb(175, 238, 238)" fill="rgb(175, 238, 238)" fill-opacity="0.49"/>
  <rect x="89" y="25" width="34" height="7" stroke="rgb(175, 238, 238)" fill="rgb(175, 238, 238)" fill-opacity="0.38"/>
  <circle cx="34" cy="62" r="2" stroke="rgb(175, 238, 238)" fill="rgb(175, 238, 238)" fill-opacity="0.13"/>
  <rect x="19" y="19" width="0" height="4" stroke="rgb(175, 238, 238)" fill="rgb(175, 238, 238)" fill-opacity="0.4"/>
  <rect x="13" y="65" width="12" height="35" stroke="rgb(175, 238, 238)" fill="rgb(175, 238, 238)" fill-opacity="0.2"/>
  <circle cx="24" cy="31" r="3" stroke="rgb(175, 238, 238)" fill="rgb(175, 238, 238)" fill-opacity="0.16"/>
  <circle cx="19" cy="84" r="11" stroke="rgb(175, 238, 238)" fill="rgb(175, 238, 238)" fill-opacity="0.96"/>
  <circle cx="45" cy="85" r="2" stroke="rgb(175, 238, 238)" fill="rgb(175, 238, 238)" fill-opacity="0.92"/>
  <circle cx="22" cy="6" r="5" stroke="rgb(175, 238, 238)" fill="rgb(175, 238, 238)" fill-opacity="0.37"/>
  <circle cx="48" cy="87" r="12" stroke="rgb(175, 238, 238)" fill="rgb(175, 238, 238)" fill-opacity="0.67"/>
  <rect x="81" y="88" width="29" height="30" stroke="rgb(175, 238, 238)" fill="rgb(175, 238, 238)" fill-opacity="0.5600000000000001"/>
  <rect x="21" y="90" width="11" height="39" stroke="rgb(175, 238, 238)" fill="rgb(175, 238, 238)" fill-opacity="0.35"/>
  <circle cx="54" cy="92" r="17" stroke="rgb(175, 238, 238)" fill="rgb(175, 238, 238)" fill-opacity="0.41"/>
  <rect x="57" y="21" width="1" height="35" stroke="rgb(175, 238, 238)" fill="rgb(175, 238, 238)" fill-opacity="0.93"/>
  <circle cx="37" cy="63" r="4" stroke="rgb(175, 238, 238)" fill="rgb(175, 238, 238)" fill-opacity="0.34"/>
  <rect x="44" y="81" width="40" height="8" stroke="rgb(175, 238, 238)" fill="rgb(175, 238, 238)" fill-opacity="0.78"/>
</svg>
