<?xml version="1.0" encoding="UTF-8" ?>
<!DOCTYPE svg PUBLIC "-//W3C//DTD SVG 1.1//EN" "http://www.w3.org/Graphics/SVG/1.1/DTD/svg11.dtd">
<svg width="100" height="100" xmlns="http://www.w3.org/2000/svg" version="1.1">
  <rect x="0" y="0" width="100" height="100" fill="rgb(219, 112, 147)" fill-opacity="0.0"/>
  <rect x="86" y="95" width="10" height="22" stroke="rgb(219, 112, 147)" fill="rgb(219, 112, 147)" fill-opacity="0.2"/>
  <circle cx="67" cy="16" r="9" stroke="rgb(219, 112, 147)" fill="rgb(219, 112, 147)" fill-opacity="0.96"/>
  <rect x="90" y="46" width="38" height="14" stroke="rgb(219, 112, 147)" fill="rgb(219, 112, 147)" fill-opacity="0.17"/>
  <rect x="91" y="15" width="30" height="35" stroke="rgb(219, 112, 147)" fill="rgb(219, 112, 147)" fill-opacity="0.58"/>
  <circle cx="19" cy="58" r="19" stroke="rgb(219, 112, 147)" fill="rgb(219, 112, 147)" fill-opacity="0.7"/>
  <circle cx="42" cy="22" r="19" stroke="rgb(219, 112, 147)" fill="rgb(219, 112, 147)" fill-opacity="0.77"/>
  <circle cx="13" cy="53" r="11" stroke="rgb(219, 112, 147)" fill="rgb(219, 112, 147)" fill-opacity="0.35"/>
  <rect x="95" y="8" width="17" height="16" stroke="rgb(219, 112, 147)" fill="rgb(219, 112, 147)" fill-opacity="0.84"/>
  <circle cx="6" cy="31" r="6" stroke="rgb(219, 112, 147)" fill="rgb(219, 112, 147)" fill-opacity="0.92"/>
  <rect x="65" y="69" width="21" height="6" stroke="rgb(219, 112, 147)" fill="rgb(219, 112, 147)" fill-opacity="0.79"/>
  <rect x="21" y="62" width="33" height="20" stroke="rgb(219, 112, 147)" fill="rgb(219, 112, 147)" fill-opacity="0.44"/>
  <circle cx="85" cy="29" r="11" stroke="rgb(219, 112, 147)" fill="rgb(219, 112, 147)" fill-opacity="0.15"/>
  <circle cx="43" cy="52" r="5" stroke="rgb(219, 112, 147)" fill="rgb(219, 112, 147)" fill-opacity="0.11"/>
  <rect x="46" y="51" width="23" height="0" stroke="rgb(219, 112, 147)" fill="rgb(219, 112, 147)" fill-opacity="0.71"/>
  <circle cx="74" cy="49" r="3" stroke="rgb(219, 112, 147)" fill="rgb(219, 112, 147)" fill-opacity="0.24"/>
  <rect x="11" y="12" width="19" height="5" stroke="rgb(219, 112, 147)" fill="rgb(219, 112, 147)" fill-opacity="0.17"/>
  <rect x="2" y="33" width="6" height="17" stroke="rgb(219, 112, 147)" fill="rgb(219, 112, 147)" fill-opacity="0.91"/>
  <circle cx="69" cy="70" r="19" stroke="rgb(219, 112, 147)" fill="rgb(219, 112, 147)" fill-opacity="0.11"/>
  <rect x="11" y="10" width="26" height="1" stroke="rgb(219, 112, 147)" fill="rgb(219, 112, 147)" fill-opacity="0.07000000000000001"/>
  <rect x="82" y="36" width="34" height="21" stroke="rgb(219, 112, 147)" fill="rgb(219, 112, 147)" fill-opacity="0.15"/>
  <rect x="73" y="13" width="14" height="21" stroke="rgb(219, 112, 147)" fill="rgb(219, 112, 147)" fill-opacity="0.16"/>
</svg>
