<?xml version="1.0" encoding="UTF-8" ?>
<!DOCTYPE svg PUBLIC "-//W3C//DTD SVG 1.1//EN" "http://www.w3.org/Graphics/SVG/1.1/DTD/svg11.dtd">
<svg width="100" height="100" xmlns="http://www.w3.org/2000/svg" version="1.1">
  <rect x="0" y="0" width="100" height="100" fill="rgb(152, 251, 152)" fill-opacity="0.61"/>
  <circle cx="90" cy="41" r="2" stroke="rgb(152, 251, 152)" fill="rgb(152, 251, 152)" fill-opacity="0.73"/>
  <circle cx="97" cy="72" r="10" stroke="rgb(152, 251, 152)" fill="rgb(152, 251, 152)" fill-opacity="0.78"/>
  <rect x="35" y="12" width="8" height="16" stroke="rgb(152, 251, 152)" fill="rgb(152, 251, 152)" fill-opacity="0.4"/>
  <rect x="64" y="49" width="25" height="30" stroke="rgb(152, 251, 152)" fill="rgb(152, 251, 152)" fill-opacity="0.57"/>
  <rect x="48" y="94" width="8" height="3" stroke="rgb(152, 251, 152)" fill="rgb(152, 251, 152)" fill-opacity="0.19"/>
  <rect x="21" y="24" width="28" height="31" stroke="rgb(152, 251, 152)" fill="rgb(152, 251, 152)" fill-opacity="0.71"/>
  <circle cx="23" cy="92" r="5" stroke="rgb(152, 251, 152)" fill="rgb(152, 251, 152)" fill-opacity="0.23"/>
  <circle cx="13" cy="50" r="18" stroke="rgb(152, 251, 152)" fill="rgb(152, 251, 152)" fill-opacity="0.6"/>
  <rect x="90" y="36" width="3" height="26" stroke="rgb(152, 251, 152)" fill="rgb(152, 251, 152)" fill-opacity="0.64"/>
  <circle cx="68" cy="65" r="17" stroke="rgb(152, 251, 152)" fill="rgb(152, 251, 152)" fill-opacity="0.38"/>
  <circle cx="22" cy="63" r="10" stroke="rgb(152, 251, 152)" fill="rgb(152, 251, 152)" fill-opacity="0.29"/>
  <circle cx="44" cy="81" r="15" stroke="rgb(152, 251, 152)" fill="rgb(152, 251, 152)" fill-opacity="0.64"/>
  <rect x="72" y="82" width="1" height="36" stroke="rgb(152, 251, 152)" fill="rgb(152, 251, 152)" fill-opacity="0.76"/>
  <rect x="40" y="64" width="14" height="17" stroke="rgb(152, 251, 152)" fill="rgb(152, 251, 152)" fill-opacity="0.19"/>
  <circle cx="88" cy="62" r="1" stroke="rgb(152, 251, 152)" fill="rgb(152, 251, 152)" fill-opacity="0.1"/>
  <circle cx="12" cy="42" r="14" stroke="rgb(152, 251, 152)" fill="rgb(152, 251, 152)" fill-opacity="0.55"/>
  <rect x="68" y="10" width="38" height="17" stroke="rgb(152, 251, 152)" fill="rgb(152, 251, 152)" fill-opacity="0.35"/>
  <rect x="32" y="15" width="17" height="12" stroke="rgb(152, 251, 152)" fill="rgb(152, 251, 152)" fill-opacity="0.46"/>
  <circle cx="18" cy="90" r="20" stroke="rgb(152, 251, 152)" fill="rgb(152, 251, 152)" fill-opacity="0.59"/>
  <rect x="45" y="79" width="26" height="26" stroke="rgb(152, 251, 152)" fill="rgb(152, 251, 152)" fill-opacity="0.71"/>
  <rect x="2" y="23" width="40" height="15" stroke="rgb(152, 251, 152)" fill="rgb(152, 251, 152)" fill-opacity="0.58"/>
</svg>
