<?xml version="1.0" encoding="UTF-8" ?>
<!DOCTYPE svg PUBLIC "-//W3C//DTD SVG 1.1//EN" "http://www.w3.org/Graphics/SVG/1.1/DTD/svg11.dtd">
<svg width="100" height="100" xmlns="http://www.w3.org/2000/svg" version="1.1">
  <rect x="0" y="0" width="100" height="100" fill="rgb(255, 239, 213)" fill-opacity="0.24"/>
  <circle cx="4" cy="24" r="19" stroke="rgb(255, 239, 213)" fill="rgb(255, 239, 213)" fill-opacity="0.07000000000000001"/>
  <rect x="93" y="10" width="36" height="28" stroke="rgb(255, 239, 213)" fill="rgb(255, 239, 213)" fill-opacity="0.38"/>
  <rect x="95" y="92" width="2" height="24" stroke="rgb(255, 239, 213)" fill="rgb(255, 239, 213)" fill-opacity="0.19"/>
  <circle cx="27" cy="73" r="10" stroke="rgb(255, 239, 213)" fill="rgb(255, 239, 213)" fill-opacity="0.66"/>
  <circle cx="45" cy="12" r="13" stroke="rgb(255, 239, 213)" fill="rgb(255, 239, 213)" fill-opacity="0.5"/>
  <circle cx="96" cy="11" r="16" stroke="rgb(255, 239, 213)" fill="rgb(255, 239, 213)" fill-opacity="0.04"/>
  <rect x="96" y="41" width="38" height="32" stroke="rgb(255, 239, 213)" fill="rgb(255, 239, 213)" fill-opacity="0.53"/>
  <circle cx="12" cy="74" r="5" stroke="rgb(255, 239, 213)" fill="rgb(255, 239, 213)" fill-opacity="0.64"/>
  <rect x="11" y="64" width="8" height="17" stroke="rgb(255, 239, 213)" fill="rgb(255, 239, 213)" fill-opacity="0.54"/>
  <rect x="5" y="49" width="28" height="18" stroke="rgb(255, 239, 213)" fill="rgb(255, 239, 213)" fill-opacity="0.8"/>
  <rect x="31" y="75" width="27" height="8" stroke="rgb(255, 239, 213)" fill="rgb(255, 239, 213)" fill-opacity="0.64"/>
  <circle cx="54" cy="61" r="7" stroke="rgb(255, 239, 213)" fill="rgb(255, 239, 213)" fill-opacity="0.1"/>
  <rect x="86" y="1" width="28" height="36" stroke="rgb(255, 239, 213)" fill="rgb(255, 239, 213)" fill-opacity="0.57"/>
  <rect x="23" y="76" width="19" height="30" stroke="rgb(255, 239, 213)" fill="rgb(255, 239, 213)" fill-opacity="0.43"/>
  <rect x="56" y="7" width="2" height="7" stroke="rgb(255, 239, 213)" fill="rgb(255, 239, 213)" fill-opacity="0.28"/>
  <rect x="25" y="42" width="24" height="30" stroke="rgb(255, 239, 213)" fill="rgb(255, 239, 213)" fill-opacity="0.76"/>
  <circle cx="79" cy="2" r="2" stroke="rgb(255, 239, 213)" fill="rgb(255, 239, 213)" fill-opacity="0.62"/>
  <circle cx="8" cy="80" r="8" stroke="rgb(255, 239, 213)" fill="rgb(255, 239, 213)" fill-opacity="0.8100000000000001"/>
  <rect x="72" y="63" width="10" height="29" stroke="rgb(255, 239, 213)" fill="rgb(255, 239, 213)" fill-opacity="0.41"/>
  <circle cx="63" cy="83" r="17" stroke="rgb(255, 239, 213)" fill="rgb(255, 239, 213)" fill-opacity="0.99"/>
  <circle cx="12" cy="20" r="9" stroke="rgb(255, 239, 213)" fill="rgb(255, 239, 213)" fill-opacity="1.0"/>
</svg>
