<?xml version="1.0" encoding="UTF-8" ?>
<!DOCTYPE svg PUBLIC "-//W3C//DTD SVG 1.1//EN" "http://www.w3.org/Graphics/SVG/1.1/DTD/svg11.dtd">
<svg width="100" height="100" xmlns="http://www.w3.org/2000/svg" version="1.1">
  <rect x="0" y="0" width="100" height="100" fill="rgb(255, 218, 185)" fill-opacity="0.55"/>
  <rect x="98" y="18" width="4" height="19" stroke="rgb(255, 218, 185)" fill="rgb(255, 218, 185)" fill-opacity="0.28"/>
  <circle cx="75" cy="66" r="11" stroke="rgb(255, 218, 185)" fill="rgb(255, 218, 185)" fill-opacity="0.21"/>
  <rect x="88" y="25" width="39" height="34" stroke="rgb(255, 218, 185)" fill="rgb(255, 218, 185)" fill-opacity="0.45"/>
  <rect x="18" y="48" width="38" height="36" stroke="rgb(255, 218, 185)" fill="rgb(255, 218, 185)" fill-opacity="0.14"/>
  <rect x="14" y="19" width="25" height="37" stroke="rgb(255, 218, 185)" fill="rgb(255, 218, 185)" fill-opacity="0.21"/>
  <circle cx="53" cy="27" r="8" stroke="rgb(255, 218, 185)" fill="rgb(255, 218, 185)" fill-opacity="0.43"/>
  <rect x="52" y="35" width="5" height="12" stroke="rgb(255, 218, 185)" fill="rgb(255, 218, 185)" fill-opacity="0.08"/>
  <circle cx="42" cy="32" r="12" stroke="rgb(255, 218, 185)" fill="rgb(255, 218, 185)" fill-opacity="0.8"/>
  <rect x="18" y="86" width="29" height="33" stroke="rgb(255, 218, 185)" fill="rgb(255, 218, 185)" fill-opacity="0.28"/>
  <rect x="10" y="67" width="26" height="28" stroke="rgb(255, 218, 185)" fill="rgb(255, 218, 185)" fill-opacity="0.43"/>
  <rect x="67" y="15" width="36" height="35" stroke="rgb(255, 218, 185)" fill="rgb(255, 218, 185)" fill-opacity="0.44"/>
  <circle cx="95" cy="60" r="20" stroke="rgb(255, 218, 185)" fill="rgb(255, 218, 185)" fill-opacity="0.45"/>
  <rect x="48" y="38" width="6" height="16" stroke="rgb(255, 218, 185)" fill="rgb(255, 218, 185)" fill-opacity="0.99"/>
  <circle cx="98" cy="71" r="8" stroke="rgb(255, 218, 185)" fill="rgb(255, 218, 185)" fill-opacity="0.55"/>
  <rect x="12" y="24" width="33" height="27" stroke="rgb(255, 218, 185)" fill="rgb(255, 218, 185)" fill-opacity="0.89"/>
  <rect x="27" y="88" width="2" height="24" stroke="rgb(255, 218, 185)" fill="rgb(255, 218, 185)" fill-opacity="0.42"/>
  <circle cx="13" cy="51" r="11" stroke="rgb(255, 218, 185)" fill="rgb(255, 218, 185)" fill-opacity="0.2"/>
  <rect x="60" y="93" width="36" height="16" stroke="rgb(255, 218, 185)" fill="rgb(255, 218, 185)" fill-opacity="0.91"/>
  <rect x="19" y="67" width="3" height="9" stroke="rgb(255, 218, 185)" fill="rgb(255, 218, 185)" fill-opacity="0.37"/>
  <circle cx="0" cy="1" r="3" stroke="rgb(255, 218, 185)" fill="rgb(255, 218, 185)" fill-opacity="0.75"/>
  <circle cx="66" cy="48" r="6" stroke="rgb(255, 218, 185)" fill="rgb(255, 218, 185)" fill-opacity="0.07000000000000001"/>
</svg>
