<?xml version="1.0" encoding="UTF-8" ?>
<!DOCTYPE svg PUBLIC "-//W3C//DTD SVG 1.1//EN" "http://www.w3.org/Graphics/SVG/1.1/DTD/svg11.dtd">
<svg width="100" height="100" xmlns="http://www.w3.org/2000/svg" version="1.1">
  <rect x="0" y="0" width="100" height="100" fill="rgb(255, 192, 203)" fill-opacity="0.08"/>
  <circle cx="19" cy="88" r="2" stroke="rgb(255, 192, 203)" fill="rgb(255, 192, 203)" fill-opacity="0.8100000000000001"/>
  <rect x="10" y="18" width="29" height="38" stroke="rgb(255, 192, 203)" fill="rgb(255, 192, 203)" fill-opacity="0.21"/>
  <rect x="7" y="61" width="8" height="38" stroke="rgb(255, 192, 203)" fill="rgb(255, 192, 203)" fill-opacity="0.96"/>
  <rect x="77" y="4" width="15" height="20" stroke="rgb(255, 192, 203)" fill="rgb(255, 192, 203)" fill-opacity="0.41"/>
  <rect x="20" y="19" width="2" height="22" stroke="rgb(255, 192, 203)" fill="rgb(255, 192, 203)" fill-opacity="0.32"/>
  <rect x="63" y="50" width="37" height="24" stroke="rgb(255, 192, 203)" fill="rgb(255, 192, 203)" fill-opacity="0.52"/>
  <rect x="89" y="85" width="6" height="25" stroke="rgb(255, 192, 203)" fill="rgb(255, 192, 203)" fill-opacity="0.39"/>
  <circle cx="80" cy="30" r="12" stroke="rgb(255, 192, 203)" fill="rgb(255, 192, 203)" fill-opacity="0.6"/>
  <circle cx="97" cy="70" r="16" stroke="rgb(255, 192, 203)" fill="rgb(255, 192, 203)" fill-opacity="0.48"/>
  <rect x="46" y="92" width="10" height="24" stroke="rgb(255, 192, 203)" fill="rgb(255, 192, 203)" fill-opacity="0.42"/>
  <rect x="33" y="51" width="27" height="40" stroke="rgb(255, 192, 203)" fill="rgb(255, 192, 203)" fill-opacity="0.67"/>
  <rect x="50" y="65" width="14" height="12" stroke="rgb(255, 192, 203)" fill="rgb(255, 192, 203)" fill-opacity="0.6"/>
  <rect x="99" y="21" width="27" height="14" stroke="rgb(255, 192, 203)" fill="rgb(255, 192, 203)" fill-opacity="0.66"/>
  <circle cx="11" cy="2" r="9" stroke="rgb(255, 192, 203)" fill="rgb(255, 192, 203)" fill-opacity="0.79"/>
  <rect x="85" y="22" width="11" height="22" stroke="rgb(255, 192, 203)" fill="rgb(255, 192, 203)" fill-opacity="0.62"/>
  <rect x="19" y="75" width="1" height="16" stroke="rgb(255, 192, 203)" fill="rgb(255, 192, 203)" fill-opacity="0.01"/>
  <circle cx="14" cy="13" r="13" stroke="rgb(255, 192, 203)" fill="rgb(255, 192, 203)" fill-opacity="0.53"/>
  <circle cx="47" cy="98" r="3" stroke="rgb(255, 192, 203)" fill="rgb(255, 192, 203)" fill-opacity="0.13"/>
  <rect x="53" y="42" width="28" height="37" stroke="rgb(255, 192, 203)" fill="rgb(255, 192, 203)" fill-opacity="0.37"/>
  <circle cx="37" cy="35" r="9" stroke="rgb(255, 192, 203)" fill="rgb(255, 192, 203)" fill-opacity="0.32"/>
  <circle cx="42" cy="32" r="5" stroke="rgb(255, 192, 203)" fill="rgb(255, 192, 203)" fill-opacity="0.88"/>
</svg>
