<?xml version="1.0" encoding="UTF-8" ?>
<!DOCTYPE svg PUBLIC "-//W3C//DTD SVG 1.1//EN" "http://www.w3.org/Graphics/SVG/1.1/DTD/svg11.dtd">
<svg width="100" height="100" xmlns="http://www.w3.org/2000/svg" version="1.1">
  <rect x="0" y="0" width="100" height="100" fill="rgb(128, 0, 128)" fill-opacity="0.46"/>
  <rect x="58" y="71" width="13" height="16" stroke="rgb(128, 0, 128)" fill="rgb(128, 0, 128)" fill-opacity="0.58"/>
  <circle cx="76" cy="81" r="18" stroke="rgb(128, 0, 128)" fill="rgb(128, 0, 128)" fill-opacity="0.16"/>
  <rect x="79" y="43" width="2" height="16" stroke="rgb(128, 0, 128)" fill="rgb(128, 0, 128)" fill-opacity="0.84"/>
  <rect x="57" y="89" width="18" height="35" stroke="rgb(128, 0, 128)" fill="rgb(128, 0, 128)" fill-opacity="0.6"/>
  <rect x="75" y="56" width="40" height="3" stroke="rgb(128, 0, 128)" fill="rgb(128, 0, 128)" fill-opacity="0.41"/>
  <circle cx="17" cy="44" r="19" stroke="rgb(128, 0, 128)" fill="rgb(128, 0, 128)" fill-opacity="0.62"/>
  <rect x="28" y="61" width="14" height="26" stroke="rgb(128, 0, 128)" fill="rgb(128, 0, 128)" fill-opacity="0.01"/>
  <circle cx="27" cy="9" r="8" stroke="rgb(128, 0, 128)" fill="rgb(128, 0, 128)" fill-opacity="0.06"/>
  <circle cx="25" cy="73" r="8" stroke="rgb(128, 0, 128)" fill="rgb(128, 0, 128)" fill-opacity="0.83"/>
  <rect x="89" y="22" width="15" height="40" stroke="rgb(128, 0, 128)" fill="rgb(128, 0, 128)" fill-opacity="0.35"/>
  <circle cx="74" cy="29" r="8" stroke="rgb(128, 0, 128)" fill="rgb(128, 0, 128)" fill-opacity="0.44"/>
  <circle cx="69" cy="93" r="1" stroke="rgb(128, 0, 128)" fill="rgb(128, 0, 128)" fill-opacity="0.6"/>
  <circle cx="15" cy="46" r="5" stroke="rgb(128, 0, 128)" fill="rgb(128, 0, 128)" fill-opacity="0.52"/>
  <circle cx="66" cy="42" r="6" stroke="rgb(128, 0, 128)" fill="rgb(128, 0, 128)" fill-opacity="0.52"/>
  <circle cx="21" cy="3" r="8" stroke="rgb(128, 0, 128)" fill="rgb(128, 0, 128)" fill-opacity="0.63"/>
  <circle cx="62" cy="56" r="4" stroke="rgb(128, 0, 128)" fill="rgb(128, 0, 128)" fill-opacity="0.02"/>
  <rect x="3" y="12" width="4" height="13" stroke="rgb(128, 0, 128)" fill="rgb(128, 0, 128)" fill-opacity="0.33"/>
  <rect x="59" y="66" width="13" height="28" stroke="rgb(128, 0, 128)" fill="rgb(128, 0, 128)" fill-opacity="0.74"/>
  <circle cx="36" cy="100" r="5" stroke="rgb(128, 0, 128)" fill="rgb(128, 0, 128)" fill-opacity="0.05"/>
  <rect x="12" y="28" width="2" height="14" stroke="rgb(128, 0, 128)" fill="rgb(128, 0, 128)" fill-opacity="0.23"/>
  <circle cx="97" cy="4" r="3" stroke="rgb(128, 0, 128)" fill="rgb(128, 0, 128)" fill-opacity="1.0"/>
</svg>
