<?xml version="1.0" encoding="UTF-8" ?>
<!DOCTYPE svg PUBLIC "-//W3C//DTD SVG 1.1//EN" "http://www.w3.org/Graphics/SVG/1.1/DTD/svg11.dtd">
<svg width="100" height="100" xmlns="http://www.w3.org/2000/svg" version="1.1">
  <rect x="0" y="0" width="100" height="100" fill="rgb(102, 51, 153)" fill-opacity="0.39"/>
  <circle cx="85" cy="41" r="15" stroke="rgb(102, 51, 153)" fill="rgb(102, 51, 153)" fill-opacity="0.93"/>
  <rect x="14" y="70" width="32" height="15" stroke="rgb(102, 51, 153)" fill="rgb(102, 51, 153)" fill-opacity="0.74"/>
  <circle cx="47" cy="11" r="8" stroke="rgb(102, 51, 153)" fill="rgb(102, 51, 153)" fill-opacity="0.95"/>
  <rect x="58" y="84" width="28" height="23" stroke="rgb(102, 51, 153)" fill="rgb(102, 51, 153)" fill-opacity="0.05"/>
  <circle cx="42" cy="62" r="12" stroke="rgb(102, 51, 153)" fill="rgb(102, 51, 153)" fill-opacity="0.68"/>
  <rect x="93" y="70" width="38" height="9" stroke="rgb(102, 51, 153)" fill="rgb(102, 51, 153)" fill-opacity="1.0"/>
  <rect x="21" y="91" width="7" height="7" stroke="rgb(102, 51, 153)" fill="rgb(102, 51, 153)" fill-opacity="0.47"/>
  <circle cx="98" cy="4" r="7" stroke="rgb(102, 51, 153)" fill="rgb(102, 51, 153)" fill-opacity="0.01"/>
  <circle cx="98" cy="87" r="9" stroke="rgb(102, 51, 153)" fill="rgb(102, 51, 153)" fill-opacity="0.5600000000000001"/>
  <circle cx="88" cy="79" r="15" stroke="rgb(102, 51, 153)" fill="rgb(102, 51, 153)" fill-opacity="0.57"/>
  <rect x="74" y="48" width="0" height="3" stroke="rgb(102, 51, 153)" fill="rgb(102, 51, 153)" fill-opacity="0.14"/>
  <circle cx="40" cy="23" r="12" stroke="rgb(102, 51, 153)" fill="rgb(102, 51, 153)" fill-opacity="0.44"/>
  <circle cx="87" cy="90" r="3" stroke="rgb(102, 51, 153)" fill="rgb(102, 51, 153)" fill-opacity="0.1"/>
  <rect x="23" y="31" width="3" height="9" stroke="rgb(102, 51, 153)" fill="rgb(102, 51, 153)" fill-opacity="0.27"/>
  <rect x="50" y="96" width="21" height="9" stroke="rgb(102, 51, 153)" fill="rgb(102, 51, 153)" fill-opacity="0.12"/>
  <circle cx="66" cy="84" r="19" stroke="rgb(102, 51, 153)" fill="rgb(102, 51, 153)" fill-opacity="0.63"/>
  <circle cx="91" cy="1" r="11" stroke="rgb(102, 51, 153)" fill="rgb(102, 51, 153)" fill-opacity="0.2"/>
  <circle cx="84" cy="77" r="1" stroke="rgb(102, 51, 153)" fill="rgb(102, 51, 153)" fill-opacity="0.99"/>
  <rect x="56" y="46" width="21" height="31" stroke="rgb(102, 51, 153)" fill="rgb(102, 51, 153)" fill-opacity="0.77"/>
  <rect x="29" y="65" width="28" height="26" stroke="rgb(102, 51, 153)" fill="rgb(102, 51, 153)" fill-opacity="0.83"/>
  <rect x="55" y="97" width="1" height="21" stroke="rgb(102, 51, 153)" fill="rgb(102, 51, 153)" fill-opacity="0.59"/>
</svg>
