<?xml version="1.0" encoding="UTF-8" ?>
<!DOCTYPE svg PUBLIC "-//W3C//DTD SVG 1.1//EN" "http://www.w3.org/Graphics/SVG/1.1/DTD/svg11.dtd">
<svg width="100" height="100" xmlns="http://www.w3.org/2000/svg" version="1.1">
  <rect x="0" y="0" width="100" height="100" fill="rgb(255, 0, 0)" fill-opacity="0.41"/>
  <rect x="39" y="30" width="39" height="37" stroke="rgb(255, 0, 0)" fill="rgb(255, 0, 0)" fill-opacity="0.7"/>
  <circle cx="33" cy="70" r="10" stroke="rgb(255, 0, 0)" fill="rgb(255, 0, 0)" fill-opacity="0.05"/>
  <circle cx="85" cy="17" r="19" stroke="rgb(255, 0, 0)" fill="rgb(255, 0, 0)" fill-opacity="0.41"/>
  <rect x="92" y="82" width="34" height="19" stroke="rgb(255, 0, 0)" fill="rgb(255, 0, 0)" fill-opacity="0.57"/>
  <rect x="82" y="98" width="37" height="12" stroke="rgb(255, 0, 0)" fill="rgb(255, 0, 0)" fill-opacity="0.77"/>
  <circle cx="67" cy="4" r="7" stroke="rgb(255, 0, 0)" fill="rgb(255, 0, 0)" fill-opacity="0.16"/>
  <circle cx="43" cy="52" r="20" stroke="rgb(255, 0, 0)" fill="rgb(255, 0, 0)" fill-opacity="0.44"/>
  <circle cx="11" cy="1" r="0" stroke="rgb(255, 0, 0)" fill="rgb(255, 0, 0)" fill-opacity="0.7"/>
  <rect x="51" y="23" width="0" height="1" stroke="rgb(255, 0, 0)" fill="rgb(255, 0, 0)" fill-opacity="0.91"/>
  <rect x="60" y="21" width="10" height="3" stroke="rgb(255, 0, 0)" fill="rgb(255, 0, 0)" fill-opacity="0.99"/>
  <circle cx="68" cy="21" r="20" stroke="rgb(255, 0, 0)" fill="rgb(255, 0, 0)" fill-opacity="0.54"/>
  <circle cx="8" cy="10" r="10" stroke="rgb(255, 0, 0)" fill="rgb(255, 0, 0)" fill-opacity="0.72"/>
  <circle cx="75" cy="90" r="2" stroke="rgb(255, 0, 0)" fill="rgb(255, 0, 0)" fill-opacity="0.76"/>
  <circle cx="16" cy="40" r="7" stroke="rgb(255, 0, 0)" fill="rgb(255, 0, 0)" fill-opacity="0.66"/>
  <rect x="38" y="29" width="12" height="13" stroke="rgb(255, 0, 0)" fill="rgb(255, 0, 0)" fill-opacity="0.74"/>
  <rect x="71" y="94" width="1" height="12" stroke="rgb(255, 0, 0)" fill="rgb(255, 0, 0)" fill-opacity="0.57"/>
  <rect x="7" y="78" width="25" height="3" stroke="rgb(255, 0, 0)" fill="rgb(255, 0, 0)" fill-opacity="0.85"/>
  <rect x="54" y="17" width="24" height="26" stroke="rgb(255, 0, 0)" fill="rgb(255, 0, 0)" fill-opacity="0.02"/>
  <rect x="52" y="42" width="34" height="14" stroke="rgb(255, 0, 0)" fill="rgb(255, 0, 0)" fill-opacity="0.42"/>
  <circle cx="13" cy="64" r="16" stroke="rgb(255, 0, 0)" fill="rgb(255, 0, 0)" fill-opacity="0.48"/>
  <circle cx="100" cy="66" r="13" stroke="rgb(255, 0, 0)" fill="rgb(255, 0, 0)" fill-opacity="0.36"/>
</svg>
