<?xml version="1.0" encoding="UTF-8" ?>
<!DOCTYPE svg PUBLIC "-//W3C//DTD SVG 1.1//EN" "http://www.w3.org/Graphics/SVG/1.1/DTD/svg11.dtd">
<svg width="100" height="100" xmlns="http://www.w3.org/2000/svg" version="1.1">
  <rect x="0" y="0" width="100" height="100" fill="rgb(65, 105, 225)" fill-opacity="0.38"/>
  <rect x="80" y="36" width="17" height="3" stroke="rgb(65, 105, 225)" fill="rgb(65, 105, 225)" fill-opacity="0.66"/>
  <rect x="52" y="64" width="10" height="39" stroke="rgb(65, 105, 225)" fill="rgb(65, 105, 225)" fill-opacity="0.02"/>
  <circle cx="99" cy="56" r="11" stroke="rgb(65, 105, 225)" fill="rgb(65, 105, 225)" fill-opacity="0.64"/>
  <rect x="92" y="26" width="35" height="10" stroke="rgb(65, 105, 225)" fill="rgb(65, 105, 225)" fill-opacity="0.95"/>
  <circle cx="45" cy="59" r="17" stroke="rgb(65, 105, 225)" fill="rgb(65, 105, 225)" fill-opacity="0.33"/>
  <rect x="62" y="44" width="35" height="18" stroke="rgb(65, 105, 225)" fill="rgb(65, 105, 225)" fill-opacity="0.67"/>
  <rect x="88" y="93" width="17" height="22" stroke="rgb(65, 105, 225)" fill="rgb(65, 105, 225)" fill-opacity="0.6"/>
  <circle cx="80" cy="88" r="4" stroke="rgb(65, 105, 225)" fill="rgb(65, 105, 225)" fill-opacity="0.92"/>
  <circle cx="57" cy="33" r="14" stroke="rgb(65, 105, 225)" fill="rgb(65, 105, 225)" fill-opacity="0.66"/>
  <rect x="9" y="62" width="26" height="23" stroke="rgb(65, 105, 225)" fill="rgb(65, 105, 225)" fill-opacity="0.8100000000000001"/>
  <rect x="70" y="99" width="28" height="0" stroke="rgb(65, 105, 225)" fill="rgb(65, 105, 225)" fill-opacity="0.97"/>
  <circle cx="95" cy="99" r="4" stroke="rgb(65, 105, 225)" fill="rgb(65, 105, 225)" fill-opacity="0.65"/>
  <circle cx="97" cy="77" r="13" stroke="rgb(65, 105, 225)" fill="rgb(65, 105, 225)" fill-opacity="0.45"/>
  <circle cx="92" cy="53" r="12" stroke="rgb(65, 105, 225)" fill="rgb(65, 105, 225)" fill-opacity="0.08"/>
  <circle cx="26" cy="7" r="7" stroke="rgb(65, 105, 225)" fill="rgb(65, 105, 225)" fill-opacity="0.34"/>
  <circle cx="58" cy="43" r="14" stroke="rgb(65, 105, 225)" fill="rgb(65, 105, 225)" fill-opacity="0.72"/>
  <circle cx="17" cy="53" r="5" stroke="rgb(65, 105, 225)" fill="rgb(65, 105, 225)" fill-opacity="0.37"/>
  <rect x="63" y="2" width="15" height="20" stroke="rgb(65, 105, 225)" fill="rgb(65, 105, 225)" fill-opacity="0.32"/>
  <circle cx="48" cy="1" r="17" stroke="rgb(65, 105, 225)" fill="rgb(65, 105, 225)" fill-opacity="0.99"/>
  <circle cx="92" cy="67" r="4" stroke="rgb(65, 105, 225)" fill="rgb(65, 105, 225)" fill-opacity="0.48"/>
  <circle cx="73" cy="67" r="2" stroke="rgb(65, 105, 225)" fill="rgb(65, 105, 225)" fill-opacity="0.05"/>
</svg>
