<?xml version="1.0" encoding="UTF-8" ?>
<!DOCTYPE svg PUBLIC "-//W3C//DTD SVG 1.1//EN" "http://www.w3.org/Graphics/SVG/1.1/DTD/svg11.dtd">
<svg width="100" height="100" xmlns="http://www.w3.org/2000/svg" version="1.1">
  <rect x="0" y="0" width="100" height="100" fill="rgb(139, 69, 19)" fill-opacity="0.3"/>
  <circle cx="91" cy="21" r="1" stroke="rgb(139, 69, 19)" fill="rgb(139, 69, 19)" fill-opacity="0.88"/>
  <rect x="40" y="97" width="30" height="29" stroke="rgb(139, 69, 19)" fill="rgb(139, 69, 19)" fill-opacity="0.25"/>
  <rect x="85" y="51" width="12" height="26" stroke="rgb(139, 69, 19)" fill="rgb(139, 69, 19)" fill-opacity="0.24"/>
  <rect x="21" y="5" width="2" height="12" stroke="rgb(139, 69, 19)" fill="rgb(139, 69, 19)" fill-opacity="0.2"/>
  <circle cx="51" cy="94" r="6" stroke="rgb(139, 69, 19)" fill="rgb(139, 69, 19)" fill-opacity="0.87"/>
  <circle cx="90" cy="58" r="19" stroke="rgb(139, 69, 19)" fill="rgb(139, 69, 19)" fill-opacity="0.63"/>
  <rect x="26" y="13" width="3" height="12" stroke="rgb(139, 69, 19)" fill="rgb(139, 69, 19)" fill-opacity="0.42"/>
  <rect x="72" y="75" width="40" height="6" stroke="rgb(139, 69, 19)" fill="rgb(139, 69, 19)" fill-opacity="0.25"/>
  <rect x="55" y="27" width="33" height="5" stroke="rgb(139, 69, 19)" fill="rgb(139, 69, 19)" fill-opacity="0.9"/>
  <circle cx="82" cy="49" r="7" stroke="rgb(139, 69, 19)" fill="rgb(139, 69, 19)" fill-opacity="0.7"/>
  <rect x="100" y="56" width="24" height="31" stroke="rgb(139, 69, 19)" fill="rgb(139, 69, 19)" fill-opacity="0.14"/>
  <circle cx="13" cy="41" r="17" stroke="rgb(139, 69, 19)" fill="rgb(139, 69, 19)" fill-opacity="0.26"/>
  <circle cx="94" cy="72" r="16" stroke="rgb(139, 69, 19)" fill="rgb(139, 69, 19)" fill-opacity="0.67"/>
  <circle cx="50" cy="86" r="9" stroke="rgb(139, 69, 19)" fill="rgb(139, 69, 19)" fill-opacity="0.89"/>
  <rect x="1" y="71" width="17" height="15" stroke="rgb(139, 69, 19)" fill="rgb(139, 69, 19)" fill-opacity="0.02"/>
  <circle cx="96" cy="96" r="11" stroke="rgb(139, 69, 19)" fill="rgb(139, 69, 19)" fill-opacity="0.8100000000000001"/>
  <rect x="34" y="9" width="14" height="26" stroke="rgb(139, 69, 19)" fill="rgb(139, 69, 19)" fill-opacity="0.43"/>
  <rect x="89" y="14" width="18" height="22" stroke="rgb(139, 69, 19)" fill="rgb(139, 69, 19)" fill-opacity="0.49"/>
  <circle cx="37" cy="76" r="7" stroke="rgb(139, 69, 19)" fill="rgb(139, 69, 19)" fill-opacity="0.86"/>
  <circle cx="33" cy="40" r="19" stroke="rgb(139, 69, 19)" fill="rgb(139, 69, 19)" fill-opacity="0.71"/>
  <rect x="46" y="82" width="40" height="31" stroke="rgb(139, 69, 19)" fill="rgb(139, 69, 19)" fill-opacity="0.66"/>
</svg>
