<?xml version="1.0" encoding="UTF-8" ?>
<!DOCTYPE svg PUBLIC "-//W3C//DTD SVG 1.1//EN" "http://www.w3.org/Graphics/SVG/1.1/DTD/svg11.dtd">
<svg width="100" height="100" xmlns="http://www.w3.org/2000/svg" version="1.1">
  <rect x="0" y="0" width="100" height="100" fill="rgb(250, 128, 114)" fill-opacity="0.2"/>
  <circle cx="60" cy="37" r="11" stroke="rgb(250, 128, 114)" fill="rgb(250, 128, 114)" fill-opacity="0.86"/>
  <rect x="75" y="60" width="11" height="2" stroke="rgb(250, 128, 114)" fill="rgb(250, 128, 114)" fill-opacity="0.82"/>
  <rect x="84" y="22" width="26" height="33" stroke="rgb(250, 128, 114)" fill="rgb(250, 128, 114)" fill-opacity="0.58"/>
  <circle cx="96" cy="53" r="7" stroke="rgb(250, 128, 114)" fill="rgb(250, 128, 114)" fill-opacity="0.17"/>
  <circle cx="20" cy="27" r="17" stroke="rgb(250, 128, 114)" fill="rgb(250, 128, 114)" fill-opacity="0.8"/>
  <rect x="77" y="83" width="26" height="18" stroke="rgb(250, 128, 114)" fill="rgb(250, 128, 114)" fill-opacity="0.49"/>
  <rect x="63" y="95" width="27" height="28" stroke="rgb(250, 128, 114)" fill="rgb(250, 128, 114)" fill-opacity="0.99"/>
  <rect x="53" y="98" width="26" height="1" stroke="rgb(250, 128, 114)" fill="rgb(250, 128, 114)" fill-opacity="0.22"/>
  <rect x="42" y="44" width="26" height="24" stroke="rgb(250, 128, 114)" fill="rgb(250, 128, 114)" fill-opacity="0.58"/>
  <circle cx="16" cy="37" r="16" stroke="rgb(250, 128, 114)" fill="rgb(250, 128, 114)" fill-opacity="0.99"/>
  <circle cx="35" cy="67" r="2" stroke="rgb(250, 128, 114)" fill="rgb(250, 128, 114)" fill-opacity="0.13"/>
  <rect x="41" y="73" width="37" height="21" stroke="rgb(250, 128, 114)" fill="rgb(250, 128, 114)" fill-opacity="0.93"/>
  <rect x="56" y="63" width="8" height="18" stroke="rgb(250, 128, 114)" fill="rgb(250, 128, 114)" fill-opacity="0.99"/>
  <rect x="45" y="80" width="28" height="31" stroke="rgb(250, 128, 114)" fill="rgb(250, 128, 114)" fill-opacity="0.46"/>
  <circle cx="29" cy="90" r="5" stroke="rgb(250, 128, 114)" fill="rgb(250, 128, 114)" fill-opacity="0.11"/>
  <rect x="52" y="65" width="3" height="15" stroke="rgb(250, 128, 114)" fill="rgb(250, 128, 114)" fill-opacity="0.13"/>
  <circle cx="49" cy="6" r="9" stroke="rgb(250, 128, 114)" fill="rgb(250, 128, 114)" fill-opacity="0.87"/>
  <rect x="44" y="33" width="24" height="20" stroke="rgb(250, 128, 114)" fill="rgb(250, 128, 114)" fill-opacity="0.83"/>
  <rect x="38" y="20" width="31" height="16" stroke="rgb(250, 128, 114)" fill="rgb(250, 128, 114)" fill-opacity="0.22"/>
  <circle cx="93" cy="93" r="16" stroke="rgb(250, 128, 114)" fill="rgb(250, 128, 114)" fill-opacity="0.04"/>
  <rect x="28" y="35" width="31" height="31" stroke="rgb(250, 128, 114)" fill="rgb(250, 128, 114)" fill-opacity="0.1"/>
</svg>
