<?xml version="1.0" encoding="UTF-8" ?>
<!DOCTYPE svg PUBLIC "-//W3C//DTD SVG 1.1//EN" "http://www.w3.org/Graphics/SVG/1.1/DTD/svg11.dtd">
<svg width="100" height="100" xmlns="http://www.w3.org/2000/svg" version="1.1">
  <rect x="0" y="0" width="100" height="100" fill="rgb(244, 164, 96)" fill-opacity="0.2"/>
  <circle cx="86" cy="9" r="15" stroke="rgb(244, 164, 96)" fill="rgb(244, 164, 96)" fill-opacity="0.09"/>
  <rect x="4" y="31" width="33" height="30" stroke="rgb(244, 164, 96)" fill="rgb(244, 164, 96)" fill-opacity="0.82"/>
  <rect x="33" y="59" width="14" height="13" stroke="rgb(244, 164, 96)" fill="rgb(244, 164, 96)" fill-opacity="0.38"/>
  <circle cx="62" cy="46" r="0" stroke="rgb(244, 164, 96)" fill="rgb(244, 164, 96)" fill-opacity="0.6"/>
  <circle cx="81" cy="5" r="12" stroke="rgb(244, 164, 96)" fill="rgb(244, 164, 96)" fill-opacity="1.0"/>
  <circle cx="72" cy="10" r="9" stroke="rgb(244, 164, 96)" fill="rgb(244, 164, 96)" fill-opacity="0.55"/>
  <rect x="76" y="85" width="14" height="24" stroke="rgb(244, 164, 96)" fill="rgb(244, 164, 96)" fill-opacity="0.25"/>
  <circle cx="7" cy="70" r="2" stroke="rgb(244, 164, 96)" fill="rgb(244, 164, 96)" fill-opacity="0.76"/>
  <circle cx="44" cy="95" r="10" stroke="rgb(244, 164, 96)" fill="rgb(244, 164, 96)" fill-opacity="0.4"/>
  <circle cx="53" cy="1" r="14" stroke="rgb(244, 164, 96)" fill="rgb(244, 164, 96)" fill-opacity="0.48"/>
  <circle cx="16" cy="61" r="20" stroke="rgb(244, 164, 96)" fill="rgb(244, 164, 96)" fill-opacity="1.0"/>
  <rect x="41" y="10" width="11" height="22" stroke="rgb(244, 164, 96)" fill="rgb(244, 164, 96)" fill-opacity="0.14"/>
  <rect x="92" y="46" width="23" height="36" stroke="rgb(244, 164, 96)" fill="rgb(244, 164, 96)" fill-opacity="0.9399999999999999"/>
  <rect x="28" y="11" width="3" height="37" stroke="rgb(244, 164, 96)" fill="rgb(244, 164, 96)" fill-opacity="0.08"/>
  <rect x="40" y="91" width="23" height="34" stroke="rgb(244, 164, 96)" fill="rgb(244, 164, 96)" fill-opacity="0.76"/>
  <circle cx="96" cy="68" r="12" stroke="rgb(244, 164, 96)" fill="rgb(244, 164, 96)" fill-opacity="0.65"/>
  <rect x="62" y="75" width="34" height="30" stroke="rgb(244, 164, 96)" fill="rgb(244, 164, 96)" fill-opacity="0.91"/>
  <rect x="46" y="65" width="34" height="2" stroke="rgb(244, 164, 96)" fill="rgb(244, 164, 96)" fill-opacity="0.95"/>
  <circle cx="57" cy="98" r="8" stroke="rgb(244, 164, 96)" fill="rgb(244, 164, 96)" fill-opacity="0.48"/>
  <circle cx="68" cy="100" r="1" stroke="rgb(244, 164, 96)" fill="rgb(244, 164, 96)" fill-opacity="0.46"/>
  <rect x="74" y="33" width="18" height="8" stroke="rgb(244, 164, 96)" fill="rgb(244, 164, 96)" fill-opacity="0.8"/>
</svg>
