<?xml version="1.0" encoding="UTF-8" ?>
<!DOCTYPE svg PUBLIC "-//W3C//DTD SVG 1.1//EN" "http://www.w3.org/Graphics/SVG/1.1/DTD/svg11.dtd">
<svg width="100" height="100" xmlns="http://www.w3.org/2000/svg" version="1.1">
  <rect x="0" y="0" width="100" height="100" fill="rgb(255, 245, 238)" fill-opacity="0.07000000000000001"/>
  <rect x="15" y="87" width="3" height="21" stroke="rgb(255, 245, 238)" fill="rgb(255, 245, 238)" fill-opacity="0.76"/>
  <circle cx="3" cy="91" r="6" stroke="rgb(255, 245, 238)" fill="rgb(255, 245, 238)" fill-opacity="0.88"/>
  <rect x="22" y="5" width="12" height="27" stroke="rgb(255, 245, 238)" fill="rgb(255, 245, 238)" fill-opacity="0.51"/>
  <rect x="19" y="67" width="40" height="15" stroke="rgb(255, 245, 238)" fill="rgb(255, 245, 238)" fill-opacity="0.28"/>
  <rect x="85" y="76" width="30" height="6" stroke="rgb(255, 245, 238)" fill="rgb(255, 245, 238)" fill-opacity="0.29"/>
  <circle cx="12" cy="32" r="6" stroke="rgb(255, 245, 238)" fill="rgb(255, 245, 238)" fill-opacity="0.84"/>
  <rect x="31" y="4" width="34" height="20" stroke="rgb(255, 245, 238)" fill="rgb(255, 245, 238)" fill-opacity="0.25"/>
  <rect x="66" y="75" width="23" height="30" stroke="rgb(255, 245, 238)" fill="rgb(255, 245, 238)" fill-opacity="0.55"/>
  <circle cx="98" cy="32" r="2" stroke="rgb(255, 245, 238)" fill="rgb(255, 245, 238)" fill-opacity="0.83"/>
  <rect x="15" y="100" width="34" height="20" stroke="rgb(255, 245, 238)" fill="rgb(255, 245, 238)" fill-opacity="0.45"/>
  <rect x="57" y="69" width="4" height="19" stroke="rgb(255, 245, 238)" fill="rgb(255, 245, 238)" fill-opacity="0.25"/>
  <circle cx="39" cy="62" r="14" stroke="rgb(255, 245, 238)" fill="rgb(255, 245, 238)" fill-opacity="0.2"/>
  <circle cx="46" cy="65" r="14" stroke="rgb(255, 245, 238)" fill="rgb(255, 245, 238)" fill-opacity="0.61"/>
  <rect x="27" y="53" width="1" height="39" stroke="rgb(255, 245, 238)" fill="rgb(255, 245, 238)" fill-opacity="0.61"/>
  <circle cx="49" cy="10" r="11" stroke="rgb(255, 245, 238)" fill="rgb(255, 245, 238)" fill-opacity="0.5600000000000001"/>
  <circle cx="79" cy="55" r="3" stroke="rgb(255, 245, 238)" fill="rgb(255, 245, 238)" fill-opacity="0.61"/>
  <circle cx="21" cy="46" r="6" stroke="rgb(255, 245, 238)" fill="rgb(255, 245, 238)" fill-opacity="0.42"/>
  <circle cx="88" cy="68" r="6" stroke="rgb(255, 245, 238)" fill="rgb(255, 245, 238)" fill-opacity="0.0"/>
  <circle cx="41" cy="19" r="13" stroke="rgb(255, 245, 238)" fill="rgb(255, 245, 238)" fill-opacity="0.85"/>
  <rect x="38" y="11" width="30" height="32" stroke="rgb(255, 245, 238)" fill="rgb(255, 245, 238)" fill-opacity="0.05"/>
  <circle cx="3" cy="24" r="20" stroke="rgb(255, 245, 238)" fill="rgb(255, 245, 238)" fill-opacity="0.79"/>
</svg>
