<?xml version="1.0" encoding="UTF-8" ?>
<!DOCTYPE svg PUBLIC "-//W3C//DTD SVG 1.1//EN" "http://www.w3.org/Graphics/SVG/1.1/DTD/svg11.dtd">
<svg width="100" height="100" xmlns="http://www.w3.org/2000/svg" version="1.1">
  <rect x="0" y="0" width="100" height="100" fill="rgb(135, 206, 235)" fill-opacity="0.05"/>
  <rect x="82" y="54" width="32" height="30" stroke="rgb(135, 206, 235)" fill="rgb(135, 206, 235)" fill-opacity="0.13"/>
  <circle cx="47" cy="4" r="18" stroke="rgb(135, 206, 235)" fill="rgb(135, 206, 235)" fill-opacity="0.25"/>
  <rect x="24" y="24" width="38" height="18" stroke="rgb(135, 206, 235)" fill="rgb(135, 206, 235)" fill-opacity="0.61"/>
  <rect x="15" y="78" width="5" height="9" stroke="rgb(135, 206, 235)" fill="rgb(135, 206, 235)" fill-opacity="0.11"/>
  <rect x="28" y="68" width="1" height="14" stroke="rgb(135, 206, 235)" fill="rgb(135, 206, 235)" fill-opacity="0.34"/>
  <circle cx="27" cy="46" r="3" stroke="rgb(135, 206, 235)" fill="rgb(135, 206, 235)" fill-opacity="0.9399999999999999"/>
  <rect x="14" y="79" width="26" height="19" stroke="rgb(135, 206, 235)" fill="rgb(135, 206, 235)" fill-opacity="0.38"/>
  <circle cx="90" cy="34" r="18" stroke="rgb(135, 206, 235)" fill="rgb(135, 206, 235)" fill-opacity="0.3"/>
  <circle cx="7" cy="61" r="2" stroke="rgb(135, 206, 235)" fill="rgb(135, 206, 235)" fill-opacity="0.28"/>
  <circle cx="23" cy="39" r="13" stroke="rgb(135, 206, 235)" fill="rgb(135, 206, 235)" fill-opacity="0.88"/>
  <circle cx="10" cy="70" r="14" stroke="rgb(135, 206, 235)" fill="rgb(135, 206, 235)" fill-opacity="0.42"/>
  <circle cx="79" cy="19" r="9" stroke="rgb(135, 206, 235)" fill="rgb(135, 206, 235)" fill-opacity="0.5600000000000001"/>
  <rect x="60" y="51" width="31" height="24" stroke="rgb(135, 206, 235)" fill="rgb(135, 206, 235)" fill-opacity="0.2"/>
  <rect x="3" y="10" width="24" height="16" stroke="rgb(135, 206, 235)" fill="rgb(135, 206, 235)" fill-opacity="0.29"/>
  <circle cx="16" cy="100" r="12" stroke="rgb(135, 206, 235)" fill="rgb(135, 206, 235)" fill-opacity="0.82"/>
  <circle cx="52" cy="12" r="6" stroke="rgb(135, 206, 235)" fill="rgb(135, 206, 235)" fill-opacity="0.2"/>
  <circle cx="19" cy="69" r="10" stroke="rgb(135, 206, 235)" fill="rgb(135, 206, 235)" fill-opacity="0.76"/>
  <circle cx="8" cy="84" r="2" stroke="rgb(135, 206, 235)" fill="rgb(135, 206, 235)" fill-opacity="0.1"/>
  <rect x="44" y="76" width="21" height="39" stroke="rgb(135, 206, 235)" fill="rgb(135, 206, 235)" fill-opacity="0.15"/>
  <rect x="51" y="28" width="1" height="9" stroke="rgb(135, 206, 235)" fill="rgb(135, 206, 235)" fill-opacity="0.21"/>
  <circle cx="70" cy="56" r="8" stroke="rgb(135, 206, 235)" fill="rgb(135, 206, 235)" fill-opacity="0.13"/>
</svg>
