<?xml version="1.0" encoding="UTF-8" ?>
<!DOCTYPE svg PUBLIC "-//W3C//DTD SVG 1.1//EN" "http://www.w3.org/Graphics/SVG/1.1/DTD/svg11.dtd">
<svg width="100" height="100" xmlns="http://www.w3.org/2000/svg" version="1.1">
  <rect x="0" y="0" width="100" height="100" fill="rgb(112, 128, 144)" fill-opacity="0.24"/>
  <rect x="68" y="50" width="35" height="25" stroke="rgb(112, 128, 144)" fill="rgb(112, 128, 144)" fill-opacity="0.83"/>
  <circle cx="72" cy="91" r="6" stroke="rgb(112, 128, 144)" fill="rgb(112, 128, 144)" fill-opacity="0.78"/>
  <circle cx="54" cy="98" r="10" stroke="rgb(112, 128, 144)" fill="rgb(112, 128, 144)" fill-opacity="0.32"/>
  <circle cx="10" cy="54" r="7" stroke="rgb(112, 128, 144)" fill="rgb(112, 128, 144)" fill-opacity="0.29"/>
  <circle cx="88" cy="59" r="4" stroke="rgb(112, 128, 144)" fill="rgb(112, 128, 144)" fill-opacity="0.83"/>
  <rect x="28" y="79" width="19" height="29" stroke="rgb(112, 128, 144)" fill="rgb(112, 128, 144)" fill-opacity="0.95"/>
  <rect x="76" y="22" width="37" height="10" stroke="rgb(112, 128, 144)" fill="rgb(112, 128, 144)" fill-opacity="0.31"/>
  <rect x="92" y="84" width="25" height="36" stroke="rgb(112, 128, 144)" fill="rgb(112, 128, 144)" fill-opacity="0.93"/>
  <rect x="26" y="33" width="35" height="9" stroke="rgb(112, 128, 144)" fill="rgb(112, 128, 144)" fill-opacity="0.89"/>
  <circle cx="96" cy="95" r="0" stroke="rgb(112, 128, 144)" fill="rgb(112, 128, 144)" fill-opacity="0.57"/>
  <rect x="76" y="87" width="19" height="18" stroke="rgb(112, 128, 144)" fill="rgb(112, 128, 144)" fill-opacity="0.24"/>
  <circle cx="24" cy="76" r="12" stroke="rgb(112, 128, 144)" fill="rgb(112, 128, 144)" fill-opacity="0.93"/>
  <rect x="68" y="70" width="16" height="19" stroke="rgb(112, 128, 144)" fill="rgb(112, 128, 144)" fill-opacity="0.51"/>
  <rect x="33" y="46" width="16" height="7" stroke="rgb(112, 128, 144)" fill="rgb(112, 128, 144)" fill-opacity="0.01"/>
  <rect x="28" y="78" width="24" height="23" stroke="rgb(112, 128, 144)" fill="rgb(112, 128, 144)" fill-opacity="0.71"/>
  <rect x="58" y="48" width="18" height="18" stroke="rgb(112, 128, 144)" fill="rgb(112, 128, 144)" fill-opacity="0.28"/>
  <circle cx="20" cy="50" r="15" stroke="rgb(112, 128, 144)" fill="rgb(112, 128, 144)" fill-opacity="0.9399999999999999"/>
  <rect x="4" y="88" width="9" height="17" stroke="rgb(112, 128, 144)" fill="rgb(112, 128, 144)" fill-opacity="0.77"/>
  <rect x="9" y="72" width="13" height="7" stroke="rgb(112, 128, 144)" fill="rgb(112, 128, 144)" fill-opacity="0.8100000000000001"/>
  <rect x="85" y="33" width="8" height="30" stroke="rgb(112, 128, 144)" fill="rgb(112, 128, 144)" fill-opacity="0.05"/>
  <rect x="54" y="72" width="27" height="3" stroke="rgb(112, 128, 144)" fill="rgb(112, 128, 144)" fill-opacity="0.39"/>
</svg>
