<?xml version="1.0" encoding="UTF-8" ?>
<!DOCTYPE svg PUBLIC "-//W3C//DTD SVG 1.1//EN" "http://www.w3.org/Graphics/SVG/1.1/DTD/svg11.dtd">
<svg width="100" height="100" xmlns="http://www.w3.org/2000/svg" version="1.1">
  <rect x="0" y="0" width="100" height="100" fill="rgb(112, 128, 144)" fill-opacity="0.23"/>
  <circle cx="52" cy="9" r="1" stroke="rgb(112, 128, 144)" fill="rgb(112, 128, 144)" fill-opacity="0.37"/>
  <rect x="78" y="19" width="33" height="23" stroke="rgb(112, 128, 144)" fill="rgb(112, 128, 144)" fill-opacity="0.68"/>
  <circle cx="36" cy="47" r="16" stroke="rgb(112, 128, 144)" fill="rgb(112, 128, 144)" fill-opacity="0.79"/>
  <rect x="30" y="14" width="2" height="20" stroke="rgb(112, 128, 144)" fill="rgb(112, 128, 144)" fill-opacity="0.13"/>
  <rect x="30" y="13" width="23" height="13" stroke="rgb(112, 128, 144)" fill="rgb(112, 128, 144)" fill-opacity="1.0"/>
  <rect x="43" y="58" width="20" height="39" stroke="rgb(112, 128, 144)" fill="rgb(112, 128, 144)" fill-opacity="0.59"/>
  <rect x="46" y="30" width="21" height="21" stroke="rgb(112, 128, 144)" fill="rgb(112, 128, 144)" fill-opacity="0.29"/>
  <circle cx="68" cy="11" r="2" stroke="rgb(112, 128, 144)" fill="rgb(112, 128, 144)" fill-opacity="0.33"/>
  <circle cx="82" cy="76" r="1" stroke="rgb(112, 128, 144)" fill="rgb(112, 128, 144)" fill-opacity="0.01"/>
  <rect x="34" y="42" width="32" height="35" stroke="rgb(112, 128, 144)" fill="rgb(112, 128, 144)" fill-opacity="0.5"/>
  <rect x="49" y="23" width="15" height="40" stroke="rgb(112, 128, 144)" fill="rgb(112, 128, 144)" fill-opacity="0.41"/>
  <rect x="2" y="17" width="33" height="15" stroke="rgb(112, 128, 144)" fill="rgb(112, 128, 144)" fill-opacity="0.06"/>
  <rect x="89" y="8" width="24" height="17" stroke="rgb(112, 128, 144)" fill="rgb(112, 128, 144)" fill-opacity="0.53"/>
  <rect x="24" y="7" width="23" height="6" stroke="rgb(112, 128, 144)" fill="rgb(112, 128, 144)" fill-opacity="0.36"/>
  <rect x="93" y="29" width="21" height="23" stroke="rgb(112, 128, 144)" fill="rgb(112, 128, 144)" fill-opacity="0.91"/>
  <circle cx="94" cy="50" r="12" stroke="rgb(112, 128, 144)" fill="rgb(112, 128, 144)" fill-opacity="0.83"/>
  <rect x="92" y="91" width="4" height="29" stroke="rgb(112, 128, 144)" fill="rgb(112, 128, 144)" fill-opacity="1.0"/>
  <rect x="25" y="22" width="20" height="23" stroke="rgb(112, 128, 144)" fill="rgb(112, 128, 144)" fill-opacity="0.06"/>
  <circle cx="9" cy="48" r="20" stroke="rgb(112, 128, 144)" fill="rgb(112, 128, 144)" fill-opacity="0.87"/>
  <rect x="1" y="41" width="28" height="2" stroke="rgb(112, 128, 144)" fill="rgb(112, 128, 144)" fill-opacity="0.92"/>
  <rect x="25" y="71" width="30" height="30" stroke="rgb(112, 128, 144)" fill="rgb(112, 128, 144)" fill-opacity="0.73"/>
</svg>
