<?xml version="1.0" encoding="UTF-8" ?>
<!DOCTYPE svg PUBLIC "-//W3C//DTD SVG 1.1//EN" "http://www.w3.org/Graphics/SVG/1.1/DTD/svg11.dtd">
<svg width="100" height="100" xmlns="http://www.w3.org/2000/svg" version="1.1">
  <rect x="0" y="0" width="100" height="100" fill="rgb(255, 250, 250)" fill-opacity="0.07000000000000001"/>
  <rect x="81" y="30" width="11" height="6" stroke="rgb(255, 250, 250)" fill="rgb(255, 250, 250)" fill-opacity="0.38"/>
  <circle cx="42" cy="55" r="15" stroke="rgb(255, 250, 250)" fill="rgb(255, 250, 250)" fill-opacity="0.01"/>
  <rect x="38" y="11" width="9" height="22" stroke="rgb(255, 250, 250)" fill="rgb(255, 250, 250)" fill-opacity="0.11"/>
  <rect x="96" y="69" width="8" height="33" stroke="rgb(255, 250, 250)" fill="rgb(255, 250, 250)" fill-opacity="0.96"/>
  <rect x="75" y="88" width="9" height="27" stroke="rgb(255, 250, 250)" fill="rgb(255, 250, 250)" fill-opacity="0.55"/>
  <circle cx="41" cy="21" r="13" stroke="rgb(255, 250, 250)" fill="rgb(255, 250, 250)" fill-opacity="0.6"/>
  <circle cx="25" cy="19" r="18" stroke="rgb(255, 250, 250)" fill="rgb(255, 250, 250)" fill-opacity="0.4"/>
  <circle cx="95" cy="52" r="7" stroke="rgb(255, 250, 250)" fill="rgb(255, 250, 250)" fill-opacity="0.27"/>
  <circle cx="73" cy="4" r="0" stroke="rgb(255, 250, 250)" fill="rgb(255, 250, 250)" fill-opacity="0.55"/>
  <rect x="50" y="26" width="2" height="9" stroke="rgb(255, 250, 250)" fill="rgb(255, 250, 250)" fill-opacity="0.27"/>
  <rect x="26" y="29" width="17" height="38" stroke="rgb(255, 250, 250)" fill="rgb(255, 250, 250)" fill-opacity="0.24"/>
  <circle cx="22" cy="70" r="1" stroke="rgb(255, 250, 250)" fill="rgb(255, 250, 250)" fill-opacity="0.88"/>
  <circle cx="22" cy="42" r="7" stroke="rgb(255, 250, 250)" fill="rgb(255, 250, 250)" fill-opacity="0.68"/>
  <circle cx="41" cy="27" r="5" stroke="rgb(255, 250, 250)" fill="rgb(255, 250, 250)" fill-opacity="0.43"/>
  <circle cx="15" cy="72" r="6" stroke="rgb(255, 250, 250)" fill="rgb(255, 250, 250)" fill-opacity="0.74"/>
  <rect x="38" y="100" width="8" height="10" stroke="rgb(255, 250, 250)" fill="rgb(255, 250, 250)" fill-opacity="0.11"/>
  <rect x="9" y="66" width="4" height="16" stroke="rgb(255, 250, 250)" fill="rgb(255, 250, 250)" fill-opacity="0.08"/>
  <circle cx="52" cy="99" r="13" stroke="rgb(255, 250, 250)" fill="rgb(255, 250, 250)" fill-opacity="0.6899999999999999"/>
  <rect x="59" y="72" width="38" height="7" stroke="rgb(255, 250, 250)" fill="rgb(255, 250, 250)" fill-opacity="0.36"/>
  <rect x="34" y="51" width="20" height="40" stroke="rgb(255, 250, 250)" fill="rgb(255, 250, 250)" fill-opacity="0.96"/>
  <rect x="22" y="96" width="4" height="3" stroke="rgb(255, 250, 250)" fill="rgb(255, 250, 250)" fill-opacity="1.0"/>
</svg>
