<?xml version="1.0" encoding="UTF-8" ?>
<!DOCTYPE svg PUBLIC "-//W3C//DTD SVG 1.1//EN" "http://www.w3.org/Graphics/SVG/1.1/DTD/svg11.dtd">
<svg width="100" height="100" xmlns="http://www.w3.org/2000/svg" version="1.1">
  <rect x="0" y="0" width="100" height="100" fill="rgb(0, 255, 127)" fill-opacity="0.06"/>
  <rect x="52" y="89" width="9" height="7" stroke="rgb(0, 255, 127)" fill="rgb(0, 255, 127)" fill-opacity="0.74"/>
  <circle cx="53" cy="42" r="13" stroke="rgb(0, 255, 127)" fill="rgb(0, 255, 127)" fill-opacity="0.16"/>
  <circle cx="80" cy="45" r="1" stroke="rgb(0, 255, 127)" fill="rgb(0, 255, 127)" fill-opacity="0.09"/>
  <circle cx="53" cy="27" r="14" stroke="rgb(0, 255, 127)" fill="rgb(0, 255, 127)" fill-opacity="0.64"/>
  <circle cx="9" cy="56" r="11" stroke="rgb(0, 255, 127)" fill="rgb(0, 255, 127)" fill-opacity="1.0"/>
  <rect x="91" y="98" width="16" height="21" stroke="rgb(0, 255, 127)" fill="rgb(0, 255, 127)" fill-opacity="0.49"/>
  <rect x="9" y="35" width="12" height="21" stroke="rgb(0, 255, 127)" fill="rgb(0, 255, 127)" fill-opacity="0.45"/>
  <circle cx="23" cy="91" r="5" stroke="rgb(0, 255, 127)" fill="rgb(0, 255, 127)" fill-opacity="0.33"/>
  <rect x="66" y="75" width="32" height="23" stroke="rgb(0, 255, 127)" fill="rgb(0, 255, 127)" fill-opacity="0.6899999999999999"/>
  <circle cx="31" cy="54" r="0" stroke="rgb(0, 255, 127)" fill="rgb(0, 255, 127)" fill-opacity="0.37"/>
  <circle cx="59" cy="68" r="9" stroke="rgb(0, 255, 127)" fill="rgb(0, 255, 127)" fill-opacity="0.04"/>
  <circle cx="45" cy="49" r="8" stroke="rgb(0, 255, 127)" fill="rgb(0, 255, 127)" fill-opacity="0.2"/>
  <circle cx="38" cy="6" r="17" stroke="rgb(0, 255, 127)" fill="rgb(0, 255, 127)" fill-opacity="0.83"/>
  <rect x="59" y="86" width="7" height="17" stroke="rgb(0, 255, 127)" fill="rgb(0, 255, 127)" fill-opacity="0.32"/>
  <rect x="6" y="73" width="30" height="17" stroke="rgb(0, 255, 127)" fill="rgb(0, 255, 127)" fill-opacity="0.7"/>
  <circle cx="41" cy="19" r="4" stroke="rgb(0, 255, 127)" fill="rgb(0, 255, 127)" fill-opacity="0.73"/>
  <circle cx="51" cy="48" r="7" stroke="rgb(0, 255, 127)" fill="rgb(0, 255, 127)" fill-opacity="0.84"/>
  <circle cx="69" cy="24" r="20" stroke="rgb(0, 255, 127)" fill="rgb(0, 255, 127)" fill-opacity="0.86"/>
  <rect x="1" y="92" width="18" height="39" stroke="rgb(0, 255, 127)" fill="rgb(0, 255, 127)" fill-opacity="0.38"/>
  <circle cx="16" cy="100" r="20" stroke="rgb(0, 255, 127)" fill="rgb(0, 255, 127)" fill-opacity="0.29"/>
  <rect x="49" y="49" width="36" height="7" stroke="rgb(0, 255, 127)" fill="rgb(0, 255, 127)" fill-opacity="0.54"/>
</svg>
