<?xml version="1.0" encoding="UTF-8" ?>
<!DOCTYPE svg PUBLIC "-//W3C//DTD SVG 1.1//EN" "http://www.w3.org/Graphics/SVG/1.1/DTD/svg11.dtd">
<svg width="100" height="100" xmlns="http://www.w3.org/2000/svg" version="1.1">
  <rect x="0" y="0" width="100" height="100" fill="rgb(70, 130, 180)" fill-opacity="0.5600000000000001"/>
  <circle cx="23" cy="76" r="11" stroke="rgb(70, 130, 180)" fill="rgb(70, 130, 180)" fill-opacity="0.89"/>
  <circle cx="41" cy="28" r="0" stroke="rgb(70, 130, 180)" fill="rgb(70, 130, 180)" fill-opacity="0.7"/>
  <rect x="15" y="42" width="26" height="16" stroke="rgb(70, 130, 180)" fill="rgb(70, 130, 180)" fill-opacity="0.36"/>
  <circle cx="34" cy="7" r="9" stroke="rgb(70, 130, 180)" fill="rgb(70, 130, 180)" fill-opacity="0.38"/>
  <rect x="87" y="21" width="16" height="16" stroke="rgb(70, 130, 180)" fill="rgb(70, 130, 180)" fill-opacity="0.3"/>
  <circle cx="21" cy="5" r="9" stroke="rgb(70, 130, 180)" fill="rgb(70, 130, 180)" fill-opacity="0.97"/>
  <rect x="85" y="16" width="30" height="35" stroke="rgb(70, 130, 180)" fill="rgb(70, 130, 180)" fill-opacity="0.32"/>
  <rect x="4" y="40" width="10" height="24" stroke="rgb(70, 130, 180)" fill="rgb(70, 130, 180)" fill-opacity="0.72"/>
  <rect x="29" y="7" width="6" height="34" stroke="rgb(70, 130, 180)" fill="rgb(70, 130, 180)" fill-opacity="0.38"/>
  <rect x="96" y="29" width="15" height="4" stroke="rgb(70, 130, 180)" fill="rgb(70, 130, 180)" fill-opacity="0.36"/>
  <rect x="94" y="96" width="1" height="8" stroke="rgb(70, 130, 180)" fill="rgb(70, 130, 180)" fill-opacity="0.1"/>
  <circle cx="7" cy="23" r="20" stroke="rgb(70, 130, 180)" fill="rgb(70, 130, 180)" fill-opacity="0.95"/>
  <rect x="9" y="2" width="11" height="36" stroke="rgb(70, 130, 180)" fill="rgb(70, 130, 180)" fill-opacity="0.8"/>
  <rect x="37" y="0" width="20" height="30" stroke="rgb(70, 130, 180)" fill="rgb(70, 130, 180)" fill-opacity="0.55"/>
  <circle cx="53" cy="71" r="6" stroke="rgb(70, 130, 180)" fill="rgb(70, 130, 180)" fill-opacity="0.08"/>
  <rect x="48" y="52" width="25" height="4" stroke="rgb(70, 130, 180)" fill="rgb(70, 130, 180)" fill-opacity="0.05"/>
  <circle cx="4" cy="5" r="16" stroke="rgb(70, 130, 180)" fill="rgb(70, 130, 180)" fill-opacity="0.59"/>
  <rect x="77" y="31" width="6" height="1" stroke="rgb(70, 130, 180)" fill="rgb(70, 130, 180)" fill-opacity="0.19"/>
  <rect x="9" y="48" width="4" height="4" stroke="rgb(70, 130, 180)" fill="rgb(70, 130, 180)" fill-opacity="0.1"/>
  <circle cx="95" cy="93" r="12" stroke="rgb(70, 130, 180)" fill="rgb(70, 130, 180)" fill-opacity="0.7"/>
  <circle cx="88" cy="57" r="3" stroke="rgb(70, 130, 180)" fill="rgb(70, 130, 180)" fill-opacity="0.74"/>
</svg>
