<?xml version="1.0" encoding="UTF-8" ?>
<!DOCTYPE svg PUBLIC "-//W3C//DTD SVG 1.1//EN" "http://www.w3.org/Graphics/SVG/1.1/DTD/svg11.dtd">
<svg width="100" height="100" xmlns="http://www.w3.org/2000/svg" version="1.1">
  <rect x="0" y="0" width="100" height="100" fill="rgb(210, 180, 140)" fill-opacity="0.07000000000000001"/>
  <rect x="64" y="20" width="11" height="36" stroke="rgb(210, 180, 140)" fill="rgb(210, 180, 140)" fill-opacity="0.22"/>
  <circle cx="15" cy="74" r="5" stroke="rgb(210, 180, 140)" fill="rgb(210, 180, 140)" fill-opacity="0.51"/>
  <rect x="1" y="81" width="32" height="35" stroke="rgb(210, 180, 140)" fill="rgb(210, 180, 140)" fill-opacity="0.31"/>
  <circle cx="18" cy="17" r="13" stroke="rgb(210, 180, 140)" fill="rgb(210, 180, 140)" fill-opacity="0.88"/>
  <rect x="55" y="66" width="35" height="8" stroke="rgb(210, 180, 140)" fill="rgb(210, 180, 140)" fill-opacity="0.15"/>
  <circle cx="96" cy="77" r="2" stroke="rgb(210, 180, 140)" fill="rgb(210, 180, 140)" fill-opacity="0.98"/>
  <rect x="10" y="10" width="2" height="7" stroke="rgb(210, 180, 140)" fill="rgb(210, 180, 140)" fill-opacity="0.18"/>
  <circle cx="9" cy="100" r="10" stroke="rgb(210, 180, 140)" fill="rgb(210, 180, 140)" fill-opacity="0.41"/>
  <rect x="80" y="46" width="34" height="20" stroke="rgb(210, 180, 140)" fill="rgb(210, 180, 140)" fill-opacity="0.95"/>
  <rect x="20" y="84" width="3" height="34" stroke="rgb(210, 180, 140)" fill="rgb(210, 180, 140)" fill-opacity="0.27"/>
  <rect x="44" y="83" width="3" height="22" stroke="rgb(210, 180, 140)" fill="rgb(210, 180, 140)" fill-opacity="0.37"/>
  <circle cx="3" cy="31" r="1" stroke="rgb(210, 180, 140)" fill="rgb(210, 180, 140)" fill-opacity="0.21"/>
  <circle cx="50" cy="42" r="3" stroke="rgb(210, 180, 140)" fill="rgb(210, 180, 140)" fill-opacity="0.76"/>
  <circle cx="19" cy="52" r="0" stroke="rgb(210, 180, 140)" fill="rgb(210, 180, 140)" fill-opacity="0.41"/>
  <rect x="13" y="75" width="26" height="9" stroke="rgb(210, 180, 140)" fill="rgb(210, 180, 140)" fill-opacity="0.67"/>
  <circle cx="19" cy="34" r="4" stroke="rgb(210, 180, 140)" fill="rgb(210, 180, 140)" fill-opacity="0.88"/>
  <circle cx="100" cy="78" r="14" stroke="rgb(210, 180, 140)" fill="rgb(210, 180, 140)" fill-opacity="0.58"/>
  <rect x="8" y="4" width="20" height="10" stroke="rgb(210, 180, 140)" fill="rgb(210, 180, 140)" fill-opacity="0.66"/>
  <rect x="53" y="18" width="14" height="7" stroke="rgb(210, 180, 140)" fill="rgb(210, 180, 140)" fill-opacity="0.1"/>
  <circle cx="98" cy="9" r="8" stroke="rgb(210, 180, 140)" fill="rgb(210, 180, 140)" fill-opacity="0.48"/>
  <rect x="33" y="76" width="19" height="3" stroke="rgb(210, 180, 140)" fill="rgb(210, 180, 140)" fill-opacity="0.88"/>
</svg>
