<?xml version="1.0" encoding="UTF-8" ?>
<!DOCTYPE svg PUBLIC "-//W3C//DTD SVG 1.1//EN" "http://www.w3.org/Graphics/SVG/1.1/DTD/svg11.dtd">
<svg width="100" height="100" xmlns="http://www.w3.org/2000/svg" version="1.1">
  <rect x="0" y="0" width="100" height="100" fill="rgb(0, 128, 128)" fill-opacity="0.36"/>
  <rect x="50" y="90" width="35" height="27" stroke="rgb(0, 128, 128)" fill="rgb(0, 128, 128)" fill-opacity="0.86"/>
  <circle cx="7" cy="98" r="18" stroke="rgb(0, 128, 128)" fill="rgb(0, 128, 128)" fill-opacity="0.63"/>
  <circle cx="50" cy="31" r="0" stroke="rgb(0, 128, 128)" fill="rgb(0, 128, 128)" fill-opacity="0.96"/>
  <circle cx="87" cy="85" r="13" stroke="rgb(0, 128, 128)" fill="rgb(0, 128, 128)" fill-opacity="0.66"/>
  <rect x="71" y="43" width="25" height="34" stroke="rgb(0, 128, 128)" fill="rgb(0, 128, 128)" fill-opacity="0.82"/>
  <circle cx="37" cy="3" r="11" stroke="rgb(0, 128, 128)" fill="rgb(0, 128, 128)" fill-opacity="0.01"/>
  <circle cx="73" cy="53" r="4" stroke="rgb(0, 128, 128)" fill="rgb(0, 128, 128)" fill-opacity="0.66"/>
  <circle cx="96" cy="19" r="4" stroke="rgb(0, 128, 128)" fill="rgb(0, 128, 128)" fill-opacity="0.5"/>
  <rect x="48" y="100" width="27" height="14" stroke="rgb(0, 128, 128)" fill="rgb(0, 128, 128)" fill-opacity="0.73"/>
  <circle cx="47" cy="33" r="12" stroke="rgb(0, 128, 128)" fill="rgb(0, 128, 128)" fill-opacity="0.22"/>
  <rect x="8" y="90" width="36" height="32" stroke="rgb(0, 128, 128)" fill="rgb(0, 128, 128)" fill-opacity="0.11"/>
  <rect x="18" y="24" width="40" height="19" stroke="rgb(0, 128, 128)" fill="rgb(0, 128, 128)" fill-opacity="0.02"/>
  <rect x="30" y="67" width="22" height="37" stroke="rgb(0, 128, 128)" fill="rgb(0, 128, 128)" fill-opacity="0.2"/>
  <rect x="23" y="55" width="1" height="30" stroke="rgb(0, 128, 128)" fill="rgb(0, 128, 128)" fill-opacity="0.35"/>
  <rect x="46" y="49" width="5" height="22" stroke="rgb(0, 128, 128)" fill="rgb(0, 128, 128)" fill-opacity="0.29"/>
  <circle cx="65" cy="38" r="13" stroke="rgb(0, 128, 128)" fill="rgb(0, 128, 128)" fill-opacity="0.62"/>
  <circle cx="26" cy="56" r="20" stroke="rgb(0, 128, 128)" fill="rgb(0, 128, 128)" fill-opacity="0.79"/>
  <rect x="17" y="37" width="32" height="24" stroke="rgb(0, 128, 128)" fill="rgb(0, 128, 128)" fill-opacity="0.36"/>
  <rect x="62" y="42" width="20" height="19" stroke="rgb(0, 128, 128)" fill="rgb(0, 128, 128)" fill-opacity="0.98"/>
  <circle cx="96" cy="8" r="7" stroke="rgb(0, 128, 128)" fill="rgb(0, 128, 128)" fill-opacity="0.6"/>
  <rect x="49" y="80" width="27" height="36" stroke="rgb(0, 128, 128)" fill="rgb(0, 128, 128)" fill-opacity="0.58"/>
</svg>
