<?xml version="1.0" encoding="UTF-8" ?>
<!DOCTYPE svg PUBLIC "-//W3C//DTD SVG 1.1//EN" "http://www.w3.org/Graphics/SVG/1.1/DTD/svg11.dtd">
<svg width="100" height="100" xmlns="http://www.w3.org/2000/svg" version="1.1">
  <rect x="0" y="0" width="100" height="100" fill="rgb(216, 191, 216)" fill-opacity="0.54"/>
  <rect x="90" y="41" width="13" height="15" stroke="rgb(216, 191, 216)" fill="rgb(216, 191, 216)" fill-opacity="0.36"/>
  <circle cx="99" cy="10" r="11" stroke="rgb(216, 191, 216)" fill="rgb(216, 191, 216)" fill-opacity="0.49"/>
  <rect x="26" y="18" width="35" height="29" stroke="rgb(216, 191, 216)" fill="rgb(216, 191, 216)" fill-opacity="0.42"/>
  <circle cx="76" cy="77" r="0" stroke="rgb(216, 191, 216)" fill="rgb(216, 191, 216)" fill-opacity="1.0"/>
  <rect x="52" y="31" width="36" height="6" stroke="rgb(216, 191, 216)" fill="rgb(216, 191, 216)" fill-opacity="0.95"/>
  <rect x="86" y="78" width="2" height="19" stroke="rgb(216, 191, 216)" fill="rgb(216, 191, 216)" fill-opacity="0.83"/>
  <rect x="66" y="76" width="4" height="39" stroke="rgb(216, 191, 216)" fill="rgb(216, 191, 216)" fill-opacity="0.14"/>
  <circle cx="82" cy="75" r="17" stroke="rgb(216, 191, 216)" fill="rgb(216, 191, 216)" fill-opacity="0.06"/>
  <circle cx="87" cy="13" r="19" stroke="rgb(216, 191, 216)" fill="rgb(216, 191, 216)" fill-opacity="0.18"/>
  <circle cx="93" cy="79" r="9" stroke="rgb(216, 191, 216)" fill="rgb(216, 191, 216)" fill-opacity="0.28"/>
  <circle cx="17" cy="99" r="5" stroke="rgb(216, 191, 216)" fill="rgb(216, 191, 216)" fill-opacity="0.62"/>
  <rect x="79" y="46" width="26" height="14" stroke="rgb(216, 191, 216)" fill="rgb(216, 191, 216)" fill-opacity="0.5"/>
  <rect x="93" y="74" width="0" height="29" stroke="rgb(216, 191, 216)" fill="rgb(216, 191, 216)" fill-opacity="0.03"/>
  <rect x="76" y="37" width="6" height="38" stroke="rgb(216, 191, 216)" fill="rgb(216, 191, 216)" fill-opacity="0.6899999999999999"/>
  <rect x="81" y="56" width="29" height="31" stroke="rgb(216, 191, 216)" fill="rgb(216, 191, 216)" fill-opacity="0.5600000000000001"/>
  <rect x="67" y="79" width="24" height="27" stroke="rgb(216, 191, 216)" fill="rgb(216, 191, 216)" fill-opacity="0.36"/>
  <rect x="29" y="53" width="21" height="19" stroke="rgb(216, 191, 216)" fill="rgb(216, 191, 216)" fill-opacity="0.05"/>
  <circle cx="8" cy="47" r="18" stroke="rgb(216, 191, 216)" fill="rgb(216, 191, 216)" fill-opacity="0.96"/>
  <circle cx="82" cy="61" r="3" stroke="rgb(216, 191, 216)" fill="rgb(216, 191, 216)" fill-opacity="0.78"/>
  <rect x="33" y="86" width="18" height="7" stroke="rgb(216, 191, 216)" fill="rgb(216, 191, 216)" fill-opacity="0.26"/>
  <rect x="59" y="79" width="37" height="21" stroke="rgb(216, 191, 216)" fill="rgb(216, 191, 216)" fill-opacity="0.71"/>
</svg>
