<?xml version="1.0" encoding="UTF-8" ?>
<!DOCTYPE svg PUBLIC "-//W3C//DTD SVG 1.1//EN" "http://www.w3.org/Graphics/SVG/1.1/DTD/svg11.dtd">
<svg width="100" height="100" xmlns="http://www.w3.org/2000/svg" version="1.1">
  <rect x="0" y="0" width="100" height="100" fill="rgb(255, 99, 71)" fill-opacity="0.6899999999999999"/>
  <circle cx="65" cy="98" r="14" stroke="rgb(255, 99, 71)" fill="rgb(255, 99, 71)" fill-opacity="0.5600000000000001"/>
  <rect x="59" y="22" width="19" height="38" stroke="rgb(255, 99, 71)" fill="rgb(255, 99, 71)" fill-opacity="0.2"/>
  <circle cx="29" cy="75" r="5" stroke="rgb(255, 99, 71)" fill="rgb(255, 99, 71)" fill-opacity="0.36"/>
  <circle cx="3" cy="70" r="3" stroke="rgb(255, 99, 71)" fill="rgb(255, 99, 71)" fill-opacity="0.03"/>
  <rect x="53" y="4" width="25" height="24" stroke="rgb(255, 99, 71)" fill="rgb(255, 99, 71)" fill-opacity="0.4"/>
  <rect x="18" y="53" width="17" height="26" stroke="rgb(255, 99, 71)" fill="rgb(255, 99, 71)" fill-opacity="0.09"/>
  <circle cx="83" cy="42" r="17" stroke="rgb(255, 99, 71)" fill="rgb(255, 99, 71)" fill-opacity="0.6899999999999999"/>
  <rect x="86" y="18" width="12" height="30" stroke="rgb(255, 99, 71)" fill="rgb(255, 99, 71)" fill-opacity="0.09"/>
  <rect x="4" y="70" width="22" height="32" stroke="rgb(255, 99, 71)" fill="rgb(255, 99, 71)" fill-opacity="0.26"/>
  <circle cx="7" cy="43" r="14" stroke="rgb(255, 99, 71)" fill="rgb(255, 99, 71)" fill-opacity="0.43"/>
  <rect x="51" y="33" width="13" height="2" stroke="rgb(255, 99, 71)" fill="rgb(255, 99, 71)" fill-opacity="0.42"/>
  <circle cx="22" cy="60" r="4" stroke="rgb(255, 99, 71)" fill="rgb(255, 99, 71)" fill-opacity="0.17"/>
  <circle cx="88" cy="18" r="8" stroke="rgb(255, 99, 71)" fill="rgb(255, 99, 71)" fill-opacity="0.33"/>
  <rect x="53" y="2" width="13" height="8" stroke="rgb(255, 99, 71)" fill="rgb(255, 99, 71)" fill-opacity="0.63"/>
  <circle cx="45" cy="90" r="12" stroke="rgb(255, 99, 71)" fill="rgb(255, 99, 71)" fill-opacity="0.08"/>
  <circle cx="39" cy="90" r="15" stroke="rgb(255, 99, 71)" fill="rgb(255, 99, 71)" fill-opacity="0.16"/>
  <rect x="39" y="10" width="3" height="16" stroke="rgb(255, 99, 71)" fill="rgb(255, 99, 71)" fill-opacity="0.3"/>
  <circle cx="39" cy="24" r="4" stroke="rgb(255, 99, 71)" fill="rgb(255, 99, 71)" fill-opacity="0.21"/>
  <rect x="18" y="84" width="1" height="34" stroke="rgb(255, 99, 71)" fill="rgb(255, 99, 71)" fill-opacity="0.84"/>
  <circle cx="10" cy="42" r="20" stroke="rgb(255, 99, 71)" fill="rgb(255, 99, 71)" fill-opacity="0.54"/>
  <circle cx="71" cy="95" r="5" stroke="rgb(255, 99, 71)" fill="rgb(255, 99, 71)" fill-opacity="0.6"/>
</svg>
