<?xml version="1.0" encoding="UTF-8" ?>
<!DOCTYPE svg PUBLIC "-//W3C//DTD SVG 1.1//EN" "http://www.w3.org/Graphics/SVG/1.1/DTD/svg11.dtd">
<svg width="100" height="100" xmlns="http://www.w3.org/2000/svg" version="1.1">
  <rect x="0" y="0" width="100" height="100" fill="rgb(64, 224, 208)" fill-opacity="0.17"/>
  <rect x="32" y="53" width="26" height="13" stroke="rgb(64, 224, 208)" fill="rgb(64, 224, 208)" fill-opacity="0.6899999999999999"/>
  <circle cx="75" cy="59" r="11" stroke="rgb(64, 224, 208)" fill="rgb(64, 224, 208)" fill-opacity="0.52"/>
  <circle cx="81" cy="98" r="14" stroke="rgb(64, 224, 208)" fill="rgb(64, 224, 208)" fill-opacity="0.28"/>
  <rect x="73" y="53" width="18" height="19" stroke="rgb(64, 224, 208)" fill="rgb(64, 224, 208)" fill-opacity="0.58"/>
  <rect x="19" y="13" width="10" height="10" stroke="rgb(64, 224, 208)" fill="rgb(64, 224, 208)" fill-opacity="0.67"/>
  <rect x="41" y="72" width="13" height="3" stroke="rgb(64, 224, 208)" fill="rgb(64, 224, 208)" fill-opacity="0.68"/>
  <rect x="87" y="30" width="6" height="7" stroke="rgb(64, 224, 208)" fill="rgb(64, 224, 208)" fill-opacity="0.44"/>
  <circle cx="87" cy="81" r="16" stroke="rgb(64, 224, 208)" fill="rgb(64, 224, 208)" fill-opacity="0.98"/>
  <rect x="13" y="61" width="9" height="0" stroke="rgb(64, 224, 208)" fill="rgb(64, 224, 208)" fill-opacity="0.44"/>
  <circle cx="12" cy="61" r="8" stroke="rgb(64, 224, 208)" fill="rgb(64, 224, 208)" fill-opacity="0.93"/>
  <circle cx="5" cy="47" r="9" stroke="rgb(64, 224, 208)" fill="rgb(64, 224, 208)" fill-opacity="0.04"/>
  <rect x="71" y="64" width="39" height="3" stroke="rgb(64, 224, 208)" fill="rgb(64, 224, 208)" fill-opacity="0.73"/>
  <circle cx="67" cy="51" r="13" stroke="rgb(64, 224, 208)" fill="rgb(64, 224, 208)" fill-opacity="0.11"/>
  <rect x="68" y="3" width="13" height="32" stroke="rgb(64, 224, 208)" fill="rgb(64, 224, 208)" fill-opacity="1.0"/>
  <rect x="14" y="52" width="5" height="14" stroke="rgb(64, 224, 208)" fill="rgb(64, 224, 208)" fill-opacity="0.35"/>
  <circle cx="52" cy="19" r="5" stroke="rgb(64, 224, 208)" fill="rgb(64, 224, 208)" fill-opacity="0.7"/>
  <circle cx="88" cy="82" r="13" stroke="rgb(64, 224, 208)" fill="rgb(64, 224, 208)" fill-opacity="0.32"/>
  <circle cx="60" cy="95" r="2" stroke="rgb(64, 224, 208)" fill="rgb(64, 224, 208)" fill-opacity="0.05"/>
  <rect x="12" y="79" width="6" height="20" stroke="rgb(64, 224, 208)" fill="rgb(64, 224, 208)" fill-opacity="0.36"/>
  <rect x="28" y="60" width="11" height="1" stroke="rgb(64, 224, 208)" fill="rgb(64, 224, 208)" fill-opacity="0.09"/>
  <rect x="37" y="80" width="5" height="14" stroke="rgb(64, 224, 208)" fill="rgb(64, 224, 208)" fill-opacity="0.16"/>
</svg>
