<?xml version="1.0" encoding="UTF-8" ?>
<!DOCTYPE svg PUBLIC "-//W3C//DTD SVG 1.1//EN" "http://www.w3.org/Graphics/SVG/1.1/DTD/svg11.dtd">
<svg width="100" height="100" xmlns="http://www.w3.org/2000/svg" version="1.1">
  <rect x="0" y="0" width="100" height="100" fill="rgb(245, 222, 179)" fill-opacity="0.06"/>
  <circle cx="77" cy="4" r="18" stroke="rgb(245, 222, 179)" fill="rgb(245, 222, 179)" fill-opacity="0.6"/>
  <rect x="96" y="19" width="26" height="40" stroke="rgb(245, 222, 179)" fill="rgb(245, 222, 179)" fill-opacity="0.57"/>
  <rect x="88" y="58" width="14" height="29" stroke="rgb(245, 222, 179)" fill="rgb(245, 222, 179)" fill-opacity="0.16"/>
  <rect x="0" y="15" width="25" height="6" stroke="rgb(245, 222, 179)" fill="rgb(245, 222, 179)" fill-opacity="0.88"/>
  <circle cx="55" cy="36" r="10" stroke="rgb(245, 222, 179)" fill="rgb(245, 222, 179)" fill-opacity="0.51"/>
  <circle cx="68" cy="56" r="9" stroke="rgb(245, 222, 179)" fill="rgb(245, 222, 179)" fill-opacity="0.85"/>
  <circle cx="28" cy="82" r="5" stroke="rgb(245, 222, 179)" fill="rgb(245, 222, 179)" fill-opacity="0.07000000000000001"/>
  <rect x="33" y="84" width="23" height="31" stroke="rgb(245, 222, 179)" fill="rgb(245, 222, 179)" fill-opacity="0.53"/>
  <circle cx="3" cy="85" r="11" stroke="rgb(245, 222, 179)" fill="rgb(245, 222, 179)" fill-opacity="0.14"/>
  <rect x="88" y="40" width="24" height="35" stroke="rgb(245, 222, 179)" fill="rgb(245, 222, 179)" fill-opacity="0.89"/>
  <rect x="13" y="47" width="34" height="38" stroke="rgb(245, 222, 179)" fill="rgb(245, 222, 179)" fill-opacity="0.31"/>
  <rect x="53" y="53" width="19" height="11" stroke="rgb(245, 222, 179)" fill="rgb(245, 222, 179)" fill-opacity="0.39"/>
  <rect x="41" y="58" width="21" height="24" stroke="rgb(245, 222, 179)" fill="rgb(245, 222, 179)" fill-opacity="0.49"/>
  <circle cx="74" cy="43" r="19" stroke="rgb(245, 222, 179)" fill="rgb(245, 222, 179)" fill-opacity="0.38"/>
  <rect x="38" y="22" width="22" height="3" stroke="rgb(245, 222, 179)" fill="rgb(245, 222, 179)" fill-opacity="0.52"/>
  <circle cx="5" cy="100" r="2" stroke="rgb(245, 222, 179)" fill="rgb(245, 222, 179)" fill-opacity="0.59"/>
  <rect x="66" y="97" width="34" height="13" stroke="rgb(245, 222, 179)" fill="rgb(245, 222, 179)" fill-opacity="0.06"/>
  <rect x="99" y="30" width="36" height="18" stroke="rgb(245, 222, 179)" fill="rgb(245, 222, 179)" fill-opacity="0.1"/>
  <rect x="70" y="30" width="4" height="0" stroke="rgb(245, 222, 179)" fill="rgb(245, 222, 179)" fill-opacity="0.42"/>
  <circle cx="33" cy="79" r="12" stroke="rgb(245, 222, 179)" fill="rgb(245, 222, 179)" fill-opacity="0.16"/>
  <rect x="84" y="75" width="12" height="15" stroke="rgb(245, 222, 179)" fill="rgb(245, 222, 179)" fill-opacity="0.66"/>
</svg>
