<?xml version="1.0" encoding="UTF-8" ?>
<!DOCTYPE svg PUBLIC "-//W3C//DTD SVG 1.1//EN" "http://www.w3.org/Graphics/SVG/1.1/DTD/svg11.dtd">
<svg width="100" height="100" xmlns="http://www.w3.org/2000/svg" version="1.1">
  <rect x="0" y="0" width="100" height="100" fill="rgb(245, 245, 245)" fill-opacity="0.14"/>
  <circle cx="100" cy="83" r="15" stroke="rgb(245, 245, 245)" fill="rgb(245, 245, 245)" fill-opacity="0.66"/>
  <circle cx="19" cy="71" r="14" stroke="rgb(245, 245, 245)" fill="rgb(245, 245, 245)" fill-opacity="0.9"/>
  <rect x="56" y="0" width="16" height="33" stroke="rgb(245, 245, 245)" fill="rgb(245, 245, 245)" fill-opacity="0.11"/>
  <circle cx="35" cy="72" r="18" stroke="rgb(245, 245, 245)" fill="rgb(245, 245, 245)" fill-opacity="0.25"/>
  <circle cx="43" cy="72" r="13" stroke="rgb(245, 245, 245)" fill="rgb(245, 245, 245)" fill-opacity="0.14"/>
  <rect x="4" y="1" width="35" height="15" stroke="rgb(245, 245, 245)" fill="rgb(245, 245, 245)" fill-opacity="0.5"/>
  <rect x="27" y="11" width="10" height="4" stroke="rgb(245, 245, 245)" fill="rgb(245, 245, 245)" fill-opacity="0.92"/>
  <circle cx="90" cy="39" r="10" stroke="rgb(245, 245, 245)" fill="rgb(245, 245, 245)" fill-opacity="0.9"/>
  <rect x="48" y="77" width="37" height="3" stroke="rgb(245, 245, 245)" fill="rgb(245, 245, 245)" fill-opacity="0.79"/>
  <circle cx="57" cy="75" r="16" stroke="rgb(245, 245, 245)" fill="rgb(245, 245, 245)" fill-opacity="0.34"/>
  <rect x="19" y="80" width="37" height="39" stroke="rgb(245, 245, 245)" fill="rgb(245, 245, 245)" fill-opacity="0.83"/>
  <rect x="81" y="100" width="33" height="36" stroke="rgb(245, 245, 245)" fill="rgb(245, 245, 245)" fill-opacity="0.93"/>
  <circle cx="98" cy="65" r="5" stroke="rgb(245, 245, 245)" fill="rgb(245, 245, 245)" fill-opacity="0.33"/>
  <circle cx="55" cy="38" r="8" stroke="rgb(245, 245, 245)" fill="rgb(245, 245, 245)" fill-opacity="0.73"/>
  <rect x="62" y="67" width="12" height="18" stroke="rgb(245, 245, 245)" fill="rgb(245, 245, 245)" fill-opacity="0.55"/>
  <circle cx="49" cy="10" r="12" stroke="rgb(245, 245, 245)" fill="rgb(245, 245, 245)" fill-opacity="0.26"/>
  <circle cx="90" cy="0" r="6" stroke="rgb(245, 245, 245)" fill="rgb(245, 245, 245)" fill-opacity="0.9"/>
  <rect x="77" y="32" width="17" height="29" stroke="rgb(245, 245, 245)" fill="rgb(245, 245, 245)" fill-opacity="0.48"/>
  <circle cx="25" cy="2" r="11" stroke="rgb(245, 245, 245)" fill="rgb(245, 245, 245)" fill-opacity="0.78"/>
  <rect x="27" y="12" width="3" height="5" stroke="rgb(245, 245, 245)" fill="rgb(245, 245, 245)" fill-opacity="0.36"/>
  <rect x="4" y="4" width="33" height="8" stroke="rgb(245, 245, 245)" fill="rgb(245, 245, 245)" fill-opacity="0.01"/>
</svg>
