<?xml version="1.0" encoding="UTF-8" ?>
<!DOCTYPE svg PUBLIC "-//W3C//DTD SVG 1.1//EN" "http://www.w3.org/Graphics/SVG/1.1/DTD/svg11.dtd">
<svg width="100" height="100" xmlns="http://www.w3.org/2000/svg" version="1.1">
  <rect x="0" y="0" width="100" height="100" fill="rgb(154, 205, 50)" fill-opacity="0.35"/>
  <circle cx="51" cy="2" r="18" stroke="rgb(154, 205, 50)" fill="rgb(154, 205, 50)" fill-opacity="0.06"/>
  <circle cx="36" cy="70" r="11" stroke="rgb(154, 205, 50)" fill="rgb(154, 205, 50)" fill-opacity="0.88"/>
  <rect x="6" y="94" width="27" height="25" stroke="rgb(154, 205, 50)" fill="rgb(154, 205, 50)" fill-opacity="0.83"/>
  <circle cx="47" cy="64" r="14" stroke="rgb(154, 205, 50)" fill="rgb(154, 205, 50)" fill-opacity="0.14"/>
  <circle cx="37" cy="41" r="6" stroke="rgb(154, 205, 50)" fill="rgb(154, 205, 50)" fill-opacity="0.32"/>
  <rect x="99" y="71" width="25" height="38" stroke="rgb(154, 205, 50)" fill="rgb(154, 205, 50)" fill-opacity="0.97"/>
  <circle cx="70" cy="45" r="7" stroke="rgb(154, 205, 50)" fill="rgb(154, 205, 50)" fill-opacity="0.25"/>
  <rect x="91" y="65" width="0" height="1" stroke="rgb(154, 205, 50)" fill="rgb(154, 205, 50)" fill-opacity="0.91"/>
  <circle cx="87" cy="18" r="3" stroke="rgb(154, 205, 50)" fill="rgb(154, 205, 50)" fill-opacity="0.39"/>
  <rect x="50" y="16" width="3" height="10" stroke="rgb(154, 205, 50)" fill="rgb(154, 205, 50)" fill-opacity="0.23"/>
  <rect x="95" y="71" width="29" height="2" stroke="rgb(154, 205, 50)" fill="rgb(154, 205, 50)" fill-opacity="0.01"/>
  <circle cx="71" cy="52" r="15" stroke="rgb(154, 205, 50)" fill="rgb(154, 205, 50)" fill-opacity="0.08"/>
  <rect x="86" y="100" width="4" height="35" stroke="rgb(154, 205, 50)" fill="rgb(154, 205, 50)" fill-opacity="1.0"/>
  <rect x="95" y="30" width="5" height="18" stroke="rgb(154, 205, 50)" fill="rgb(154, 205, 50)" fill-opacity="0.03"/>
  <rect x="78" y="84" width="16" height="1" stroke="rgb(154, 205, 50)" fill="rgb(154, 205, 50)" fill-opacity="0.17"/>
  <rect x="83" y="71" width="17" height="30" stroke="rgb(154, 205, 50)" fill="rgb(154, 205, 50)" fill-opacity="0.74"/>
  <circle cx="0" cy="71" r="10" stroke="rgb(154, 205, 50)" fill="rgb(154, 205, 50)" fill-opacity="0.65"/>
  <rect x="94" y="20" width="39" height="8" stroke="rgb(154, 205, 50)" fill="rgb(154, 205, 50)" fill-opacity="0.57"/>
  <rect x="6" y="42" width="28" height="3" stroke="rgb(154, 205, 50)" fill="rgb(154, 205, 50)" fill-opacity="0.84"/>
  <rect x="80" y="35" width="5" height="39" stroke="rgb(154, 205, 50)" fill="rgb(154, 205, 50)" fill-opacity="0.25"/>
  <circle cx="49" cy="10" r="10" stroke="rgb(154, 205, 50)" fill="rgb(154, 205, 50)" fill-opacity="0.9"/>
</svg>
