<?xml version="1.0" encoding="UTF-8" ?>
<!DOCTYPE svg PUBLIC "-//W3C//DTD SVG 1.1//EN" "http://www.w3.org/Graphics/SVG/1.1/DTD/svg11.dtd">
<svg width="100" height="100" xmlns="http://www.w3.org/2000/svg" version="1.1">
  <rect x="0" y="0" width="100" height="100" fill="rgb(255, 255, 0)" fill-opacity="0.24"/>
  <circle cx="82" cy="18" r="6" stroke="rgb(255, 255, 0)" fill="rgb(255, 255, 0)" fill-opacity="0.57"/>
  <circle cx="87" cy="82" r="3" stroke="rgb(255, 255, 0)" fill="rgb(255, 255, 0)" fill-opacity="0.2"/>
  <rect x="92" y="16" width="7" height="26" stroke="rgb(255, 255, 0)" fill="rgb(255, 255, 0)" fill-opacity="0.92"/>
  <circle cx="34" cy="96" r="15" stroke="rgb(255, 255, 0)" fill="rgb(255, 255, 0)" fill-opacity="0.76"/>
  <rect x="59" y="74" width="37" height="3" stroke="rgb(255, 255, 0)" fill="rgb(255, 255, 0)" fill-opacity="0.45"/>
  <rect x="99" y="52" width="25" height="9" stroke="rgb(255, 255, 0)" fill="rgb(255, 255, 0)" fill-opacity="0.38"/>
  <rect x="80" y="20" width="13" height="20" stroke="rgb(255, 255, 0)" fill="rgb(255, 255, 0)" fill-opacity="0.42"/>
  <rect x="21" y="73" width="2" height="17" stroke="rgb(255, 255, 0)" fill="rgb(255, 255, 0)" fill-opacity="0.32"/>
  <circle cx="80" cy="70" r="1" stroke="rgb(255, 255, 0)" fill="rgb(255, 255, 0)" fill-opacity="0.84"/>
  <rect x="30" y="43" width="11" height="18" stroke="rgb(255, 255, 0)" fill="rgb(255, 255, 0)" fill-opacity="0.04"/>
  <rect x="47" y="91" width="20" height="7" stroke="rgb(255, 255, 0)" fill="rgb(255, 255, 0)" fill-opacity="0.72"/>
  <rect x="3" y="10" width="40" height="17" stroke="rgb(255, 255, 0)" fill="rgb(255, 255, 0)" fill-opacity="0.82"/>
  <rect x="91" y="21" width="40" height="18" stroke="rgb(255, 255, 0)" fill="rgb(255, 255, 0)" fill-opacity="0.64"/>
  <circle cx="24" cy="16" r="10" stroke="rgb(255, 255, 0)" fill="rgb(255, 255, 0)" fill-opacity="0.0"/>
  <circle cx="67" cy="92" r="14" stroke="rgb(255, 255, 0)" fill="rgb(255, 255, 0)" fill-opacity="0.38"/>
  <rect x="19" y="63" width="22" height="34" stroke="rgb(255, 255, 0)" fill="rgb(255, 255, 0)" fill-opacity="0.82"/>
  <circle cx="16" cy="29" r="10" stroke="rgb(255, 255, 0)" fill="rgb(255, 255, 0)" fill-opacity="0.06"/>
  <circle cx="52" cy="57" r="13" stroke="rgb(255, 255, 0)" fill="rgb(255, 255, 0)" fill-opacity="0.02"/>
  <circle cx="32" cy="28" r="17" stroke="rgb(255, 255, 0)" fill="rgb(255, 255, 0)" fill-opacity="0.82"/>
  <rect x="31" y="61" width="32" height="8" stroke="rgb(255, 255, 0)" fill="rgb(255, 255, 0)" fill-opacity="0.1"/>
  <circle cx="57" cy="86" r="12" stroke="rgb(255, 255, 0)" fill="rgb(255, 255, 0)" fill-opacity="0.85"/>
</svg>
